0
SECTION
2
HEADER
9
$INSUNITS
70
4
0
ENDSEC
0
SECTION
2
TABLES
0
TABLE
2
LTYPE
0
LTYPE
72
65
70
64
2
CONTINUOUS
3
______
73
0
40
0
0
ENDTAB
0
TABLE
2
LAYER
0
ENDTAB
0
ENDSEC
0
SECTION
2
ENTITIES
0
LINE
8
0
10
3.025
20
-2.525
11
16.025
21
-2.525
0
LINE
8
0
10
3.025
20
-16.525
11
16.025
21
-16.525
0
LINE
8
0
10
2.525
20
-3.025
11
2.525
21
-16.025
0
LINE
8
0
10
16.525
20
-3.025
11
16.525
21
-16.025
0
ARC
8
0
10
3.025
20
-3.025
40
0.5
50
90
51
180
0
ARC
8
0
10
16.025
20
-3.025
40
0.5
50
0
51
90
0
ARC
8
0
10
3.025
20
-16.025
40
0.5
50
180
51
270
0
ARC
8
0
10
16.025
20
-16.025
40
0.5
50
270
51
0
0
LINE
8
0
10
22.075
20
-2.525
11
35.075
21
-2.525
0
LINE
8
0
10
22.075
20
-16.525
11
35.075
21
-16.525
0
LINE
8
0
10
21.575
20
-3.025
11
21.575
21
-16.025
0
LINE
8
0
10
35.575
20
-3.025
11
35.575
21
-16.025
0
ARC
8
0
10
22.075
20
-3.025
40
0.5
50
90
51
180
0
ARC
8
0
10
35.075
20
-3.025
40
0.5
50
0
51
90
0
ARC
8
0
10
22.075
20
-16.025
40
0.5
50
180
51
270
0
ARC
8
0
10
35.075
20
-16.025
40
0.5
50
270
51
0
0
LINE
8
0
10
41.125
20
-2.525
11
54.125
21
-2.525
0
LINE
8
0
10
41.125
20
-16.525
11
54.125
21
-16.525
0
LINE
8
0
10
40.625
20
-3.025
11
40.625
21
-16.025
0
LINE
8
0
10
54.625
20
-3.025
11
54.625
21
-16.025
0
ARC
8
0
10
41.125
20
-3.025
40
0.5
50
90
51
180
0
ARC
8
0
10
54.125
20
-3.025
40
0.5
50
0
51
90
0
ARC
8
0
10
41.125
20
-16.025
40
0.5
50
180
51
270
0
ARC
8
0
10
54.125
20
-16.025
40
0.5
50
270
51
0
0
LINE
8
0
10
60.175
20
-2.525
11
73.175
21
-2.525
0
LINE
8
0
10
60.175
20
-16.525
11
73.175
21
-16.525
0
LINE
8
0
10
59.675
20
-3.025
11
59.675
21
-16.025
0
LINE
8
0
10
73.675
20
-3.025
11
73.675
21
-16.025
0
ARC
8
0
10
60.175
20
-3.025
40
0.5
50
90
51
180
0
ARC
8
0
10
73.175
20
-3.025
40
0.5
50
0
51
90
0
ARC
8
0
10
60.175
20
-16.025
40
0.5
50
180
51
270
0
ARC
8
0
10
73.175
20
-16.025
40
0.5
50
270
51
0
0
LINE
8
0
10
79.225
20
-2.525
11
92.225
21
-2.525
0
LINE
8
0
10
79.225
20
-16.525
11
92.225
21
-16.525
0
LINE
8
0
10
78.725
20
-3.025
11
78.725
21
-16.025
0
LINE
8
0
10
92.725
20
-3.025
11
92.725
21
-16.025
0
ARC
8
0
10
79.225
20
-3.025
40
0.5
50
90
51
180
0
ARC
8
0
10
92.225
20
-3.025
40
0.5
50
0
51
90
0
ARC
8
0
10
79.225
20
-16.025
40
0.5
50
180
51
270
0
ARC
8
0
10
92.225
20
-16.025
40
0.5
50
270
51
0
0
LINE
8
0
10
98.275
20
-2.525
11
111.275
21
-2.525
0
LINE
8
0
10
98.275
20
-16.525
11
111.275
21
-16.525
0
LINE
8
0
10
97.775
20
-3.025
11
97.775
21
-16.025
0
LINE
8
0
10
111.775
20
-3.025
11
111.775
21
-16.025
0
ARC
8
0
10
98.275
20
-3.025
40
0.5
50
90
51
180
0
ARC
8
0
10
111.275
20
-3.025
40
0.5
50
0
51
90
0
ARC
8
0
10
98.275
20
-16.025
40
0.5
50
180
51
270
0
ARC
8
0
10
111.275
20
-16.025
40
0.5
50
270
51
0
0
LINE
8
0
10
117.325
20
-2.525
11
130.325
21
-2.525
0
LINE
8
0
10
117.325
20
-16.525
11
130.325
21
-16.525
0
LINE
8
0
10
116.825
20
-3.025
11
116.825
21
-16.025
0
LINE
8
0
10
130.825
20
-3.025
11
130.825
21
-16.025
0
ARC
8
0
10
117.325
20
-3.025
40
0.5
50
90
51
180
0
ARC
8
0
10
130.325
20
-3.025
40
0.5
50
0
51
90
0
ARC
8
0
10
117.325
20
-16.025
40
0.5
50
180
51
270
0
ARC
8
0
10
130.325
20
-16.025
40
0.5
50
270
51
0
0
LINE
8
0
10
136.375
20
-2.525
11
149.375
21
-2.525
0
LINE
8
0
10
136.375
20
-16.525
11
149.375
21
-16.525
0
LINE
8
0
10
135.875
20
-3.025
11
135.875
21
-16.025
0
LINE
8
0
10
149.875
20
-3.025
11
149.875
21
-16.025
0
ARC
8
0
10
136.375
20
-3.025
40
0.5
50
90
51
180
0
ARC
8
0
10
149.375
20
-3.025
40
0.5
50
0
51
90
0
ARC
8
0
10
136.375
20
-16.025
40
0.5
50
180
51
270
0
ARC
8
0
10
149.375
20
-16.025
40
0.5
50
270
51
0
0
LINE
8
0
10
3.025
20
-21.575
11
16.025
21
-21.575
0
LINE
8
0
10
3.025
20
-35.575
11
16.025
21
-35.575
0
LINE
8
0
10
2.525
20
-22.075
11
2.525
21
-35.075
0
LINE
8
0
10
16.525
20
-22.075
11
16.525
21
-35.075
0
ARC
8
0
10
3.025
20
-22.075
40
0.5
50
90
51
180
0
ARC
8
0
10
16.025
20
-22.075
40
0.5
50
0
51
90
0
ARC
8
0
10
3.025
20
-35.075
40
0.5
50
180
51
270
0
ARC
8
0
10
16.025
20
-35.075
40
0.5
50
270
51
0
0
LINE
8
0
10
22.075
20
-21.575
11
35.075
21
-21.575
0
LINE
8
0
10
22.075
20
-35.575
11
35.075
21
-35.575
0
LINE
8
0
10
21.575
20
-22.075
11
21.575
21
-35.075
0
LINE
8
0
10
35.575
20
-22.075
11
35.575
21
-35.075
0
ARC
8
0
10
22.075
20
-22.075
40
0.5
50
90
51
180
0
ARC
8
0
10
35.075
20
-22.075
40
0.5
50
0
51
90
0
ARC
8
0
10
22.075
20
-35.075
40
0.5
50
180
51
270
0
ARC
8
0
10
35.075
20
-35.075
40
0.5
50
270
51
0
0
LINE
8
0
10
41.125
20
-21.575
11
54.125
21
-21.575
0
LINE
8
0
10
41.125
20
-35.575
11
54.125
21
-35.575
0
LINE
8
0
10
40.625
20
-22.075
11
40.625
21
-35.075
0
LINE
8
0
10
54.625
20
-22.075
11
54.625
21
-35.075
0
ARC
8
0
10
41.125
20
-22.075
40
0.5
50
90
51
180
0
ARC
8
0
10
54.125
20
-22.075
40
0.5
50
0
51
90
0
ARC
8
0
10
41.125
20
-35.075
40
0.5
50
180
51
270
0
ARC
8
0
10
54.125
20
-35.075
40
0.5
50
270
51
0
0
LINE
8
0
10
60.175
20
-21.575
11
73.175
21
-21.575
0
LINE
8
0
10
60.175
20
-35.575
11
73.175
21
-35.575
0
LINE
8
0
10
59.675
20
-22.075
11
59.675
21
-35.075
0
LINE
8
0
10
73.675
20
-22.075
11
73.675
21
-35.075
0
ARC
8
0
10
60.175
20
-22.075
40
0.5
50
90
51
180
0
ARC
8
0
10
73.175
20
-22.075
40
0.5
50
0
51
90
0
ARC
8
0
10
60.175
20
-35.075
40
0.5
50
180
51
270
0
ARC
8
0
10
73.175
20
-35.075
40
0.5
50
270
51
0
0
LINE
8
0
10
79.225
20
-21.575
11
92.225
21
-21.575
0
LINE
8
0
10
79.225
20
-35.575
11
92.225
21
-35.575
0
LINE
8
0
10
78.725
20
-22.075
11
78.725
21
-35.075
0
LINE
8
0
10
92.725
20
-22.075
11
92.725
21
-35.075
0
ARC
8
0
10
79.225
20
-22.075
40
0.5
50
90
51
180
0
ARC
8
0
10
92.225
20
-22.075
40
0.5
50
0
51
90
0
ARC
8
0
10
79.225
20
-35.075
40
0.5
50
180
51
270
0
ARC
8
0
10
92.225
20
-35.075
40
0.5
50
270
51
0
0
LINE
8
0
10
98.275
20
-21.575
11
111.275
21
-21.575
0
LINE
8
0
10
98.275
20
-35.575
11
111.275
21
-35.575
0
LINE
8
0
10
97.775
20
-22.075
11
97.775
21
-35.075
0
LINE
8
0
10
111.775
20
-22.075
11
111.775
21
-35.075
0
ARC
8
0
10
98.275
20
-22.075
40
0.5
50
90
51
180
0
ARC
8
0
10
111.275
20
-22.075
40
0.5
50
0
51
90
0
ARC
8
0
10
98.275
20
-35.075
40
0.5
50
180
51
270
0
ARC
8
0
10
111.275
20
-35.075
40
0.5
50
270
51
0
0
LINE
8
0
10
117.325
20
-21.575
11
130.325
21
-21.575
0
LINE
8
0
10
117.325
20
-35.575
11
130.325
21
-35.575
0
LINE
8
0
10
116.825
20
-22.075
11
116.825
21
-35.075
0
LINE
8
0
10
130.825
20
-22.075
11
130.825
21
-35.075
0
ARC
8
0
10
117.325
20
-22.075
40
0.5
50
90
51
180
0
ARC
8
0
10
130.325
20
-22.075
40
0.5
50
0
51
90
0
ARC
8
0
10
117.325
20
-35.075
40
0.5
50
180
51
270
0
ARC
8
0
10
130.325
20
-35.075
40
0.5
50
270
51
0
0
LINE
8
0
10
136.375
20
-21.575
11
149.375
21
-21.575
0
LINE
8
0
10
136.375
20
-35.575
11
149.375
21
-35.575
0
LINE
8
0
10
135.875
20
-22.075
11
135.875
21
-35.075
0
LINE
8
0
10
149.875
20
-22.075
11
149.875
21
-35.075
0
ARC
8
0
10
136.375
20
-22.075
40
0.5
50
90
51
180
0
ARC
8
0
10
149.375
20
-22.075
40
0.5
50
0
51
90
0
ARC
8
0
10
136.375
20
-35.075
40
0.5
50
180
51
270
0
ARC
8
0
10
149.375
20
-35.075
40
0.5
50
270
51
0
0
LINE
8
0
10
3.025
20
-40.625
11
16.025
21
-40.625
0
LINE
8
0
10
3.025
20
-54.625
11
16.025
21
-54.625
0
LINE
8
0
10
2.525
20
-41.125
11
2.525
21
-54.125
0
LINE
8
0
10
16.525
20
-41.125
11
16.525
21
-54.125
0
ARC
8
0
10
3.025
20
-41.125
40
0.5
50
90
51
180
0
ARC
8
0
10
16.025
20
-41.125
40
0.5
50
0
51
90
0
ARC
8
0
10
3.025
20
-54.125
40
0.5
50
180
51
270
0
ARC
8
0
10
16.025
20
-54.125
40
0.5
50
270
51
0
0
LINE
8
0
10
26.8375
20
-40.625
11
39.8375
21
-40.625
0
LINE
8
0
10
26.8375
20
-54.625
11
39.8375
21
-54.625
0
LINE
8
0
10
26.3375
20
-41.125
11
26.3375
21
-54.125
0
LINE
8
0
10
40.3375
20
-41.125
11
40.3375
21
-54.125
0
ARC
8
0
10
26.8375
20
-41.125
40
0.5
50
90
51
180
0
ARC
8
0
10
39.8375
20
-41.125
40
0.5
50
0
51
90
0
ARC
8
0
10
26.8375
20
-54.125
40
0.5
50
180
51
270
0
ARC
8
0
10
39.8375
20
-54.125
40
0.5
50
270
51
0
0
LINE
8
0
10
50.65
20
-40.625
11
63.65
21
-40.625
0
LINE
8
0
10
50.65
20
-54.625
11
63.65
21
-54.625
0
LINE
8
0
10
50.15
20
-41.125
11
50.15
21
-54.125
0
LINE
8
0
10
64.15
20
-41.125
11
64.15
21
-54.125
0
ARC
8
0
10
50.65
20
-41.125
40
0.5
50
90
51
180
0
ARC
8
0
10
63.65
20
-41.125
40
0.5
50
0
51
90
0
ARC
8
0
10
50.65
20
-54.125
40
0.5
50
180
51
270
0
ARC
8
0
10
63.65
20
-54.125
40
0.5
50
270
51
0
0
LINE
8
0
10
69.7
20
-40.625
11
82.7
21
-40.625
0
LINE
8
0
10
69.7
20
-54.625
11
82.7
21
-54.625
0
LINE
8
0
10
69.2
20
-41.125
11
69.2
21
-54.125
0
LINE
8
0
10
83.2
20
-41.125
11
83.2
21
-54.125
0
ARC
8
0
10
69.7
20
-41.125
40
0.5
50
90
51
180
0
ARC
8
0
10
82.7
20
-41.125
40
0.5
50
0
51
90
0
ARC
8
0
10
69.7
20
-54.125
40
0.5
50
180
51
270
0
ARC
8
0
10
82.7
20
-54.125
40
0.5
50
270
51
0
0
LINE
8
0
10
88.75
20
-40.625
11
101.75
21
-40.625
0
LINE
8
0
10
88.75
20
-54.625
11
101.75
21
-54.625
0
LINE
8
0
10
88.25
20
-41.125
11
88.25
21
-54.125
0
LINE
8
0
10
102.25
20
-41.125
11
102.25
21
-54.125
0
ARC
8
0
10
88.75
20
-41.125
40
0.5
50
90
51
180
0
ARC
8
0
10
101.75
20
-41.125
40
0.5
50
0
51
90
0
ARC
8
0
10
88.75
20
-54.125
40
0.5
50
180
51
270
0
ARC
8
0
10
101.75
20
-54.125
40
0.5
50
270
51
0
0
LINE
8
0
10
107.8
20
-40.625
11
120.8
21
-40.625
0
LINE
8
0
10
107.8
20
-54.625
11
120.8
21
-54.625
0
LINE
8
0
10
107.3
20
-41.125
11
107.3
21
-54.125
0
LINE
8
0
10
121.3
20
-41.125
11
121.3
21
-54.125
0
ARC
8
0
10
107.8
20
-41.125
40
0.5
50
90
51
180
0
ARC
8
0
10
120.8
20
-41.125
40
0.5
50
0
51
90
0
ARC
8
0
10
107.8
20
-54.125
40
0.5
50
180
51
270
0
ARC
8
0
10
120.8
20
-54.125
40
0.5
50
270
51
0
0
LINE
8
0
10
126.85
20
-40.625
11
139.85
21
-40.625
0
LINE
8
0
10
126.85
20
-54.625
11
139.85
21
-54.625
0
LINE
8
0
10
126.35
20
-41.125
11
126.35
21
-54.125
0
LINE
8
0
10
140.35
20
-41.125
11
140.35
21
-54.125
0
ARC
8
0
10
126.85
20
-41.125
40
0.5
50
90
51
180
0
ARC
8
0
10
139.85
20
-41.125
40
0.5
50
0
51
90
0
ARC
8
0
10
126.85
20
-54.125
40
0.5
50
180
51
270
0
ARC
8
0
10
139.85
20
-54.125
40
0.5
50
270
51
0
0
LINE
8
0
10
3.025
20
-59.675
11
16.025
21
-59.675
0
LINE
8
0
10
3.025
20
-73.675
11
16.025
21
-73.675
0
LINE
8
0
10
2.525
20
-60.175
11
2.525
21
-73.175
0
LINE
8
0
10
16.525
20
-60.175
11
16.525
21
-73.175
0
ARC
8
0
10
3.025
20
-60.175
40
0.5
50
90
51
180
0
ARC
8
0
10
16.025
20
-60.175
40
0.5
50
0
51
90
0
ARC
8
0
10
3.025
20
-73.175
40
0.5
50
180
51
270
0
ARC
8
0
10
16.025
20
-73.175
40
0.5
50
270
51
0
0
LINE
8
0
10
29.21875
20
-59.675
11
42.21875
21
-59.675
0
LINE
8
0
10
29.21875
20
-73.675
11
42.21875
21
-73.675
0
LINE
8
0
10
28.71875
20
-60.175
11
28.71875
21
-73.175
0
LINE
8
0
10
42.71875
20
-60.175
11
42.71875
21
-73.175
0
ARC
8
0
10
29.21875
20
-60.175
40
0.5
50
90
51
180
0
ARC
8
0
10
42.21875
20
-60.175
40
0.5
50
0
51
90
0
ARC
8
0
10
29.21875
20
-73.175
40
0.5
50
180
51
270
0
ARC
8
0
10
42.21875
20
-73.175
40
0.5
50
270
51
0
0
LINE
8
0
10
55.4125
20
-59.675
11
68.4125
21
-59.675
0
LINE
8
0
10
55.4125
20
-73.675
11
68.4125
21
-73.675
0
LINE
8
0
10
54.9125
20
-60.175
11
54.9125
21
-73.175
0
LINE
8
0
10
68.9125
20
-60.175
11
68.9125
21
-73.175
0
ARC
8
0
10
55.4125
20
-60.175
40
0.5
50
90
51
180
0
ARC
8
0
10
68.4125
20
-60.175
40
0.5
50
0
51
90
0
ARC
8
0
10
55.4125
20
-73.175
40
0.5
50
180
51
270
0
ARC
8
0
10
68.4125
20
-73.175
40
0.5
50
270
51
0
0
LINE
8
0
10
74.4625
20
-59.675
11
87.4625
21
-59.675
0
LINE
8
0
10
74.4625
20
-73.675
11
87.4625
21
-73.675
0
LINE
8
0
10
73.9625
20
-60.175
11
73.9625
21
-73.175
0
LINE
8
0
10
87.9625
20
-60.175
11
87.9625
21
-73.175
0
ARC
8
0
10
74.4625
20
-60.175
40
0.5
50
90
51
180
0
ARC
8
0
10
87.4625
20
-60.175
40
0.5
50
0
51
90
0
ARC
8
0
10
74.4625
20
-73.175
40
0.5
50
180
51
270
0
ARC
8
0
10
87.4625
20
-73.175
40
0.5
50
270
51
0
0
LINE
8
0
10
93.5125
20
-59.675
11
106.5125
21
-59.675
0
LINE
8
0
10
93.5125
20
-73.675
11
106.5125
21
-73.675
0
LINE
8
0
10
93.0125
20
-60.175
11
93.0125
21
-73.175
0
LINE
8
0
10
107.0125
20
-60.175
11
107.0125
21
-73.175
0
ARC
8
0
10
93.5125
20
-60.175
40
0.5
50
90
51
180
0
ARC
8
0
10
106.5125
20
-60.175
40
0.5
50
0
51
90
0
ARC
8
0
10
93.5125
20
-73.175
40
0.5
50
180
51
270
0
ARC
8
0
10
106.5125
20
-73.175
40
0.5
50
270
51
0
0
LINE
8
0
10
112.5625
20
-59.675
11
125.5625
21
-59.675
0
LINE
8
0
10
112.5625
20
-73.675
11
125.5625
21
-73.675
0
LINE
8
0
10
112.0625
20
-60.175
11
112.0625
21
-73.175
0
LINE
8
0
10
126.0625
20
-60.175
11
126.0625
21
-73.175
0
ARC
8
0
10
112.5625
20
-60.175
40
0.5
50
90
51
180
0
ARC
8
0
10
125.5625
20
-60.175
40
0.5
50
0
51
90
0
ARC
8
0
10
112.5625
20
-73.175
40
0.5
50
180
51
270
0
ARC
8
0
10
125.5625
20
-73.175
40
0.5
50
270
51
0
0
LINE
8
0
10
131.6125
20
-59.675
11
144.6125
21
-59.675
0
LINE
8
0
10
131.6125
20
-73.675
11
144.6125
21
-73.675
0
LINE
8
0
10
131.1125
20
-60.175
11
131.1125
21
-73.175
0
LINE
8
0
10
145.1125
20
-60.175
11
145.1125
21
-73.175
0
ARC
8
0
10
131.6125
20
-60.175
40
0.5
50
90
51
180
0
ARC
8
0
10
144.6125
20
-60.175
40
0.5
50
0
51
90
0
ARC
8
0
10
131.6125
20
-73.175
40
0.5
50
180
51
270
0
ARC
8
0
10
144.6125
20
-73.175
40
0.5
50
270
51
0
0
LINE
8
0
10
3.025
20
-78.725
11
16.025
21
-78.725
0
LINE
8
0
10
3.025
20
-92.725
11
16.025
21
-92.725
0
LINE
8
0
10
2.525
20
-79.225
11
2.525
21
-92.225
0
LINE
8
0
10
16.525
20
-79.225
11
16.525
21
-92.225
0
ARC
8
0
10
3.025
20
-79.225
40
0.5
50
90
51
180
0
ARC
8
0
10
16.025
20
-79.225
40
0.5
50
0
51
90
0
ARC
8
0
10
3.025
20
-92.225
40
0.5
50
180
51
270
0
ARC
8
0
10
16.025
20
-92.225
40
0.5
50
270
51
0
0
LINE
8
0
10
33.98125
20
-78.725
11
46.98125
21
-78.725
0
LINE
8
0
10
33.98125
20
-92.725
11
46.98125
21
-92.725
0
LINE
8
0
10
33.48125
20
-79.225
11
33.48125
21
-92.225
0
LINE
8
0
10
47.48125
20
-79.225
11
47.48125
21
-92.225
0
ARC
8
0
10
33.98125
20
-79.225
40
0.5
50
90
51
180
0
ARC
8
0
10
46.98125
20
-79.225
40
0.5
50
0
51
90
0
ARC
8
0
10
33.98125
20
-92.225
40
0.5
50
180
51
270
0
ARC
8
0
10
46.98125
20
-92.225
40
0.5
50
270
51
0
0
LINE
8
0
10
25.54325
20
-79.725
11
31.54325
21
-79.725
0
LINE
8
0
10
25.54325
20
-94.725
11
31.54325
21
-94.725
0
LINE
8
0
10
25.04325
20
-80.225
11
25.04325
21
-94.225
0
LINE
8
0
10
32.04325
20
-80.225
11
32.04325
21
-94.225
0
ARC
8
0
10
25.54325
20
-80.225
40
0.5
50
90
51
180
0
ARC
8
0
10
31.54325
20
-80.225
40
0.5
50
0
51
90
0
ARC
8
0
10
25.54325
20
-94.225
40
0.5
50
180
51
270
0
ARC
8
0
10
31.54325
20
-94.225
40
0.5
50
270
51
0
0
LINE
8
0
10
49.41925
20
-79.725
11
55.41925
21
-79.725
0
LINE
8
0
10
49.41925
20
-94.725
11
55.41925
21
-94.725
0
LINE
8
0
10
48.91925
20
-80.225
11
48.91925
21
-94.225
0
LINE
8
0
10
55.91925
20
-80.225
11
55.91925
21
-94.225
0
ARC
8
0
10
49.41925
20
-80.225
40
0.5
50
90
51
180
0
ARC
8
0
10
55.41925
20
-80.225
40
0.5
50
0
51
90
0
ARC
8
0
10
49.41925
20
-94.225
40
0.5
50
180
51
270
0
ARC
8
0
10
55.41925
20
-94.225
40
0.5
50
270
51
0
0
LINE
8
0
10
64.9375
20
-78.725
11
77.9375
21
-78.725
0
LINE
8
0
10
64.9375
20
-92.725
11
77.9375
21
-92.725
0
LINE
8
0
10
64.4375
20
-79.225
11
64.4375
21
-92.225
0
LINE
8
0
10
78.4375
20
-79.225
11
78.4375
21
-92.225
0
ARC
8
0
10
64.9375
20
-79.225
40
0.5
50
90
51
180
0
ARC
8
0
10
77.9375
20
-79.225
40
0.5
50
0
51
90
0
ARC
8
0
10
64.9375
20
-92.225
40
0.5
50
180
51
270
0
ARC
8
0
10
77.9375
20
-92.225
40
0.5
50
270
51
0
0
LINE
8
0
10
83.9875
20
-78.725
11
96.9875
21
-78.725
0
LINE
8
0
10
83.9875
20
-92.725
11
96.9875
21
-92.725
0
LINE
8
0
10
83.4875
20
-79.225
11
83.4875
21
-92.225
0
LINE
8
0
10
97.4875
20
-79.225
11
97.4875
21
-92.225
0
ARC
8
0
10
83.9875
20
-79.225
40
0.5
50
90
51
180
0
ARC
8
0
10
96.9875
20
-79.225
40
0.5
50
0
51
90
0
ARC
8
0
10
83.9875
20
-92.225
40
0.5
50
180
51
270
0
ARC
8
0
10
96.9875
20
-92.225
40
0.5
50
270
51
0
0
LINE
8
0
10
103.0375
20
-78.725
11
116.0375
21
-78.725
0
LINE
8
0
10
103.0375
20
-92.725
11
116.0375
21
-92.725
0
LINE
8
0
10
102.5375
20
-79.225
11
102.5375
21
-92.225
0
LINE
8
0
10
116.5375
20
-79.225
11
116.5375
21
-92.225
0
ARC
8
0
10
103.0375
20
-79.225
40
0.5
50
90
51
180
0
ARC
8
0
10
116.0375
20
-79.225
40
0.5
50
0
51
90
0
ARC
8
0
10
103.0375
20
-92.225
40
0.5
50
180
51
270
0
ARC
8
0
10
116.0375
20
-92.225
40
0.5
50
270
51
0
0
LINE
8
0
10
122.0875
20
-78.725
11
135.0875
21
-78.725
0
LINE
8
0
10
122.0875
20
-92.725
11
135.0875
21
-92.725
0
LINE
8
0
10
121.5875
20
-79.225
11
121.5875
21
-92.225
0
LINE
8
0
10
135.5875
20
-79.225
11
135.5875
21
-92.225
0
ARC
8
0
10
122.0875
20
-79.225
40
0.5
50
90
51
180
0
ARC
8
0
10
135.0875
20
-79.225
40
0.5
50
0
51
90
0
ARC
8
0
10
122.0875
20
-92.225
40
0.5
50
180
51
270
0
ARC
8
0
10
135.0875
20
-92.225
40
0.5
50
270
51
0
0
LINE
8
0
10
141.1375
20
-78.725
11
154.1375
21
-78.725
0
LINE
8
0
10
141.1375
20
-92.725
11
154.1375
21
-92.725
0
LINE
8
0
10
140.6375
20
-79.225
11
140.6375
21
-92.225
0
LINE
8
0
10
154.6375
20
-79.225
11
154.6375
21
-92.225
0
ARC
8
0
10
141.1375
20
-79.225
40
0.5
50
90
51
180
0
ARC
8
0
10
154.1375
20
-79.225
40
0.5
50
0
51
90
0
ARC
8
0
10
141.1375
20
-92.225
40
0.5
50
180
51
270
0
ARC
8
0
10
154.1375
20
-92.225
40
0.5
50
270
51
0
0
LINE
8
0
10
3.025
20
-97.775
11
16.025
21
-97.775
0
LINE
8
0
10
3.025
20
-111.775
11
16.025
21
-111.775
0
LINE
8
0
10
2.525
20
-98.275
11
2.525
21
-111.275
0
LINE
8
0
10
16.525
20
-98.275
11
16.525
21
-111.275
0
ARC
8
0
10
3.025
20
-98.275
40
0.5
50
90
51
180
0
ARC
8
0
10
16.025
20
-98.275
40
0.5
50
0
51
90
0
ARC
8
0
10
3.025
20
-111.275
40
0.5
50
180
51
270
0
ARC
8
0
10
16.025
20
-111.275
40
0.5
50
270
51
0
0
LINE
8
0
10
24.45625
20
-97.775
11
37.45625
21
-97.775
0
LINE
8
0
10
24.45625
20
-111.775
11
37.45625
21
-111.775
0
LINE
8
0
10
23.95625
20
-98.275
11
23.95625
21
-111.275
0
LINE
8
0
10
37.95625
20
-98.275
11
37.95625
21
-111.275
0
ARC
8
0
10
24.45625
20
-98.275
40
0.5
50
90
51
180
0
ARC
8
0
10
37.45625
20
-98.275
40
0.5
50
0
51
90
0
ARC
8
0
10
24.45625
20
-111.275
40
0.5
50
180
51
270
0
ARC
8
0
10
37.45625
20
-111.275
40
0.5
50
270
51
0
0
LINE
8
0
10
48.26875
20
-97.775
11
61.26875
21
-97.775
0
LINE
8
0
10
48.26875
20
-111.775
11
61.26875
21
-111.775
0
LINE
8
0
10
47.76875
20
-98.275
11
47.76875
21
-111.275
0
LINE
8
0
10
61.76875
20
-98.275
11
61.76875
21
-111.275
0
ARC
8
0
10
48.26875
20
-98.275
40
0.5
50
90
51
180
0
ARC
8
0
10
61.26875
20
-98.275
40
0.5
50
0
51
90
0
ARC
8
0
10
48.26875
20
-111.275
40
0.5
50
180
51
270
0
ARC
8
0
10
61.26875
20
-111.275
40
0.5
50
270
51
0
0
LINE
8
0
10
72.08125
20
-97.775
11
85.08125
21
-97.775
0
LINE
8
0
10
72.08125
20
-111.775
11
85.08125
21
-111.775
0
LINE
8
0
10
71.58125
20
-98.275
11
71.58125
21
-111.275
0
LINE
8
0
10
85.58125
20
-98.275
11
85.58125
21
-111.275
0
ARC
8
0
10
72.08125
20
-98.275
40
0.5
50
90
51
180
0
ARC
8
0
10
85.08125
20
-98.275
40
0.5
50
0
51
90
0
ARC
8
0
10
72.08125
20
-111.275
40
0.5
50
180
51
270
0
ARC
8
0
10
85.08125
20
-111.275
40
0.5
50
270
51
0
0
LINE
8
0
10
105.41875
20
-97.775
11
118.41875
21
-97.775
0
LINE
8
0
10
105.41875
20
-111.775
11
118.41875
21
-111.775
0
LINE
8
0
10
104.91875
20
-98.275
11
104.91875
21
-111.275
0
LINE
8
0
10
118.91875
20
-98.275
11
118.91875
21
-111.275
0
ARC
8
0
10
105.41875
20
-98.275
40
0.5
50
90
51
180
0
ARC
8
0
10
118.41875
20
-98.275
40
0.5
50
0
51
90
0
ARC
8
0
10
105.41875
20
-111.275
40
0.5
50
180
51
270
0
ARC
8
0
10
118.41875
20
-111.275
40
0.5
50
270
51
0
0
LINE
8
0
10
96.98075
20
-98.775
11
102.98075
21
-98.775
0
LINE
8
0
10
96.98075
20
-113.775
11
102.98075
21
-113.775
0
LINE
8
0
10
96.48075
20
-99.275
11
96.48075
21
-113.275
0
LINE
8
0
10
103.48075
20
-99.275
11
103.48075
21
-113.275
0
ARC
8
0
10
96.98075
20
-99.275
40
0.5
50
90
51
180
0
ARC
8
0
10
102.98075
20
-99.275
40
0.5
50
0
51
90
0
ARC
8
0
10
96.98075
20
-113.275
40
0.5
50
180
51
270
0
ARC
8
0
10
102.98075
20
-113.275
40
0.5
50
270
51
0
0
LINE
8
0
10
120.85675
20
-98.775
11
126.85675
21
-98.775
0
LINE
8
0
10
120.85675
20
-113.775
11
126.85675
21
-113.775
0
LINE
8
0
10
120.35675
20
-99.275
11
120.35675
21
-113.275
0
LINE
8
0
10
127.35675
20
-99.275
11
127.35675
21
-113.275
0
ARC
8
0
10
120.85675
20
-99.275
40
0.5
50
90
51
180
0
ARC
8
0
10
126.85675
20
-99.275
40
0.5
50
0
51
90
0
ARC
8
0
10
120.85675
20
-113.275
40
0.5
50
180
51
270
0
ARC
8
0
10
126.85675
20
-113.275
40
0.5
50
270
51
0
0
LINE
8
0
10
0
20
-114.3
11
157.1625
21
-114.3
0
LINE
8
0
10
0
20
0
11
157.1625
21
0
0
LINE
8
0
10
0
20
-114.3
11
0
21
0
0
LINE
8
0
10
157.1625
20
-114.3
11
157.1625
21
0
0
ENDSEC
0
EOF