0
SECTION
2
HEADER
9
$INSUNITS
70
4
0
ENDSEC
0
SECTION
2
TABLES
0
TABLE
2
LTYPE
0
LTYPE
72
65
70
64
2
CONTINUOUS
3
______
73
0
40
0
0
ENDTAB
0
TABLE
2
LAYER
0
ENDTAB
0
ENDSEC
0
SECTION
2
ENTITIES
0
LINE
8
0
10
22.075
20
-2.525
11
35.075
21
-2.525
0
LINE
8
0
10
22.075
20
-16.525
11
35.075
21
-16.525
0
LINE
8
0
10
21.575
20
-3.025
11
21.575
21
-16.025
0
LINE
8
0
10
35.575
20
-3.025
11
35.575
21
-16.025
0
ARC
8
0
10
22.075
20
-3.025
40
0.5
50
90
51
180
0
ARC
8
0
10
35.075
20
-3.025
40
0.5
50
0
51
90
0
ARC
8
0
10
22.075
20
-16.025
40
0.5
50
180
51
270
0
ARC
8
0
10
35.075
20
-16.025
40
0.5
50
270
51
0
0
LINE
8
0
10
41.125
20
-2.525
11
54.125
21
-2.525
0
LINE
8
0
10
41.125
20
-16.525
11
54.125
21
-16.525
0
LINE
8
0
10
40.625
20
-3.025
11
40.625
21
-16.025
0
LINE
8
0
10
54.625
20
-3.025
11
54.625
21
-16.025
0
ARC
8
0
10
41.125
20
-3.025
40
0.5
50
90
51
180
0
ARC
8
0
10
54.125
20
-3.025
40
0.5
50
0
51
90
0
ARC
8
0
10
41.125
20
-16.025
40
0.5
50
180
51
270
0
ARC
8
0
10
54.125
20
-16.025
40
0.5
50
270
51
0
0
LINE
8
0
10
60.175
20
-2.525
11
73.175
21
-2.525
0
LINE
8
0
10
60.175
20
-16.525
11
73.175
21
-16.525
0
LINE
8
0
10
59.675
20
-3.025
11
59.675
21
-16.025
0
LINE
8
0
10
73.675
20
-3.025
11
73.675
21
-16.025
0
ARC
8
0
10
60.175
20
-3.025
40
0.5
50
90
51
180
0
ARC
8
0
10
73.175
20
-3.025
40
0.5
50
0
51
90
0
ARC
8
0
10
60.175
20
-16.025
40
0.5
50
180
51
270
0
ARC
8
0
10
73.175
20
-16.025
40
0.5
50
270
51
0
0
LINE
8
0
10
79.225
20
-2.525
11
92.225
21
-2.525
0
LINE
8
0
10
79.225
20
-16.525
11
92.225
21
-16.525
0
LINE
8
0
10
78.725
20
-3.025
11
78.725
21
-16.025
0
LINE
8
0
10
92.725
20
-3.025
11
92.725
21
-16.025
0
ARC
8
0
10
79.225
20
-3.025
40
0.5
50
90
51
180
0
ARC
8
0
10
92.225
20
-3.025
40
0.5
50
0
51
90
0
ARC
8
0
10
79.225
20
-16.025
40
0.5
50
180
51
270
0
ARC
8
0
10
92.225
20
-16.025
40
0.5
50
270
51
0
0
LINE
8
0
10
98.275
20
-2.525
11
111.275
21
-2.525
0
LINE
8
0
10
98.275
20
-16.525
11
111.275
21
-16.525
0
LINE
8
0
10
97.775
20
-3.025
11
97.775
21
-16.025
0
LINE
8
0
10
111.775
20
-3.025
11
111.775
21
-16.025
0
ARC
8
0
10
98.275
20
-3.025
40
0.5
50
90
51
180
0
ARC
8
0
10
111.275
20
-3.025
40
0.5
50
0
51
90
0
ARC
8
0
10
98.275
20
-16.025
40
0.5
50
180
51
270
0
ARC
8
0
10
111.275
20
-16.025
40
0.5
50
270
51
0
0
LINE
8
0
10
117.325
20
-2.525
11
130.325
21
-2.525
0
LINE
8
0
10
117.325
20
-16.525
11
130.325
21
-16.525
0
LINE
8
0
10
116.825
20
-3.025
11
116.825
21
-16.025
0
LINE
8
0
10
130.825
20
-3.025
11
130.825
21
-16.025
0
ARC
8
0
10
117.325
20
-3.025
40
0.5
50
90
51
180
0
ARC
8
0
10
130.325
20
-3.025
40
0.5
50
0
51
90
0
ARC
8
0
10
117.325
20
-16.025
40
0.5
50
180
51
270
0
ARC
8
0
10
130.325
20
-16.025
40
0.5
50
270
51
0
0
LINE
8
0
10
136.375
20
-2.525
11
149.375
21
-2.525
0
LINE
8
0
10
136.375
20
-16.525
11
149.375
21
-16.525
0
LINE
8
0
10
135.875
20
-3.025
11
135.875
21
-16.025
0
LINE
8
0
10
149.875
20
-3.025
11
149.875
21
-16.025
0
ARC
8
0
10
136.375
20
-3.025
40
0.5
50
90
51
180
0
ARC
8
0
10
149.375
20
-3.025
40
0.5
50
0
51
90
0
ARC
8
0
10
136.375
20
-16.025
40
0.5
50
180
51
270
0
ARC
8
0
10
149.375
20
-16.025
40
0.5
50
270
51
0
0
LINE
8
0
10
155.425
20
-2.525
11
168.425
21
-2.525
0
LINE
8
0
10
155.425
20
-16.525
11
168.425
21
-16.525
0
LINE
8
0
10
154.925
20
-3.025
11
154.925
21
-16.025
0
LINE
8
0
10
168.925
20
-3.025
11
168.925
21
-16.025
0
ARC
8
0
10
155.425
20
-3.025
40
0.5
50
90
51
180
0
ARC
8
0
10
168.425
20
-3.025
40
0.5
50
0
51
90
0
ARC
8
0
10
155.425
20
-16.025
40
0.5
50
180
51
270
0
ARC
8
0
10
168.425
20
-16.025
40
0.5
50
270
51
0
0
LINE
8
0
10
174.475
20
-2.525
11
187.475
21
-2.525
0
LINE
8
0
10
174.475
20
-16.525
11
187.475
21
-16.525
0
LINE
8
0
10
173.975
20
-3.025
11
173.975
21
-16.025
0
LINE
8
0
10
187.975
20
-3.025
11
187.975
21
-16.025
0
ARC
8
0
10
174.475
20
-3.025
40
0.5
50
90
51
180
0
ARC
8
0
10
187.475
20
-3.025
40
0.5
50
0
51
90
0
ARC
8
0
10
174.475
20
-16.025
40
0.5
50
180
51
270
0
ARC
8
0
10
187.475
20
-16.025
40
0.5
50
270
51
0
0
LINE
8
0
10
22.075
20
-21.575
11
35.075
21
-21.575
0
LINE
8
0
10
22.075
20
-35.575
11
35.075
21
-35.575
0
LINE
8
0
10
21.575
20
-22.075
11
21.575
21
-35.075
0
LINE
8
0
10
35.575
20
-22.075
11
35.575
21
-35.075
0
ARC
8
0
10
22.075
20
-22.075
40
0.5
50
90
51
180
0
ARC
8
0
10
35.075
20
-22.075
40
0.5
50
0
51
90
0
ARC
8
0
10
22.075
20
-35.075
40
0.5
50
180
51
270
0
ARC
8
0
10
35.075
20
-35.075
40
0.5
50
270
51
0
0
LINE
8
0
10
41.125
20
-21.575
11
54.125
21
-21.575
0
LINE
8
0
10
41.125
20
-35.575
11
54.125
21
-35.575
0
LINE
8
0
10
40.625
20
-22.075
11
40.625
21
-35.075
0
LINE
8
0
10
54.625
20
-22.075
11
54.625
21
-35.075
0
ARC
8
0
10
41.125
20
-22.075
40
0.5
50
90
51
180
0
ARC
8
0
10
54.125
20
-22.075
40
0.5
50
0
51
90
0
ARC
8
0
10
41.125
20
-35.075
40
0.5
50
180
51
270
0
ARC
8
0
10
54.125
20
-35.075
40
0.5
50
270
51
0
0
LINE
8
0
10
60.175
20
-21.575
11
73.175
21
-21.575
0
LINE
8
0
10
60.175
20
-35.575
11
73.175
21
-35.575
0
LINE
8
0
10
59.675
20
-22.075
11
59.675
21
-35.075
0
LINE
8
0
10
73.675
20
-22.075
11
73.675
21
-35.075
0
ARC
8
0
10
60.175
20
-22.075
40
0.5
50
90
51
180
0
ARC
8
0
10
73.175
20
-22.075
40
0.5
50
0
51
90
0
ARC
8
0
10
60.175
20
-35.075
40
0.5
50
180
51
270
0
ARC
8
0
10
73.175
20
-35.075
40
0.5
50
270
51
0
0
LINE
8
0
10
79.225
20
-21.575
11
92.225
21
-21.575
0
LINE
8
0
10
79.225
20
-35.575
11
92.225
21
-35.575
0
LINE
8
0
10
78.725
20
-22.075
11
78.725
21
-35.075
0
LINE
8
0
10
92.725
20
-22.075
11
92.725
21
-35.075
0
ARC
8
0
10
79.225
20
-22.075
40
0.5
50
90
51
180
0
ARC
8
0
10
92.225
20
-22.075
40
0.5
50
0
51
90
0
ARC
8
0
10
79.225
20
-35.075
40
0.5
50
180
51
270
0
ARC
8
0
10
92.225
20
-35.075
40
0.5
50
270
51
0
0
LINE
8
0
10
98.275
20
-21.575
11
111.275
21
-21.575
0
LINE
8
0
10
98.275
20
-35.575
11
111.275
21
-35.575
0
LINE
8
0
10
97.775
20
-22.075
11
97.775
21
-35.075
0
LINE
8
0
10
111.775
20
-22.075
11
111.775
21
-35.075
0
ARC
8
0
10
98.275
20
-22.075
40
0.5
50
90
51
180
0
ARC
8
0
10
111.275
20
-22.075
40
0.5
50
0
51
90
0
ARC
8
0
10
98.275
20
-35.075
40
0.5
50
180
51
270
0
ARC
8
0
10
111.275
20
-35.075
40
0.5
50
270
51
0
0
LINE
8
0
10
117.325
20
-21.575
11
130.325
21
-21.575
0
LINE
8
0
10
117.325
20
-35.575
11
130.325
21
-35.575
0
LINE
8
0
10
116.825
20
-22.075
11
116.825
21
-35.075
0
LINE
8
0
10
130.825
20
-22.075
11
130.825
21
-35.075
0
ARC
8
0
10
117.325
20
-22.075
40
0.5
50
90
51
180
0
ARC
8
0
10
130.325
20
-22.075
40
0.5
50
0
51
90
0
ARC
8
0
10
117.325
20
-35.075
40
0.5
50
180
51
270
0
ARC
8
0
10
130.325
20
-35.075
40
0.5
50
270
51
0
0
LINE
8
0
10
145.9
20
-21.575
11
158.9
21
-21.575
0
LINE
8
0
10
145.9
20
-35.575
11
158.9
21
-35.575
0
LINE
8
0
10
145.4
20
-22.075
11
145.4
21
-35.075
0
LINE
8
0
10
159.4
20
-22.075
11
159.4
21
-35.075
0
ARC
8
0
10
145.9
20
-22.075
40
0.5
50
90
51
180
0
ARC
8
0
10
158.9
20
-22.075
40
0.5
50
0
51
90
0
ARC
8
0
10
145.9
20
-35.075
40
0.5
50
180
51
270
0
ARC
8
0
10
158.9
20
-35.075
40
0.5
50
270
51
0
0
LINE
8
0
10
137.462
20
-22.575
11
143.462
21
-22.575
0
LINE
8
0
10
137.462
20
-37.575
11
143.462
21
-37.575
0
LINE
8
0
10
136.962
20
-23.075
11
136.962
21
-37.075
0
LINE
8
0
10
143.962
20
-23.075
11
143.962
21
-37.075
0
ARC
8
0
10
137.462
20
-23.075
40
0.5
50
90
51
180
0
ARC
8
0
10
143.462
20
-23.075
40
0.5
50
0
51
90
0
ARC
8
0
10
137.462
20
-37.075
40
0.5
50
180
51
270
0
ARC
8
0
10
143.462
20
-37.075
40
0.5
50
270
51
0
0
LINE
8
0
10
161.338
20
-22.575
11
167.338
21
-22.575
0
LINE
8
0
10
161.338
20
-37.575
11
167.338
21
-37.575
0
LINE
8
0
10
160.838
20
-23.075
11
160.838
21
-37.075
0
LINE
8
0
10
167.838
20
-23.075
11
167.838
21
-37.075
0
ARC
8
0
10
161.338
20
-23.075
40
0.5
50
90
51
180
0
ARC
8
0
10
167.338
20
-23.075
40
0.5
50
0
51
90
0
ARC
8
0
10
161.338
20
-37.075
40
0.5
50
180
51
270
0
ARC
8
0
10
167.338
20
-37.075
40
0.5
50
270
51
0
0
LINE
8
0
10
174.475
20
-21.575
11
187.475
21
-21.575
0
LINE
8
0
10
174.475
20
-35.575
11
187.475
21
-35.575
0
LINE
8
0
10
173.975
20
-22.075
11
173.975
21
-35.075
0
LINE
8
0
10
187.975
20
-22.075
11
187.975
21
-35.075
0
ARC
8
0
10
174.475
20
-22.075
40
0.5
50
90
51
180
0
ARC
8
0
10
187.475
20
-22.075
40
0.5
50
0
51
90
0
ARC
8
0
10
174.475
20
-35.075
40
0.5
50
180
51
270
0
ARC
8
0
10
187.475
20
-35.075
40
0.5
50
270
51
0
0
LINE
8
0
10
12.55
20
-40.625
11
25.55
21
-40.625
0
LINE
8
0
10
12.55
20
-54.625
11
25.55
21
-54.625
0
LINE
8
0
10
12.05
20
-41.125
11
12.05
21
-54.125
0
LINE
8
0
10
26.05
20
-41.125
11
26.05
21
-54.125
0
ARC
8
0
10
12.55
20
-41.125
40
0.5
50
90
51
180
0
ARC
8
0
10
25.55
20
-41.125
40
0.5
50
0
51
90
0
ARC
8
0
10
12.55
20
-54.125
40
0.5
50
180
51
270
0
ARC
8
0
10
25.55
20
-54.125
40
0.5
50
270
51
0
0
LINE
8
0
10
31.6
20
-40.625
11
44.6
21
-40.625
0
LINE
8
0
10
31.6
20
-54.625
11
44.6
21
-54.625
0
LINE
8
0
10
31.1
20
-41.125
11
31.1
21
-54.125
0
LINE
8
0
10
45.1
20
-41.125
11
45.1
21
-54.125
0
ARC
8
0
10
31.6
20
-41.125
40
0.5
50
90
51
180
0
ARC
8
0
10
44.6
20
-41.125
40
0.5
50
0
51
90
0
ARC
8
0
10
31.6
20
-54.125
40
0.5
50
180
51
270
0
ARC
8
0
10
44.6
20
-54.125
40
0.5
50
270
51
0
0
LINE
8
0
10
50.65
20
-40.625
11
63.65
21
-40.625
0
LINE
8
0
10
50.65
20
-54.625
11
63.65
21
-54.625
0
LINE
8
0
10
50.15
20
-41.125
11
50.15
21
-54.125
0
LINE
8
0
10
64.15
20
-41.125
11
64.15
21
-54.125
0
ARC
8
0
10
50.65
20
-41.125
40
0.5
50
90
51
180
0
ARC
8
0
10
63.65
20
-41.125
40
0.5
50
0
51
90
0
ARC
8
0
10
50.65
20
-54.125
40
0.5
50
180
51
270
0
ARC
8
0
10
63.65
20
-54.125
40
0.5
50
270
51
0
0
LINE
8
0
10
69.7
20
-40.625
11
82.7
21
-40.625
0
LINE
8
0
10
69.7
20
-54.625
11
82.7
21
-54.625
0
LINE
8
0
10
69.2
20
-41.125
11
69.2
21
-54.125
0
LINE
8
0
10
83.2
20
-41.125
11
83.2
21
-54.125
0
ARC
8
0
10
69.7
20
-41.125
40
0.5
50
90
51
180
0
ARC
8
0
10
82.7
20
-41.125
40
0.5
50
0
51
90
0
ARC
8
0
10
69.7
20
-54.125
40
0.5
50
180
51
270
0
ARC
8
0
10
82.7
20
-54.125
40
0.5
50
270
51
0
0
LINE
8
0
10
88.75
20
-40.625
11
101.75
21
-40.625
0
LINE
8
0
10
88.75
20
-54.625
11
101.75
21
-54.625
0
LINE
8
0
10
88.25
20
-41.125
11
88.25
21
-54.125
0
LINE
8
0
10
102.25
20
-41.125
11
102.25
21
-54.125
0
ARC
8
0
10
88.75
20
-41.125
40
0.5
50
90
51
180
0
ARC
8
0
10
101.75
20
-41.125
40
0.5
50
0
51
90
0
ARC
8
0
10
88.75
20
-54.125
40
0.5
50
180
51
270
0
ARC
8
0
10
101.75
20
-54.125
40
0.5
50
270
51
0
0
LINE
8
0
10
107.8
20
-40.625
11
120.8
21
-40.625
0
LINE
8
0
10
107.8
20
-54.625
11
120.8
21
-54.625
0
LINE
8
0
10
107.3
20
-41.125
11
107.3
21
-54.125
0
LINE
8
0
10
121.3
20
-41.125
11
121.3
21
-54.125
0
ARC
8
0
10
107.8
20
-41.125
40
0.5
50
90
51
180
0
ARC
8
0
10
120.8
20
-41.125
40
0.5
50
0
51
90
0
ARC
8
0
10
107.8
20
-54.125
40
0.5
50
180
51
270
0
ARC
8
0
10
120.8
20
-54.125
40
0.5
50
270
51
0
0
LINE
8
0
10
126.85
20
-40.625
11
139.85
21
-40.625
0
LINE
8
0
10
126.85
20
-54.625
11
139.85
21
-54.625
0
LINE
8
0
10
126.35
20
-41.125
11
126.35
21
-54.125
0
LINE
8
0
10
140.35
20
-41.125
11
140.35
21
-54.125
0
ARC
8
0
10
126.85
20
-41.125
40
0.5
50
90
51
180
0
ARC
8
0
10
139.85
20
-41.125
40
0.5
50
0
51
90
0
ARC
8
0
10
126.85
20
-54.125
40
0.5
50
180
51
270
0
ARC
8
0
10
139.85
20
-54.125
40
0.5
50
270
51
0
0
LINE
8
0
10
150.6625
20
-40.625
11
163.6625
21
-40.625
0
LINE
8
0
10
150.6625
20
-54.625
11
163.6625
21
-54.625
0
LINE
8
0
10
150.1625
20
-41.125
11
150.1625
21
-54.125
0
LINE
8
0
10
164.1625
20
-41.125
11
164.1625
21
-54.125
0
ARC
8
0
10
150.6625
20
-41.125
40
0.5
50
90
51
180
0
ARC
8
0
10
163.6625
20
-41.125
40
0.5
50
0
51
90
0
ARC
8
0
10
150.6625
20
-54.125
40
0.5
50
180
51
270
0
ARC
8
0
10
163.6625
20
-54.125
40
0.5
50
270
51
0
0
LINE
8
0
10
174.475
20
-40.625
11
187.475
21
-40.625
0
LINE
8
0
10
174.475
20
-54.625
11
187.475
21
-54.625
0
LINE
8
0
10
173.975
20
-41.125
11
173.975
21
-54.125
0
LINE
8
0
10
187.975
20
-41.125
11
187.975
21
-54.125
0
ARC
8
0
10
174.475
20
-41.125
40
0.5
50
90
51
180
0
ARC
8
0
10
187.475
20
-41.125
40
0.5
50
0
51
90
0
ARC
8
0
10
174.475
20
-54.125
40
0.5
50
180
51
270
0
ARC
8
0
10
187.475
20
-54.125
40
0.5
50
270
51
0
0
LINE
8
0
10
17.3125
20
-59.675
11
30.3125
21
-59.675
0
LINE
8
0
10
17.3125
20
-73.675
11
30.3125
21
-73.675
0
LINE
8
0
10
16.8125
20
-60.175
11
16.8125
21
-73.175
0
LINE
8
0
10
30.8125
20
-60.175
11
30.8125
21
-73.175
0
ARC
8
0
10
17.3125
20
-60.175
40
0.5
50
90
51
180
0
ARC
8
0
10
30.3125
20
-60.175
40
0.5
50
0
51
90
0
ARC
8
0
10
17.3125
20
-73.175
40
0.5
50
180
51
270
0
ARC
8
0
10
30.3125
20
-73.175
40
0.5
50
270
51
0
0
LINE
8
0
10
36.3625
20
-59.675
11
49.3625
21
-59.675
0
LINE
8
0
10
36.3625
20
-73.675
11
49.3625
21
-73.675
0
LINE
8
0
10
35.8625
20
-60.175
11
35.8625
21
-73.175
0
LINE
8
0
10
49.8625
20
-60.175
11
49.8625
21
-73.175
0
ARC
8
0
10
36.3625
20
-60.175
40
0.5
50
90
51
180
0
ARC
8
0
10
49.3625
20
-60.175
40
0.5
50
0
51
90
0
ARC
8
0
10
36.3625
20
-73.175
40
0.5
50
180
51
270
0
ARC
8
0
10
49.3625
20
-73.175
40
0.5
50
270
51
0
0
LINE
8
0
10
55.4125
20
-59.675
11
68.4125
21
-59.675
0
LINE
8
0
10
55.4125
20
-73.675
11
68.4125
21
-73.675
0
LINE
8
0
10
54.9125
20
-60.175
11
54.9125
21
-73.175
0
LINE
8
0
10
68.9125
20
-60.175
11
68.9125
21
-73.175
0
ARC
8
0
10
55.4125
20
-60.175
40
0.5
50
90
51
180
0
ARC
8
0
10
68.4125
20
-60.175
40
0.5
50
0
51
90
0
ARC
8
0
10
55.4125
20
-73.175
40
0.5
50
180
51
270
0
ARC
8
0
10
68.4125
20
-73.175
40
0.5
50
270
51
0
0
LINE
8
0
10
74.4625
20
-59.675
11
87.4625
21
-59.675
0
LINE
8
0
10
74.4625
20
-73.675
11
87.4625
21
-73.675
0
LINE
8
0
10
73.9625
20
-60.175
11
73.9625
21
-73.175
0
LINE
8
0
10
87.9625
20
-60.175
11
87.9625
21
-73.175
0
ARC
8
0
10
74.4625
20
-60.175
40
0.5
50
90
51
180
0
ARC
8
0
10
87.4625
20
-60.175
40
0.5
50
0
51
90
0
ARC
8
0
10
74.4625
20
-73.175
40
0.5
50
180
51
270
0
ARC
8
0
10
87.4625
20
-73.175
40
0.5
50
270
51
0
0
LINE
8
0
10
93.5125
20
-59.675
11
106.5125
21
-59.675
0
LINE
8
0
10
93.5125
20
-73.675
11
106.5125
21
-73.675
0
LINE
8
0
10
93.0125
20
-60.175
11
93.0125
21
-73.175
0
LINE
8
0
10
107.0125
20
-60.175
11
107.0125
21
-73.175
0
ARC
8
0
10
93.5125
20
-60.175
40
0.5
50
90
51
180
0
ARC
8
0
10
106.5125
20
-60.175
40
0.5
50
0
51
90
0
ARC
8
0
10
93.5125
20
-73.175
40
0.5
50
180
51
270
0
ARC
8
0
10
106.5125
20
-73.175
40
0.5
50
270
51
0
0
LINE
8
0
10
112.5625
20
-59.675
11
125.5625
21
-59.675
0
LINE
8
0
10
112.5625
20
-73.675
11
125.5625
21
-73.675
0
LINE
8
0
10
112.0625
20
-60.175
11
112.0625
21
-73.175
0
LINE
8
0
10
126.0625
20
-60.175
11
126.0625
21
-73.175
0
ARC
8
0
10
112.5625
20
-60.175
40
0.5
50
90
51
180
0
ARC
8
0
10
125.5625
20
-60.175
40
0.5
50
0
51
90
0
ARC
8
0
10
112.5625
20
-73.175
40
0.5
50
180
51
270
0
ARC
8
0
10
125.5625
20
-73.175
40
0.5
50
270
51
0
0
LINE
8
0
10
143.51875
20
-59.675
11
156.51875
21
-59.675
0
LINE
8
0
10
143.51875
20
-73.675
11
156.51875
21
-73.675
0
LINE
8
0
10
143.01875
20
-60.175
11
143.01875
21
-73.175
0
LINE
8
0
10
157.01875
20
-60.175
11
157.01875
21
-73.175
0
ARC
8
0
10
143.51875
20
-60.175
40
0.5
50
90
51
180
0
ARC
8
0
10
156.51875
20
-60.175
40
0.5
50
0
51
90
0
ARC
8
0
10
143.51875
20
-73.175
40
0.5
50
180
51
270
0
ARC
8
0
10
156.51875
20
-73.175
40
0.5
50
270
51
0
0
LINE
8
0
10
135.08075
20
-60.675
11
141.08075
21
-60.675
0
LINE
8
0
10
135.08075
20
-75.675
11
141.08075
21
-75.675
0
LINE
8
0
10
134.58075
20
-61.175
11
134.58075
21
-75.175
0
LINE
8
0
10
141.58075
20
-61.175
11
141.58075
21
-75.175
0
ARC
8
0
10
135.08075
20
-61.175
40
0.5
50
90
51
180
0
ARC
8
0
10
141.08075
20
-61.175
40
0.5
50
0
51
90
0
ARC
8
0
10
135.08075
20
-75.175
40
0.5
50
180
51
270
0
ARC
8
0
10
141.08075
20
-75.175
40
0.5
50
270
51
0
0
LINE
8
0
10
158.95675
20
-60.675
11
164.95675
21
-60.675
0
LINE
8
0
10
158.95675
20
-75.675
11
164.95675
21
-75.675
0
LINE
8
0
10
158.45675
20
-61.175
11
158.45675
21
-75.175
0
LINE
8
0
10
165.45675
20
-61.175
11
165.45675
21
-75.175
0
ARC
8
0
10
158.95675
20
-61.175
40
0.5
50
90
51
180
0
ARC
8
0
10
164.95675
20
-61.175
40
0.5
50
0
51
90
0
ARC
8
0
10
158.95675
20
-75.175
40
0.5
50
180
51
270
0
ARC
8
0
10
164.95675
20
-75.175
40
0.5
50
270
51
0
0
LINE
8
0
10
174.475
20
-59.675
11
187.475
21
-59.675
0
LINE
8
0
10
174.475
20
-73.675
11
187.475
21
-73.675
0
LINE
8
0
10
173.975
20
-60.175
11
173.975
21
-73.175
0
LINE
8
0
10
187.975
20
-60.175
11
187.975
21
-73.175
0
ARC
8
0
10
174.475
20
-60.175
40
0.5
50
90
51
180
0
ARC
8
0
10
187.475
20
-60.175
40
0.5
50
0
51
90
0
ARC
8
0
10
174.475
20
-73.175
40
0.5
50
180
51
270
0
ARC
8
0
10
187.475
20
-73.175
40
0.5
50
270
51
0
0
LINE
8
0
10
26.8375
20
-78.725
11
39.8375
21
-78.725
0
LINE
8
0
10
26.8375
20
-92.725
11
39.8375
21
-92.725
0
LINE
8
0
10
26.3375
20
-79.225
11
26.3375
21
-92.225
0
LINE
8
0
10
40.3375
20
-79.225
11
40.3375
21
-92.225
0
ARC
8
0
10
26.8375
20
-79.225
40
0.5
50
90
51
180
0
ARC
8
0
10
39.8375
20
-79.225
40
0.5
50
0
51
90
0
ARC
8
0
10
26.8375
20
-92.225
40
0.5
50
180
51
270
0
ARC
8
0
10
39.8375
20
-92.225
40
0.5
50
270
51
0
0
LINE
8
0
10
45.8875
20
-78.725
11
58.8875
21
-78.725
0
LINE
8
0
10
45.8875
20
-92.725
11
58.8875
21
-92.725
0
LINE
8
0
10
45.3875
20
-79.225
11
45.3875
21
-92.225
0
LINE
8
0
10
59.3875
20
-79.225
11
59.3875
21
-92.225
0
ARC
8
0
10
45.8875
20
-79.225
40
0.5
50
90
51
180
0
ARC
8
0
10
58.8875
20
-79.225
40
0.5
50
0
51
90
0
ARC
8
0
10
45.8875
20
-92.225
40
0.5
50
180
51
270
0
ARC
8
0
10
58.8875
20
-92.225
40
0.5
50
270
51
0
0
LINE
8
0
10
64.9375
20
-78.725
11
77.9375
21
-78.725
0
LINE
8
0
10
64.9375
20
-92.725
11
77.9375
21
-92.725
0
LINE
8
0
10
64.4375
20
-79.225
11
64.4375
21
-92.225
0
LINE
8
0
10
78.4375
20
-79.225
11
78.4375
21
-92.225
0
ARC
8
0
10
64.9375
20
-79.225
40
0.5
50
90
51
180
0
ARC
8
0
10
77.9375
20
-79.225
40
0.5
50
0
51
90
0
ARC
8
0
10
64.9375
20
-92.225
40
0.5
50
180
51
270
0
ARC
8
0
10
77.9375
20
-92.225
40
0.5
50
270
51
0
0
LINE
8
0
10
83.9875
20
-78.725
11
96.9875
21
-78.725
0
LINE
8
0
10
83.9875
20
-92.725
11
96.9875
21
-92.725
0
LINE
8
0
10
83.4875
20
-79.225
11
83.4875
21
-92.225
0
LINE
8
0
10
97.4875
20
-79.225
11
97.4875
21
-92.225
0
ARC
8
0
10
83.9875
20
-79.225
40
0.5
50
90
51
180
0
ARC
8
0
10
96.9875
20
-79.225
40
0.5
50
0
51
90
0
ARC
8
0
10
83.9875
20
-92.225
40
0.5
50
180
51
270
0
ARC
8
0
10
96.9875
20
-92.225
40
0.5
50
270
51
0
0
LINE
8
0
10
103.0375
20
-78.725
11
116.0375
21
-78.725
0
LINE
8
0
10
103.0375
20
-92.725
11
116.0375
21
-92.725
0
LINE
8
0
10
102.5375
20
-79.225
11
102.5375
21
-92.225
0
LINE
8
0
10
116.5375
20
-79.225
11
116.5375
21
-92.225
0
ARC
8
0
10
103.0375
20
-79.225
40
0.5
50
90
51
180
0
ARC
8
0
10
116.0375
20
-79.225
40
0.5
50
0
51
90
0
ARC
8
0
10
103.0375
20
-92.225
40
0.5
50
180
51
270
0
ARC
8
0
10
116.0375
20
-92.225
40
0.5
50
270
51
0
0
LINE
8
0
10
129.23125
20
-78.725
11
142.23125
21
-78.725
0
LINE
8
0
10
129.23125
20
-92.725
11
142.23125
21
-92.725
0
LINE
8
0
10
128.73125
20
-79.225
11
128.73125
21
-92.225
0
LINE
8
0
10
142.73125
20
-79.225
11
142.73125
21
-92.225
0
ARC
8
0
10
129.23125
20
-79.225
40
0.5
50
90
51
180
0
ARC
8
0
10
142.23125
20
-79.225
40
0.5
50
0
51
90
0
ARC
8
0
10
129.23125
20
-92.225
40
0.5
50
180
51
270
0
ARC
8
0
10
142.23125
20
-92.225
40
0.5
50
270
51
0
0
LINE
8
0
10
155.425
20
-78.725
11
168.425
21
-78.725
0
LINE
8
0
10
155.425
20
-92.725
11
168.425
21
-92.725
0
LINE
8
0
10
154.925
20
-79.225
11
154.925
21
-92.225
0
LINE
8
0
10
168.925
20
-79.225
11
168.925
21
-92.225
0
ARC
8
0
10
155.425
20
-79.225
40
0.5
50
90
51
180
0
ARC
8
0
10
168.425
20
-79.225
40
0.5
50
0
51
90
0
ARC
8
0
10
155.425
20
-92.225
40
0.5
50
180
51
270
0
ARC
8
0
10
168.425
20
-92.225
40
0.5
50
270
51
0
0
LINE
8
0
10
174.475
20
-78.725
11
187.475
21
-78.725
0
LINE
8
0
10
174.475
20
-92.725
11
187.475
21
-92.725
0
LINE
8
0
10
173.975
20
-79.225
11
173.975
21
-92.225
0
LINE
8
0
10
187.975
20
-79.225
11
187.975
21
-92.225
0
ARC
8
0
10
174.475
20
-79.225
40
0.5
50
90
51
180
0
ARC
8
0
10
187.475
20
-79.225
40
0.5
50
0
51
90
0
ARC
8
0
10
174.475
20
-92.225
40
0.5
50
180
51
270
0
ARC
8
0
10
187.475
20
-92.225
40
0.5
50
270
51
0
0
LINE
8
0
10
19.69375
20
-97.775
11
32.69375
21
-97.775
0
LINE
8
0
10
19.69375
20
-111.775
11
32.69375
21
-111.775
0
LINE
8
0
10
19.19375
20
-98.275
11
19.19375
21
-111.275
0
LINE
8
0
10
33.19375
20
-98.275
11
33.19375
21
-111.275
0
ARC
8
0
10
19.69375
20
-98.275
40
0.5
50
90
51
180
0
ARC
8
0
10
32.69375
20
-98.275
40
0.5
50
0
51
90
0
ARC
8
0
10
19.69375
20
-111.275
40
0.5
50
180
51
270
0
ARC
8
0
10
32.69375
20
-111.275
40
0.5
50
270
51
0
0
LINE
8
0
10
11.25575
20
-98.775
11
17.25575
21
-98.775
0
LINE
8
0
10
11.25575
20
-113.775
11
17.25575
21
-113.775
0
LINE
8
0
10
10.75575
20
-99.275
11
10.75575
21
-113.275
0
LINE
8
0
10
17.75575
20
-99.275
11
17.75575
21
-113.275
0
ARC
8
0
10
11.25575
20
-99.275
40
0.5
50
90
51
180
0
ARC
8
0
10
17.25575
20
-99.275
40
0.5
50
0
51
90
0
ARC
8
0
10
11.25575
20
-113.275
40
0.5
50
180
51
270
0
ARC
8
0
10
17.25575
20
-113.275
40
0.5
50
270
51
0
0
LINE
8
0
10
35.13175
20
-98.775
11
41.13175
21
-98.775
0
LINE
8
0
10
35.13175
20
-113.775
11
41.13175
21
-113.775
0
LINE
8
0
10
34.63175
20
-99.275
11
34.63175
21
-113.275
0
LINE
8
0
10
41.63175
20
-99.275
11
41.63175
21
-113.275
0
ARC
8
0
10
35.13175
20
-99.275
40
0.5
50
90
51
180
0
ARC
8
0
10
41.13175
20
-99.275
40
0.5
50
0
51
90
0
ARC
8
0
10
35.13175
20
-113.275
40
0.5
50
180
51
270
0
ARC
8
0
10
41.13175
20
-113.275
40
0.5
50
270
51
0
0
LINE
8
0
10
55.4125
20
-97.775
11
68.4125
21
-97.775
0
LINE
8
0
10
55.4125
20
-111.775
11
68.4125
21
-111.775
0
LINE
8
0
10
54.9125
20
-98.275
11
54.9125
21
-111.275
0
LINE
8
0
10
68.9125
20
-98.275
11
68.9125
21
-111.275
0
ARC
8
0
10
55.4125
20
-98.275
40
0.5
50
90
51
180
0
ARC
8
0
10
68.4125
20
-98.275
40
0.5
50
0
51
90
0
ARC
8
0
10
55.4125
20
-111.275
40
0.5
50
180
51
270
0
ARC
8
0
10
68.4125
20
-111.275
40
0.5
50
270
51
0
0
LINE
8
0
10
74.4625
20
-97.775
11
87.4625
21
-97.775
0
LINE
8
0
10
74.4625
20
-111.775
11
87.4625
21
-111.775
0
LINE
8
0
10
73.9625
20
-98.275
11
73.9625
21
-111.275
0
LINE
8
0
10
87.9625
20
-98.275
11
87.9625
21
-111.275
0
ARC
8
0
10
74.4625
20
-98.275
40
0.5
50
90
51
180
0
ARC
8
0
10
87.4625
20
-98.275
40
0.5
50
0
51
90
0
ARC
8
0
10
74.4625
20
-111.275
40
0.5
50
180
51
270
0
ARC
8
0
10
87.4625
20
-111.275
40
0.5
50
270
51
0
0
LINE
8
0
10
93.5125
20
-97.775
11
106.5125
21
-97.775
0
LINE
8
0
10
93.5125
20
-111.775
11
106.5125
21
-111.775
0
LINE
8
0
10
93.0125
20
-98.275
11
93.0125
21
-111.275
0
LINE
8
0
10
107.0125
20
-98.275
11
107.0125
21
-111.275
0
ARC
8
0
10
93.5125
20
-98.275
40
0.5
50
90
51
180
0
ARC
8
0
10
106.5125
20
-98.275
40
0.5
50
0
51
90
0
ARC
8
0
10
93.5125
20
-111.275
40
0.5
50
180
51
270
0
ARC
8
0
10
106.5125
20
-111.275
40
0.5
50
270
51
0
0
LINE
8
0
10
114.94375
20
-97.775
11
127.94375
21
-97.775
0
LINE
8
0
10
114.94375
20
-111.775
11
127.94375
21
-111.775
0
LINE
8
0
10
114.44375
20
-98.275
11
114.44375
21
-111.275
0
LINE
8
0
10
128.44375
20
-98.275
11
128.44375
21
-111.275
0
ARC
8
0
10
114.94375
20
-98.275
40
0.5
50
90
51
180
0
ARC
8
0
10
127.94375
20
-98.275
40
0.5
50
0
51
90
0
ARC
8
0
10
114.94375
20
-111.275
40
0.5
50
180
51
270
0
ARC
8
0
10
127.94375
20
-111.275
40
0.5
50
270
51
0
0
LINE
8
0
10
136.375
20
-97.775
11
149.375
21
-97.775
0
LINE
8
0
10
136.375
20
-111.775
11
149.375
21
-111.775
0
LINE
8
0
10
135.875
20
-98.275
11
135.875
21
-111.275
0
LINE
8
0
10
149.875
20
-98.275
11
149.875
21
-111.275
0
ARC
8
0
10
136.375
20
-98.275
40
0.5
50
90
51
180
0
ARC
8
0
10
149.375
20
-98.275
40
0.5
50
0
51
90
0
ARC
8
0
10
136.375
20
-111.275
40
0.5
50
180
51
270
0
ARC
8
0
10
149.375
20
-111.275
40
0.5
50
270
51
0
0
LINE
8
0
10
155.425
20
-97.775
11
168.425
21
-97.775
0
LINE
8
0
10
155.425
20
-111.775
11
168.425
21
-111.775
0
LINE
8
0
10
154.925
20
-98.275
11
154.925
21
-111.275
0
LINE
8
0
10
168.925
20
-98.275
11
168.925
21
-111.275
0
ARC
8
0
10
155.425
20
-98.275
40
0.5
50
90
51
180
0
ARC
8
0
10
168.425
20
-98.275
40
0.5
50
0
51
90
0
ARC
8
0
10
155.425
20
-111.275
40
0.5
50
180
51
270
0
ARC
8
0
10
168.425
20
-111.275
40
0.5
50
270
51
0
0
LINE
8
0
10
174.475
20
-97.775
11
187.475
21
-97.775
0
LINE
8
0
10
174.475
20
-111.775
11
187.475
21
-111.775
0
LINE
8
0
10
173.975
20
-98.275
11
173.975
21
-111.275
0
LINE
8
0
10
187.975
20
-98.275
11
187.975
21
-111.275
0
ARC
8
0
10
174.475
20
-98.275
40
0.5
50
90
51
180
0
ARC
8
0
10
187.475
20
-98.275
40
0.5
50
0
51
90
0
ARC
8
0
10
174.475
20
-111.275
40
0.5
50
180
51
270
0
ARC
8
0
10
187.475
20
-111.275
40
0.5
50
270
51
0
0
LINE
8
0
10
0
20
-114.3
11
190.5
21
-114.3
0
LINE
8
0
10
0
20
0
11
190.5
21
0
0
LINE
8
0
10
0
20
-114.3
11
0
21
0
0
LINE
8
0
10
190.5
20
-114.3
11
190.5
21
0
0
ENDSEC
0
EOF