G04 #@! TF.GenerationSoftware,KiCad,Pcbnew,10.0.3*
G04 #@! TF.CreationDate,2026-07-16T22:26:11-04:00*
G04 #@! TF.ProjectId,karve-split,6b617276-652d-4737-906c-69742e6b6963,rev?*
G04 #@! TF.SameCoordinates,Original*
G04 #@! TF.FileFunction,Legend,Top*
G04 #@! TF.FilePolarity,Positive*
%FSLAX46Y46*%
G04 Gerber Fmt 4.6, Leading zero omitted, Abs format (unit mm)*
G04 Created by KiCad (PCBNEW 10.0.3) date 2026-07-16 22:26:11*
%MOMM*%
%LPD*%
G01*
G04 APERTURE LIST*
G04 Aperture macros list*
%AMRoundRect*
0 Rectangle with rounded corners*
0 $1 Rounding radius*
0 $2 $3 $4 $5 $6 $7 $8 $9 X,Y pos of 4 corners*
0 Add a 4 corners polygon primitive as box body*
4,1,4,$2,$3,$4,$5,$6,$7,$8,$9,$2,$3,0*
0 Add four circle primitives for the rounded corners*
1,1,$1+$1,$2,$3*
1,1,$1+$1,$4,$5*
1,1,$1+$1,$6,$7*
1,1,$1+$1,$8,$9*
0 Add four rect primitives between the rounded corners*
20,1,$1+$1,$2,$3,$4,$5,0*
20,1,$1+$1,$4,$5,$6,$7,0*
20,1,$1+$1,$6,$7,$8,$9,0*
20,1,$1+$1,$8,$9,$2,$3,0*%
%AMFreePoly0*
4,1,37,0.603843,0.796157,0.639018,0.796157,0.711114,0.766294,0.766294,0.711114,0.796157,0.639018,0.796157,0.603843,0.800000,0.600000,0.800000,-0.600000,0.796157,-0.603843,0.796157,-0.639018,0.766294,-0.711114,0.711114,-0.766294,0.639018,-0.796157,0.603843,-0.796157,0.600000,-0.800000,0.000000,-0.800000,0.000000,-0.796148,-0.078414,-0.796148,-0.232228,-0.765552,-0.377117,-0.705537,
-0.507515,-0.618408,-0.618408,-0.507515,-0.705537,-0.377117,-0.765552,-0.232228,-0.796148,-0.078414,-0.796148,0.078414,-0.765552,0.232228,-0.705537,0.377117,-0.618408,0.507515,-0.507515,0.618408,-0.377117,0.705537,-0.232228,0.765552,-0.078414,0.796148,0.000000,0.796148,0.000000,0.800000,0.600000,0.800000,0.603843,0.796157,0.603843,0.796157,$1*%
%AMFreePoly1*
4,1,37,0.000000,0.796148,0.078414,0.796148,0.232228,0.765552,0.377117,0.705537,0.507515,0.618408,0.618408,0.507515,0.705537,0.377117,0.765552,0.232228,0.796148,0.078414,0.796148,-0.078414,0.765552,-0.232228,0.705537,-0.377117,0.618408,-0.507515,0.507515,-0.618408,0.377117,-0.705537,0.232228,-0.765552,0.078414,-0.796148,0.000000,-0.796148,0.000000,-0.800000,-0.600000,-0.800000,
-0.603843,-0.796157,-0.639018,-0.796157,-0.711114,-0.766294,-0.766294,-0.711114,-0.796157,-0.639018,-0.796157,-0.603843,-0.800000,-0.600000,-0.800000,0.600000,-0.796157,0.603843,-0.796157,0.639018,-0.766294,0.711114,-0.711114,0.766294,-0.639018,0.796157,-0.603843,0.796157,-0.600000,0.800000,0.000000,0.800000,0.000000,0.796148,0.000000,0.796148,$1*%
G04 Aperture macros list end*
%ADD10C,0.150000*%
%ADD11C,0.120000*%
%ADD12C,0.100000*%
%ADD13C,2.200000*%
%ADD14RoundRect,0.200000X-0.600000X0.600000X-0.600000X-0.600000X0.600000X-0.600000X0.600000X0.600000X0*%
%ADD15C,1.600000*%
%ADD16FreePoly0,270.000000*%
%ADD17FreePoly1,270.000000*%
%ADD18C,0.500000*%
%ADD19R,2.000000X2.000000*%
%ADD20C,2.000000*%
%ADD21R,3.200000X2.000000*%
%ADD22RoundRect,0.170000X0.680000X-0.680000X0.680000X0.680000X-0.680000X0.680000X-0.680000X-0.680000X0*%
%ADD23C,1.700000*%
%ADD24RoundRect,0.200000X0.600000X-0.600000X0.600000X0.600000X-0.600000X0.600000X-0.600000X-0.600000X0*%
%ADD25FreePoly0,90.000000*%
%ADD26FreePoly1,90.000000*%
%ADD27C,1.701800*%
%ADD28C,3.048000*%
%ADD29C,3.987800*%
%ADD30C,0.650000*%
%ADD31O,1.000000X1.600000*%
%ADD32O,1.000000X2.100000*%
G04 APERTURE END LIST*
D10*
X98861905Y-78054819D02*
X98861905Y-77054819D01*
X98861905Y-77531009D02*
X99433333Y-77531009D01*
X99433333Y-78054819D02*
X99433333Y-77054819D01*
X100433333Y-78054819D02*
X99861905Y-78054819D01*
X100147619Y-78054819D02*
X100147619Y-77054819D01*
X100147619Y-77054819D02*
X100052381Y-77197676D01*
X100052381Y-77197676D02*
X99957143Y-77292914D01*
X99957143Y-77292914D02*
X99861905Y-77340533D01*
X101338095Y-77054819D02*
X100861905Y-77054819D01*
X100861905Y-77054819D02*
X100814286Y-77531009D01*
X100814286Y-77531009D02*
X100861905Y-77483390D01*
X100861905Y-77483390D02*
X100957143Y-77435771D01*
X100957143Y-77435771D02*
X101195238Y-77435771D01*
X101195238Y-77435771D02*
X101290476Y-77483390D01*
X101290476Y-77483390D02*
X101338095Y-77531009D01*
X101338095Y-77531009D02*
X101385714Y-77626247D01*
X101385714Y-77626247D02*
X101385714Y-77864342D01*
X101385714Y-77864342D02*
X101338095Y-77959580D01*
X101338095Y-77959580D02*
X101290476Y-78007200D01*
X101290476Y-78007200D02*
X101195238Y-78054819D01*
X101195238Y-78054819D02*
X100957143Y-78054819D01*
X100957143Y-78054819D02*
X100861905Y-78007200D01*
X100861905Y-78007200D02*
X100814286Y-77959580D01*
X51261905Y-117554819D02*
X51261905Y-116554819D01*
X51261905Y-117031009D02*
X51833333Y-117031009D01*
X51833333Y-117554819D02*
X51833333Y-116554819D01*
X52833333Y-117554819D02*
X52261905Y-117554819D01*
X52547619Y-117554819D02*
X52547619Y-116554819D01*
X52547619Y-116554819D02*
X52452381Y-116697676D01*
X52452381Y-116697676D02*
X52357143Y-116792914D01*
X52357143Y-116792914D02*
X52261905Y-116840533D01*
X53452381Y-116554819D02*
X53547619Y-116554819D01*
X53547619Y-116554819D02*
X53642857Y-116602438D01*
X53642857Y-116602438D02*
X53690476Y-116650057D01*
X53690476Y-116650057D02*
X53738095Y-116745295D01*
X53738095Y-116745295D02*
X53785714Y-116935771D01*
X53785714Y-116935771D02*
X53785714Y-117173866D01*
X53785714Y-117173866D02*
X53738095Y-117364342D01*
X53738095Y-117364342D02*
X53690476Y-117459580D01*
X53690476Y-117459580D02*
X53642857Y-117507200D01*
X53642857Y-117507200D02*
X53547619Y-117554819D01*
X53547619Y-117554819D02*
X53452381Y-117554819D01*
X53452381Y-117554819D02*
X53357143Y-117507200D01*
X53357143Y-117507200D02*
X53309524Y-117459580D01*
X53309524Y-117459580D02*
X53261905Y-117364342D01*
X53261905Y-117364342D02*
X53214286Y-117173866D01*
X53214286Y-117173866D02*
X53214286Y-116935771D01*
X53214286Y-116935771D02*
X53261905Y-116745295D01*
X53261905Y-116745295D02*
X53309524Y-116650057D01*
X53309524Y-116650057D02*
X53357143Y-116602438D01*
X53357143Y-116602438D02*
X53452381Y-116554819D01*
X87583546Y-65966660D02*
X87583546Y-66442850D01*
X87297831Y-65871422D02*
X88297831Y-66204755D01*
X88297831Y-66204755D02*
X87297831Y-66538088D01*
X88202593Y-66823803D02*
X88250212Y-66871422D01*
X88250212Y-66871422D02*
X88297831Y-66966660D01*
X88297831Y-66966660D02*
X88297831Y-67204755D01*
X88297831Y-67204755D02*
X88250212Y-67299993D01*
X88250212Y-67299993D02*
X88202593Y-67347612D01*
X88202593Y-67347612D02*
X88107355Y-67395231D01*
X88107355Y-67395231D02*
X88012117Y-67395231D01*
X88012117Y-67395231D02*
X87869260Y-67347612D01*
X87869260Y-67347612D02*
X87297831Y-66776184D01*
X87297831Y-66776184D02*
X87297831Y-67395231D01*
X198650627Y-68337200D02*
X198793484Y-68384819D01*
X198793484Y-68384819D02*
X199031579Y-68384819D01*
X199031579Y-68384819D02*
X199126817Y-68337200D01*
X199126817Y-68337200D02*
X199174436Y-68289580D01*
X199174436Y-68289580D02*
X199222055Y-68194342D01*
X199222055Y-68194342D02*
X199222055Y-68099104D01*
X199222055Y-68099104D02*
X199174436Y-68003866D01*
X199174436Y-68003866D02*
X199126817Y-67956247D01*
X199126817Y-67956247D02*
X199031579Y-67908628D01*
X199031579Y-67908628D02*
X198841103Y-67861009D01*
X198841103Y-67861009D02*
X198745865Y-67813390D01*
X198745865Y-67813390D02*
X198698246Y-67765771D01*
X198698246Y-67765771D02*
X198650627Y-67670533D01*
X198650627Y-67670533D02*
X198650627Y-67575295D01*
X198650627Y-67575295D02*
X198698246Y-67480057D01*
X198698246Y-67480057D02*
X198745865Y-67432438D01*
X198745865Y-67432438D02*
X198841103Y-67384819D01*
X198841103Y-67384819D02*
X199079198Y-67384819D01*
X199079198Y-67384819D02*
X199222055Y-67432438D01*
X199555389Y-67384819D02*
X199793484Y-68384819D01*
X199793484Y-68384819D02*
X199983960Y-67670533D01*
X199983960Y-67670533D02*
X200174436Y-68384819D01*
X200174436Y-68384819D02*
X200412532Y-67384819D01*
X201269674Y-67384819D02*
X200793484Y-67384819D01*
X200793484Y-67384819D02*
X200745865Y-67861009D01*
X200745865Y-67861009D02*
X200793484Y-67813390D01*
X200793484Y-67813390D02*
X200888722Y-67765771D01*
X200888722Y-67765771D02*
X201126817Y-67765771D01*
X201126817Y-67765771D02*
X201222055Y-67813390D01*
X201222055Y-67813390D02*
X201269674Y-67861009D01*
X201269674Y-67861009D02*
X201317293Y-67956247D01*
X201317293Y-67956247D02*
X201317293Y-68194342D01*
X201317293Y-68194342D02*
X201269674Y-68289580D01*
X201269674Y-68289580D02*
X201222055Y-68337200D01*
X201222055Y-68337200D02*
X201126817Y-68384819D01*
X201126817Y-68384819D02*
X200888722Y-68384819D01*
X200888722Y-68384819D02*
X200793484Y-68337200D01*
X200793484Y-68337200D02*
X200745865Y-68289580D01*
X202269674Y-68384819D02*
X201698246Y-68384819D01*
X201983960Y-68384819D02*
X201983960Y-67384819D01*
X201983960Y-67384819D02*
X201888722Y-67527676D01*
X201888722Y-67527676D02*
X201793484Y-67622914D01*
X201793484Y-67622914D02*
X201698246Y-67670533D01*
X49369670Y-64307545D02*
X50179193Y-64307545D01*
X50179193Y-64307545D02*
X50274431Y-64259926D01*
X50274431Y-64259926D02*
X50322051Y-64212307D01*
X50322051Y-64212307D02*
X50369670Y-64117069D01*
X50369670Y-64117069D02*
X50369670Y-63926593D01*
X50369670Y-63926593D02*
X50322051Y-63831355D01*
X50322051Y-63831355D02*
X50274431Y-63783736D01*
X50274431Y-63783736D02*
X50179193Y-63736117D01*
X50179193Y-63736117D02*
X49369670Y-63736117D01*
X49464908Y-63307545D02*
X49417289Y-63259926D01*
X49417289Y-63259926D02*
X49369670Y-63164688D01*
X49369670Y-63164688D02*
X49369670Y-62926593D01*
X49369670Y-62926593D02*
X49417289Y-62831355D01*
X49417289Y-62831355D02*
X49464908Y-62783736D01*
X49464908Y-62783736D02*
X49560146Y-62736117D01*
X49560146Y-62736117D02*
X49655384Y-62736117D01*
X49655384Y-62736117D02*
X49798241Y-62783736D01*
X49798241Y-62783736D02*
X50369670Y-63355164D01*
X50369670Y-63355164D02*
X50369670Y-62736117D01*
X224457976Y-71837200D02*
X224600833Y-71884819D01*
X224600833Y-71884819D02*
X224838928Y-71884819D01*
X224838928Y-71884819D02*
X224934166Y-71837200D01*
X224934166Y-71837200D02*
X224981785Y-71789580D01*
X224981785Y-71789580D02*
X225029404Y-71694342D01*
X225029404Y-71694342D02*
X225029404Y-71599104D01*
X225029404Y-71599104D02*
X224981785Y-71503866D01*
X224981785Y-71503866D02*
X224934166Y-71456247D01*
X224934166Y-71456247D02*
X224838928Y-71408628D01*
X224838928Y-71408628D02*
X224648452Y-71361009D01*
X224648452Y-71361009D02*
X224553214Y-71313390D01*
X224553214Y-71313390D02*
X224505595Y-71265771D01*
X224505595Y-71265771D02*
X224457976Y-71170533D01*
X224457976Y-71170533D02*
X224457976Y-71075295D01*
X224457976Y-71075295D02*
X224505595Y-70980057D01*
X224505595Y-70980057D02*
X224553214Y-70932438D01*
X224553214Y-70932438D02*
X224648452Y-70884819D01*
X224648452Y-70884819D02*
X224886547Y-70884819D01*
X224886547Y-70884819D02*
X225029404Y-70932438D01*
X225362738Y-70884819D02*
X225600833Y-71884819D01*
X225600833Y-71884819D02*
X225791309Y-71170533D01*
X225791309Y-71170533D02*
X225981785Y-71884819D01*
X225981785Y-71884819D02*
X226219881Y-70884819D01*
X226648452Y-71884819D02*
X226838928Y-71884819D01*
X226838928Y-71884819D02*
X226934166Y-71837200D01*
X226934166Y-71837200D02*
X226981785Y-71789580D01*
X226981785Y-71789580D02*
X227077023Y-71646723D01*
X227077023Y-71646723D02*
X227124642Y-71456247D01*
X227124642Y-71456247D02*
X227124642Y-71075295D01*
X227124642Y-71075295D02*
X227077023Y-70980057D01*
X227077023Y-70980057D02*
X227029404Y-70932438D01*
X227029404Y-70932438D02*
X226934166Y-70884819D01*
X226934166Y-70884819D02*
X226743690Y-70884819D01*
X226743690Y-70884819D02*
X226648452Y-70932438D01*
X226648452Y-70932438D02*
X226600833Y-70980057D01*
X226600833Y-70980057D02*
X226553214Y-71075295D01*
X226553214Y-71075295D02*
X226553214Y-71313390D01*
X226553214Y-71313390D02*
X226600833Y-71408628D01*
X226600833Y-71408628D02*
X226648452Y-71456247D01*
X226648452Y-71456247D02*
X226743690Y-71503866D01*
X226743690Y-71503866D02*
X226934166Y-71503866D01*
X226934166Y-71503866D02*
X227029404Y-71456247D01*
X227029404Y-71456247D02*
X227077023Y-71408628D01*
X227077023Y-71408628D02*
X227124642Y-71313390D01*
X227457976Y-70884819D02*
X228077023Y-70884819D01*
X228077023Y-70884819D02*
X227743690Y-71265771D01*
X227743690Y-71265771D02*
X227886547Y-71265771D01*
X227886547Y-71265771D02*
X227981785Y-71313390D01*
X227981785Y-71313390D02*
X228029404Y-71361009D01*
X228029404Y-71361009D02*
X228077023Y-71456247D01*
X228077023Y-71456247D02*
X228077023Y-71694342D01*
X228077023Y-71694342D02*
X228029404Y-71789580D01*
X228029404Y-71789580D02*
X227981785Y-71837200D01*
X227981785Y-71837200D02*
X227886547Y-71884819D01*
X227886547Y-71884819D02*
X227600833Y-71884819D01*
X227600833Y-71884819D02*
X227505595Y-71837200D01*
X227505595Y-71837200D02*
X227457976Y-71789580D01*
X294311905Y-99804819D02*
X294311905Y-98804819D01*
X294311905Y-99281009D02*
X294883333Y-99281009D01*
X294883333Y-99804819D02*
X294883333Y-98804819D01*
X295883333Y-99804819D02*
X295311905Y-99804819D01*
X295597619Y-99804819D02*
X295597619Y-98804819D01*
X295597619Y-98804819D02*
X295502381Y-98947676D01*
X295502381Y-98947676D02*
X295407143Y-99042914D01*
X295407143Y-99042914D02*
X295311905Y-99090533D01*
X296359524Y-99804819D02*
X296550000Y-99804819D01*
X296550000Y-99804819D02*
X296645238Y-99757200D01*
X296645238Y-99757200D02*
X296692857Y-99709580D01*
X296692857Y-99709580D02*
X296788095Y-99566723D01*
X296788095Y-99566723D02*
X296835714Y-99376247D01*
X296835714Y-99376247D02*
X296835714Y-98995295D01*
X296835714Y-98995295D02*
X296788095Y-98900057D01*
X296788095Y-98900057D02*
X296740476Y-98852438D01*
X296740476Y-98852438D02*
X296645238Y-98804819D01*
X296645238Y-98804819D02*
X296454762Y-98804819D01*
X296454762Y-98804819D02*
X296359524Y-98852438D01*
X296359524Y-98852438D02*
X296311905Y-98900057D01*
X296311905Y-98900057D02*
X296264286Y-98995295D01*
X296264286Y-98995295D02*
X296264286Y-99233390D01*
X296264286Y-99233390D02*
X296311905Y-99328628D01*
X296311905Y-99328628D02*
X296359524Y-99376247D01*
X296359524Y-99376247D02*
X296454762Y-99423866D01*
X296454762Y-99423866D02*
X296645238Y-99423866D01*
X296645238Y-99423866D02*
X296740476Y-99376247D01*
X296740476Y-99376247D02*
X296788095Y-99328628D01*
X296788095Y-99328628D02*
X296835714Y-99233390D01*
X60911905Y-80754819D02*
X60911905Y-79754819D01*
X60911905Y-80231009D02*
X61483333Y-80231009D01*
X61483333Y-80754819D02*
X61483333Y-79754819D01*
X62483333Y-80754819D02*
X61911905Y-80754819D01*
X62197619Y-80754819D02*
X62197619Y-79754819D01*
X62197619Y-79754819D02*
X62102381Y-79897676D01*
X62102381Y-79897676D02*
X62007143Y-79992914D01*
X62007143Y-79992914D02*
X61911905Y-80040533D01*
X63340476Y-80088152D02*
X63340476Y-80754819D01*
X63102381Y-79707200D02*
X62864286Y-80421485D01*
X62864286Y-80421485D02*
X63483333Y-80421485D01*
X330722319Y-63691904D02*
X331531842Y-63691904D01*
X331531842Y-63691904D02*
X331627080Y-63644285D01*
X331627080Y-63644285D02*
X331674700Y-63596666D01*
X331674700Y-63596666D02*
X331722319Y-63501428D01*
X331722319Y-63501428D02*
X331722319Y-63310952D01*
X331722319Y-63310952D02*
X331674700Y-63215714D01*
X331674700Y-63215714D02*
X331627080Y-63168095D01*
X331627080Y-63168095D02*
X331531842Y-63120476D01*
X331531842Y-63120476D02*
X330722319Y-63120476D01*
X330722319Y-62739523D02*
X330722319Y-62120476D01*
X330722319Y-62120476D02*
X331103271Y-62453809D01*
X331103271Y-62453809D02*
X331103271Y-62310952D01*
X331103271Y-62310952D02*
X331150890Y-62215714D01*
X331150890Y-62215714D02*
X331198509Y-62168095D01*
X331198509Y-62168095D02*
X331293747Y-62120476D01*
X331293747Y-62120476D02*
X331531842Y-62120476D01*
X331531842Y-62120476D02*
X331627080Y-62168095D01*
X331627080Y-62168095D02*
X331674700Y-62215714D01*
X331674700Y-62215714D02*
X331722319Y-62310952D01*
X331722319Y-62310952D02*
X331722319Y-62596666D01*
X331722319Y-62596666D02*
X331674700Y-62691904D01*
X331674700Y-62691904D02*
X331627080Y-62739523D01*
X113688095Y-176854819D02*
X113688095Y-175854819D01*
X113688095Y-176331009D02*
X114259523Y-176331009D01*
X114259523Y-176854819D02*
X114259523Y-175854819D01*
X114640476Y-175854819D02*
X115307142Y-175854819D01*
X115307142Y-175854819D02*
X114878571Y-176854819D01*
X25761905Y-176854819D02*
X25761905Y-175854819D01*
X25761905Y-176331009D02*
X26333333Y-176331009D01*
X26333333Y-176854819D02*
X26333333Y-175854819D01*
X27333333Y-176854819D02*
X26761905Y-176854819D01*
X27047619Y-176854819D02*
X27047619Y-175854819D01*
X27047619Y-175854819D02*
X26952381Y-175997676D01*
X26952381Y-175997676D02*
X26857143Y-176092914D01*
X26857143Y-176092914D02*
X26761905Y-176140533D01*
X28285714Y-176854819D02*
X27714286Y-176854819D01*
X28000000Y-176854819D02*
X28000000Y-175854819D01*
X28000000Y-175854819D02*
X27904762Y-175997676D01*
X27904762Y-175997676D02*
X27809524Y-176092914D01*
X27809524Y-176092914D02*
X27714286Y-176140533D01*
X237211905Y-176854819D02*
X237211905Y-175854819D01*
X237211905Y-176331009D02*
X237783333Y-176331009D01*
X237783333Y-176854819D02*
X237783333Y-175854819D01*
X238783333Y-176854819D02*
X238211905Y-176854819D01*
X238497619Y-176854819D02*
X238497619Y-175854819D01*
X238497619Y-175854819D02*
X238402381Y-175997676D01*
X238402381Y-175997676D02*
X238307143Y-176092914D01*
X238307143Y-176092914D02*
X238211905Y-176140533D01*
X239640476Y-175854819D02*
X239450000Y-175854819D01*
X239450000Y-175854819D02*
X239354762Y-175902438D01*
X239354762Y-175902438D02*
X239307143Y-175950057D01*
X239307143Y-175950057D02*
X239211905Y-176092914D01*
X239211905Y-176092914D02*
X239164286Y-176283390D01*
X239164286Y-176283390D02*
X239164286Y-176664342D01*
X239164286Y-176664342D02*
X239211905Y-176759580D01*
X239211905Y-176759580D02*
X239259524Y-176807200D01*
X239259524Y-176807200D02*
X239354762Y-176854819D01*
X239354762Y-176854819D02*
X239545238Y-176854819D01*
X239545238Y-176854819D02*
X239640476Y-176807200D01*
X239640476Y-176807200D02*
X239688095Y-176759580D01*
X239688095Y-176759580D02*
X239735714Y-176664342D01*
X239735714Y-176664342D02*
X239735714Y-176426247D01*
X239735714Y-176426247D02*
X239688095Y-176331009D01*
X239688095Y-176331009D02*
X239640476Y-176283390D01*
X239640476Y-176283390D02*
X239545238Y-176235771D01*
X239545238Y-176235771D02*
X239354762Y-176235771D01*
X239354762Y-176235771D02*
X239259524Y-176283390D01*
X239259524Y-176283390D02*
X239211905Y-176331009D01*
X239211905Y-176331009D02*
X239164286Y-176426247D01*
X152588095Y-134154819D02*
X152588095Y-133154819D01*
X152588095Y-133631009D02*
X153159523Y-133631009D01*
X153159523Y-134154819D02*
X153159523Y-133154819D01*
X153778571Y-133583390D02*
X153683333Y-133535771D01*
X153683333Y-133535771D02*
X153635714Y-133488152D01*
X153635714Y-133488152D02*
X153588095Y-133392914D01*
X153588095Y-133392914D02*
X153588095Y-133345295D01*
X153588095Y-133345295D02*
X153635714Y-133250057D01*
X153635714Y-133250057D02*
X153683333Y-133202438D01*
X153683333Y-133202438D02*
X153778571Y-133154819D01*
X153778571Y-133154819D02*
X153969047Y-133154819D01*
X153969047Y-133154819D02*
X154064285Y-133202438D01*
X154064285Y-133202438D02*
X154111904Y-133250057D01*
X154111904Y-133250057D02*
X154159523Y-133345295D01*
X154159523Y-133345295D02*
X154159523Y-133392914D01*
X154159523Y-133392914D02*
X154111904Y-133488152D01*
X154111904Y-133488152D02*
X154064285Y-133535771D01*
X154064285Y-133535771D02*
X153969047Y-133583390D01*
X153969047Y-133583390D02*
X153778571Y-133583390D01*
X153778571Y-133583390D02*
X153683333Y-133631009D01*
X153683333Y-133631009D02*
X153635714Y-133678628D01*
X153635714Y-133678628D02*
X153588095Y-133773866D01*
X153588095Y-133773866D02*
X153588095Y-133964342D01*
X153588095Y-133964342D02*
X153635714Y-134059580D01*
X153635714Y-134059580D02*
X153683333Y-134107200D01*
X153683333Y-134107200D02*
X153778571Y-134154819D01*
X153778571Y-134154819D02*
X153969047Y-134154819D01*
X153969047Y-134154819D02*
X154064285Y-134107200D01*
X154064285Y-134107200D02*
X154111904Y-134059580D01*
X154111904Y-134059580D02*
X154159523Y-133964342D01*
X154159523Y-133964342D02*
X154159523Y-133773866D01*
X154159523Y-133773866D02*
X154111904Y-133678628D01*
X154111904Y-133678628D02*
X154064285Y-133631009D01*
X154064285Y-133631009D02*
X153969047Y-133583390D01*
X191338095Y-109304819D02*
X191338095Y-108304819D01*
X191338095Y-108781009D02*
X191909523Y-108781009D01*
X191909523Y-109304819D02*
X191909523Y-108304819D01*
X192433333Y-109304819D02*
X192623809Y-109304819D01*
X192623809Y-109304819D02*
X192719047Y-109257200D01*
X192719047Y-109257200D02*
X192766666Y-109209580D01*
X192766666Y-109209580D02*
X192861904Y-109066723D01*
X192861904Y-109066723D02*
X192909523Y-108876247D01*
X192909523Y-108876247D02*
X192909523Y-108495295D01*
X192909523Y-108495295D02*
X192861904Y-108400057D01*
X192861904Y-108400057D02*
X192814285Y-108352438D01*
X192814285Y-108352438D02*
X192719047Y-108304819D01*
X192719047Y-108304819D02*
X192528571Y-108304819D01*
X192528571Y-108304819D02*
X192433333Y-108352438D01*
X192433333Y-108352438D02*
X192385714Y-108400057D01*
X192385714Y-108400057D02*
X192338095Y-108495295D01*
X192338095Y-108495295D02*
X192338095Y-108733390D01*
X192338095Y-108733390D02*
X192385714Y-108828628D01*
X192385714Y-108828628D02*
X192433333Y-108876247D01*
X192433333Y-108876247D02*
X192528571Y-108923866D01*
X192528571Y-108923866D02*
X192719047Y-108923866D01*
X192719047Y-108923866D02*
X192814285Y-108876247D01*
X192814285Y-108876247D02*
X192861904Y-108828628D01*
X192861904Y-108828628D02*
X192909523Y-108733390D01*
X240461905Y-113454819D02*
X240461905Y-112454819D01*
X240461905Y-112931009D02*
X241033333Y-112931009D01*
X241033333Y-113454819D02*
X241033333Y-112454819D01*
X241461905Y-112550057D02*
X241509524Y-112502438D01*
X241509524Y-112502438D02*
X241604762Y-112454819D01*
X241604762Y-112454819D02*
X241842857Y-112454819D01*
X241842857Y-112454819D02*
X241938095Y-112502438D01*
X241938095Y-112502438D02*
X241985714Y-112550057D01*
X241985714Y-112550057D02*
X242033333Y-112645295D01*
X242033333Y-112645295D02*
X242033333Y-112740533D01*
X242033333Y-112740533D02*
X241985714Y-112883390D01*
X241985714Y-112883390D02*
X241414286Y-113454819D01*
X241414286Y-113454819D02*
X242033333Y-113454819D01*
X242652381Y-112454819D02*
X242747619Y-112454819D01*
X242747619Y-112454819D02*
X242842857Y-112502438D01*
X242842857Y-112502438D02*
X242890476Y-112550057D01*
X242890476Y-112550057D02*
X242938095Y-112645295D01*
X242938095Y-112645295D02*
X242985714Y-112835771D01*
X242985714Y-112835771D02*
X242985714Y-113073866D01*
X242985714Y-113073866D02*
X242938095Y-113264342D01*
X242938095Y-113264342D02*
X242890476Y-113359580D01*
X242890476Y-113359580D02*
X242842857Y-113407200D01*
X242842857Y-113407200D02*
X242747619Y-113454819D01*
X242747619Y-113454819D02*
X242652381Y-113454819D01*
X242652381Y-113454819D02*
X242557143Y-113407200D01*
X242557143Y-113407200D02*
X242509524Y-113359580D01*
X242509524Y-113359580D02*
X242461905Y-113264342D01*
X242461905Y-113264342D02*
X242414286Y-113073866D01*
X242414286Y-113073866D02*
X242414286Y-112835771D01*
X242414286Y-112835771D02*
X242461905Y-112645295D01*
X242461905Y-112645295D02*
X242509524Y-112550057D01*
X242509524Y-112550057D02*
X242557143Y-112502438D01*
X242557143Y-112502438D02*
X242652381Y-112454819D01*
X194638095Y-176854819D02*
X194638095Y-175854819D01*
X194638095Y-176331009D02*
X195209523Y-176331009D01*
X195209523Y-176854819D02*
X195209523Y-175854819D01*
X196114285Y-175854819D02*
X195923809Y-175854819D01*
X195923809Y-175854819D02*
X195828571Y-175902438D01*
X195828571Y-175902438D02*
X195780952Y-175950057D01*
X195780952Y-175950057D02*
X195685714Y-176092914D01*
X195685714Y-176092914D02*
X195638095Y-176283390D01*
X195638095Y-176283390D02*
X195638095Y-176664342D01*
X195638095Y-176664342D02*
X195685714Y-176759580D01*
X195685714Y-176759580D02*
X195733333Y-176807200D01*
X195733333Y-176807200D02*
X195828571Y-176854819D01*
X195828571Y-176854819D02*
X196019047Y-176854819D01*
X196019047Y-176854819D02*
X196114285Y-176807200D01*
X196114285Y-176807200D02*
X196161904Y-176759580D01*
X196161904Y-176759580D02*
X196209523Y-176664342D01*
X196209523Y-176664342D02*
X196209523Y-176426247D01*
X196209523Y-176426247D02*
X196161904Y-176331009D01*
X196161904Y-176331009D02*
X196114285Y-176283390D01*
X196114285Y-176283390D02*
X196019047Y-176235771D01*
X196019047Y-176235771D02*
X195828571Y-176235771D01*
X195828571Y-176235771D02*
X195733333Y-176283390D01*
X195733333Y-176283390D02*
X195685714Y-176331009D01*
X195685714Y-176331009D02*
X195638095Y-176426247D01*
X256261905Y-82004819D02*
X256261905Y-81004819D01*
X256261905Y-81481009D02*
X256833333Y-81481009D01*
X256833333Y-82004819D02*
X256833333Y-81004819D01*
X257261905Y-81100057D02*
X257309524Y-81052438D01*
X257309524Y-81052438D02*
X257404762Y-81004819D01*
X257404762Y-81004819D02*
X257642857Y-81004819D01*
X257642857Y-81004819D02*
X257738095Y-81052438D01*
X257738095Y-81052438D02*
X257785714Y-81100057D01*
X257785714Y-81100057D02*
X257833333Y-81195295D01*
X257833333Y-81195295D02*
X257833333Y-81290533D01*
X257833333Y-81290533D02*
X257785714Y-81433390D01*
X257785714Y-81433390D02*
X257214286Y-82004819D01*
X257214286Y-82004819D02*
X257833333Y-82004819D01*
X258785714Y-82004819D02*
X258214286Y-82004819D01*
X258500000Y-82004819D02*
X258500000Y-81004819D01*
X258500000Y-81004819D02*
X258404762Y-81147676D01*
X258404762Y-81147676D02*
X258309524Y-81242914D01*
X258309524Y-81242914D02*
X258214286Y-81290533D01*
X332461905Y-81954819D02*
X332461905Y-80954819D01*
X332461905Y-81431009D02*
X333033333Y-81431009D01*
X333033333Y-81954819D02*
X333033333Y-80954819D01*
X334033333Y-81954819D02*
X333461905Y-81954819D01*
X333747619Y-81954819D02*
X333747619Y-80954819D01*
X333747619Y-80954819D02*
X333652381Y-81097676D01*
X333652381Y-81097676D02*
X333557143Y-81192914D01*
X333557143Y-81192914D02*
X333461905Y-81240533D01*
X334366667Y-80954819D02*
X335033333Y-80954819D01*
X335033333Y-80954819D02*
X334604762Y-81954819D01*
X175711905Y-81454819D02*
X175711905Y-80454819D01*
X175711905Y-80931009D02*
X176283333Y-80931009D01*
X176283333Y-81454819D02*
X176283333Y-80454819D01*
X177283333Y-81454819D02*
X176711905Y-81454819D01*
X176997619Y-81454819D02*
X176997619Y-80454819D01*
X176997619Y-80454819D02*
X176902381Y-80597676D01*
X176902381Y-80597676D02*
X176807143Y-80692914D01*
X176807143Y-80692914D02*
X176711905Y-80740533D01*
X177664286Y-80550057D02*
X177711905Y-80502438D01*
X177711905Y-80502438D02*
X177807143Y-80454819D01*
X177807143Y-80454819D02*
X178045238Y-80454819D01*
X178045238Y-80454819D02*
X178140476Y-80502438D01*
X178140476Y-80502438D02*
X178188095Y-80550057D01*
X178188095Y-80550057D02*
X178235714Y-80645295D01*
X178235714Y-80645295D02*
X178235714Y-80740533D01*
X178235714Y-80740533D02*
X178188095Y-80883390D01*
X178188095Y-80883390D02*
X177616667Y-81454819D01*
X177616667Y-81454819D02*
X178235714Y-81454819D01*
X335836604Y-46090839D02*
X335836604Y-45614649D01*
X336122319Y-46186077D02*
X335122319Y-45852744D01*
X335122319Y-45852744D02*
X336122319Y-45519411D01*
X335122319Y-45281315D02*
X335122319Y-44662268D01*
X335122319Y-44662268D02*
X335503271Y-44995601D01*
X335503271Y-44995601D02*
X335503271Y-44852744D01*
X335503271Y-44852744D02*
X335550890Y-44757506D01*
X335550890Y-44757506D02*
X335598509Y-44709887D01*
X335598509Y-44709887D02*
X335693747Y-44662268D01*
X335693747Y-44662268D02*
X335931842Y-44662268D01*
X335931842Y-44662268D02*
X336027080Y-44709887D01*
X336027080Y-44709887D02*
X336074700Y-44757506D01*
X336074700Y-44757506D02*
X336122319Y-44852744D01*
X336122319Y-44852744D02*
X336122319Y-45138458D01*
X336122319Y-45138458D02*
X336074700Y-45233696D01*
X336074700Y-45233696D02*
X336027080Y-45281315D01*
X348711905Y-176904819D02*
X348711905Y-175904819D01*
X348711905Y-176381009D02*
X349283333Y-176381009D01*
X349283333Y-176904819D02*
X349283333Y-175904819D01*
X350283333Y-176904819D02*
X349711905Y-176904819D01*
X349997619Y-176904819D02*
X349997619Y-175904819D01*
X349997619Y-175904819D02*
X349902381Y-176047676D01*
X349902381Y-176047676D02*
X349807143Y-176142914D01*
X349807143Y-176142914D02*
X349711905Y-176190533D01*
X350616667Y-175904819D02*
X351235714Y-175904819D01*
X351235714Y-175904819D02*
X350902381Y-176285771D01*
X350902381Y-176285771D02*
X351045238Y-176285771D01*
X351045238Y-176285771D02*
X351140476Y-176333390D01*
X351140476Y-176333390D02*
X351188095Y-176381009D01*
X351188095Y-176381009D02*
X351235714Y-176476247D01*
X351235714Y-176476247D02*
X351235714Y-176714342D01*
X351235714Y-176714342D02*
X351188095Y-176809580D01*
X351188095Y-176809580D02*
X351140476Y-176857200D01*
X351140476Y-176857200D02*
X351045238Y-176904819D01*
X351045238Y-176904819D02*
X350759524Y-176904819D01*
X350759524Y-176904819D02*
X350664286Y-176857200D01*
X350664286Y-176857200D02*
X350616667Y-176809580D01*
X278811905Y-150654819D02*
X278811905Y-149654819D01*
X278811905Y-150131009D02*
X279383333Y-150131009D01*
X279383333Y-150654819D02*
X279383333Y-149654819D01*
X280383333Y-150654819D02*
X279811905Y-150654819D01*
X280097619Y-150654819D02*
X280097619Y-149654819D01*
X280097619Y-149654819D02*
X280002381Y-149797676D01*
X280002381Y-149797676D02*
X279907143Y-149892914D01*
X279907143Y-149892914D02*
X279811905Y-149940533D01*
X280954762Y-150083390D02*
X280859524Y-150035771D01*
X280859524Y-150035771D02*
X280811905Y-149988152D01*
X280811905Y-149988152D02*
X280764286Y-149892914D01*
X280764286Y-149892914D02*
X280764286Y-149845295D01*
X280764286Y-149845295D02*
X280811905Y-149750057D01*
X280811905Y-149750057D02*
X280859524Y-149702438D01*
X280859524Y-149702438D02*
X280954762Y-149654819D01*
X280954762Y-149654819D02*
X281145238Y-149654819D01*
X281145238Y-149654819D02*
X281240476Y-149702438D01*
X281240476Y-149702438D02*
X281288095Y-149750057D01*
X281288095Y-149750057D02*
X281335714Y-149845295D01*
X281335714Y-149845295D02*
X281335714Y-149892914D01*
X281335714Y-149892914D02*
X281288095Y-149988152D01*
X281288095Y-149988152D02*
X281240476Y-150035771D01*
X281240476Y-150035771D02*
X281145238Y-150083390D01*
X281145238Y-150083390D02*
X280954762Y-150083390D01*
X280954762Y-150083390D02*
X280859524Y-150131009D01*
X280859524Y-150131009D02*
X280811905Y-150178628D01*
X280811905Y-150178628D02*
X280764286Y-150273866D01*
X280764286Y-150273866D02*
X280764286Y-150464342D01*
X280764286Y-150464342D02*
X280811905Y-150559580D01*
X280811905Y-150559580D02*
X280859524Y-150607200D01*
X280859524Y-150607200D02*
X280954762Y-150654819D01*
X280954762Y-150654819D02*
X281145238Y-150654819D01*
X281145238Y-150654819D02*
X281240476Y-150607200D01*
X281240476Y-150607200D02*
X281288095Y-150559580D01*
X281288095Y-150559580D02*
X281335714Y-150464342D01*
X281335714Y-150464342D02*
X281335714Y-150273866D01*
X281335714Y-150273866D02*
X281288095Y-150178628D01*
X281288095Y-150178628D02*
X281240476Y-150131009D01*
X281240476Y-150131009D02*
X281145238Y-150083390D01*
G04 #@! TO.C,A2*
D11*
X86907651Y-43930000D02*
X86907651Y-47767939D01*
X86907651Y-50330000D02*
X86907651Y-48692061D01*
X86907651Y-59167939D02*
X86907651Y-57530000D01*
X86907651Y-60092061D02*
X86907651Y-63930000D01*
X86970651Y-64200000D02*
X138064651Y-64200000D01*
X87821171Y-46420000D02*
X86907651Y-46420000D01*
X87821171Y-61440000D02*
X86907651Y-61440000D01*
X133607651Y-57830000D02*
X133607651Y-50030000D01*
X134821171Y-46420000D02*
X90214131Y-46420000D01*
X134821171Y-61440000D02*
X90214131Y-61440000D01*
X134823651Y-50030000D02*
X133607651Y-50030000D01*
X134823651Y-57830000D02*
X133607651Y-57830000D01*
X135847651Y-43000000D02*
X137447651Y-43000000D01*
X137517651Y-43320000D02*
X87517651Y-43320000D01*
X137517651Y-64540000D02*
X87517651Y-64540000D01*
X138064651Y-43660000D02*
X86970651Y-43660000D01*
X138127651Y-43930000D02*
X138127651Y-46420000D01*
X138127651Y-46420000D02*
X137214131Y-46420000D01*
X138127651Y-46420000D02*
X138127651Y-47767940D01*
X138127651Y-48692061D02*
X138127651Y-49695000D01*
X138127651Y-49695000D02*
X138127651Y-58165000D01*
X138127651Y-58165000D02*
X138127651Y-59167939D01*
X138127651Y-60092061D02*
X138127651Y-61440000D01*
X138127651Y-61440000D02*
X137214131Y-61440000D01*
X138127651Y-63930000D02*
X138127651Y-61440000D01*
X138607651Y-49820000D02*
X138607651Y-50030000D01*
X138607651Y-50030000D02*
X137211651Y-50030000D01*
X138607651Y-57830000D02*
X137211651Y-57830000D01*
X138607651Y-58040000D02*
X138607651Y-57830000D01*
X139427651Y-49820000D02*
X138607651Y-49820000D01*
X139427651Y-49820000D02*
X139427651Y-58040000D01*
X139427651Y-58040000D02*
X138607651Y-58040000D01*
X137517651Y-43320000D02*
G75*
G02*
X138127651Y-43930000I0J-610000D01*
G01*
X138127651Y-63930000D02*
G75*
G02*
X137517651Y-64540000I-610000J0D01*
G01*
G04 #@! TO.C,H4*
D12*
X214400000Y-160250000D02*
G75*
G02*
X219400000Y-160250000I2500000J0D01*
G01*
X219400000Y-150250000D02*
G75*
G02*
X214400000Y-150250000I-2500000J0D01*
G01*
G04 #@! TO.C,SW51*
D11*
X197360151Y-71030000D02*
X197960151Y-71030000D01*
X197660151Y-71330000D02*
X197360151Y-71030000D01*
X197960151Y-71030000D02*
X197660151Y-71330000D01*
X199060151Y-69230000D02*
X199060151Y-81030000D01*
X203160151Y-69230000D02*
X199060151Y-69230000D01*
X203160151Y-81030000D02*
X199060151Y-81030000D01*
X204660151Y-75130000D02*
X205660151Y-75130000D01*
X205160151Y-74630000D02*
X205160151Y-75630000D01*
X207160151Y-69230000D02*
X211260151Y-69230000D01*
X211260151Y-69230000D02*
X211260151Y-71630000D01*
X211260151Y-73830000D02*
X211260151Y-76430000D01*
X211260151Y-78630000D02*
X211260151Y-81030000D01*
X211260151Y-81030000D02*
X207160151Y-81030000D01*
X208160151Y-75130000D02*
G75*
G02*
X202160151Y-75130000I-3000000J0D01*
G01*
X202160151Y-75130000D02*
G75*
G02*
X208160151Y-75130000I3000000J0D01*
G01*
G04 #@! TO.C,U2*
X45830151Y-64620000D02*
X47210151Y-64620000D01*
X47210151Y-63240000D02*
X47210151Y-64620000D01*
X44330151Y-53430000D02*
X82330151Y-53430000D01*
X82330151Y-65430000D01*
X44330151Y-65430000D01*
X44330151Y-53430000D01*
G04 #@! TO.C,SW93*
X221372500Y-71030000D02*
X221972500Y-71030000D01*
X221672500Y-71330000D02*
X221372500Y-71030000D01*
X221972500Y-71030000D02*
X221672500Y-71330000D01*
X223072500Y-69230000D02*
X223072500Y-81030000D01*
X227172500Y-69230000D02*
X223072500Y-69230000D01*
X227172500Y-81030000D02*
X223072500Y-81030000D01*
X228672500Y-75130000D02*
X229672500Y-75130000D01*
X229172500Y-74630000D02*
X229172500Y-75630000D01*
X231172500Y-69230000D02*
X235272500Y-69230000D01*
X235272500Y-69230000D02*
X235272500Y-71630000D01*
X235272500Y-73830000D02*
X235272500Y-76430000D01*
X235272500Y-78630000D02*
X235272500Y-81030000D01*
X235272500Y-81030000D02*
X231172500Y-81030000D01*
X232172500Y-75130000D02*
G75*
G02*
X226172500Y-75130000I-3000000J0D01*
G01*
X226172500Y-75130000D02*
G75*
G02*
X232172500Y-75130000I3000000J0D01*
G01*
G04 #@! TO.C,U3*
X333767500Y-64120000D02*
X335147500Y-64120000D01*
X335147500Y-62740000D02*
X335147500Y-64120000D01*
X332267500Y-52930000D02*
X370267500Y-52930000D01*
X370267500Y-64930000D01*
X332267500Y-64930000D01*
X332267500Y-52930000D01*
G04 #@! TO.C,H2*
D12*
X214400000Y-141200000D02*
G75*
G02*
X219400000Y-141200000I2500000J0D01*
G01*
X219400000Y-131200000D02*
G75*
G02*
X214400000Y-131200000I-2500000J0D01*
G01*
G04 #@! TO.C,H3*
X214400000Y-103100000D02*
G75*
G02*
X219400000Y-103100000I2500000J0D01*
G01*
X219400000Y-93100000D02*
G75*
G02*
X214400000Y-93100000I-2500000J0D01*
G01*
G04 #@! TO.C,H1*
X214400000Y-122150000D02*
G75*
G02*
X219400000Y-122150000I2500000J0D01*
G01*
X219400000Y-112150000D02*
G75*
G02*
X214400000Y-112150000I-2500000J0D01*
G01*
G04 #@! TO.C,A3*
D11*
X275407500Y-49710000D02*
X276227500Y-49710000D01*
X275407500Y-57930000D02*
X275407500Y-49710000D01*
X275407500Y-57930000D02*
X276227500Y-57930000D01*
X276227500Y-49710000D02*
X276227500Y-49920000D01*
X276227500Y-49920000D02*
X277623500Y-49920000D01*
X276227500Y-57720000D02*
X277623500Y-57720000D01*
X276227500Y-57930000D02*
X276227500Y-57720000D01*
X276707500Y-43820000D02*
X276707500Y-46310000D01*
X276707500Y-46310000D02*
X277621020Y-46310000D01*
X276707500Y-47657939D02*
X276707500Y-46310000D01*
X276707500Y-49585000D02*
X276707500Y-48582061D01*
X276707500Y-58055000D02*
X276707500Y-49585000D01*
X276707500Y-59057939D02*
X276707500Y-58055000D01*
X276707500Y-61330000D02*
X276707500Y-59982060D01*
X276707500Y-61330000D02*
X277621020Y-61330000D01*
X276707500Y-63820000D02*
X276707500Y-61330000D01*
X276770500Y-64090000D02*
X327864500Y-64090000D01*
X277317500Y-43210000D02*
X327317500Y-43210000D01*
X277317500Y-64430000D02*
X327317500Y-64430000D01*
X278987500Y-64750000D02*
X277387500Y-64750000D01*
X280011500Y-49920000D02*
X281227500Y-49920000D01*
X280011500Y-57720000D02*
X281227500Y-57720000D01*
X280013980Y-46310000D02*
X324621020Y-46310000D01*
X280013980Y-61330000D02*
X324621020Y-61330000D01*
X281227500Y-49920000D02*
X281227500Y-57720000D01*
X327013980Y-46310000D02*
X327927500Y-46310000D01*
X327013980Y-61330000D02*
X327927500Y-61330000D01*
X327864500Y-43550000D02*
X276770500Y-43550000D01*
X327927500Y-47657939D02*
X327927500Y-43820000D01*
X327927500Y-48582061D02*
X327927500Y-50220000D01*
X327927500Y-57420000D02*
X327927500Y-59057939D01*
X327927500Y-63820000D02*
X327927500Y-59982061D01*
X276707500Y-43820000D02*
G75*
G02*
X277317500Y-43210000I610000J0D01*
G01*
X277317500Y-64430000D02*
G75*
G02*
X276707500Y-63820000I0J610000D01*
G01*
G04 #@! TO.C,H5*
D12*
X214400000Y-179850000D02*
G75*
G02*
X219400000Y-179850000I2500000J0D01*
G01*
X219400000Y-169850000D02*
G75*
G02*
X214400000Y-169850000I-2500000J0D01*
G01*
G04 #@! TD*
%LPC*%
D13*
G04 #@! TO.C,H15*
X100100000Y-80750000D03*
G04 #@! TD*
G04 #@! TO.C,H10*
X52500000Y-120250000D03*
G04 #@! TD*
D14*
G04 #@! TO.C,A2*
X136647651Y-45040000D03*
D15*
X134107651Y-45040000D03*
D16*
X131567651Y-45040000D03*
D15*
X129027651Y-45040000D03*
X126487651Y-45040000D03*
X123947651Y-45040000D03*
X121407651Y-45040000D03*
D16*
X118867651Y-45040000D03*
D15*
X116327651Y-45040000D03*
X113787651Y-45040000D03*
X111247651Y-45040000D03*
X108707651Y-45040000D03*
D16*
X106167651Y-45040000D03*
D15*
X103627651Y-45040000D03*
X101087651Y-45040000D03*
X98547651Y-45040000D03*
X96007651Y-45040000D03*
D16*
X93467651Y-45040000D03*
D15*
X90927651Y-45040000D03*
X88387651Y-45040000D03*
X88387651Y-62820000D03*
X90927651Y-62820000D03*
D17*
X93467651Y-62820000D03*
D15*
X96007651Y-62820000D03*
X98547651Y-62820000D03*
X101087651Y-62820000D03*
X103627651Y-62820000D03*
D17*
X106167651Y-62820000D03*
D15*
X108707651Y-62820000D03*
X111247651Y-62820000D03*
X113787651Y-62820000D03*
X116327651Y-62820000D03*
D17*
X118867651Y-62820000D03*
D15*
X121407651Y-62820000D03*
X123947651Y-62820000D03*
X126487651Y-62820000D03*
X129027651Y-62820000D03*
D17*
X131567651Y-62820000D03*
D15*
X134107651Y-62820000D03*
X136647651Y-62820000D03*
G04 #@! TD*
D18*
G04 #@! TO.C,H4*
X214400000Y-159000000D03*
X219400000Y-159000000D03*
X214400000Y-158250000D03*
X219400000Y-158250000D03*
X214400000Y-157500000D03*
X219400000Y-157500000D03*
X214400000Y-156750000D03*
X219400000Y-156750000D03*
X214400000Y-156000000D03*
X219400000Y-156000000D03*
X214400000Y-155250000D03*
X219400000Y-155250000D03*
X214400000Y-154500000D03*
X219400000Y-154500000D03*
X214400000Y-153750000D03*
X219400000Y-153750000D03*
X214400000Y-153000000D03*
X219400000Y-153000000D03*
X214400000Y-152250000D03*
X219400000Y-152250000D03*
X214400000Y-151500000D03*
X219400000Y-151500000D03*
G04 #@! TD*
D19*
G04 #@! TO.C,SW51*
X197660151Y-72630000D03*
D20*
X197660151Y-77630000D03*
X197660151Y-75130000D03*
D21*
X205160151Y-69530000D03*
X205160151Y-80730000D03*
D20*
X212160151Y-77630000D03*
X212160151Y-72630000D03*
G04 #@! TD*
D22*
G04 #@! TO.C,U2*
X45830151Y-63240000D03*
D23*
X45830151Y-60700000D03*
X45830151Y-58160000D03*
X45830151Y-55620000D03*
G04 #@! TD*
D19*
G04 #@! TO.C,SW93*
X221672500Y-72630000D03*
D20*
X221672500Y-77630000D03*
X221672500Y-75130000D03*
D21*
X229172500Y-69530000D03*
X229172500Y-80730000D03*
D20*
X236172500Y-77630000D03*
X236172500Y-72630000D03*
G04 #@! TD*
D13*
G04 #@! TO.C,H19*
X295550000Y-102500000D03*
G04 #@! TD*
G04 #@! TO.C,H14*
X62150000Y-83450000D03*
G04 #@! TD*
D22*
G04 #@! TO.C,U3*
X333767500Y-62740000D03*
D23*
X333767500Y-60200000D03*
X333767500Y-57660000D03*
X333767500Y-55120000D03*
G04 #@! TD*
D13*
G04 #@! TO.C,H7*
X114450000Y-179550000D03*
G04 #@! TD*
D18*
G04 #@! TO.C,H2*
X214400000Y-139950000D03*
X219400000Y-139950000D03*
X214400000Y-139200000D03*
X219400000Y-139200000D03*
X214400000Y-138450000D03*
X219400000Y-138450000D03*
X214400000Y-137700000D03*
X219400000Y-137700000D03*
X214400000Y-136950000D03*
X219400000Y-136950000D03*
X214400000Y-136200000D03*
X219400000Y-136200000D03*
X214400000Y-135450000D03*
X219400000Y-135450000D03*
X214400000Y-134700000D03*
X219400000Y-134700000D03*
X214400000Y-133950000D03*
X219400000Y-133950000D03*
X214400000Y-133200000D03*
X219400000Y-133200000D03*
X214400000Y-132450000D03*
X219400000Y-132450000D03*
G04 #@! TD*
D13*
G04 #@! TO.C,H11*
X27000000Y-179550000D03*
G04 #@! TD*
G04 #@! TO.C,H16*
X238450000Y-179550000D03*
G04 #@! TD*
D18*
G04 #@! TO.C,H3*
X214400000Y-101850000D03*
X219400000Y-101850000D03*
X214400000Y-101100000D03*
X219400000Y-101100000D03*
X214400000Y-100350000D03*
X219400000Y-100350000D03*
X214400000Y-99600000D03*
X219400000Y-99600000D03*
X214400000Y-98850000D03*
X219400000Y-98850000D03*
X214400000Y-98100000D03*
X219400000Y-98100000D03*
X214400000Y-97350000D03*
X219400000Y-97350000D03*
X214400000Y-96600000D03*
X219400000Y-96600000D03*
X214400000Y-95850000D03*
X219400000Y-95850000D03*
X214400000Y-95100000D03*
X219400000Y-95100000D03*
X214400000Y-94350000D03*
X219400000Y-94350000D03*
G04 #@! TD*
D13*
G04 #@! TO.C,H8*
X153350000Y-136850000D03*
G04 #@! TD*
G04 #@! TO.C,H9*
X192100000Y-112000000D03*
G04 #@! TD*
G04 #@! TO.C,H20*
X241700000Y-116150000D03*
G04 #@! TD*
G04 #@! TO.C,H6*
X195400000Y-179550000D03*
G04 #@! TD*
G04 #@! TO.C,H21*
X257500000Y-84700000D03*
G04 #@! TD*
G04 #@! TO.C,H17*
X333700000Y-84650000D03*
G04 #@! TD*
G04 #@! TO.C,H12*
X176950000Y-84150000D03*
G04 #@! TD*
D18*
G04 #@! TO.C,H1*
X214400000Y-120900000D03*
X219400000Y-120900000D03*
X214400000Y-120150000D03*
X219400000Y-120150000D03*
X214400000Y-119400000D03*
X219400000Y-119400000D03*
X214400000Y-118650000D03*
X219400000Y-118650000D03*
X214400000Y-117900000D03*
X219400000Y-117900000D03*
X214400000Y-117150000D03*
X219400000Y-117150000D03*
X214400000Y-116400000D03*
X219400000Y-116400000D03*
X214400000Y-115650000D03*
X219400000Y-115650000D03*
X214400000Y-114900000D03*
X219400000Y-114900000D03*
X214400000Y-114150000D03*
X219400000Y-114150000D03*
X214400000Y-113400000D03*
X219400000Y-113400000D03*
G04 #@! TD*
D24*
G04 #@! TO.C,A3*
X278187500Y-62710000D03*
D15*
X280727500Y-62710000D03*
D25*
X283267500Y-62710000D03*
D15*
X285807500Y-62710000D03*
X288347500Y-62710000D03*
X290887500Y-62710000D03*
X293427500Y-62710000D03*
D25*
X295967500Y-62710000D03*
D15*
X298507500Y-62710000D03*
X301047500Y-62710000D03*
X303587500Y-62710000D03*
X306127500Y-62710000D03*
D25*
X308667500Y-62710000D03*
D15*
X311207500Y-62710000D03*
X313747500Y-62710000D03*
X316287500Y-62710000D03*
X318827500Y-62710000D03*
D25*
X321367500Y-62710000D03*
D15*
X323907500Y-62710000D03*
X326447500Y-62710000D03*
X326447500Y-44930000D03*
X323907500Y-44930000D03*
D26*
X321367500Y-44930000D03*
D15*
X318827500Y-44930000D03*
X316287500Y-44930000D03*
X313747500Y-44930000D03*
X311207500Y-44930000D03*
D26*
X308667500Y-44930000D03*
D15*
X306127500Y-44930000D03*
X303587500Y-44930000D03*
X301047500Y-44930000D03*
X298507500Y-44930000D03*
D26*
X295967500Y-44930000D03*
D15*
X293427500Y-44930000D03*
X290887500Y-44930000D03*
X288347500Y-44930000D03*
X285807500Y-44930000D03*
D26*
X283267500Y-44930000D03*
D15*
X280727500Y-44930000D03*
X278187500Y-44930000D03*
G04 #@! TD*
D18*
G04 #@! TO.C,H5*
X214400000Y-178600000D03*
X219400000Y-178600000D03*
X214400000Y-177850000D03*
X219400000Y-177850000D03*
X214400000Y-177100000D03*
X219400000Y-177100000D03*
X214400000Y-176350000D03*
X219400000Y-176350000D03*
X214400000Y-175600000D03*
X219400000Y-175600000D03*
X214400000Y-174850000D03*
X219400000Y-174850000D03*
X214400000Y-174100000D03*
X219400000Y-174100000D03*
X214400000Y-173350000D03*
X219400000Y-173350000D03*
X214400000Y-172600000D03*
X219400000Y-172600000D03*
X214400000Y-171850000D03*
X219400000Y-171850000D03*
X214400000Y-171100000D03*
X219400000Y-171100000D03*
G04 #@! TD*
D13*
G04 #@! TO.C,H13*
X349950000Y-179600000D03*
G04 #@! TD*
G04 #@! TO.C,H18*
X280050000Y-153350000D03*
G04 #@! TD*
D27*
G04 #@! TO.C,SW120*
X324490000Y-132280000D03*
D28*
X321950000Y-127200000D03*
D29*
X319410000Y-132280000D03*
D28*
X315600000Y-129740000D03*
D27*
X314330000Y-132280000D03*
G04 #@! TD*
G04 #@! TO.C,SW97*
X310202500Y-75130000D03*
D28*
X307662500Y-70050000D03*
D29*
X305122500Y-75130000D03*
D28*
X301312500Y-72590000D03*
D27*
X300042500Y-75130000D03*
G04 #@! TD*
G04 #@! TO.C,SW132*
X279246250Y-170380000D03*
D28*
X276706250Y-165300000D03*
D29*
X274166250Y-170380000D03*
D28*
X270356250Y-167840000D03*
D27*
X269086250Y-170380000D03*
G04 #@! TD*
G04 #@! TO.C,SW74*
X148077651Y-132280000D03*
D28*
X145537651Y-127200000D03*
D29*
X142997651Y-132280000D03*
D28*
X139187651Y-129740000D03*
D27*
X137917651Y-132280000D03*
G04 #@! TD*
D29*
G04 #@! TO.C,SW124*
X271816750Y-159585000D03*
D28*
X271816750Y-144345000D03*
D27*
X264958750Y-151330000D03*
D28*
X262418750Y-146250000D03*
D29*
X259878750Y-151330000D03*
D28*
X256068750Y-148790000D03*
D27*
X254798750Y-151330000D03*
D29*
X247940750Y-159585000D03*
D28*
X247940750Y-144345000D03*
G04 #@! TD*
D27*
G04 #@! TO.C,SW109*
X234002500Y-113230000D03*
D28*
X231462500Y-108150000D03*
D29*
X228922500Y-113230000D03*
D28*
X225112500Y-110690000D03*
D27*
X223842500Y-113230000D03*
G04 #@! TD*
G04 #@! TO.C,SW99*
X348302500Y-75130000D03*
D28*
X345762500Y-70050000D03*
D29*
X343222500Y-75130000D03*
D28*
X339412500Y-72590000D03*
D27*
X338142500Y-75130000D03*
G04 #@! TD*
G04 #@! TO.C,SW127*
X334015000Y-151330000D03*
D28*
X331475000Y-146250000D03*
D29*
X328935000Y-151330000D03*
D28*
X325125000Y-148790000D03*
D27*
X323855000Y-151330000D03*
G04 #@! TD*
G04 #@! TO.C,SW78*
X81402651Y-151330000D03*
D28*
X78862651Y-146250000D03*
D29*
X76322651Y-151330000D03*
D28*
X72512651Y-148790000D03*
D27*
X71242651Y-151330000D03*
G04 #@! TD*
G04 #@! TO.C,SW91*
X190940151Y-170380000D03*
D28*
X188400151Y-165300000D03*
D29*
X185860151Y-170380000D03*
D28*
X182050151Y-167840000D03*
D27*
X180780151Y-170380000D03*
G04 #@! TD*
G04 #@! TO.C,SW68*
X209990151Y-113230000D03*
D28*
X207450151Y-108150000D03*
D29*
X204910151Y-113230000D03*
D28*
X201100151Y-110690000D03*
D27*
X199830151Y-113230000D03*
G04 #@! TD*
G04 #@! TO.C,SW49*
X171890151Y-75130000D03*
D28*
X169350151Y-70050000D03*
D29*
X166810151Y-75130000D03*
D28*
X163000151Y-72590000D03*
D27*
X161730151Y-75130000D03*
G04 #@! TD*
G04 #@! TO.C,SW103*
X272102500Y-94180000D03*
D28*
X269562500Y-89100000D03*
D29*
X267022500Y-94180000D03*
D28*
X263212500Y-91640000D03*
D27*
X261942500Y-94180000D03*
G04 #@! TD*
G04 #@! TO.C,SW98*
X329252500Y-75130000D03*
D28*
X326712500Y-70050000D03*
D29*
X324172500Y-75130000D03*
D28*
X320362500Y-72590000D03*
D27*
X319092500Y-75130000D03*
G04 #@! TD*
G04 #@! TO.C,SW130*
X234002500Y-170380000D03*
D28*
X231462500Y-165300000D03*
D29*
X228922500Y-170380000D03*
D28*
X225112500Y-167840000D03*
D27*
X223842500Y-170380000D03*
G04 #@! TD*
G04 #@! TO.C,SW108*
X367352500Y-94180000D03*
D28*
X364812500Y-89100000D03*
D29*
X362272500Y-94180000D03*
D28*
X358462500Y-91640000D03*
D27*
X357192500Y-94180000D03*
G04 #@! TD*
G04 #@! TO.C,SW119*
X305440000Y-132280000D03*
D28*
X302900000Y-127200000D03*
D29*
X300360000Y-132280000D03*
D28*
X296550000Y-129740000D03*
D27*
X295280000Y-132280000D03*
G04 #@! TD*
G04 #@! TO.C,SW81*
X138552651Y-151330000D03*
D28*
X136012651Y-146250000D03*
D29*
X133472651Y-151330000D03*
D28*
X129662651Y-148790000D03*
D27*
X128392651Y-151330000D03*
G04 #@! TD*
G04 #@! TO.C,SW77*
X62352651Y-151330000D03*
D28*
X59812651Y-146250000D03*
D29*
X57272651Y-151330000D03*
D28*
X53462651Y-148790000D03*
D27*
X52192651Y-151330000D03*
G04 #@! TD*
G04 #@! TO.C,SW110*
X257815000Y-113230000D03*
D28*
X255275000Y-108150000D03*
D29*
X252735000Y-113230000D03*
D28*
X248925000Y-110690000D03*
D27*
X247655000Y-113230000D03*
G04 #@! TD*
G04 #@! TO.C,SW65*
X143315151Y-113230000D03*
D28*
X140775151Y-108150000D03*
D29*
X138235151Y-113230000D03*
D28*
X134425151Y-110690000D03*
D27*
X133155151Y-113230000D03*
G04 #@! TD*
G04 #@! TO.C,SW133*
X303058750Y-170380000D03*
D28*
X300518750Y-165300000D03*
D29*
X297978750Y-170380000D03*
D28*
X294168750Y-167840000D03*
D27*
X292898750Y-170380000D03*
G04 #@! TD*
G04 #@! TO.C,SW104*
X291152500Y-94180000D03*
D28*
X288612500Y-89100000D03*
D29*
X286072500Y-94180000D03*
D28*
X282262500Y-91640000D03*
D27*
X280992500Y-94180000D03*
G04 #@! TD*
G04 #@! TO.C,SW76*
X209990151Y-132280000D03*
D28*
X207450151Y-127200000D03*
D29*
X204910151Y-132280000D03*
D28*
X201100151Y-129740000D03*
D27*
X199830151Y-132280000D03*
G04 #@! TD*
G04 #@! TO.C,SW121*
X343540000Y-132280000D03*
D28*
X341000000Y-127200000D03*
D29*
X338460000Y-132280000D03*
D28*
X334650000Y-129740000D03*
D27*
X333380000Y-132280000D03*
G04 #@! TD*
G04 #@! TO.C,SW70*
X71877651Y-132280000D03*
D28*
X69337651Y-127200000D03*
D29*
X66797651Y-132280000D03*
D28*
X62987651Y-129740000D03*
D27*
X61717651Y-132280000D03*
G04 #@! TD*
G04 #@! TO.C,SW69*
X52827651Y-132280000D03*
D28*
X50287651Y-127200000D03*
D29*
X47747651Y-132280000D03*
D28*
X43937651Y-129740000D03*
D27*
X42667651Y-132280000D03*
G04 #@! TD*
G04 #@! TO.C,SW96*
X291152500Y-75130000D03*
D28*
X288612500Y-70050000D03*
D29*
X286072500Y-75130000D03*
D28*
X282262500Y-72590000D03*
D27*
X280992500Y-75130000D03*
G04 #@! TD*
G04 #@! TO.C,SW66*
X162365151Y-113230000D03*
D28*
X159825151Y-108150000D03*
D29*
X157285151Y-113230000D03*
D28*
X153475151Y-110690000D03*
D27*
X152205151Y-113230000D03*
G04 #@! TD*
G04 #@! TO.C,SW125*
X295915000Y-151330000D03*
D28*
X293375000Y-146250000D03*
D29*
X290835000Y-151330000D03*
D28*
X287025000Y-148790000D03*
D27*
X285755000Y-151330000D03*
G04 #@! TD*
D15*
G04 #@! TO.C,R8*
X58314851Y-51345641D03*
X68474851Y-51345641D03*
G04 #@! TD*
D27*
G04 #@! TO.C,SW105*
X310202500Y-94180000D03*
D28*
X307662500Y-89100000D03*
D29*
X305122500Y-94180000D03*
D28*
X301312500Y-91640000D03*
D27*
X300042500Y-94180000D03*
G04 #@! TD*
G04 #@! TO.C,SW72*
X109977651Y-132280000D03*
D28*
X107437651Y-127200000D03*
D29*
X104897651Y-132280000D03*
D28*
X101087651Y-129740000D03*
D27*
X99817651Y-132280000D03*
G04 #@! TD*
G04 #@! TO.C,SW114*
X338777500Y-113230000D03*
D28*
X336237500Y-108150000D03*
D29*
X333697500Y-113230000D03*
D28*
X329887500Y-110690000D03*
D27*
X328617500Y-113230000D03*
G04 #@! TD*
G04 #@! TO.C,SW44*
X76640151Y-75130000D03*
D28*
X74100151Y-70050000D03*
D29*
X71560151Y-75130000D03*
D28*
X67750151Y-72590000D03*
D27*
X66480151Y-75130000D03*
G04 #@! TD*
D29*
G04 #@! TO.C,SW85*
X62066901Y-178635000D03*
D28*
X62066901Y-163395000D03*
D27*
X55208901Y-170380000D03*
D28*
X52668901Y-165300000D03*
D29*
X50128901Y-170380000D03*
D28*
X46318901Y-167840000D03*
D27*
X45048901Y-170380000D03*
D29*
X38190901Y-178635000D03*
D28*
X38190901Y-163395000D03*
G04 #@! TD*
D27*
G04 #@! TO.C,SW112*
X300677500Y-113230000D03*
D28*
X298137500Y-108150000D03*
D29*
X295597500Y-113230000D03*
D28*
X291787500Y-110690000D03*
D27*
X290517500Y-113230000D03*
G04 #@! TD*
D29*
G04 #@! TO.C,SW134*
X343254250Y-178635000D03*
D28*
X343254250Y-163395000D03*
D27*
X336396250Y-170380000D03*
D28*
X333856250Y-165300000D03*
D29*
X331316250Y-170380000D03*
D28*
X327506250Y-167840000D03*
D27*
X326236250Y-170380000D03*
D29*
X319378250Y-178635000D03*
D28*
X319378250Y-163395000D03*
G04 #@! TD*
D27*
G04 #@! TO.C,SW118*
X286390000Y-132280000D03*
D28*
X283850000Y-127200000D03*
D29*
X281310000Y-132280000D03*
D28*
X277500000Y-129740000D03*
D27*
X276230000Y-132280000D03*
G04 #@! TD*
G04 #@! TO.C,SW92*
X209990151Y-170380000D03*
D28*
X207450151Y-165300000D03*
D29*
X204910151Y-170380000D03*
D28*
X201100151Y-167840000D03*
D27*
X199830151Y-170380000D03*
G04 #@! TD*
G04 #@! TO.C,SW126*
X314965000Y-151330000D03*
D28*
X312425000Y-146250000D03*
D29*
X309885000Y-151330000D03*
D28*
X306075000Y-148790000D03*
D27*
X304805000Y-151330000D03*
G04 #@! TD*
G04 #@! TO.C,SW52*
X57590151Y-94180000D03*
D28*
X55050151Y-89100000D03*
D29*
X52510151Y-94180000D03*
D28*
X48700151Y-91640000D03*
D27*
X47430151Y-94180000D03*
G04 #@! TD*
G04 #@! TO.C,SW117*
X260196250Y-132280000D03*
D28*
X257656250Y-127200000D03*
D29*
X255116250Y-132280000D03*
D28*
X251306250Y-129740000D03*
D27*
X250036250Y-132280000D03*
G04 #@! TD*
G04 #@! TO.C,SW50*
X190940151Y-75130000D03*
D28*
X188400151Y-70050000D03*
D29*
X185860151Y-75130000D03*
D28*
X182050151Y-72590000D03*
D27*
X180780151Y-75130000D03*
G04 #@! TD*
G04 #@! TO.C,SW80*
X119502651Y-151330000D03*
D28*
X116962651Y-146250000D03*
D29*
X114422651Y-151330000D03*
D28*
X110612651Y-148790000D03*
D27*
X109342651Y-151330000D03*
G04 #@! TD*
G04 #@! TO.C,SW84*
X209990151Y-151330000D03*
D28*
X207450151Y-146250000D03*
D29*
X204910151Y-151330000D03*
D28*
X201100151Y-148790000D03*
D27*
X199830151Y-151330000D03*
G04 #@! TD*
G04 #@! TO.C,SW63*
X105215151Y-113230000D03*
D28*
X102675151Y-108150000D03*
D29*
X100135151Y-113230000D03*
D28*
X96325151Y-110690000D03*
D27*
X95055151Y-113230000D03*
G04 #@! TD*
G04 #@! TO.C,SW43*
X57590151Y-75130000D03*
D28*
X55050151Y-70050000D03*
D29*
X52510151Y-75130000D03*
D28*
X48700151Y-72590000D03*
D27*
X47430151Y-75130000D03*
G04 #@! TD*
G04 #@! TO.C,SW115*
X357827500Y-113230000D03*
D28*
X355287500Y-108150000D03*
D29*
X352747500Y-113230000D03*
D28*
X348937500Y-110690000D03*
D27*
X347667500Y-113230000D03*
G04 #@! TD*
G04 #@! TO.C,SW53*
X76640151Y-94180000D03*
D28*
X74100151Y-89100000D03*
D29*
X71560151Y-94180000D03*
D28*
X67750151Y-91640000D03*
D27*
X66480151Y-94180000D03*
G04 #@! TD*
G04 #@! TO.C,SW82*
X164746401Y-151330000D03*
D28*
X162206401Y-146250000D03*
D29*
X159666401Y-151330000D03*
D28*
X155856401Y-148790000D03*
D27*
X154586401Y-151330000D03*
G04 #@! TD*
G04 #@! TO.C,SW90*
X171890151Y-170380000D03*
D28*
X169350151Y-165300000D03*
D29*
X166810151Y-170380000D03*
D28*
X163000151Y-167840000D03*
D27*
X161730151Y-170380000D03*
G04 #@! TD*
G04 #@! TO.C,SW60*
X48065151Y-113230000D03*
D28*
X45525151Y-108150000D03*
D29*
X42985151Y-113230000D03*
D28*
X39175151Y-110690000D03*
D27*
X37905151Y-113230000D03*
G04 #@! TD*
G04 #@! TO.C,SW56*
X133790151Y-94180000D03*
D28*
X131250151Y-89100000D03*
D29*
X128710151Y-94180000D03*
D28*
X124900151Y-91640000D03*
D27*
X123630151Y-94180000D03*
G04 #@! TD*
G04 #@! TO.C,SW116*
X234002500Y-132280000D03*
D28*
X231462500Y-127200000D03*
D29*
X228922500Y-132280000D03*
D28*
X225112500Y-129740000D03*
D27*
X223842500Y-132280000D03*
G04 #@! TD*
G04 #@! TO.C,SW61*
X67115151Y-113230000D03*
D28*
X64575151Y-108150000D03*
D29*
X62035151Y-113230000D03*
D28*
X58225151Y-110690000D03*
D27*
X56955151Y-113230000D03*
G04 #@! TD*
G04 #@! TO.C,SW79*
X100452651Y-151330000D03*
D28*
X97912651Y-146250000D03*
D29*
X95372651Y-151330000D03*
D28*
X91562651Y-148790000D03*
D27*
X90292651Y-151330000D03*
G04 #@! TD*
G04 #@! TO.C,SW95*
X272102500Y-75130000D03*
D28*
X269562500Y-70050000D03*
D29*
X267022500Y-75130000D03*
D28*
X263212500Y-72590000D03*
D27*
X261942500Y-75130000D03*
G04 #@! TD*
G04 #@! TO.C,SW101*
X234002500Y-94180000D03*
D28*
X231462500Y-89100000D03*
D29*
X228922500Y-94180000D03*
D28*
X225112500Y-91640000D03*
D27*
X223842500Y-94180000D03*
G04 #@! TD*
G04 #@! TO.C,SW59*
X209990151Y-94180000D03*
D28*
X207450151Y-89100000D03*
D29*
X204910151Y-94180000D03*
D28*
X201100151Y-91640000D03*
D27*
X199830151Y-94180000D03*
G04 #@! TD*
G04 #@! TO.C,SW113*
X319727500Y-113230000D03*
D28*
X317187500Y-108150000D03*
D29*
X314647500Y-113230000D03*
D28*
X310837500Y-110690000D03*
D27*
X309567500Y-113230000D03*
G04 #@! TD*
G04 #@! TO.C,SW129*
X372115000Y-151330000D03*
D28*
X369575000Y-146250000D03*
D29*
X367035000Y-151330000D03*
D28*
X363225000Y-148790000D03*
D27*
X361955000Y-151330000D03*
G04 #@! TD*
G04 #@! TO.C,SW71*
X90927651Y-132280000D03*
D28*
X88387651Y-127200000D03*
D29*
X85847651Y-132280000D03*
D28*
X82037651Y-129740000D03*
D27*
X80767651Y-132280000D03*
G04 #@! TD*
G04 #@! TO.C,SW131*
X255433750Y-170380000D03*
D28*
X252893750Y-165300000D03*
D29*
X250353750Y-170380000D03*
D28*
X246543750Y-167840000D03*
D27*
X245273750Y-170380000D03*
G04 #@! TD*
D15*
G04 #@! TO.C,R10*
X333217500Y-50430000D03*
X343377500Y-50430000D03*
G04 #@! TD*
D27*
G04 #@! TO.C,SW88*
X129027651Y-170380000D03*
D28*
X126487651Y-165300000D03*
D29*
X123947651Y-170380000D03*
D28*
X120137651Y-167840000D03*
D27*
X118867651Y-170380000D03*
G04 #@! TD*
G04 #@! TO.C,SW48*
X152840151Y-75130000D03*
D28*
X150300151Y-70050000D03*
D29*
X147760151Y-75130000D03*
D28*
X143950151Y-72590000D03*
D27*
X142680151Y-75130000D03*
G04 #@! TD*
G04 #@! TO.C,SW57*
X152840151Y-94180000D03*
D28*
X150300151Y-89100000D03*
D29*
X147760151Y-94180000D03*
D28*
X143950151Y-91640000D03*
D27*
X142680151Y-94180000D03*
G04 #@! TD*
G04 #@! TO.C,SW62*
X86165151Y-113230000D03*
D28*
X83625151Y-108150000D03*
D29*
X81085151Y-113230000D03*
D28*
X77275151Y-110690000D03*
D27*
X76005151Y-113230000D03*
G04 #@! TD*
G04 #@! TO.C,SW89*
X150458901Y-170380000D03*
D28*
X147918901Y-165300000D03*
D29*
X145378901Y-170380000D03*
D28*
X141568901Y-167840000D03*
D27*
X140298901Y-170380000D03*
G04 #@! TD*
G04 #@! TO.C,SW45*
X95690151Y-75130000D03*
D28*
X93150151Y-70050000D03*
D29*
X90610151Y-75130000D03*
D28*
X86800151Y-72590000D03*
D27*
X85530151Y-75130000D03*
G04 #@! TD*
G04 #@! TO.C,SW83*
X190940151Y-151330000D03*
D28*
X188400151Y-146250000D03*
D29*
X185860151Y-151330000D03*
D28*
X182050151Y-148790000D03*
D27*
X180780151Y-151330000D03*
G04 #@! TD*
G04 #@! TO.C,SW106*
X329252500Y-94180000D03*
D28*
X326712500Y-89100000D03*
D29*
X324172500Y-94180000D03*
D28*
X320362500Y-91640000D03*
D27*
X319092500Y-94180000D03*
G04 #@! TD*
G04 #@! TO.C,SW55*
X114740151Y-94180000D03*
D28*
X112200151Y-89100000D03*
D29*
X109660151Y-94180000D03*
D28*
X105850151Y-91640000D03*
D27*
X104580151Y-94180000D03*
G04 #@! TD*
G04 #@! TO.C,SW122*
X362590000Y-132280000D03*
D28*
X360050000Y-127200000D03*
D29*
X357510000Y-132280000D03*
D28*
X353700000Y-129740000D03*
D27*
X352430000Y-132280000D03*
G04 #@! TD*
G04 #@! TO.C,SW102*
X253052500Y-94180000D03*
D28*
X250512500Y-89100000D03*
D29*
X247972500Y-94180000D03*
D28*
X244162500Y-91640000D03*
D27*
X242892500Y-94180000D03*
G04 #@! TD*
G04 #@! TO.C,SW87*
X109977651Y-170380000D03*
D28*
X107437651Y-165300000D03*
D29*
X104897651Y-170380000D03*
D28*
X101087651Y-167840000D03*
D27*
X99817651Y-170380000D03*
G04 #@! TD*
G04 #@! TO.C,SW111*
X281627500Y-113230000D03*
D28*
X279087500Y-108150000D03*
D29*
X276547500Y-113230000D03*
D28*
X272737500Y-110690000D03*
D27*
X271467500Y-113230000D03*
G04 #@! TD*
D30*
G04 #@! TO.C,J2*
X46440151Y-49530000D03*
X52220151Y-49530000D03*
D31*
X45010151Y-45880000D03*
D32*
X45010151Y-50060000D03*
D31*
X53650151Y-45880000D03*
D32*
X53650151Y-50060000D03*
G04 #@! TD*
D27*
G04 #@! TO.C,SW123*
X234002500Y-151330000D03*
D28*
X231462500Y-146250000D03*
D29*
X228922500Y-151330000D03*
D28*
X225112500Y-148790000D03*
D27*
X223842500Y-151330000D03*
G04 #@! TD*
G04 #@! TO.C,SW54*
X95690151Y-94180000D03*
D28*
X93150151Y-89100000D03*
D29*
X90610151Y-94180000D03*
D28*
X86800151Y-91640000D03*
D27*
X85530151Y-94180000D03*
G04 #@! TD*
D29*
G04 #@! TO.C,SW58*
X188273151Y-102435000D03*
D28*
X188273151Y-87195000D03*
D27*
X181415151Y-94180000D03*
D28*
X178875151Y-89100000D03*
D29*
X176335151Y-94180000D03*
D28*
X172525151Y-91640000D03*
D27*
X171255151Y-94180000D03*
D29*
X164397151Y-102435000D03*
D28*
X164397151Y-87195000D03*
G04 #@! TD*
D30*
G04 #@! TO.C,J3*
X362377500Y-49530000D03*
X368157500Y-49530000D03*
D31*
X360947500Y-45880000D03*
D32*
X360947500Y-50060000D03*
D31*
X369587500Y-45880000D03*
D32*
X369587500Y-50060000D03*
G04 #@! TD*
D15*
G04 #@! TO.C,R9*
X330467500Y-50120000D03*
X330467500Y-60280000D03*
G04 #@! TD*
D29*
G04 #@! TO.C,SW75*
X185891901Y-140535000D03*
D28*
X185891901Y-125295000D03*
D27*
X179033901Y-132280000D03*
D28*
X176493901Y-127200000D03*
D29*
X173953901Y-132280000D03*
D28*
X170143901Y-129740000D03*
D27*
X168873901Y-132280000D03*
D29*
X162015901Y-140535000D03*
D28*
X162015901Y-125295000D03*
G04 #@! TD*
D15*
G04 #@! TO.C,R7*
X81214851Y-51295641D03*
X71054851Y-51295641D03*
G04 #@! TD*
D27*
G04 #@! TO.C,SW47*
X133790151Y-75130000D03*
D28*
X131250151Y-70050000D03*
D29*
X128710151Y-75130000D03*
D28*
X124900151Y-72590000D03*
D27*
X123630151Y-75130000D03*
G04 #@! TD*
G04 #@! TO.C,SW46*
X114740151Y-75130000D03*
D28*
X112200151Y-70050000D03*
D29*
X109660151Y-75130000D03*
D28*
X105850151Y-72590000D03*
D27*
X104580151Y-75130000D03*
G04 #@! TD*
G04 #@! TO.C,SW73*
X129027651Y-132280000D03*
D28*
X126487651Y-127200000D03*
D29*
X123947651Y-132280000D03*
D28*
X120137651Y-129740000D03*
D27*
X118867651Y-132280000D03*
G04 #@! TD*
G04 #@! TO.C,SW67*
X186177651Y-113230000D03*
D28*
X183637651Y-108150000D03*
D29*
X181097651Y-113230000D03*
D28*
X177287651Y-110690000D03*
D27*
X176017651Y-113230000D03*
G04 #@! TD*
G04 #@! TO.C,SW128*
X353065000Y-151330000D03*
D28*
X350525000Y-146250000D03*
D29*
X347985000Y-151330000D03*
D28*
X344175000Y-148790000D03*
D27*
X342905000Y-151330000D03*
G04 #@! TD*
G04 #@! TO.C,SW107*
X348302500Y-94180000D03*
D28*
X345762500Y-89100000D03*
D29*
X343222500Y-94180000D03*
D28*
X339412500Y-91640000D03*
D27*
X338142500Y-94180000D03*
G04 #@! TD*
G04 #@! TO.C,SW86*
X90927651Y-170380000D03*
D28*
X88387651Y-165300000D03*
D29*
X85847651Y-170380000D03*
D28*
X82037651Y-167840000D03*
D27*
X80767651Y-170380000D03*
G04 #@! TD*
G04 #@! TO.C,SW94*
X253052500Y-75130000D03*
D28*
X250512500Y-70050000D03*
D29*
X247972500Y-75130000D03*
D28*
X244162500Y-72590000D03*
D27*
X242892500Y-75130000D03*
G04 #@! TD*
G04 #@! TO.C,SW100*
X367352500Y-75130000D03*
D28*
X364812500Y-70050000D03*
D29*
X362272500Y-75130000D03*
D28*
X358462500Y-72590000D03*
D27*
X357192500Y-75130000D03*
G04 #@! TD*
G04 #@! TO.C,SW64*
X124265151Y-113230000D03*
D28*
X121725151Y-108150000D03*
D29*
X119185151Y-113230000D03*
D28*
X115375151Y-110690000D03*
D27*
X114105151Y-113230000D03*
G04 #@! TD*
%LPD*%
M02*
