%TF.GenerationSoftware,KiCad,Pcbnew,10.0.3*%
%TF.CreationDate,2026-07-16T22:26:11-04:00*%
%TF.ProjectId,karve-split,6b617276-652d-4737-906c-69742e6b6963,rev?*%
%TF.SameCoordinates,Original*%
%TF.FileFunction,Drillmap*%
%TF.FilePolarity,Positive*%
%FSLAX45Y45*%
G04 Gerber Fmt 4.5, Leading zero omitted, Abs format (unit mm)*
G04 Created by KiCad (PCBNEW 10.0.3) date 2026-07-16 22:26:11*
%MOMM*%
%LPD*%
G01*
G04 APERTURE LIST*
%ADD10C,0.050000*%
%ADD11C,0.200000*%
%ADD12C,0.100000*%
%ADD13C,0.150000*%
G04 APERTURE END LIST*
D10*
X2391485Y-16102500D02*
X2391485Y-17089564D01*
X2391485Y-17089564D02*
X2391485Y-17884564D01*
X2391485Y-18239564D02*
X2391485Y-17884564D01*
X3346485Y-10379564D02*
X3346485Y-11369564D01*
X3346485Y-12164564D02*
X3346485Y-11369564D01*
X3346485Y-12164564D02*
X3346485Y-12264564D01*
X3346485Y-12264564D02*
X3821485Y-12264564D01*
X3821485Y-12264564D02*
X3821485Y-13274564D01*
X3821485Y-14069564D02*
X3821485Y-13274564D01*
X3821485Y-14069564D02*
X3821485Y-14169564D01*
X3821485Y-14169564D02*
X4776485Y-14169564D01*
X4301485Y-4224564D02*
X14171485Y-4224564D01*
X4301485Y-4784564D02*
X4301485Y-4224564D01*
X4301485Y-4784564D02*
X4301485Y-5569564D01*
X4301485Y-7384564D02*
X4301485Y-5569564D01*
X4301485Y-7384564D02*
X4301485Y-8169564D01*
X4301485Y-9474564D02*
X4301485Y-8169564D01*
X4301485Y-10379564D02*
X3346485Y-10379564D01*
X4301485Y-10379564D02*
X4301485Y-9474564D01*
X4776485Y-15159564D02*
X4776485Y-14169564D01*
X4776485Y-15159564D02*
X4776485Y-15949564D01*
X4776485Y-15949564D02*
X4776485Y-16097500D01*
X4776485Y-16097500D02*
X2391485Y-16102500D01*
X14171485Y-4224564D02*
X14171485Y-6339564D01*
X14171485Y-6339564D02*
X21446485Y-6339564D01*
X21445000Y-10200000D02*
X21940000Y-10200000D01*
X21445000Y-11320000D02*
X21445000Y-10200000D01*
X21445000Y-12110000D02*
X21940000Y-12110000D01*
X21445000Y-13225000D02*
X21445000Y-12110000D01*
X21445000Y-14015000D02*
X21940000Y-14015000D01*
X21445000Y-15130000D02*
X21445000Y-14015000D01*
X21445000Y-15920000D02*
X21940000Y-15920000D01*
X21445000Y-17090000D02*
X21445000Y-15920000D01*
X21445000Y-17880000D02*
X21445000Y-18239564D01*
X21445000Y-17880000D02*
X21940000Y-17880000D01*
X21445000Y-18239564D02*
X2391485Y-18239564D01*
X21446485Y-8539564D02*
X21446485Y-6339564D01*
X21446485Y-8539564D02*
X21446485Y-9415000D01*
X21446485Y-9415000D02*
X21940000Y-9415000D01*
X21940000Y-9415000D02*
X21941750Y-6343000D01*
X21940000Y-10200000D02*
X21940000Y-11320000D01*
X21940000Y-11320000D02*
X21445000Y-11320000D01*
X21940000Y-12110000D02*
X21940000Y-13225000D01*
X21940000Y-13225000D02*
X21445000Y-13225000D01*
X21940000Y-14015000D02*
X21940000Y-15130000D01*
X21940000Y-15130000D02*
X21445000Y-15130000D01*
X21940000Y-15920000D02*
X21940000Y-17090000D01*
X21940000Y-17090000D02*
X21445000Y-17090000D01*
X21940000Y-17880000D02*
X21941750Y-18243000D01*
X27401750Y-4223000D02*
X27401750Y-6343000D01*
X27401750Y-6343000D02*
X21941750Y-6343000D01*
X27461750Y-4223000D02*
X27401750Y-4223000D01*
X27691750Y-4223000D02*
X27461750Y-4223000D01*
X27691750Y-4223000D02*
X27771750Y-4223000D01*
X27771750Y-4223000D02*
X37176750Y-4223000D01*
X35271750Y-16078000D02*
X37656750Y-16078000D01*
X35271750Y-17088000D02*
X35271750Y-16078000D01*
X35271750Y-17088000D02*
X35271750Y-18243000D01*
X35271750Y-18243000D02*
X21941750Y-18243000D01*
X36226750Y-10363000D02*
X37181750Y-10363000D01*
X36226750Y-11368000D02*
X36226750Y-10363000D01*
X36226750Y-11368000D02*
X36226750Y-12163000D01*
X36226750Y-12283000D02*
X36226750Y-12163000D01*
X36701750Y-12283000D02*
X36226750Y-12283000D01*
X36701750Y-13273000D02*
X36701750Y-12283000D01*
X36701750Y-13273000D02*
X36701750Y-14068000D01*
X36701750Y-14188000D02*
X36701750Y-14068000D01*
X37176750Y-4223000D02*
X37176750Y-4783000D01*
X37176750Y-4783000D02*
X37181750Y-8168000D01*
X37181750Y-8168000D02*
X37181750Y-9473000D01*
X37181750Y-9473000D02*
X37181750Y-10263000D01*
X37181750Y-10363000D02*
X37181750Y-10263000D01*
X37656750Y-14188000D02*
X36701750Y-14188000D01*
X37656750Y-14188000D02*
X37656750Y-16078000D01*
D11*
D12*
X2786905Y-16431890D02*
X2816905Y-16461890D01*
X2816905Y-16431890D02*
X2786905Y-16461890D01*
X3731485Y-10463000D02*
X3761485Y-10493000D01*
X3761485Y-10463000D02*
X3731485Y-10493000D01*
X4216485Y-12363000D02*
X4246485Y-12393000D01*
X4246485Y-12363000D02*
X4216485Y-12393000D01*
X4671485Y-5259564D02*
X4701485Y-5289564D01*
X4701485Y-5259564D02*
X4671485Y-5289564D01*
X4671485Y-6663000D02*
X4701485Y-6693000D01*
X4701485Y-6663000D02*
X4671485Y-6693000D01*
X4731485Y-8563000D02*
X4761485Y-8593000D01*
X4761485Y-8563000D02*
X4731485Y-8593000D01*
X5021485Y-6069564D02*
X5051485Y-6099564D01*
X5051485Y-6069564D02*
X5021485Y-6099564D01*
X5111485Y-5409564D02*
X5141485Y-5439564D01*
X5141485Y-5409564D02*
X5111485Y-5439564D01*
X5156485Y-14263000D02*
X5186485Y-14293000D01*
X5186485Y-14263000D02*
X5156485Y-14293000D01*
X5166485Y-5259564D02*
X5196485Y-5289564D01*
X5196485Y-5259564D02*
X5166485Y-5289564D01*
X5171485Y-5559564D02*
X5201485Y-5589564D01*
X5201485Y-5559564D02*
X5171485Y-5589564D01*
X5536485Y-10463000D02*
X5566485Y-10493000D01*
X5566485Y-10463000D02*
X5536485Y-10493000D01*
X5951485Y-12363000D02*
X5981485Y-12393000D01*
X5981485Y-12363000D02*
X5951485Y-12393000D01*
X6320000Y-8715000D02*
X6350000Y-8745000D01*
X6350000Y-8715000D02*
X6320000Y-8745000D01*
X6501485Y-6663000D02*
X6531485Y-6693000D01*
X6531485Y-6663000D02*
X6501485Y-6693000D01*
X6651485Y-4774000D02*
X6681485Y-4804000D01*
X6681485Y-4774000D02*
X6651485Y-4804000D01*
X6726485Y-5774564D02*
X6756485Y-5804564D01*
X6756485Y-5774564D02*
X6726485Y-5804564D01*
X6931485Y-14263000D02*
X6961485Y-14293000D01*
X6961485Y-14263000D02*
X6931485Y-14293000D01*
X7416485Y-10463000D02*
X7446485Y-10493000D01*
X7446485Y-10463000D02*
X7416485Y-10493000D01*
X7876485Y-12363000D02*
X7906485Y-12393000D01*
X7906485Y-12363000D02*
X7876485Y-12393000D01*
X7901485Y-6029564D02*
X7931485Y-6059564D01*
X7931485Y-6029564D02*
X7901485Y-6059564D01*
X7936485Y-16163000D02*
X7966485Y-16193000D01*
X7966485Y-16163000D02*
X7936485Y-16193000D01*
X8341485Y-6663000D02*
X8371485Y-6693000D01*
X8371485Y-6663000D02*
X8341485Y-6693000D01*
X8396485Y-8563000D02*
X8426485Y-8593000D01*
X8426485Y-8563000D02*
X8396485Y-8593000D01*
X8791485Y-14263000D02*
X8821485Y-14293000D01*
X8821485Y-14263000D02*
X8791485Y-14293000D01*
X9326485Y-10463000D02*
X9356485Y-10493000D01*
X9356485Y-10463000D02*
X9326485Y-10493000D01*
X9541485Y-5259564D02*
X9571485Y-5289564D01*
X9571485Y-5259564D02*
X9541485Y-5289564D01*
X9576485Y-4686500D02*
X9606485Y-4716500D01*
X9606485Y-4686500D02*
X9576485Y-4716500D01*
X9791485Y-12363000D02*
X9821485Y-12393000D01*
X9821485Y-12363000D02*
X9791485Y-12393000D01*
X9801485Y-16163000D02*
X9831485Y-16193000D01*
X9831485Y-16163000D02*
X9801485Y-16193000D01*
X10236485Y-6663000D02*
X10266485Y-6693000D01*
X10266485Y-6663000D02*
X10236485Y-6693000D01*
X10266485Y-8563000D02*
X10296485Y-8593000D01*
X10296485Y-8563000D02*
X10266485Y-8593000D01*
X10606485Y-6759564D02*
X10636485Y-6789564D01*
X10636485Y-6759564D02*
X10606485Y-6789564D01*
X10741485Y-6739564D02*
X10771485Y-6769564D01*
X10771485Y-6739564D02*
X10741485Y-6769564D01*
X10791485Y-14263000D02*
X10821485Y-14293000D01*
X10821485Y-14263000D02*
X10791485Y-14293000D01*
X11201485Y-10463000D02*
X11231485Y-10493000D01*
X11231485Y-10463000D02*
X11201485Y-10493000D01*
X11661485Y-12363000D02*
X11691485Y-12393000D01*
X11691485Y-12363000D02*
X11661485Y-12393000D01*
X11751485Y-16163000D02*
X11781485Y-16193000D01*
X11781485Y-16163000D02*
X11751485Y-16193000D01*
X12136485Y-6663000D02*
X12166485Y-6693000D01*
X12166485Y-6663000D02*
X12136485Y-6693000D01*
X12146485Y-8563000D02*
X12176485Y-8593000D01*
X12176485Y-8563000D02*
X12146485Y-8593000D01*
X12691485Y-14263000D02*
X12721485Y-14293000D01*
X12721485Y-14263000D02*
X12691485Y-14293000D01*
X13116485Y-10463000D02*
X13146485Y-10493000D01*
X13146485Y-10463000D02*
X13116485Y-10493000D01*
X13616485Y-12363000D02*
X13646485Y-12393000D01*
X13646485Y-12363000D02*
X13616485Y-12393000D01*
X13616485Y-16163000D02*
X13646485Y-16193000D01*
X13646485Y-16163000D02*
X13616485Y-16193000D01*
X13636485Y-6663000D02*
X13666485Y-6693000D01*
X13666485Y-6663000D02*
X13636485Y-6693000D01*
X13676485Y-6424564D02*
X13706485Y-6454564D01*
X13706485Y-6424564D02*
X13676485Y-6454564D01*
X14031485Y-8563000D02*
X14061485Y-8593000D01*
X14061485Y-8563000D02*
X14031485Y-8593000D01*
X14571485Y-14263000D02*
X14601485Y-14293000D01*
X14601485Y-14263000D02*
X14571485Y-14293000D01*
X15046485Y-10463000D02*
X15076485Y-10493000D01*
X15076485Y-10463000D02*
X15046485Y-10493000D01*
X15396468Y-12234547D02*
X15426468Y-12264547D01*
X15426468Y-12234547D02*
X15396468Y-12264547D01*
X15848968Y-8432047D02*
X15878968Y-8462047D01*
X15878968Y-8432047D02*
X15848968Y-8462047D01*
X15881485Y-6663000D02*
X15911485Y-6693000D01*
X15911485Y-6663000D02*
X15881485Y-6693000D01*
X15966485Y-16163000D02*
X15996485Y-16193000D01*
X15996485Y-16163000D02*
X15966485Y-16193000D01*
X17048000Y-10565000D02*
X17078000Y-10595000D01*
X17078000Y-10565000D02*
X17048000Y-10595000D01*
X17426485Y-6663000D02*
X17456485Y-6693000D01*
X17456485Y-6663000D02*
X17426485Y-6693000D01*
X17605000Y-7780000D02*
X17635000Y-7810000D01*
X17635000Y-7780000D02*
X17605000Y-7810000D01*
X17618015Y-7858934D02*
X17648015Y-7888934D01*
X17648015Y-7858934D02*
X17618015Y-7888934D01*
X17738015Y-7840000D02*
X17768015Y-7870000D01*
X17768015Y-7840000D02*
X17738015Y-7870000D01*
X17831485Y-14263000D02*
X17861485Y-14293000D01*
X17861485Y-14263000D02*
X17831485Y-14293000D01*
X17836485Y-16163000D02*
X17866485Y-16193000D01*
X17866485Y-16163000D02*
X17836485Y-16193000D01*
X18671485Y-8219564D02*
X18701485Y-8249564D01*
X18701485Y-8219564D02*
X18671485Y-8249564D01*
X18801485Y-6609564D02*
X18831485Y-6639564D01*
X18831485Y-6609564D02*
X18801485Y-6639564D01*
X19006485Y-8114564D02*
X19036485Y-8144564D01*
X19036485Y-8114564D02*
X19006485Y-8144564D01*
X19166485Y-6679564D02*
X19196485Y-6709564D01*
X19196485Y-6679564D02*
X19166485Y-6709564D01*
X19298125Y-8343110D02*
X19328125Y-8373110D01*
X19328125Y-8343110D02*
X19298125Y-8373110D01*
X19356485Y-6424564D02*
X19386485Y-6454564D01*
X19386485Y-6424564D02*
X19356485Y-6454564D01*
X19451485Y-8149564D02*
X19481485Y-8179564D01*
X19481485Y-8149564D02*
X19451485Y-8179564D01*
X19541485Y-12144564D02*
X19571485Y-12174564D01*
X19571485Y-12144564D02*
X19541485Y-12174564D01*
X19544750Y-10237829D02*
X19574750Y-10267829D01*
X19574750Y-10237829D02*
X19544750Y-10267829D01*
X19568015Y-15969564D02*
X19598015Y-15999564D01*
X19598015Y-15969564D02*
X19568015Y-15999564D01*
X19596485Y-14004564D02*
X19626485Y-14034564D01*
X19626485Y-14004564D02*
X19596485Y-14034564D01*
X19956485Y-6989564D02*
X19986485Y-7019564D01*
X19986485Y-6989564D02*
X19956485Y-7019564D01*
X22056750Y-10288000D02*
X22086750Y-10318000D01*
X22086750Y-10288000D02*
X22056750Y-10318000D01*
X22061750Y-8378000D02*
X22091750Y-8408000D01*
X22091750Y-8378000D02*
X22061750Y-8408000D01*
X22061750Y-12198000D02*
X22091750Y-12228000D01*
X22091750Y-12198000D02*
X22061750Y-12228000D01*
X22061750Y-14113000D02*
X22091750Y-14143000D01*
X22091750Y-14113000D02*
X22061750Y-14143000D01*
X22061750Y-16018000D02*
X22091750Y-16048000D01*
X22091750Y-16018000D02*
X22061750Y-16048000D01*
X23811750Y-8388000D02*
X23841750Y-8418000D01*
X23841750Y-8388000D02*
X23811750Y-8418000D01*
X23861750Y-10288000D02*
X23891750Y-10318000D01*
X23891750Y-10288000D02*
X23861750Y-10318000D01*
X23861750Y-12198000D02*
X23891750Y-12228000D01*
X23891750Y-12198000D02*
X23861750Y-12228000D01*
X23861750Y-14113000D02*
X23891750Y-14143000D01*
X23891750Y-14113000D02*
X23861750Y-14143000D01*
X23861750Y-16018000D02*
X23891750Y-16048000D01*
X23891750Y-16018000D02*
X23861750Y-16048000D01*
X25546750Y-6613000D02*
X25576750Y-6643000D01*
X25576750Y-6613000D02*
X25546750Y-6643000D01*
X25670000Y-8841450D02*
X25700000Y-8871450D01*
X25700000Y-8841450D02*
X25670000Y-8871450D01*
X26216750Y-16018000D02*
X26246750Y-16048000D01*
X26246750Y-16018000D02*
X26216750Y-16048000D01*
X26711750Y-10288000D02*
X26741750Y-10318000D01*
X26741750Y-10288000D02*
X26711750Y-10318000D01*
X27166750Y-12198000D02*
X27196750Y-12228000D01*
X27196750Y-12198000D02*
X27166750Y-12228000D01*
X27501750Y-6613000D02*
X27531750Y-6643000D01*
X27531750Y-6613000D02*
X27501750Y-6643000D01*
X27661750Y-8378000D02*
X27691750Y-8408000D01*
X27691750Y-8378000D02*
X27661750Y-8408000D01*
X27826750Y-6613000D02*
X27856750Y-6643000D01*
X27856750Y-6613000D02*
X27826750Y-6643000D01*
X28111750Y-14108000D02*
X28141750Y-14138000D01*
X28141750Y-14108000D02*
X28111750Y-14138000D01*
X28611750Y-10288000D02*
X28641750Y-10318000D01*
X28641750Y-10288000D02*
X28611750Y-10318000D01*
X28611750Y-16018000D02*
X28641750Y-16048000D01*
X28641750Y-16018000D02*
X28611750Y-16048000D01*
X28926750Y-6613000D02*
X28956750Y-6643000D01*
X28956750Y-6613000D02*
X28926750Y-6643000D01*
X29061750Y-12198000D02*
X29091750Y-12228000D01*
X29091750Y-12198000D02*
X29061750Y-12228000D01*
X29561750Y-8378000D02*
X29591750Y-8408000D01*
X29591750Y-8378000D02*
X29561750Y-8408000D01*
X29726750Y-6613000D02*
X29756750Y-6643000D01*
X29756750Y-6613000D02*
X29726750Y-6643000D01*
X30016750Y-14108000D02*
X30046750Y-14138000D01*
X30046750Y-14108000D02*
X30016750Y-14138000D01*
X30511750Y-10288000D02*
X30541750Y-10318000D01*
X30541750Y-10288000D02*
X30511750Y-10318000D01*
X30626750Y-5443000D02*
X30656750Y-5473000D01*
X30656750Y-5443000D02*
X30626750Y-5473000D01*
X30961750Y-12198000D02*
X30991750Y-12228000D01*
X30991750Y-12198000D02*
X30961750Y-12228000D01*
X31101750Y-16018000D02*
X31131750Y-16048000D01*
X31131750Y-16018000D02*
X31101750Y-16048000D01*
X31461750Y-8378000D02*
X31491750Y-8408000D01*
X31491750Y-8378000D02*
X31461750Y-8408000D01*
X31961750Y-14108000D02*
X31991750Y-14138000D01*
X31991750Y-14108000D02*
X31961750Y-14138000D01*
X32411750Y-10288000D02*
X32441750Y-10318000D01*
X32441750Y-10288000D02*
X32411750Y-10318000D01*
X32911750Y-12198000D02*
X32941750Y-12228000D01*
X32941750Y-12198000D02*
X32911750Y-12228000D01*
X33236750Y-4478000D02*
X33266750Y-4508000D01*
X33266750Y-4478000D02*
X33236750Y-4508000D01*
X33275000Y-8870000D02*
X33305000Y-8900000D01*
X33305000Y-8870000D02*
X33275000Y-8900000D01*
X33856750Y-14108000D02*
X33886750Y-14138000D01*
X33886750Y-14108000D02*
X33856750Y-14138000D01*
X34311750Y-10288000D02*
X34341750Y-10318000D01*
X34341750Y-10288000D02*
X34311750Y-10318000D01*
X34531750Y-12028000D02*
X34561750Y-12058000D01*
X34561750Y-12028000D02*
X34531750Y-12058000D01*
X35081750Y-4626474D02*
X35111750Y-4656474D01*
X35111750Y-4626474D02*
X35081750Y-4656474D01*
X35261750Y-8378000D02*
X35291750Y-8408000D01*
X35291750Y-8378000D02*
X35261750Y-8408000D01*
X35636750Y-14173000D02*
X35666750Y-14203000D01*
X35666750Y-14173000D02*
X35636750Y-14203000D01*
X35851750Y-4778000D02*
X35881750Y-4808000D01*
X35881750Y-4778000D02*
X35851750Y-4808000D01*
X36266750Y-5298000D02*
X36296750Y-5328000D01*
X36296750Y-5298000D02*
X36266750Y-5328000D01*
X36546750Y-4803000D02*
X36576750Y-4833000D01*
X36576750Y-4803000D02*
X36546750Y-4833000D01*
X36676750Y-5298000D02*
X36706750Y-5328000D01*
X36706750Y-5298000D02*
X36676750Y-5328000D01*
X31271750Y-6638000D02*
G75*
G02*
X31231750Y-6638000I-20000J0D01*
G01*
X31231750Y-6638000D02*
G75*
G02*
X31271750Y-6638000I20000J0D01*
G01*
X31676750Y-6638000D02*
G75*
G02*
X31636750Y-6638000I-20000J0D01*
G01*
X31636750Y-6638000D02*
G75*
G02*
X31676750Y-6638000I20000J0D01*
G01*
X33181750Y-6638000D02*
G75*
G02*
X33141750Y-6638000I-20000J0D01*
G01*
X33141750Y-6638000D02*
G75*
G02*
X33181750Y-6638000I20000J0D01*
G01*
X34426750Y-6638000D02*
G75*
G02*
X34386750Y-6638000I-20000J0D01*
G01*
X34386750Y-6638000D02*
G75*
G02*
X34426750Y-6638000I20000J0D01*
G01*
X35071750Y-6648000D02*
G75*
G02*
X35031750Y-6648000I-20000J0D01*
G01*
X35031750Y-6648000D02*
G75*
G02*
X35071750Y-6648000I20000J0D01*
G01*
X4501015Y-4558000D02*
X4501015Y-4618000D01*
X4471015Y-4588000D02*
X4531015Y-4588000D01*
X4471015Y-4558000D02*
X4471015Y-4618000D01*
X4531015Y-4618000D02*
G75*
G02*
X4471015Y-4618000I-30000J0D01*
G01*
X4531015Y-4618000D02*
X4531015Y-4558000D01*
X4531015Y-4558000D02*
G75*
G03*
X4471015Y-4558000I-30000J0D01*
G01*
X4501015Y-4976000D02*
X4501015Y-5036000D01*
X4471015Y-5006000D02*
X4531015Y-5006000D01*
X4471015Y-4951000D02*
X4471015Y-5061000D01*
X4531015Y-5061000D02*
G75*
G02*
X4471015Y-5061000I-30000J0D01*
G01*
X4531015Y-5061000D02*
X4531015Y-4951000D01*
X4531015Y-4951000D02*
G75*
G03*
X4471015Y-4951000I-30000J0D01*
G01*
X5365015Y-4558000D02*
X5365015Y-4618000D01*
X5335015Y-4588000D02*
X5395015Y-4588000D01*
X5335015Y-4558000D02*
X5335015Y-4618000D01*
X5395015Y-4618000D02*
G75*
G02*
X5335015Y-4618000I-30000J0D01*
G01*
X5395015Y-4618000D02*
X5395015Y-4558000D01*
X5395015Y-4558000D02*
G75*
G03*
X5335015Y-4558000I-30000J0D01*
G01*
X5365015Y-4976000D02*
X5365015Y-5036000D01*
X5335015Y-5006000D02*
X5395015Y-5006000D01*
X5335015Y-4951000D02*
X5335015Y-5061000D01*
X5395015Y-5061000D02*
G75*
G02*
X5335015Y-5061000I-30000J0D01*
G01*
X5395015Y-5061000D02*
X5395015Y-4951000D01*
X5395015Y-4951000D02*
G75*
G03*
X5335015Y-4951000I-30000J0D01*
G01*
X36094750Y-4558000D02*
X36094750Y-4618000D01*
X36064750Y-4588000D02*
X36124750Y-4588000D01*
X36064750Y-4558000D02*
X36064750Y-4618000D01*
X36124750Y-4618000D02*
G75*
G02*
X36064750Y-4618000I-30000J0D01*
G01*
X36124750Y-4618000D02*
X36124750Y-4558000D01*
X36124750Y-4558000D02*
G75*
G03*
X36064750Y-4558000I-30000J0D01*
G01*
X36094750Y-4976000D02*
X36094750Y-5036000D01*
X36064750Y-5006000D02*
X36124750Y-5006000D01*
X36064750Y-4951000D02*
X36064750Y-5061000D01*
X36124750Y-5061000D02*
G75*
G02*
X36064750Y-5061000I-30000J0D01*
G01*
X36124750Y-5061000D02*
X36124750Y-4951000D01*
X36124750Y-4951000D02*
G75*
G03*
X36064750Y-4951000I-30000J0D01*
G01*
X36958750Y-4558000D02*
X36958750Y-4618000D01*
X36928750Y-4588000D02*
X36988750Y-4588000D01*
X36928750Y-4558000D02*
X36928750Y-4618000D01*
X36988750Y-4618000D02*
G75*
G02*
X36928750Y-4618000I-30000J0D01*
G01*
X36988750Y-4618000D02*
X36988750Y-4558000D01*
X36988750Y-4558000D02*
G75*
G03*
X36928750Y-4558000I-30000J0D01*
G01*
X36958750Y-4976000D02*
X36958750Y-5036000D01*
X36928750Y-5006000D02*
X36988750Y-5006000D01*
X36928750Y-4951000D02*
X36928750Y-5061000D01*
X36988750Y-5061000D02*
G75*
G02*
X36928750Y-5061000I-30000J0D01*
G01*
X36988750Y-5061000D02*
X36988750Y-4951000D01*
X36988750Y-4951000D02*
G75*
G03*
X36928750Y-4951000I-30000J0D01*
G01*
X5859770Y-5162849D02*
X5859770Y-5106280D01*
X5803201Y-5106280D01*
X5803201Y-5162849D01*
X5859770Y-5162849D01*
X6875770Y-5162849D02*
X6875770Y-5106280D01*
X6819201Y-5106280D01*
X6819201Y-5162849D01*
X6875770Y-5162849D01*
X7133770Y-5157849D02*
X7133770Y-5101280D01*
X7077201Y-5101280D01*
X7077201Y-5157849D01*
X7133770Y-5157849D01*
X8149770Y-5157849D02*
X8149770Y-5101280D01*
X8093201Y-5101280D01*
X8093201Y-5157849D01*
X8149770Y-5157849D01*
X33075034Y-5040285D02*
X33075034Y-4983716D01*
X33018465Y-4983716D01*
X33018465Y-5040285D01*
X33075034Y-5040285D01*
X33075034Y-6056284D02*
X33075034Y-5999715D01*
X33018465Y-5999715D01*
X33018465Y-6056284D01*
X33075034Y-6056284D01*
X33350034Y-5071285D02*
X33350034Y-5014716D01*
X33293465Y-5014716D01*
X33293465Y-5071285D01*
X33350034Y-5071285D01*
X34366035Y-5071285D02*
X34366035Y-5014716D01*
X34309466Y-5014716D01*
X34309466Y-5071285D01*
X34366035Y-5071285D01*
X4583015Y-5612000D02*
X4633015Y-5562000D01*
X4583015Y-5512000D01*
X4533015Y-5562000D01*
X4583015Y-5612000D01*
X4583015Y-5866000D02*
X4633015Y-5816000D01*
X4583015Y-5766000D01*
X4533015Y-5816000D01*
X4583015Y-5866000D01*
X4583015Y-6120000D02*
X4633015Y-6070000D01*
X4583015Y-6020000D01*
X4533015Y-6070000D01*
X4583015Y-6120000D01*
X4583015Y-6374000D02*
X4633015Y-6324000D01*
X4583015Y-6274000D01*
X4533015Y-6324000D01*
X4583015Y-6374000D01*
X8838765Y-4554000D02*
X8888765Y-4504000D01*
X8838765Y-4454000D01*
X8788765Y-4504000D01*
X8838765Y-4554000D01*
X8838765Y-6332000D02*
X8888765Y-6282000D01*
X8838765Y-6232000D01*
X8788765Y-6282000D01*
X8838765Y-6332000D01*
X9092765Y-4554000D02*
X9142765Y-4504000D01*
X9092765Y-4454000D01*
X9042765Y-4504000D01*
X9092765Y-4554000D01*
X9092765Y-6332000D02*
X9142765Y-6282000D01*
X9092765Y-6232000D01*
X9042765Y-6282000D01*
X9092765Y-6332000D01*
X9346765Y-4554000D02*
X9396765Y-4504000D01*
X9346765Y-4454000D01*
X9296765Y-4504000D01*
X9346765Y-4554000D01*
X9346765Y-6332000D02*
X9396765Y-6282000D01*
X9346765Y-6232000D01*
X9296765Y-6282000D01*
X9346765Y-6332000D01*
X9600765Y-4554000D02*
X9650765Y-4504000D01*
X9600765Y-4454000D01*
X9550765Y-4504000D01*
X9600765Y-4554000D01*
X9600765Y-6332000D02*
X9650765Y-6282000D01*
X9600765Y-6232000D01*
X9550765Y-6282000D01*
X9600765Y-6332000D01*
X9854765Y-4554000D02*
X9904765Y-4504000D01*
X9854765Y-4454000D01*
X9804765Y-4504000D01*
X9854765Y-4554000D01*
X9854765Y-6332000D02*
X9904765Y-6282000D01*
X9854765Y-6232000D01*
X9804765Y-6282000D01*
X9854765Y-6332000D01*
X10108765Y-4554000D02*
X10158765Y-4504000D01*
X10108765Y-4454000D01*
X10058765Y-4504000D01*
X10108765Y-4554000D01*
X10108765Y-6332000D02*
X10158765Y-6282000D01*
X10108765Y-6232000D01*
X10058765Y-6282000D01*
X10108765Y-6332000D01*
X10362765Y-4554000D02*
X10412765Y-4504000D01*
X10362765Y-4454000D01*
X10312765Y-4504000D01*
X10362765Y-4554000D01*
X10362765Y-6332000D02*
X10412765Y-6282000D01*
X10362765Y-6232000D01*
X10312765Y-6282000D01*
X10362765Y-6332000D01*
X10616765Y-4554000D02*
X10666765Y-4504000D01*
X10616765Y-4454000D01*
X10566765Y-4504000D01*
X10616765Y-4554000D01*
X10616765Y-6332000D02*
X10666765Y-6282000D01*
X10616765Y-6232000D01*
X10566765Y-6282000D01*
X10616765Y-6332000D01*
X10870765Y-4554000D02*
X10920765Y-4504000D01*
X10870765Y-4454000D01*
X10820765Y-4504000D01*
X10870765Y-4554000D01*
X10870765Y-6332000D02*
X10920765Y-6282000D01*
X10870765Y-6232000D01*
X10820765Y-6282000D01*
X10870765Y-6332000D01*
X11124765Y-4554000D02*
X11174765Y-4504000D01*
X11124765Y-4454000D01*
X11074765Y-4504000D01*
X11124765Y-4554000D01*
X11124765Y-6332000D02*
X11174765Y-6282000D01*
X11124765Y-6232000D01*
X11074765Y-6282000D01*
X11124765Y-6332000D01*
X11378765Y-4554000D02*
X11428765Y-4504000D01*
X11378765Y-4454000D01*
X11328765Y-4504000D01*
X11378765Y-4554000D01*
X11378765Y-6332000D02*
X11428765Y-6282000D01*
X11378765Y-6232000D01*
X11328765Y-6282000D01*
X11378765Y-6332000D01*
X11632765Y-4554000D02*
X11682765Y-4504000D01*
X11632765Y-4454000D01*
X11582765Y-4504000D01*
X11632765Y-4554000D01*
X11632765Y-6332000D02*
X11682765Y-6282000D01*
X11632765Y-6232000D01*
X11582765Y-6282000D01*
X11632765Y-6332000D01*
X11886765Y-4554000D02*
X11936765Y-4504000D01*
X11886765Y-4454000D01*
X11836765Y-4504000D01*
X11886765Y-4554000D01*
X11886765Y-6332000D02*
X11936765Y-6282000D01*
X11886765Y-6232000D01*
X11836765Y-6282000D01*
X11886765Y-6332000D01*
X12140765Y-4554000D02*
X12190765Y-4504000D01*
X12140765Y-4454000D01*
X12090765Y-4504000D01*
X12140765Y-4554000D01*
X12140765Y-6332000D02*
X12190765Y-6282000D01*
X12140765Y-6232000D01*
X12090765Y-6282000D01*
X12140765Y-6332000D01*
X12394765Y-4554000D02*
X12444765Y-4504000D01*
X12394765Y-4454000D01*
X12344765Y-4504000D01*
X12394765Y-4554000D01*
X12394765Y-6332000D02*
X12444765Y-6282000D01*
X12394765Y-6232000D01*
X12344765Y-6282000D01*
X12394765Y-6332000D01*
X12648765Y-4554000D02*
X12698765Y-4504000D01*
X12648765Y-4454000D01*
X12598765Y-4504000D01*
X12648765Y-4554000D01*
X12648765Y-6332000D02*
X12698765Y-6282000D01*
X12648765Y-6232000D01*
X12598765Y-6282000D01*
X12648765Y-6332000D01*
X12902765Y-4554000D02*
X12952765Y-4504000D01*
X12902765Y-4454000D01*
X12852765Y-4504000D01*
X12902765Y-4554000D01*
X12902765Y-6332000D02*
X12952765Y-6282000D01*
X12902765Y-6232000D01*
X12852765Y-6282000D01*
X12902765Y-6332000D01*
X13156765Y-4554000D02*
X13206765Y-4504000D01*
X13156765Y-4454000D01*
X13106765Y-4504000D01*
X13156765Y-4554000D01*
X13156765Y-6332000D02*
X13206765Y-6282000D01*
X13156765Y-6232000D01*
X13106765Y-6282000D01*
X13156765Y-6332000D01*
X13410765Y-4554000D02*
X13460765Y-4504000D01*
X13410765Y-4454000D01*
X13360765Y-4504000D01*
X13410765Y-4554000D01*
X13410765Y-6332000D02*
X13460765Y-6282000D01*
X13410765Y-6232000D01*
X13360765Y-6282000D01*
X13410765Y-6332000D01*
X13664765Y-4554000D02*
X13714765Y-4504000D01*
X13664765Y-4454000D01*
X13614765Y-4504000D01*
X13664765Y-4554000D01*
X13664765Y-6332000D02*
X13714765Y-6282000D01*
X13664765Y-6232000D01*
X13614765Y-6282000D01*
X13664765Y-6332000D01*
X19766015Y-7313000D02*
X19816015Y-7263000D01*
X19766015Y-7213000D01*
X19716015Y-7263000D01*
X19766015Y-7313000D01*
X19766015Y-7563000D02*
X19816015Y-7513000D01*
X19766015Y-7463000D01*
X19716015Y-7513000D01*
X19766015Y-7563000D01*
X19766015Y-7813000D02*
X19816015Y-7763000D01*
X19766015Y-7713000D01*
X19716015Y-7763000D01*
X19766015Y-7813000D01*
X21216015Y-7313000D02*
X21266015Y-7263000D01*
X21216015Y-7213000D01*
X21166015Y-7263000D01*
X21216015Y-7313000D01*
X21216015Y-7813000D02*
X21266015Y-7763000D01*
X21216015Y-7713000D01*
X21166015Y-7763000D01*
X21216015Y-7813000D01*
X22167250Y-7313000D02*
X22217250Y-7263000D01*
X22167250Y-7213000D01*
X22117250Y-7263000D01*
X22167250Y-7313000D01*
X22167250Y-7563000D02*
X22217250Y-7513000D01*
X22167250Y-7463000D01*
X22117250Y-7513000D01*
X22167250Y-7563000D01*
X22167250Y-7813000D02*
X22217250Y-7763000D01*
X22167250Y-7713000D01*
X22117250Y-7763000D01*
X22167250Y-7813000D01*
X23617250Y-7313000D02*
X23667250Y-7263000D01*
X23617250Y-7213000D01*
X23567250Y-7263000D01*
X23617250Y-7313000D01*
X23617250Y-7813000D02*
X23667250Y-7763000D01*
X23617250Y-7713000D01*
X23567250Y-7763000D01*
X23617250Y-7813000D01*
X27818750Y-4543000D02*
X27868750Y-4493000D01*
X27818750Y-4443000D01*
X27768750Y-4493000D01*
X27818750Y-4543000D01*
X27818750Y-6321000D02*
X27868750Y-6271000D01*
X27818750Y-6221000D01*
X27768750Y-6271000D01*
X27818750Y-6321000D01*
X28072750Y-4543000D02*
X28122750Y-4493000D01*
X28072750Y-4443000D01*
X28022750Y-4493000D01*
X28072750Y-4543000D01*
X28072750Y-6321000D02*
X28122750Y-6271000D01*
X28072750Y-6221000D01*
X28022750Y-6271000D01*
X28072750Y-6321000D01*
X28326750Y-4543000D02*
X28376750Y-4493000D01*
X28326750Y-4443000D01*
X28276750Y-4493000D01*
X28326750Y-4543000D01*
X28326750Y-6321000D02*
X28376750Y-6271000D01*
X28326750Y-6221000D01*
X28276750Y-6271000D01*
X28326750Y-6321000D01*
X28580750Y-4543000D02*
X28630750Y-4493000D01*
X28580750Y-4443000D01*
X28530750Y-4493000D01*
X28580750Y-4543000D01*
X28580750Y-6321000D02*
X28630750Y-6271000D01*
X28580750Y-6221000D01*
X28530750Y-6271000D01*
X28580750Y-6321000D01*
X28834750Y-4543000D02*
X28884750Y-4493000D01*
X28834750Y-4443000D01*
X28784750Y-4493000D01*
X28834750Y-4543000D01*
X28834750Y-6321000D02*
X28884750Y-6271000D01*
X28834750Y-6221000D01*
X28784750Y-6271000D01*
X28834750Y-6321000D01*
X29088750Y-4543000D02*
X29138750Y-4493000D01*
X29088750Y-4443000D01*
X29038750Y-4493000D01*
X29088750Y-4543000D01*
X29088750Y-6321000D02*
X29138750Y-6271000D01*
X29088750Y-6221000D01*
X29038750Y-6271000D01*
X29088750Y-6321000D01*
X29342750Y-4543000D02*
X29392750Y-4493000D01*
X29342750Y-4443000D01*
X29292750Y-4493000D01*
X29342750Y-4543000D01*
X29342750Y-6321000D02*
X29392750Y-6271000D01*
X29342750Y-6221000D01*
X29292750Y-6271000D01*
X29342750Y-6321000D01*
X29596750Y-4543000D02*
X29646750Y-4493000D01*
X29596750Y-4443000D01*
X29546750Y-4493000D01*
X29596750Y-4543000D01*
X29596750Y-6321000D02*
X29646750Y-6271000D01*
X29596750Y-6221000D01*
X29546750Y-6271000D01*
X29596750Y-6321000D01*
X29850750Y-4543000D02*
X29900750Y-4493000D01*
X29850750Y-4443000D01*
X29800750Y-4493000D01*
X29850750Y-4543000D01*
X29850750Y-6321000D02*
X29900750Y-6271000D01*
X29850750Y-6221000D01*
X29800750Y-6271000D01*
X29850750Y-6321000D01*
X30104750Y-4543000D02*
X30154750Y-4493000D01*
X30104750Y-4443000D01*
X30054750Y-4493000D01*
X30104750Y-4543000D01*
X30104750Y-6321000D02*
X30154750Y-6271000D01*
X30104750Y-6221000D01*
X30054750Y-6271000D01*
X30104750Y-6321000D01*
X30358750Y-4543000D02*
X30408750Y-4493000D01*
X30358750Y-4443000D01*
X30308750Y-4493000D01*
X30358750Y-4543000D01*
X30358750Y-6321000D02*
X30408750Y-6271000D01*
X30358750Y-6221000D01*
X30308750Y-6271000D01*
X30358750Y-6321000D01*
X30612750Y-4543000D02*
X30662750Y-4493000D01*
X30612750Y-4443000D01*
X30562750Y-4493000D01*
X30612750Y-4543000D01*
X30612750Y-6321000D02*
X30662750Y-6271000D01*
X30612750Y-6221000D01*
X30562750Y-6271000D01*
X30612750Y-6321000D01*
X30866750Y-4543000D02*
X30916750Y-4493000D01*
X30866750Y-4443000D01*
X30816750Y-4493000D01*
X30866750Y-4543000D01*
X30866750Y-6321000D02*
X30916750Y-6271000D01*
X30866750Y-6221000D01*
X30816750Y-6271000D01*
X30866750Y-6321000D01*
X31120750Y-4543000D02*
X31170750Y-4493000D01*
X31120750Y-4443000D01*
X31070750Y-4493000D01*
X31120750Y-4543000D01*
X31120750Y-6321000D02*
X31170750Y-6271000D01*
X31120750Y-6221000D01*
X31070750Y-6271000D01*
X31120750Y-6321000D01*
X31374750Y-4543000D02*
X31424750Y-4493000D01*
X31374750Y-4443000D01*
X31324750Y-4493000D01*
X31374750Y-4543000D01*
X31374750Y-6321000D02*
X31424750Y-6271000D01*
X31374750Y-6221000D01*
X31324750Y-6271000D01*
X31374750Y-6321000D01*
X31628750Y-4543000D02*
X31678750Y-4493000D01*
X31628750Y-4443000D01*
X31578750Y-4493000D01*
X31628750Y-4543000D01*
X31628750Y-6321000D02*
X31678750Y-6271000D01*
X31628750Y-6221000D01*
X31578750Y-6271000D01*
X31628750Y-6321000D01*
X31882750Y-4543000D02*
X31932750Y-4493000D01*
X31882750Y-4443000D01*
X31832750Y-4493000D01*
X31882750Y-4543000D01*
X31882750Y-6321000D02*
X31932750Y-6271000D01*
X31882750Y-6221000D01*
X31832750Y-6271000D01*
X31882750Y-6321000D01*
X32136750Y-4543000D02*
X32186750Y-4493000D01*
X32136750Y-4443000D01*
X32086750Y-4493000D01*
X32136750Y-4543000D01*
X32136750Y-6321000D02*
X32186750Y-6271000D01*
X32136750Y-6221000D01*
X32086750Y-6271000D01*
X32136750Y-6321000D01*
X32390750Y-4543000D02*
X32440750Y-4493000D01*
X32390750Y-4443000D01*
X32340750Y-4493000D01*
X32390750Y-4543000D01*
X32390750Y-6321000D02*
X32440750Y-6271000D01*
X32390750Y-6221000D01*
X32340750Y-6271000D01*
X32390750Y-6321000D01*
X32644750Y-4543000D02*
X32694750Y-4493000D01*
X32644750Y-4443000D01*
X32594750Y-4493000D01*
X32644750Y-4543000D01*
X32644750Y-6321000D02*
X32694750Y-6271000D01*
X32644750Y-6221000D01*
X32594750Y-6271000D01*
X32644750Y-6321000D01*
X33376750Y-5562000D02*
X33426750Y-5512000D01*
X33376750Y-5462000D01*
X33326750Y-5512000D01*
X33376750Y-5562000D01*
X33376750Y-5816000D02*
X33426750Y-5766000D01*
X33376750Y-5716000D01*
X33326750Y-5766000D01*
X33376750Y-5816000D01*
X33376750Y-6070000D02*
X33426750Y-6020000D01*
X33376750Y-5970000D01*
X33326750Y-6020000D01*
X33376750Y-6070000D01*
X33376750Y-6324000D02*
X33426750Y-6274000D01*
X33376750Y-6224000D01*
X33326750Y-6274000D01*
X33376750Y-6324000D01*
D13*
X20441015Y-6878000D02*
X20591015Y-7028000D01*
X20591015Y-6878000D02*
X20441015Y-7028000D01*
X20591015Y-6953000D02*
G75*
G02*
X20441015Y-6953000I-75000J0D01*
G01*
X20441015Y-6953000D02*
G75*
G02*
X20591015Y-6953000I75000J0D01*
G01*
D12*
X20451015Y-7028000D02*
X20581015Y-7028000D01*
X20581015Y-6878000D02*
G75*
G02*
X20581015Y-7028000I0J-75000D01*
G01*
X20581015Y-6878000D02*
X20451015Y-6878000D01*
X20451015Y-6878000D02*
G75*
G03*
X20451015Y-7028000I0J-75000D01*
G01*
D13*
X20441015Y-7998000D02*
X20591015Y-8148000D01*
X20591015Y-7998000D02*
X20441015Y-8148000D01*
X20591015Y-8073000D02*
G75*
G02*
X20441015Y-8073000I-75000J0D01*
G01*
X20441015Y-8073000D02*
G75*
G02*
X20591015Y-8073000I75000J0D01*
G01*
D12*
X20451015Y-8148000D02*
X20581015Y-8148000D01*
X20581015Y-7998000D02*
G75*
G02*
X20581015Y-8148000I0J-75000D01*
G01*
X20581015Y-7998000D02*
X20451015Y-7998000D01*
X20451015Y-7998000D02*
G75*
G03*
X20451015Y-8148000I0J-75000D01*
G01*
D13*
X22842250Y-6878000D02*
X22992250Y-7028000D01*
X22992250Y-6878000D02*
X22842250Y-7028000D01*
X22992250Y-6953000D02*
G75*
G02*
X22842250Y-6953000I-75000J0D01*
G01*
X22842250Y-6953000D02*
G75*
G02*
X22992250Y-6953000I75000J0D01*
G01*
D12*
X22852250Y-7028000D02*
X22982250Y-7028000D01*
X22982250Y-6878000D02*
G75*
G02*
X22982250Y-7028000I0J-75000D01*
G01*
X22982250Y-6878000D02*
X22852250Y-6878000D01*
X22852250Y-6878000D02*
G75*
G03*
X22852250Y-7028000I0J-75000D01*
G01*
D13*
X22842250Y-7998000D02*
X22992250Y-8148000D01*
X22992250Y-7998000D02*
X22842250Y-8148000D01*
X22992250Y-8073000D02*
G75*
G02*
X22842250Y-8073000I-75000J0D01*
G01*
X22842250Y-8073000D02*
G75*
G02*
X22992250Y-8073000I75000J0D01*
G01*
D12*
X22852250Y-8148000D02*
X22982250Y-8148000D01*
X22982250Y-7998000D02*
G75*
G02*
X22982250Y-8148000I0J-75000D01*
G01*
X22982250Y-7998000D02*
X22852250Y-7998000D01*
X22852250Y-7998000D02*
G75*
G03*
X22852250Y-8148000I0J-75000D01*
G01*
D11*
X2649762Y-18556984D02*
X2649762Y-18356984D01*
X2649762Y-18356984D02*
X2697381Y-18356984D01*
X2697381Y-18356984D02*
X2725952Y-18366508D01*
X2725952Y-18366508D02*
X2745000Y-18385555D01*
X2745000Y-18385555D02*
X2754524Y-18404603D01*
X2754524Y-18404603D02*
X2764048Y-18442698D01*
X2764048Y-18442698D02*
X2764048Y-18471270D01*
X2764048Y-18471270D02*
X2754524Y-18509365D01*
X2754524Y-18509365D02*
X2745000Y-18528412D01*
X2745000Y-18528412D02*
X2725952Y-18547460D01*
X2725952Y-18547460D02*
X2697381Y-18556984D01*
X2697381Y-18556984D02*
X2649762Y-18556984D01*
X2849762Y-18556984D02*
X2849762Y-18423650D01*
X2849762Y-18461746D02*
X2859286Y-18442698D01*
X2859286Y-18442698D02*
X2868809Y-18433174D01*
X2868809Y-18433174D02*
X2887857Y-18423650D01*
X2887857Y-18423650D02*
X2906905Y-18423650D01*
X2973571Y-18556984D02*
X2973571Y-18423650D01*
X2973571Y-18356984D02*
X2964048Y-18366508D01*
X2964048Y-18366508D02*
X2973571Y-18376031D01*
X2973571Y-18376031D02*
X2983095Y-18366508D01*
X2983095Y-18366508D02*
X2973571Y-18356984D01*
X2973571Y-18356984D02*
X2973571Y-18376031D01*
X3097381Y-18556984D02*
X3078333Y-18547460D01*
X3078333Y-18547460D02*
X3068809Y-18528412D01*
X3068809Y-18528412D02*
X3068809Y-18356984D01*
X3202143Y-18556984D02*
X3183095Y-18547460D01*
X3183095Y-18547460D02*
X3173571Y-18528412D01*
X3173571Y-18528412D02*
X3173571Y-18356984D01*
X3430714Y-18556984D02*
X3430714Y-18356984D01*
X3430714Y-18356984D02*
X3497381Y-18499841D01*
X3497381Y-18499841D02*
X3564048Y-18356984D01*
X3564048Y-18356984D02*
X3564048Y-18556984D01*
X3745000Y-18556984D02*
X3745000Y-18452222D01*
X3745000Y-18452222D02*
X3735476Y-18433174D01*
X3735476Y-18433174D02*
X3716429Y-18423650D01*
X3716429Y-18423650D02*
X3678333Y-18423650D01*
X3678333Y-18423650D02*
X3659286Y-18433174D01*
X3745000Y-18547460D02*
X3725952Y-18556984D01*
X3725952Y-18556984D02*
X3678333Y-18556984D01*
X3678333Y-18556984D02*
X3659286Y-18547460D01*
X3659286Y-18547460D02*
X3649762Y-18528412D01*
X3649762Y-18528412D02*
X3649762Y-18509365D01*
X3649762Y-18509365D02*
X3659286Y-18490317D01*
X3659286Y-18490317D02*
X3678333Y-18480793D01*
X3678333Y-18480793D02*
X3725952Y-18480793D01*
X3725952Y-18480793D02*
X3745000Y-18471270D01*
X3840238Y-18423650D02*
X3840238Y-18623650D01*
X3840238Y-18433174D02*
X3859286Y-18423650D01*
X3859286Y-18423650D02*
X3897381Y-18423650D01*
X3897381Y-18423650D02*
X3916429Y-18433174D01*
X3916429Y-18433174D02*
X3925952Y-18442698D01*
X3925952Y-18442698D02*
X3935476Y-18461746D01*
X3935476Y-18461746D02*
X3935476Y-18518889D01*
X3935476Y-18518889D02*
X3925952Y-18537936D01*
X3925952Y-18537936D02*
X3916429Y-18547460D01*
X3916429Y-18547460D02*
X3897381Y-18556984D01*
X3897381Y-18556984D02*
X3859286Y-18556984D01*
X3859286Y-18556984D02*
X3840238Y-18547460D01*
X4021190Y-18537936D02*
X4030714Y-18547460D01*
X4030714Y-18547460D02*
X4021190Y-18556984D01*
X4021190Y-18556984D02*
X4011667Y-18547460D01*
X4011667Y-18547460D02*
X4021190Y-18537936D01*
X4021190Y-18537936D02*
X4021190Y-18556984D01*
X4021190Y-18433174D02*
X4030714Y-18442698D01*
X4030714Y-18442698D02*
X4021190Y-18452222D01*
X4021190Y-18452222D02*
X4011667Y-18442698D01*
X4011667Y-18442698D02*
X4021190Y-18433174D01*
X4021190Y-18433174D02*
X4021190Y-18452222D01*
D12*
X2358985Y-18870500D02*
X2388985Y-18900500D01*
X2388985Y-18870500D02*
X2358985Y-18900500D01*
D11*
X2687857Y-18776984D02*
X2706905Y-18776984D01*
X2706905Y-18776984D02*
X2725952Y-18786508D01*
X2725952Y-18786508D02*
X2735476Y-18796031D01*
X2735476Y-18796031D02*
X2745000Y-18815079D01*
X2745000Y-18815079D02*
X2754524Y-18853174D01*
X2754524Y-18853174D02*
X2754524Y-18900793D01*
X2754524Y-18900793D02*
X2745000Y-18938889D01*
X2745000Y-18938889D02*
X2735476Y-18957936D01*
X2735476Y-18957936D02*
X2725952Y-18967460D01*
X2725952Y-18967460D02*
X2706905Y-18976984D01*
X2706905Y-18976984D02*
X2687857Y-18976984D01*
X2687857Y-18976984D02*
X2668810Y-18967460D01*
X2668810Y-18967460D02*
X2659286Y-18957936D01*
X2659286Y-18957936D02*
X2649762Y-18938889D01*
X2649762Y-18938889D02*
X2640238Y-18900793D01*
X2640238Y-18900793D02*
X2640238Y-18853174D01*
X2640238Y-18853174D02*
X2649762Y-18815079D01*
X2649762Y-18815079D02*
X2659286Y-18796031D01*
X2659286Y-18796031D02*
X2668810Y-18786508D01*
X2668810Y-18786508D02*
X2687857Y-18776984D01*
X2840238Y-18957936D02*
X2849762Y-18967460D01*
X2849762Y-18967460D02*
X2840238Y-18976984D01*
X2840238Y-18976984D02*
X2830714Y-18967460D01*
X2830714Y-18967460D02*
X2840238Y-18957936D01*
X2840238Y-18957936D02*
X2840238Y-18976984D01*
X2916429Y-18776984D02*
X3040238Y-18776984D01*
X3040238Y-18776984D02*
X2973571Y-18853174D01*
X2973571Y-18853174D02*
X3002143Y-18853174D01*
X3002143Y-18853174D02*
X3021190Y-18862698D01*
X3021190Y-18862698D02*
X3030714Y-18872222D01*
X3030714Y-18872222D02*
X3040238Y-18891270D01*
X3040238Y-18891270D02*
X3040238Y-18938889D01*
X3040238Y-18938889D02*
X3030714Y-18957936D01*
X3030714Y-18957936D02*
X3021190Y-18967460D01*
X3021190Y-18967460D02*
X3002143Y-18976984D01*
X3002143Y-18976984D02*
X2945000Y-18976984D01*
X2945000Y-18976984D02*
X2925952Y-18967460D01*
X2925952Y-18967460D02*
X2916429Y-18957936D01*
X3164048Y-18776984D02*
X3183095Y-18776984D01*
X3183095Y-18776984D02*
X3202143Y-18786508D01*
X3202143Y-18786508D02*
X3211667Y-18796031D01*
X3211667Y-18796031D02*
X3221190Y-18815079D01*
X3221190Y-18815079D02*
X3230714Y-18853174D01*
X3230714Y-18853174D02*
X3230714Y-18900793D01*
X3230714Y-18900793D02*
X3221190Y-18938889D01*
X3221190Y-18938889D02*
X3211667Y-18957936D01*
X3211667Y-18957936D02*
X3202143Y-18967460D01*
X3202143Y-18967460D02*
X3183095Y-18976984D01*
X3183095Y-18976984D02*
X3164048Y-18976984D01*
X3164048Y-18976984D02*
X3145000Y-18967460D01*
X3145000Y-18967460D02*
X3135476Y-18957936D01*
X3135476Y-18957936D02*
X3125952Y-18938889D01*
X3125952Y-18938889D02*
X3116429Y-18900793D01*
X3116429Y-18900793D02*
X3116429Y-18853174D01*
X3116429Y-18853174D02*
X3125952Y-18815079D01*
X3125952Y-18815079D02*
X3135476Y-18796031D01*
X3135476Y-18796031D02*
X3145000Y-18786508D01*
X3145000Y-18786508D02*
X3164048Y-18776984D01*
X3354524Y-18776984D02*
X3373571Y-18776984D01*
X3373571Y-18776984D02*
X3392619Y-18786508D01*
X3392619Y-18786508D02*
X3402143Y-18796031D01*
X3402143Y-18796031D02*
X3411667Y-18815079D01*
X3411667Y-18815079D02*
X3421190Y-18853174D01*
X3421190Y-18853174D02*
X3421190Y-18900793D01*
X3421190Y-18900793D02*
X3411667Y-18938889D01*
X3411667Y-18938889D02*
X3402143Y-18957936D01*
X3402143Y-18957936D02*
X3392619Y-18967460D01*
X3392619Y-18967460D02*
X3373571Y-18976984D01*
X3373571Y-18976984D02*
X3354524Y-18976984D01*
X3354524Y-18976984D02*
X3335476Y-18967460D01*
X3335476Y-18967460D02*
X3325952Y-18957936D01*
X3325952Y-18957936D02*
X3316429Y-18938889D01*
X3316429Y-18938889D02*
X3306905Y-18900793D01*
X3306905Y-18900793D02*
X3306905Y-18853174D01*
X3306905Y-18853174D02*
X3316429Y-18815079D01*
X3316429Y-18815079D02*
X3325952Y-18796031D01*
X3325952Y-18796031D02*
X3335476Y-18786508D01*
X3335476Y-18786508D02*
X3354524Y-18776984D01*
X3506905Y-18976984D02*
X3506905Y-18843650D01*
X3506905Y-18862698D02*
X3516429Y-18853174D01*
X3516429Y-18853174D02*
X3535476Y-18843650D01*
X3535476Y-18843650D02*
X3564048Y-18843650D01*
X3564048Y-18843650D02*
X3583095Y-18853174D01*
X3583095Y-18853174D02*
X3592619Y-18872222D01*
X3592619Y-18872222D02*
X3592619Y-18976984D01*
X3592619Y-18872222D02*
X3602143Y-18853174D01*
X3602143Y-18853174D02*
X3621190Y-18843650D01*
X3621190Y-18843650D02*
X3649762Y-18843650D01*
X3649762Y-18843650D02*
X3668810Y-18853174D01*
X3668810Y-18853174D02*
X3678333Y-18872222D01*
X3678333Y-18872222D02*
X3678333Y-18976984D01*
X3773571Y-18976984D02*
X3773571Y-18843650D01*
X3773571Y-18862698D02*
X3783095Y-18853174D01*
X3783095Y-18853174D02*
X3802143Y-18843650D01*
X3802143Y-18843650D02*
X3830714Y-18843650D01*
X3830714Y-18843650D02*
X3849762Y-18853174D01*
X3849762Y-18853174D02*
X3859286Y-18872222D01*
X3859286Y-18872222D02*
X3859286Y-18976984D01*
X3859286Y-18872222D02*
X3868810Y-18853174D01*
X3868810Y-18853174D02*
X3887857Y-18843650D01*
X3887857Y-18843650D02*
X3916429Y-18843650D01*
X3916429Y-18843650D02*
X3935476Y-18853174D01*
X3935476Y-18853174D02*
X3945000Y-18872222D01*
X3945000Y-18872222D02*
X3945000Y-18976984D01*
X4335476Y-18767460D02*
X4164048Y-19024603D01*
X4592619Y-18776984D02*
X4611667Y-18776984D01*
X4611667Y-18776984D02*
X4630715Y-18786508D01*
X4630715Y-18786508D02*
X4640238Y-18796031D01*
X4640238Y-18796031D02*
X4649762Y-18815079D01*
X4649762Y-18815079D02*
X4659286Y-18853174D01*
X4659286Y-18853174D02*
X4659286Y-18900793D01*
X4659286Y-18900793D02*
X4649762Y-18938889D01*
X4649762Y-18938889D02*
X4640238Y-18957936D01*
X4640238Y-18957936D02*
X4630715Y-18967460D01*
X4630715Y-18967460D02*
X4611667Y-18976984D01*
X4611667Y-18976984D02*
X4592619Y-18976984D01*
X4592619Y-18976984D02*
X4573572Y-18967460D01*
X4573572Y-18967460D02*
X4564048Y-18957936D01*
X4564048Y-18957936D02*
X4554524Y-18938889D01*
X4554524Y-18938889D02*
X4545000Y-18900793D01*
X4545000Y-18900793D02*
X4545000Y-18853174D01*
X4545000Y-18853174D02*
X4554524Y-18815079D01*
X4554524Y-18815079D02*
X4564048Y-18796031D01*
X4564048Y-18796031D02*
X4573572Y-18786508D01*
X4573572Y-18786508D02*
X4592619Y-18776984D01*
X4745000Y-18957936D02*
X4754524Y-18967460D01*
X4754524Y-18967460D02*
X4745000Y-18976984D01*
X4745000Y-18976984D02*
X4735476Y-18967460D01*
X4735476Y-18967460D02*
X4745000Y-18957936D01*
X4745000Y-18957936D02*
X4745000Y-18976984D01*
X4878334Y-18776984D02*
X4897381Y-18776984D01*
X4897381Y-18776984D02*
X4916429Y-18786508D01*
X4916429Y-18786508D02*
X4925953Y-18796031D01*
X4925953Y-18796031D02*
X4935476Y-18815079D01*
X4935476Y-18815079D02*
X4945000Y-18853174D01*
X4945000Y-18853174D02*
X4945000Y-18900793D01*
X4945000Y-18900793D02*
X4935476Y-18938889D01*
X4935476Y-18938889D02*
X4925953Y-18957936D01*
X4925953Y-18957936D02*
X4916429Y-18967460D01*
X4916429Y-18967460D02*
X4897381Y-18976984D01*
X4897381Y-18976984D02*
X4878334Y-18976984D01*
X4878334Y-18976984D02*
X4859286Y-18967460D01*
X4859286Y-18967460D02*
X4849762Y-18957936D01*
X4849762Y-18957936D02*
X4840238Y-18938889D01*
X4840238Y-18938889D02*
X4830715Y-18900793D01*
X4830715Y-18900793D02*
X4830715Y-18853174D01*
X4830715Y-18853174D02*
X4840238Y-18815079D01*
X4840238Y-18815079D02*
X4849762Y-18796031D01*
X4849762Y-18796031D02*
X4859286Y-18786508D01*
X4859286Y-18786508D02*
X4878334Y-18776984D01*
X5135476Y-18976984D02*
X5021191Y-18976984D01*
X5078334Y-18976984D02*
X5078334Y-18776984D01*
X5078334Y-18776984D02*
X5059286Y-18805555D01*
X5059286Y-18805555D02*
X5040238Y-18824603D01*
X5040238Y-18824603D02*
X5021191Y-18834127D01*
X5325953Y-18976984D02*
X5211667Y-18976984D01*
X5268810Y-18976984D02*
X5268810Y-18776984D01*
X5268810Y-18776984D02*
X5249762Y-18805555D01*
X5249762Y-18805555D02*
X5230715Y-18824603D01*
X5230715Y-18824603D02*
X5211667Y-18834127D01*
X5440238Y-18862698D02*
X5421191Y-18853174D01*
X5421191Y-18853174D02*
X5411667Y-18843650D01*
X5411667Y-18843650D02*
X5402143Y-18824603D01*
X5402143Y-18824603D02*
X5402143Y-18815079D01*
X5402143Y-18815079D02*
X5411667Y-18796031D01*
X5411667Y-18796031D02*
X5421191Y-18786508D01*
X5421191Y-18786508D02*
X5440238Y-18776984D01*
X5440238Y-18776984D02*
X5478334Y-18776984D01*
X5478334Y-18776984D02*
X5497381Y-18786508D01*
X5497381Y-18786508D02*
X5506905Y-18796031D01*
X5506905Y-18796031D02*
X5516429Y-18815079D01*
X5516429Y-18815079D02*
X5516429Y-18824603D01*
X5516429Y-18824603D02*
X5506905Y-18843650D01*
X5506905Y-18843650D02*
X5497381Y-18853174D01*
X5497381Y-18853174D02*
X5478334Y-18862698D01*
X5478334Y-18862698D02*
X5440238Y-18862698D01*
X5440238Y-18862698D02*
X5421191Y-18872222D01*
X5421191Y-18872222D02*
X5411667Y-18881746D01*
X5411667Y-18881746D02*
X5402143Y-18900793D01*
X5402143Y-18900793D02*
X5402143Y-18938889D01*
X5402143Y-18938889D02*
X5411667Y-18957936D01*
X5411667Y-18957936D02*
X5421191Y-18967460D01*
X5421191Y-18967460D02*
X5440238Y-18976984D01*
X5440238Y-18976984D02*
X5478334Y-18976984D01*
X5478334Y-18976984D02*
X5497381Y-18967460D01*
X5497381Y-18967460D02*
X5506905Y-18957936D01*
X5506905Y-18957936D02*
X5516429Y-18938889D01*
X5516429Y-18938889D02*
X5516429Y-18900793D01*
X5516429Y-18900793D02*
X5506905Y-18881746D01*
X5506905Y-18881746D02*
X5497381Y-18872222D01*
X5497381Y-18872222D02*
X5478334Y-18862698D01*
X5592619Y-18776984D02*
X5592619Y-18815079D01*
X5668810Y-18776984D02*
X5668810Y-18815079D01*
X5964048Y-19053174D02*
X5954524Y-19043650D01*
X5954524Y-19043650D02*
X5935476Y-19015079D01*
X5935476Y-19015079D02*
X5925953Y-18996031D01*
X5925953Y-18996031D02*
X5916429Y-18967460D01*
X5916429Y-18967460D02*
X5906905Y-18919841D01*
X5906905Y-18919841D02*
X5906905Y-18881746D01*
X5906905Y-18881746D02*
X5916429Y-18834127D01*
X5916429Y-18834127D02*
X5925953Y-18805555D01*
X5925953Y-18805555D02*
X5935476Y-18786508D01*
X5935476Y-18786508D02*
X5954524Y-18757936D01*
X5954524Y-18757936D02*
X5964048Y-18748412D01*
X6145000Y-18976984D02*
X6030715Y-18976984D01*
X6087857Y-18976984D02*
X6087857Y-18776984D01*
X6087857Y-18776984D02*
X6068810Y-18805555D01*
X6068810Y-18805555D02*
X6049762Y-18824603D01*
X6049762Y-18824603D02*
X6030715Y-18834127D01*
X6335476Y-18976984D02*
X6221191Y-18976984D01*
X6278334Y-18976984D02*
X6278334Y-18776984D01*
X6278334Y-18776984D02*
X6259286Y-18805555D01*
X6259286Y-18805555D02*
X6240238Y-18824603D01*
X6240238Y-18824603D02*
X6221191Y-18834127D01*
X6449762Y-18862698D02*
X6430715Y-18853174D01*
X6430715Y-18853174D02*
X6421191Y-18843650D01*
X6421191Y-18843650D02*
X6411667Y-18824603D01*
X6411667Y-18824603D02*
X6411667Y-18815079D01*
X6411667Y-18815079D02*
X6421191Y-18796031D01*
X6421191Y-18796031D02*
X6430715Y-18786508D01*
X6430715Y-18786508D02*
X6449762Y-18776984D01*
X6449762Y-18776984D02*
X6487857Y-18776984D01*
X6487857Y-18776984D02*
X6506905Y-18786508D01*
X6506905Y-18786508D02*
X6516429Y-18796031D01*
X6516429Y-18796031D02*
X6525953Y-18815079D01*
X6525953Y-18815079D02*
X6525953Y-18824603D01*
X6525953Y-18824603D02*
X6516429Y-18843650D01*
X6516429Y-18843650D02*
X6506905Y-18853174D01*
X6506905Y-18853174D02*
X6487857Y-18862698D01*
X6487857Y-18862698D02*
X6449762Y-18862698D01*
X6449762Y-18862698D02*
X6430715Y-18872222D01*
X6430715Y-18872222D02*
X6421191Y-18881746D01*
X6421191Y-18881746D02*
X6411667Y-18900793D01*
X6411667Y-18900793D02*
X6411667Y-18938889D01*
X6411667Y-18938889D02*
X6421191Y-18957936D01*
X6421191Y-18957936D02*
X6430715Y-18967460D01*
X6430715Y-18967460D02*
X6449762Y-18976984D01*
X6449762Y-18976984D02*
X6487857Y-18976984D01*
X6487857Y-18976984D02*
X6506905Y-18967460D01*
X6506905Y-18967460D02*
X6516429Y-18957936D01*
X6516429Y-18957936D02*
X6525953Y-18938889D01*
X6525953Y-18938889D02*
X6525953Y-18900793D01*
X6525953Y-18900793D02*
X6516429Y-18881746D01*
X6516429Y-18881746D02*
X6506905Y-18872222D01*
X6506905Y-18872222D02*
X6487857Y-18862698D01*
X6764048Y-18976984D02*
X6764048Y-18776984D01*
X6849762Y-18976984D02*
X6849762Y-18872222D01*
X6849762Y-18872222D02*
X6840238Y-18853174D01*
X6840238Y-18853174D02*
X6821191Y-18843650D01*
X6821191Y-18843650D02*
X6792619Y-18843650D01*
X6792619Y-18843650D02*
X6773572Y-18853174D01*
X6773572Y-18853174D02*
X6764048Y-18862698D01*
X6973572Y-18976984D02*
X6954524Y-18967460D01*
X6954524Y-18967460D02*
X6945000Y-18957936D01*
X6945000Y-18957936D02*
X6935477Y-18938889D01*
X6935477Y-18938889D02*
X6935477Y-18881746D01*
X6935477Y-18881746D02*
X6945000Y-18862698D01*
X6945000Y-18862698D02*
X6954524Y-18853174D01*
X6954524Y-18853174D02*
X6973572Y-18843650D01*
X6973572Y-18843650D02*
X7002143Y-18843650D01*
X7002143Y-18843650D02*
X7021191Y-18853174D01*
X7021191Y-18853174D02*
X7030715Y-18862698D01*
X7030715Y-18862698D02*
X7040238Y-18881746D01*
X7040238Y-18881746D02*
X7040238Y-18938889D01*
X7040238Y-18938889D02*
X7030715Y-18957936D01*
X7030715Y-18957936D02*
X7021191Y-18967460D01*
X7021191Y-18967460D02*
X7002143Y-18976984D01*
X7002143Y-18976984D02*
X6973572Y-18976984D01*
X7154524Y-18976984D02*
X7135477Y-18967460D01*
X7135477Y-18967460D02*
X7125953Y-18948412D01*
X7125953Y-18948412D02*
X7125953Y-18776984D01*
X7306905Y-18967460D02*
X7287858Y-18976984D01*
X7287858Y-18976984D02*
X7249762Y-18976984D01*
X7249762Y-18976984D02*
X7230715Y-18967460D01*
X7230715Y-18967460D02*
X7221191Y-18948412D01*
X7221191Y-18948412D02*
X7221191Y-18872222D01*
X7221191Y-18872222D02*
X7230715Y-18853174D01*
X7230715Y-18853174D02*
X7249762Y-18843650D01*
X7249762Y-18843650D02*
X7287858Y-18843650D01*
X7287858Y-18843650D02*
X7306905Y-18853174D01*
X7306905Y-18853174D02*
X7316429Y-18872222D01*
X7316429Y-18872222D02*
X7316429Y-18891270D01*
X7316429Y-18891270D02*
X7221191Y-18910317D01*
X7392619Y-18967460D02*
X7411667Y-18976984D01*
X7411667Y-18976984D02*
X7449762Y-18976984D01*
X7449762Y-18976984D02*
X7468810Y-18967460D01*
X7468810Y-18967460D02*
X7478334Y-18948412D01*
X7478334Y-18948412D02*
X7478334Y-18938889D01*
X7478334Y-18938889D02*
X7468810Y-18919841D01*
X7468810Y-18919841D02*
X7449762Y-18910317D01*
X7449762Y-18910317D02*
X7421191Y-18910317D01*
X7421191Y-18910317D02*
X7402143Y-18900793D01*
X7402143Y-18900793D02*
X7392619Y-18881746D01*
X7392619Y-18881746D02*
X7392619Y-18872222D01*
X7392619Y-18872222D02*
X7402143Y-18853174D01*
X7402143Y-18853174D02*
X7421191Y-18843650D01*
X7421191Y-18843650D02*
X7449762Y-18843650D01*
X7449762Y-18843650D02*
X7468810Y-18853174D01*
X7545000Y-19053174D02*
X7554524Y-19043650D01*
X7554524Y-19043650D02*
X7573572Y-19015079D01*
X7573572Y-19015079D02*
X7583096Y-18996031D01*
X7583096Y-18996031D02*
X7592619Y-18967460D01*
X7592619Y-18967460D02*
X7602143Y-18919841D01*
X7602143Y-18919841D02*
X7602143Y-18881746D01*
X7602143Y-18881746D02*
X7592619Y-18834127D01*
X7592619Y-18834127D02*
X7583096Y-18805555D01*
X7583096Y-18805555D02*
X7573572Y-18786508D01*
X7573572Y-18786508D02*
X7554524Y-18757936D01*
X7554524Y-18757936D02*
X7545000Y-18748412D01*
D12*
X2388985Y-19149500D02*
G75*
G02*
X2348985Y-19149500I-20000J0D01*
G01*
X2348985Y-19149500D02*
G75*
G02*
X2388985Y-19149500I20000J0D01*
G01*
D11*
X2687857Y-19040984D02*
X2706905Y-19040984D01*
X2706905Y-19040984D02*
X2725952Y-19050508D01*
X2725952Y-19050508D02*
X2735476Y-19060031D01*
X2735476Y-19060031D02*
X2745000Y-19079079D01*
X2745000Y-19079079D02*
X2754524Y-19117174D01*
X2754524Y-19117174D02*
X2754524Y-19164793D01*
X2754524Y-19164793D02*
X2745000Y-19202889D01*
X2745000Y-19202889D02*
X2735476Y-19221936D01*
X2735476Y-19221936D02*
X2725952Y-19231460D01*
X2725952Y-19231460D02*
X2706905Y-19240984D01*
X2706905Y-19240984D02*
X2687857Y-19240984D01*
X2687857Y-19240984D02*
X2668810Y-19231460D01*
X2668810Y-19231460D02*
X2659286Y-19221936D01*
X2659286Y-19221936D02*
X2649762Y-19202889D01*
X2649762Y-19202889D02*
X2640238Y-19164793D01*
X2640238Y-19164793D02*
X2640238Y-19117174D01*
X2640238Y-19117174D02*
X2649762Y-19079079D01*
X2649762Y-19079079D02*
X2659286Y-19060031D01*
X2659286Y-19060031D02*
X2668810Y-19050508D01*
X2668810Y-19050508D02*
X2687857Y-19040984D01*
X2840238Y-19221936D02*
X2849762Y-19231460D01*
X2849762Y-19231460D02*
X2840238Y-19240984D01*
X2840238Y-19240984D02*
X2830714Y-19231460D01*
X2830714Y-19231460D02*
X2840238Y-19221936D01*
X2840238Y-19221936D02*
X2840238Y-19240984D01*
X3021190Y-19107650D02*
X3021190Y-19240984D01*
X2973571Y-19031460D02*
X2925952Y-19174317D01*
X2925952Y-19174317D02*
X3049762Y-19174317D01*
X3164048Y-19040984D02*
X3183095Y-19040984D01*
X3183095Y-19040984D02*
X3202143Y-19050508D01*
X3202143Y-19050508D02*
X3211667Y-19060031D01*
X3211667Y-19060031D02*
X3221190Y-19079079D01*
X3221190Y-19079079D02*
X3230714Y-19117174D01*
X3230714Y-19117174D02*
X3230714Y-19164793D01*
X3230714Y-19164793D02*
X3221190Y-19202889D01*
X3221190Y-19202889D02*
X3211667Y-19221936D01*
X3211667Y-19221936D02*
X3202143Y-19231460D01*
X3202143Y-19231460D02*
X3183095Y-19240984D01*
X3183095Y-19240984D02*
X3164048Y-19240984D01*
X3164048Y-19240984D02*
X3145000Y-19231460D01*
X3145000Y-19231460D02*
X3135476Y-19221936D01*
X3135476Y-19221936D02*
X3125952Y-19202889D01*
X3125952Y-19202889D02*
X3116429Y-19164793D01*
X3116429Y-19164793D02*
X3116429Y-19117174D01*
X3116429Y-19117174D02*
X3125952Y-19079079D01*
X3125952Y-19079079D02*
X3135476Y-19060031D01*
X3135476Y-19060031D02*
X3145000Y-19050508D01*
X3145000Y-19050508D02*
X3164048Y-19040984D01*
X3354524Y-19040984D02*
X3373571Y-19040984D01*
X3373571Y-19040984D02*
X3392619Y-19050508D01*
X3392619Y-19050508D02*
X3402143Y-19060031D01*
X3402143Y-19060031D02*
X3411667Y-19079079D01*
X3411667Y-19079079D02*
X3421190Y-19117174D01*
X3421190Y-19117174D02*
X3421190Y-19164793D01*
X3421190Y-19164793D02*
X3411667Y-19202889D01*
X3411667Y-19202889D02*
X3402143Y-19221936D01*
X3402143Y-19221936D02*
X3392619Y-19231460D01*
X3392619Y-19231460D02*
X3373571Y-19240984D01*
X3373571Y-19240984D02*
X3354524Y-19240984D01*
X3354524Y-19240984D02*
X3335476Y-19231460D01*
X3335476Y-19231460D02*
X3325952Y-19221936D01*
X3325952Y-19221936D02*
X3316429Y-19202889D01*
X3316429Y-19202889D02*
X3306905Y-19164793D01*
X3306905Y-19164793D02*
X3306905Y-19117174D01*
X3306905Y-19117174D02*
X3316429Y-19079079D01*
X3316429Y-19079079D02*
X3325952Y-19060031D01*
X3325952Y-19060031D02*
X3335476Y-19050508D01*
X3335476Y-19050508D02*
X3354524Y-19040984D01*
X3506905Y-19240984D02*
X3506905Y-19107650D01*
X3506905Y-19126698D02*
X3516429Y-19117174D01*
X3516429Y-19117174D02*
X3535476Y-19107650D01*
X3535476Y-19107650D02*
X3564048Y-19107650D01*
X3564048Y-19107650D02*
X3583095Y-19117174D01*
X3583095Y-19117174D02*
X3592619Y-19136222D01*
X3592619Y-19136222D02*
X3592619Y-19240984D01*
X3592619Y-19136222D02*
X3602143Y-19117174D01*
X3602143Y-19117174D02*
X3621190Y-19107650D01*
X3621190Y-19107650D02*
X3649762Y-19107650D01*
X3649762Y-19107650D02*
X3668810Y-19117174D01*
X3668810Y-19117174D02*
X3678333Y-19136222D01*
X3678333Y-19136222D02*
X3678333Y-19240984D01*
X3773571Y-19240984D02*
X3773571Y-19107650D01*
X3773571Y-19126698D02*
X3783095Y-19117174D01*
X3783095Y-19117174D02*
X3802143Y-19107650D01*
X3802143Y-19107650D02*
X3830714Y-19107650D01*
X3830714Y-19107650D02*
X3849762Y-19117174D01*
X3849762Y-19117174D02*
X3859286Y-19136222D01*
X3859286Y-19136222D02*
X3859286Y-19240984D01*
X3859286Y-19136222D02*
X3868810Y-19117174D01*
X3868810Y-19117174D02*
X3887857Y-19107650D01*
X3887857Y-19107650D02*
X3916429Y-19107650D01*
X3916429Y-19107650D02*
X3935476Y-19117174D01*
X3935476Y-19117174D02*
X3945000Y-19136222D01*
X3945000Y-19136222D02*
X3945000Y-19240984D01*
X4335476Y-19031460D02*
X4164048Y-19288603D01*
X4592619Y-19040984D02*
X4611667Y-19040984D01*
X4611667Y-19040984D02*
X4630715Y-19050508D01*
X4630715Y-19050508D02*
X4640238Y-19060031D01*
X4640238Y-19060031D02*
X4649762Y-19079079D01*
X4649762Y-19079079D02*
X4659286Y-19117174D01*
X4659286Y-19117174D02*
X4659286Y-19164793D01*
X4659286Y-19164793D02*
X4649762Y-19202889D01*
X4649762Y-19202889D02*
X4640238Y-19221936D01*
X4640238Y-19221936D02*
X4630715Y-19231460D01*
X4630715Y-19231460D02*
X4611667Y-19240984D01*
X4611667Y-19240984D02*
X4592619Y-19240984D01*
X4592619Y-19240984D02*
X4573572Y-19231460D01*
X4573572Y-19231460D02*
X4564048Y-19221936D01*
X4564048Y-19221936D02*
X4554524Y-19202889D01*
X4554524Y-19202889D02*
X4545000Y-19164793D01*
X4545000Y-19164793D02*
X4545000Y-19117174D01*
X4545000Y-19117174D02*
X4554524Y-19079079D01*
X4554524Y-19079079D02*
X4564048Y-19060031D01*
X4564048Y-19060031D02*
X4573572Y-19050508D01*
X4573572Y-19050508D02*
X4592619Y-19040984D01*
X4745000Y-19221936D02*
X4754524Y-19231460D01*
X4754524Y-19231460D02*
X4745000Y-19240984D01*
X4745000Y-19240984D02*
X4735476Y-19231460D01*
X4735476Y-19231460D02*
X4745000Y-19221936D01*
X4745000Y-19221936D02*
X4745000Y-19240984D01*
X4878334Y-19040984D02*
X4897381Y-19040984D01*
X4897381Y-19040984D02*
X4916429Y-19050508D01*
X4916429Y-19050508D02*
X4925953Y-19060031D01*
X4925953Y-19060031D02*
X4935476Y-19079079D01*
X4935476Y-19079079D02*
X4945000Y-19117174D01*
X4945000Y-19117174D02*
X4945000Y-19164793D01*
X4945000Y-19164793D02*
X4935476Y-19202889D01*
X4935476Y-19202889D02*
X4925953Y-19221936D01*
X4925953Y-19221936D02*
X4916429Y-19231460D01*
X4916429Y-19231460D02*
X4897381Y-19240984D01*
X4897381Y-19240984D02*
X4878334Y-19240984D01*
X4878334Y-19240984D02*
X4859286Y-19231460D01*
X4859286Y-19231460D02*
X4849762Y-19221936D01*
X4849762Y-19221936D02*
X4840238Y-19202889D01*
X4840238Y-19202889D02*
X4830715Y-19164793D01*
X4830715Y-19164793D02*
X4830715Y-19117174D01*
X4830715Y-19117174D02*
X4840238Y-19079079D01*
X4840238Y-19079079D02*
X4849762Y-19060031D01*
X4849762Y-19060031D02*
X4859286Y-19050508D01*
X4859286Y-19050508D02*
X4878334Y-19040984D01*
X5135476Y-19240984D02*
X5021191Y-19240984D01*
X5078334Y-19240984D02*
X5078334Y-19040984D01*
X5078334Y-19040984D02*
X5059286Y-19069555D01*
X5059286Y-19069555D02*
X5040238Y-19088603D01*
X5040238Y-19088603D02*
X5021191Y-19098127D01*
X5316429Y-19040984D02*
X5221191Y-19040984D01*
X5221191Y-19040984D02*
X5211667Y-19136222D01*
X5211667Y-19136222D02*
X5221191Y-19126698D01*
X5221191Y-19126698D02*
X5240238Y-19117174D01*
X5240238Y-19117174D02*
X5287857Y-19117174D01*
X5287857Y-19117174D02*
X5306905Y-19126698D01*
X5306905Y-19126698D02*
X5316429Y-19136222D01*
X5316429Y-19136222D02*
X5325953Y-19155270D01*
X5325953Y-19155270D02*
X5325953Y-19202889D01*
X5325953Y-19202889D02*
X5316429Y-19221936D01*
X5316429Y-19221936D02*
X5306905Y-19231460D01*
X5306905Y-19231460D02*
X5287857Y-19240984D01*
X5287857Y-19240984D02*
X5240238Y-19240984D01*
X5240238Y-19240984D02*
X5221191Y-19231460D01*
X5221191Y-19231460D02*
X5211667Y-19221936D01*
X5392619Y-19040984D02*
X5525953Y-19040984D01*
X5525953Y-19040984D02*
X5440238Y-19240984D01*
X5592619Y-19040984D02*
X5592619Y-19079079D01*
X5668810Y-19040984D02*
X5668810Y-19079079D01*
X5964048Y-19317174D02*
X5954524Y-19307650D01*
X5954524Y-19307650D02*
X5935476Y-19279079D01*
X5935476Y-19279079D02*
X5925953Y-19260031D01*
X5925953Y-19260031D02*
X5916429Y-19231460D01*
X5916429Y-19231460D02*
X5906905Y-19183841D01*
X5906905Y-19183841D02*
X5906905Y-19145746D01*
X5906905Y-19145746D02*
X5916429Y-19098127D01*
X5916429Y-19098127D02*
X5925953Y-19069555D01*
X5925953Y-19069555D02*
X5935476Y-19050508D01*
X5935476Y-19050508D02*
X5954524Y-19021936D01*
X5954524Y-19021936D02*
X5964048Y-19012412D01*
X6135476Y-19040984D02*
X6040238Y-19040984D01*
X6040238Y-19040984D02*
X6030715Y-19136222D01*
X6030715Y-19136222D02*
X6040238Y-19126698D01*
X6040238Y-19126698D02*
X6059286Y-19117174D01*
X6059286Y-19117174D02*
X6106905Y-19117174D01*
X6106905Y-19117174D02*
X6125953Y-19126698D01*
X6125953Y-19126698D02*
X6135476Y-19136222D01*
X6135476Y-19136222D02*
X6145000Y-19155270D01*
X6145000Y-19155270D02*
X6145000Y-19202889D01*
X6145000Y-19202889D02*
X6135476Y-19221936D01*
X6135476Y-19221936D02*
X6125953Y-19231460D01*
X6125953Y-19231460D02*
X6106905Y-19240984D01*
X6106905Y-19240984D02*
X6059286Y-19240984D01*
X6059286Y-19240984D02*
X6040238Y-19231460D01*
X6040238Y-19231460D02*
X6030715Y-19221936D01*
X6383096Y-19240984D02*
X6383096Y-19040984D01*
X6468810Y-19240984D02*
X6468810Y-19136222D01*
X6468810Y-19136222D02*
X6459286Y-19117174D01*
X6459286Y-19117174D02*
X6440238Y-19107650D01*
X6440238Y-19107650D02*
X6411667Y-19107650D01*
X6411667Y-19107650D02*
X6392619Y-19117174D01*
X6392619Y-19117174D02*
X6383096Y-19126698D01*
X6592619Y-19240984D02*
X6573572Y-19231460D01*
X6573572Y-19231460D02*
X6564048Y-19221936D01*
X6564048Y-19221936D02*
X6554524Y-19202889D01*
X6554524Y-19202889D02*
X6554524Y-19145746D01*
X6554524Y-19145746D02*
X6564048Y-19126698D01*
X6564048Y-19126698D02*
X6573572Y-19117174D01*
X6573572Y-19117174D02*
X6592619Y-19107650D01*
X6592619Y-19107650D02*
X6621191Y-19107650D01*
X6621191Y-19107650D02*
X6640238Y-19117174D01*
X6640238Y-19117174D02*
X6649762Y-19126698D01*
X6649762Y-19126698D02*
X6659286Y-19145746D01*
X6659286Y-19145746D02*
X6659286Y-19202889D01*
X6659286Y-19202889D02*
X6649762Y-19221936D01*
X6649762Y-19221936D02*
X6640238Y-19231460D01*
X6640238Y-19231460D02*
X6621191Y-19240984D01*
X6621191Y-19240984D02*
X6592619Y-19240984D01*
X6773572Y-19240984D02*
X6754524Y-19231460D01*
X6754524Y-19231460D02*
X6745000Y-19212412D01*
X6745000Y-19212412D02*
X6745000Y-19040984D01*
X6925953Y-19231460D02*
X6906905Y-19240984D01*
X6906905Y-19240984D02*
X6868810Y-19240984D01*
X6868810Y-19240984D02*
X6849762Y-19231460D01*
X6849762Y-19231460D02*
X6840238Y-19212412D01*
X6840238Y-19212412D02*
X6840238Y-19136222D01*
X6840238Y-19136222D02*
X6849762Y-19117174D01*
X6849762Y-19117174D02*
X6868810Y-19107650D01*
X6868810Y-19107650D02*
X6906905Y-19107650D01*
X6906905Y-19107650D02*
X6925953Y-19117174D01*
X6925953Y-19117174D02*
X6935477Y-19136222D01*
X6935477Y-19136222D02*
X6935477Y-19155270D01*
X6935477Y-19155270D02*
X6840238Y-19174317D01*
X7011667Y-19231460D02*
X7030715Y-19240984D01*
X7030715Y-19240984D02*
X7068810Y-19240984D01*
X7068810Y-19240984D02*
X7087858Y-19231460D01*
X7087858Y-19231460D02*
X7097381Y-19212412D01*
X7097381Y-19212412D02*
X7097381Y-19202889D01*
X7097381Y-19202889D02*
X7087858Y-19183841D01*
X7087858Y-19183841D02*
X7068810Y-19174317D01*
X7068810Y-19174317D02*
X7040238Y-19174317D01*
X7040238Y-19174317D02*
X7021191Y-19164793D01*
X7021191Y-19164793D02*
X7011667Y-19145746D01*
X7011667Y-19145746D02*
X7011667Y-19136222D01*
X7011667Y-19136222D02*
X7021191Y-19117174D01*
X7021191Y-19117174D02*
X7040238Y-19107650D01*
X7040238Y-19107650D02*
X7068810Y-19107650D01*
X7068810Y-19107650D02*
X7087858Y-19117174D01*
X7164048Y-19317174D02*
X7173572Y-19307650D01*
X7173572Y-19307650D02*
X7192619Y-19279079D01*
X7192619Y-19279079D02*
X7202143Y-19260031D01*
X7202143Y-19260031D02*
X7211667Y-19231460D01*
X7211667Y-19231460D02*
X7221191Y-19183841D01*
X7221191Y-19183841D02*
X7221191Y-19145746D01*
X7221191Y-19145746D02*
X7211667Y-19098127D01*
X7211667Y-19098127D02*
X7202143Y-19069555D01*
X7202143Y-19069555D02*
X7192619Y-19050508D01*
X7192619Y-19050508D02*
X7173572Y-19021936D01*
X7173572Y-19021936D02*
X7164048Y-19012412D01*
D12*
X2358985Y-19383500D02*
X2358985Y-19443500D01*
X2328985Y-19413500D02*
X2388985Y-19413500D01*
D11*
X2687857Y-19304984D02*
X2706905Y-19304984D01*
X2706905Y-19304984D02*
X2725952Y-19314508D01*
X2725952Y-19314508D02*
X2735476Y-19324031D01*
X2735476Y-19324031D02*
X2745000Y-19343079D01*
X2745000Y-19343079D02*
X2754524Y-19381174D01*
X2754524Y-19381174D02*
X2754524Y-19428793D01*
X2754524Y-19428793D02*
X2745000Y-19466889D01*
X2745000Y-19466889D02*
X2735476Y-19485936D01*
X2735476Y-19485936D02*
X2725952Y-19495460D01*
X2725952Y-19495460D02*
X2706905Y-19504984D01*
X2706905Y-19504984D02*
X2687857Y-19504984D01*
X2687857Y-19504984D02*
X2668810Y-19495460D01*
X2668810Y-19495460D02*
X2659286Y-19485936D01*
X2659286Y-19485936D02*
X2649762Y-19466889D01*
X2649762Y-19466889D02*
X2640238Y-19428793D01*
X2640238Y-19428793D02*
X2640238Y-19381174D01*
X2640238Y-19381174D02*
X2649762Y-19343079D01*
X2649762Y-19343079D02*
X2659286Y-19324031D01*
X2659286Y-19324031D02*
X2668810Y-19314508D01*
X2668810Y-19314508D02*
X2687857Y-19304984D01*
X2840238Y-19485936D02*
X2849762Y-19495460D01*
X2849762Y-19495460D02*
X2840238Y-19504984D01*
X2840238Y-19504984D02*
X2830714Y-19495460D01*
X2830714Y-19495460D02*
X2840238Y-19485936D01*
X2840238Y-19485936D02*
X2840238Y-19504984D01*
X3021190Y-19304984D02*
X2983095Y-19304984D01*
X2983095Y-19304984D02*
X2964048Y-19314508D01*
X2964048Y-19314508D02*
X2954524Y-19324031D01*
X2954524Y-19324031D02*
X2935476Y-19352603D01*
X2935476Y-19352603D02*
X2925952Y-19390698D01*
X2925952Y-19390698D02*
X2925952Y-19466889D01*
X2925952Y-19466889D02*
X2935476Y-19485936D01*
X2935476Y-19485936D02*
X2945000Y-19495460D01*
X2945000Y-19495460D02*
X2964048Y-19504984D01*
X2964048Y-19504984D02*
X3002143Y-19504984D01*
X3002143Y-19504984D02*
X3021190Y-19495460D01*
X3021190Y-19495460D02*
X3030714Y-19485936D01*
X3030714Y-19485936D02*
X3040238Y-19466889D01*
X3040238Y-19466889D02*
X3040238Y-19419270D01*
X3040238Y-19419270D02*
X3030714Y-19400222D01*
X3030714Y-19400222D02*
X3021190Y-19390698D01*
X3021190Y-19390698D02*
X3002143Y-19381174D01*
X3002143Y-19381174D02*
X2964048Y-19381174D01*
X2964048Y-19381174D02*
X2945000Y-19390698D01*
X2945000Y-19390698D02*
X2935476Y-19400222D01*
X2935476Y-19400222D02*
X2925952Y-19419270D01*
X3164048Y-19304984D02*
X3183095Y-19304984D01*
X3183095Y-19304984D02*
X3202143Y-19314508D01*
X3202143Y-19314508D02*
X3211667Y-19324031D01*
X3211667Y-19324031D02*
X3221190Y-19343079D01*
X3221190Y-19343079D02*
X3230714Y-19381174D01*
X3230714Y-19381174D02*
X3230714Y-19428793D01*
X3230714Y-19428793D02*
X3221190Y-19466889D01*
X3221190Y-19466889D02*
X3211667Y-19485936D01*
X3211667Y-19485936D02*
X3202143Y-19495460D01*
X3202143Y-19495460D02*
X3183095Y-19504984D01*
X3183095Y-19504984D02*
X3164048Y-19504984D01*
X3164048Y-19504984D02*
X3145000Y-19495460D01*
X3145000Y-19495460D02*
X3135476Y-19485936D01*
X3135476Y-19485936D02*
X3125952Y-19466889D01*
X3125952Y-19466889D02*
X3116429Y-19428793D01*
X3116429Y-19428793D02*
X3116429Y-19381174D01*
X3116429Y-19381174D02*
X3125952Y-19343079D01*
X3125952Y-19343079D02*
X3135476Y-19324031D01*
X3135476Y-19324031D02*
X3145000Y-19314508D01*
X3145000Y-19314508D02*
X3164048Y-19304984D01*
X3354524Y-19304984D02*
X3373571Y-19304984D01*
X3373571Y-19304984D02*
X3392619Y-19314508D01*
X3392619Y-19314508D02*
X3402143Y-19324031D01*
X3402143Y-19324031D02*
X3411667Y-19343079D01*
X3411667Y-19343079D02*
X3421190Y-19381174D01*
X3421190Y-19381174D02*
X3421190Y-19428793D01*
X3421190Y-19428793D02*
X3411667Y-19466889D01*
X3411667Y-19466889D02*
X3402143Y-19485936D01*
X3402143Y-19485936D02*
X3392619Y-19495460D01*
X3392619Y-19495460D02*
X3373571Y-19504984D01*
X3373571Y-19504984D02*
X3354524Y-19504984D01*
X3354524Y-19504984D02*
X3335476Y-19495460D01*
X3335476Y-19495460D02*
X3325952Y-19485936D01*
X3325952Y-19485936D02*
X3316429Y-19466889D01*
X3316429Y-19466889D02*
X3306905Y-19428793D01*
X3306905Y-19428793D02*
X3306905Y-19381174D01*
X3306905Y-19381174D02*
X3316429Y-19343079D01*
X3316429Y-19343079D02*
X3325952Y-19324031D01*
X3325952Y-19324031D02*
X3335476Y-19314508D01*
X3335476Y-19314508D02*
X3354524Y-19304984D01*
X3506905Y-19504984D02*
X3506905Y-19371650D01*
X3506905Y-19390698D02*
X3516429Y-19381174D01*
X3516429Y-19381174D02*
X3535476Y-19371650D01*
X3535476Y-19371650D02*
X3564048Y-19371650D01*
X3564048Y-19371650D02*
X3583095Y-19381174D01*
X3583095Y-19381174D02*
X3592619Y-19400222D01*
X3592619Y-19400222D02*
X3592619Y-19504984D01*
X3592619Y-19400222D02*
X3602143Y-19381174D01*
X3602143Y-19381174D02*
X3621190Y-19371650D01*
X3621190Y-19371650D02*
X3649762Y-19371650D01*
X3649762Y-19371650D02*
X3668810Y-19381174D01*
X3668810Y-19381174D02*
X3678333Y-19400222D01*
X3678333Y-19400222D02*
X3678333Y-19504984D01*
X3773571Y-19504984D02*
X3773571Y-19371650D01*
X3773571Y-19390698D02*
X3783095Y-19381174D01*
X3783095Y-19381174D02*
X3802143Y-19371650D01*
X3802143Y-19371650D02*
X3830714Y-19371650D01*
X3830714Y-19371650D02*
X3849762Y-19381174D01*
X3849762Y-19381174D02*
X3859286Y-19400222D01*
X3859286Y-19400222D02*
X3859286Y-19504984D01*
X3859286Y-19400222D02*
X3868810Y-19381174D01*
X3868810Y-19381174D02*
X3887857Y-19371650D01*
X3887857Y-19371650D02*
X3916429Y-19371650D01*
X3916429Y-19371650D02*
X3935476Y-19381174D01*
X3935476Y-19381174D02*
X3945000Y-19400222D01*
X3945000Y-19400222D02*
X3945000Y-19504984D01*
X4335476Y-19295460D02*
X4164048Y-19552603D01*
X4592619Y-19304984D02*
X4611667Y-19304984D01*
X4611667Y-19304984D02*
X4630715Y-19314508D01*
X4630715Y-19314508D02*
X4640238Y-19324031D01*
X4640238Y-19324031D02*
X4649762Y-19343079D01*
X4649762Y-19343079D02*
X4659286Y-19381174D01*
X4659286Y-19381174D02*
X4659286Y-19428793D01*
X4659286Y-19428793D02*
X4649762Y-19466889D01*
X4649762Y-19466889D02*
X4640238Y-19485936D01*
X4640238Y-19485936D02*
X4630715Y-19495460D01*
X4630715Y-19495460D02*
X4611667Y-19504984D01*
X4611667Y-19504984D02*
X4592619Y-19504984D01*
X4592619Y-19504984D02*
X4573572Y-19495460D01*
X4573572Y-19495460D02*
X4564048Y-19485936D01*
X4564048Y-19485936D02*
X4554524Y-19466889D01*
X4554524Y-19466889D02*
X4545000Y-19428793D01*
X4545000Y-19428793D02*
X4545000Y-19381174D01*
X4545000Y-19381174D02*
X4554524Y-19343079D01*
X4554524Y-19343079D02*
X4564048Y-19324031D01*
X4564048Y-19324031D02*
X4573572Y-19314508D01*
X4573572Y-19314508D02*
X4592619Y-19304984D01*
X4745000Y-19485936D02*
X4754524Y-19495460D01*
X4754524Y-19495460D02*
X4745000Y-19504984D01*
X4745000Y-19504984D02*
X4735476Y-19495460D01*
X4735476Y-19495460D02*
X4745000Y-19485936D01*
X4745000Y-19485936D02*
X4745000Y-19504984D01*
X4878334Y-19304984D02*
X4897381Y-19304984D01*
X4897381Y-19304984D02*
X4916429Y-19314508D01*
X4916429Y-19314508D02*
X4925953Y-19324031D01*
X4925953Y-19324031D02*
X4935476Y-19343079D01*
X4935476Y-19343079D02*
X4945000Y-19381174D01*
X4945000Y-19381174D02*
X4945000Y-19428793D01*
X4945000Y-19428793D02*
X4935476Y-19466889D01*
X4935476Y-19466889D02*
X4925953Y-19485936D01*
X4925953Y-19485936D02*
X4916429Y-19495460D01*
X4916429Y-19495460D02*
X4897381Y-19504984D01*
X4897381Y-19504984D02*
X4878334Y-19504984D01*
X4878334Y-19504984D02*
X4859286Y-19495460D01*
X4859286Y-19495460D02*
X4849762Y-19485936D01*
X4849762Y-19485936D02*
X4840238Y-19466889D01*
X4840238Y-19466889D02*
X4830715Y-19428793D01*
X4830715Y-19428793D02*
X4830715Y-19381174D01*
X4830715Y-19381174D02*
X4840238Y-19343079D01*
X4840238Y-19343079D02*
X4849762Y-19324031D01*
X4849762Y-19324031D02*
X4859286Y-19314508D01*
X4859286Y-19314508D02*
X4878334Y-19304984D01*
X5021191Y-19324031D02*
X5030715Y-19314508D01*
X5030715Y-19314508D02*
X5049762Y-19304984D01*
X5049762Y-19304984D02*
X5097381Y-19304984D01*
X5097381Y-19304984D02*
X5116429Y-19314508D01*
X5116429Y-19314508D02*
X5125953Y-19324031D01*
X5125953Y-19324031D02*
X5135476Y-19343079D01*
X5135476Y-19343079D02*
X5135476Y-19362127D01*
X5135476Y-19362127D02*
X5125953Y-19390698D01*
X5125953Y-19390698D02*
X5011667Y-19504984D01*
X5011667Y-19504984D02*
X5135476Y-19504984D01*
X5202143Y-19304984D02*
X5325953Y-19304984D01*
X5325953Y-19304984D02*
X5259286Y-19381174D01*
X5259286Y-19381174D02*
X5287857Y-19381174D01*
X5287857Y-19381174D02*
X5306905Y-19390698D01*
X5306905Y-19390698D02*
X5316429Y-19400222D01*
X5316429Y-19400222D02*
X5325953Y-19419270D01*
X5325953Y-19419270D02*
X5325953Y-19466889D01*
X5325953Y-19466889D02*
X5316429Y-19485936D01*
X5316429Y-19485936D02*
X5306905Y-19495460D01*
X5306905Y-19495460D02*
X5287857Y-19504984D01*
X5287857Y-19504984D02*
X5230715Y-19504984D01*
X5230715Y-19504984D02*
X5211667Y-19495460D01*
X5211667Y-19495460D02*
X5202143Y-19485936D01*
X5497381Y-19304984D02*
X5459286Y-19304984D01*
X5459286Y-19304984D02*
X5440238Y-19314508D01*
X5440238Y-19314508D02*
X5430715Y-19324031D01*
X5430715Y-19324031D02*
X5411667Y-19352603D01*
X5411667Y-19352603D02*
X5402143Y-19390698D01*
X5402143Y-19390698D02*
X5402143Y-19466889D01*
X5402143Y-19466889D02*
X5411667Y-19485936D01*
X5411667Y-19485936D02*
X5421191Y-19495460D01*
X5421191Y-19495460D02*
X5440238Y-19504984D01*
X5440238Y-19504984D02*
X5478334Y-19504984D01*
X5478334Y-19504984D02*
X5497381Y-19495460D01*
X5497381Y-19495460D02*
X5506905Y-19485936D01*
X5506905Y-19485936D02*
X5516429Y-19466889D01*
X5516429Y-19466889D02*
X5516429Y-19419270D01*
X5516429Y-19419270D02*
X5506905Y-19400222D01*
X5506905Y-19400222D02*
X5497381Y-19390698D01*
X5497381Y-19390698D02*
X5478334Y-19381174D01*
X5478334Y-19381174D02*
X5440238Y-19381174D01*
X5440238Y-19381174D02*
X5421191Y-19390698D01*
X5421191Y-19390698D02*
X5411667Y-19400222D01*
X5411667Y-19400222D02*
X5402143Y-19419270D01*
X5592619Y-19304984D02*
X5592619Y-19343079D01*
X5668810Y-19304984D02*
X5668810Y-19343079D01*
X5964048Y-19581174D02*
X5954524Y-19571650D01*
X5954524Y-19571650D02*
X5935476Y-19543079D01*
X5935476Y-19543079D02*
X5925953Y-19524031D01*
X5925953Y-19524031D02*
X5916429Y-19495460D01*
X5916429Y-19495460D02*
X5906905Y-19447841D01*
X5906905Y-19447841D02*
X5906905Y-19409746D01*
X5906905Y-19409746D02*
X5916429Y-19362127D01*
X5916429Y-19362127D02*
X5925953Y-19333555D01*
X5925953Y-19333555D02*
X5935476Y-19314508D01*
X5935476Y-19314508D02*
X5954524Y-19285936D01*
X5954524Y-19285936D02*
X5964048Y-19276412D01*
X6078334Y-19304984D02*
X6097381Y-19304984D01*
X6097381Y-19304984D02*
X6116429Y-19314508D01*
X6116429Y-19314508D02*
X6125953Y-19324031D01*
X6125953Y-19324031D02*
X6135476Y-19343079D01*
X6135476Y-19343079D02*
X6145000Y-19381174D01*
X6145000Y-19381174D02*
X6145000Y-19428793D01*
X6145000Y-19428793D02*
X6135476Y-19466889D01*
X6135476Y-19466889D02*
X6125953Y-19485936D01*
X6125953Y-19485936D02*
X6116429Y-19495460D01*
X6116429Y-19495460D02*
X6097381Y-19504984D01*
X6097381Y-19504984D02*
X6078334Y-19504984D01*
X6078334Y-19504984D02*
X6059286Y-19495460D01*
X6059286Y-19495460D02*
X6049762Y-19485936D01*
X6049762Y-19485936D02*
X6040238Y-19466889D01*
X6040238Y-19466889D02*
X6030715Y-19428793D01*
X6030715Y-19428793D02*
X6030715Y-19381174D01*
X6030715Y-19381174D02*
X6040238Y-19343079D01*
X6040238Y-19343079D02*
X6049762Y-19324031D01*
X6049762Y-19324031D02*
X6059286Y-19314508D01*
X6059286Y-19314508D02*
X6078334Y-19304984D01*
X6383096Y-19504984D02*
X6383096Y-19304984D01*
X6468810Y-19504984D02*
X6468810Y-19400222D01*
X6468810Y-19400222D02*
X6459286Y-19381174D01*
X6459286Y-19381174D02*
X6440238Y-19371650D01*
X6440238Y-19371650D02*
X6411667Y-19371650D01*
X6411667Y-19371650D02*
X6392619Y-19381174D01*
X6392619Y-19381174D02*
X6383096Y-19390698D01*
X6592619Y-19504984D02*
X6573572Y-19495460D01*
X6573572Y-19495460D02*
X6564048Y-19485936D01*
X6564048Y-19485936D02*
X6554524Y-19466889D01*
X6554524Y-19466889D02*
X6554524Y-19409746D01*
X6554524Y-19409746D02*
X6564048Y-19390698D01*
X6564048Y-19390698D02*
X6573572Y-19381174D01*
X6573572Y-19381174D02*
X6592619Y-19371650D01*
X6592619Y-19371650D02*
X6621191Y-19371650D01*
X6621191Y-19371650D02*
X6640238Y-19381174D01*
X6640238Y-19381174D02*
X6649762Y-19390698D01*
X6649762Y-19390698D02*
X6659286Y-19409746D01*
X6659286Y-19409746D02*
X6659286Y-19466889D01*
X6659286Y-19466889D02*
X6649762Y-19485936D01*
X6649762Y-19485936D02*
X6640238Y-19495460D01*
X6640238Y-19495460D02*
X6621191Y-19504984D01*
X6621191Y-19504984D02*
X6592619Y-19504984D01*
X6773572Y-19504984D02*
X6754524Y-19495460D01*
X6754524Y-19495460D02*
X6745000Y-19476412D01*
X6745000Y-19476412D02*
X6745000Y-19304984D01*
X6925953Y-19495460D02*
X6906905Y-19504984D01*
X6906905Y-19504984D02*
X6868810Y-19504984D01*
X6868810Y-19504984D02*
X6849762Y-19495460D01*
X6849762Y-19495460D02*
X6840238Y-19476412D01*
X6840238Y-19476412D02*
X6840238Y-19400222D01*
X6840238Y-19400222D02*
X6849762Y-19381174D01*
X6849762Y-19381174D02*
X6868810Y-19371650D01*
X6868810Y-19371650D02*
X6906905Y-19371650D01*
X6906905Y-19371650D02*
X6925953Y-19381174D01*
X6925953Y-19381174D02*
X6935477Y-19400222D01*
X6935477Y-19400222D02*
X6935477Y-19419270D01*
X6935477Y-19419270D02*
X6840238Y-19438317D01*
X7011667Y-19495460D02*
X7030715Y-19504984D01*
X7030715Y-19504984D02*
X7068810Y-19504984D01*
X7068810Y-19504984D02*
X7087858Y-19495460D01*
X7087858Y-19495460D02*
X7097381Y-19476412D01*
X7097381Y-19476412D02*
X7097381Y-19466889D01*
X7097381Y-19466889D02*
X7087858Y-19447841D01*
X7087858Y-19447841D02*
X7068810Y-19438317D01*
X7068810Y-19438317D02*
X7040238Y-19438317D01*
X7040238Y-19438317D02*
X7021191Y-19428793D01*
X7021191Y-19428793D02*
X7011667Y-19409746D01*
X7011667Y-19409746D02*
X7011667Y-19400222D01*
X7011667Y-19400222D02*
X7021191Y-19381174D01*
X7021191Y-19381174D02*
X7040238Y-19371650D01*
X7040238Y-19371650D02*
X7068810Y-19371650D01*
X7068810Y-19371650D02*
X7087858Y-19381174D01*
X7335477Y-19428793D02*
X7487858Y-19428793D01*
X7411667Y-19504984D02*
X7411667Y-19352603D01*
X7764048Y-19390698D02*
X7745000Y-19381174D01*
X7745000Y-19381174D02*
X7735477Y-19371650D01*
X7735477Y-19371650D02*
X7725953Y-19352603D01*
X7725953Y-19352603D02*
X7725953Y-19343079D01*
X7725953Y-19343079D02*
X7735477Y-19324031D01*
X7735477Y-19324031D02*
X7745000Y-19314508D01*
X7745000Y-19314508D02*
X7764048Y-19304984D01*
X7764048Y-19304984D02*
X7802143Y-19304984D01*
X7802143Y-19304984D02*
X7821191Y-19314508D01*
X7821191Y-19314508D02*
X7830715Y-19324031D01*
X7830715Y-19324031D02*
X7840239Y-19343079D01*
X7840239Y-19343079D02*
X7840239Y-19352603D01*
X7840239Y-19352603D02*
X7830715Y-19371650D01*
X7830715Y-19371650D02*
X7821191Y-19381174D01*
X7821191Y-19381174D02*
X7802143Y-19390698D01*
X7802143Y-19390698D02*
X7764048Y-19390698D01*
X7764048Y-19390698D02*
X7745000Y-19400222D01*
X7745000Y-19400222D02*
X7735477Y-19409746D01*
X7735477Y-19409746D02*
X7725953Y-19428793D01*
X7725953Y-19428793D02*
X7725953Y-19466889D01*
X7725953Y-19466889D02*
X7735477Y-19485936D01*
X7735477Y-19485936D02*
X7745000Y-19495460D01*
X7745000Y-19495460D02*
X7764048Y-19504984D01*
X7764048Y-19504984D02*
X7802143Y-19504984D01*
X7802143Y-19504984D02*
X7821191Y-19495460D01*
X7821191Y-19495460D02*
X7830715Y-19485936D01*
X7830715Y-19485936D02*
X7840239Y-19466889D01*
X7840239Y-19466889D02*
X7840239Y-19428793D01*
X7840239Y-19428793D02*
X7830715Y-19409746D01*
X7830715Y-19409746D02*
X7821191Y-19400222D01*
X7821191Y-19400222D02*
X7802143Y-19390698D01*
X8068810Y-19495460D02*
X8087858Y-19504984D01*
X8087858Y-19504984D02*
X8125953Y-19504984D01*
X8125953Y-19504984D02*
X8145001Y-19495460D01*
X8145001Y-19495460D02*
X8154524Y-19476412D01*
X8154524Y-19476412D02*
X8154524Y-19466889D01*
X8154524Y-19466889D02*
X8145001Y-19447841D01*
X8145001Y-19447841D02*
X8125953Y-19438317D01*
X8125953Y-19438317D02*
X8097381Y-19438317D01*
X8097381Y-19438317D02*
X8078334Y-19428793D01*
X8078334Y-19428793D02*
X8068810Y-19409746D01*
X8068810Y-19409746D02*
X8068810Y-19400222D01*
X8068810Y-19400222D02*
X8078334Y-19381174D01*
X8078334Y-19381174D02*
X8097381Y-19371650D01*
X8097381Y-19371650D02*
X8125953Y-19371650D01*
X8125953Y-19371650D02*
X8145001Y-19381174D01*
X8268810Y-19504984D02*
X8249762Y-19495460D01*
X8249762Y-19495460D02*
X8240239Y-19476412D01*
X8240239Y-19476412D02*
X8240239Y-19304984D01*
X8373572Y-19504984D02*
X8354524Y-19495460D01*
X8354524Y-19495460D02*
X8345001Y-19485936D01*
X8345001Y-19485936D02*
X8335477Y-19466889D01*
X8335477Y-19466889D02*
X8335477Y-19409746D01*
X8335477Y-19409746D02*
X8345001Y-19390698D01*
X8345001Y-19390698D02*
X8354524Y-19381174D01*
X8354524Y-19381174D02*
X8373572Y-19371650D01*
X8373572Y-19371650D02*
X8402144Y-19371650D01*
X8402144Y-19371650D02*
X8421191Y-19381174D01*
X8421191Y-19381174D02*
X8430715Y-19390698D01*
X8430715Y-19390698D02*
X8440239Y-19409746D01*
X8440239Y-19409746D02*
X8440239Y-19466889D01*
X8440239Y-19466889D02*
X8430715Y-19485936D01*
X8430715Y-19485936D02*
X8421191Y-19495460D01*
X8421191Y-19495460D02*
X8402144Y-19504984D01*
X8402144Y-19504984D02*
X8373572Y-19504984D01*
X8497382Y-19371650D02*
X8573572Y-19371650D01*
X8525953Y-19304984D02*
X8525953Y-19476412D01*
X8525953Y-19476412D02*
X8535477Y-19495460D01*
X8535477Y-19495460D02*
X8554524Y-19504984D01*
X8554524Y-19504984D02*
X8573572Y-19504984D01*
X8630715Y-19495460D02*
X8649763Y-19504984D01*
X8649763Y-19504984D02*
X8687858Y-19504984D01*
X8687858Y-19504984D02*
X8706905Y-19495460D01*
X8706905Y-19495460D02*
X8716429Y-19476412D01*
X8716429Y-19476412D02*
X8716429Y-19466889D01*
X8716429Y-19466889D02*
X8706905Y-19447841D01*
X8706905Y-19447841D02*
X8687858Y-19438317D01*
X8687858Y-19438317D02*
X8659286Y-19438317D01*
X8659286Y-19438317D02*
X8640239Y-19428793D01*
X8640239Y-19428793D02*
X8630715Y-19409746D01*
X8630715Y-19409746D02*
X8630715Y-19400222D01*
X8630715Y-19400222D02*
X8640239Y-19381174D01*
X8640239Y-19381174D02*
X8659286Y-19371650D01*
X8659286Y-19371650D02*
X8687858Y-19371650D01*
X8687858Y-19371650D02*
X8706905Y-19381174D01*
X8783096Y-19581174D02*
X8792620Y-19571650D01*
X8792620Y-19571650D02*
X8811667Y-19543079D01*
X8811667Y-19543079D02*
X8821191Y-19524031D01*
X8821191Y-19524031D02*
X8830715Y-19495460D01*
X8830715Y-19495460D02*
X8840239Y-19447841D01*
X8840239Y-19447841D02*
X8840239Y-19409746D01*
X8840239Y-19409746D02*
X8830715Y-19362127D01*
X8830715Y-19362127D02*
X8821191Y-19333555D01*
X8821191Y-19333555D02*
X8811667Y-19314508D01*
X8811667Y-19314508D02*
X8792620Y-19285936D01*
X8792620Y-19285936D02*
X8783096Y-19276412D01*
D12*
X2377270Y-19705785D02*
X2377270Y-19649216D01*
X2320701Y-19649216D01*
X2320701Y-19705785D01*
X2377270Y-19705785D01*
D11*
X2687857Y-19568984D02*
X2706905Y-19568984D01*
X2706905Y-19568984D02*
X2725952Y-19578508D01*
X2725952Y-19578508D02*
X2735476Y-19588031D01*
X2735476Y-19588031D02*
X2745000Y-19607079D01*
X2745000Y-19607079D02*
X2754524Y-19645174D01*
X2754524Y-19645174D02*
X2754524Y-19692793D01*
X2754524Y-19692793D02*
X2745000Y-19730889D01*
X2745000Y-19730889D02*
X2735476Y-19749936D01*
X2735476Y-19749936D02*
X2725952Y-19759460D01*
X2725952Y-19759460D02*
X2706905Y-19768984D01*
X2706905Y-19768984D02*
X2687857Y-19768984D01*
X2687857Y-19768984D02*
X2668810Y-19759460D01*
X2668810Y-19759460D02*
X2659286Y-19749936D01*
X2659286Y-19749936D02*
X2649762Y-19730889D01*
X2649762Y-19730889D02*
X2640238Y-19692793D01*
X2640238Y-19692793D02*
X2640238Y-19645174D01*
X2640238Y-19645174D02*
X2649762Y-19607079D01*
X2649762Y-19607079D02*
X2659286Y-19588031D01*
X2659286Y-19588031D02*
X2668810Y-19578508D01*
X2668810Y-19578508D02*
X2687857Y-19568984D01*
X2840238Y-19749936D02*
X2849762Y-19759460D01*
X2849762Y-19759460D02*
X2840238Y-19768984D01*
X2840238Y-19768984D02*
X2830714Y-19759460D01*
X2830714Y-19759460D02*
X2840238Y-19749936D01*
X2840238Y-19749936D02*
X2840238Y-19768984D01*
X2964048Y-19654698D02*
X2945000Y-19645174D01*
X2945000Y-19645174D02*
X2935476Y-19635650D01*
X2935476Y-19635650D02*
X2925952Y-19616603D01*
X2925952Y-19616603D02*
X2925952Y-19607079D01*
X2925952Y-19607079D02*
X2935476Y-19588031D01*
X2935476Y-19588031D02*
X2945000Y-19578508D01*
X2945000Y-19578508D02*
X2964048Y-19568984D01*
X2964048Y-19568984D02*
X3002143Y-19568984D01*
X3002143Y-19568984D02*
X3021190Y-19578508D01*
X3021190Y-19578508D02*
X3030714Y-19588031D01*
X3030714Y-19588031D02*
X3040238Y-19607079D01*
X3040238Y-19607079D02*
X3040238Y-19616603D01*
X3040238Y-19616603D02*
X3030714Y-19635650D01*
X3030714Y-19635650D02*
X3021190Y-19645174D01*
X3021190Y-19645174D02*
X3002143Y-19654698D01*
X3002143Y-19654698D02*
X2964048Y-19654698D01*
X2964048Y-19654698D02*
X2945000Y-19664222D01*
X2945000Y-19664222D02*
X2935476Y-19673746D01*
X2935476Y-19673746D02*
X2925952Y-19692793D01*
X2925952Y-19692793D02*
X2925952Y-19730889D01*
X2925952Y-19730889D02*
X2935476Y-19749936D01*
X2935476Y-19749936D02*
X2945000Y-19759460D01*
X2945000Y-19759460D02*
X2964048Y-19768984D01*
X2964048Y-19768984D02*
X3002143Y-19768984D01*
X3002143Y-19768984D02*
X3021190Y-19759460D01*
X3021190Y-19759460D02*
X3030714Y-19749936D01*
X3030714Y-19749936D02*
X3040238Y-19730889D01*
X3040238Y-19730889D02*
X3040238Y-19692793D01*
X3040238Y-19692793D02*
X3030714Y-19673746D01*
X3030714Y-19673746D02*
X3021190Y-19664222D01*
X3021190Y-19664222D02*
X3002143Y-19654698D01*
X3164048Y-19568984D02*
X3183095Y-19568984D01*
X3183095Y-19568984D02*
X3202143Y-19578508D01*
X3202143Y-19578508D02*
X3211667Y-19588031D01*
X3211667Y-19588031D02*
X3221190Y-19607079D01*
X3221190Y-19607079D02*
X3230714Y-19645174D01*
X3230714Y-19645174D02*
X3230714Y-19692793D01*
X3230714Y-19692793D02*
X3221190Y-19730889D01*
X3221190Y-19730889D02*
X3211667Y-19749936D01*
X3211667Y-19749936D02*
X3202143Y-19759460D01*
X3202143Y-19759460D02*
X3183095Y-19768984D01*
X3183095Y-19768984D02*
X3164048Y-19768984D01*
X3164048Y-19768984D02*
X3145000Y-19759460D01*
X3145000Y-19759460D02*
X3135476Y-19749936D01*
X3135476Y-19749936D02*
X3125952Y-19730889D01*
X3125952Y-19730889D02*
X3116429Y-19692793D01*
X3116429Y-19692793D02*
X3116429Y-19645174D01*
X3116429Y-19645174D02*
X3125952Y-19607079D01*
X3125952Y-19607079D02*
X3135476Y-19588031D01*
X3135476Y-19588031D02*
X3145000Y-19578508D01*
X3145000Y-19578508D02*
X3164048Y-19568984D01*
X3354524Y-19568984D02*
X3373571Y-19568984D01*
X3373571Y-19568984D02*
X3392619Y-19578508D01*
X3392619Y-19578508D02*
X3402143Y-19588031D01*
X3402143Y-19588031D02*
X3411667Y-19607079D01*
X3411667Y-19607079D02*
X3421190Y-19645174D01*
X3421190Y-19645174D02*
X3421190Y-19692793D01*
X3421190Y-19692793D02*
X3411667Y-19730889D01*
X3411667Y-19730889D02*
X3402143Y-19749936D01*
X3402143Y-19749936D02*
X3392619Y-19759460D01*
X3392619Y-19759460D02*
X3373571Y-19768984D01*
X3373571Y-19768984D02*
X3354524Y-19768984D01*
X3354524Y-19768984D02*
X3335476Y-19759460D01*
X3335476Y-19759460D02*
X3325952Y-19749936D01*
X3325952Y-19749936D02*
X3316429Y-19730889D01*
X3316429Y-19730889D02*
X3306905Y-19692793D01*
X3306905Y-19692793D02*
X3306905Y-19645174D01*
X3306905Y-19645174D02*
X3316429Y-19607079D01*
X3316429Y-19607079D02*
X3325952Y-19588031D01*
X3325952Y-19588031D02*
X3335476Y-19578508D01*
X3335476Y-19578508D02*
X3354524Y-19568984D01*
X3506905Y-19768984D02*
X3506905Y-19635650D01*
X3506905Y-19654698D02*
X3516429Y-19645174D01*
X3516429Y-19645174D02*
X3535476Y-19635650D01*
X3535476Y-19635650D02*
X3564048Y-19635650D01*
X3564048Y-19635650D02*
X3583095Y-19645174D01*
X3583095Y-19645174D02*
X3592619Y-19664222D01*
X3592619Y-19664222D02*
X3592619Y-19768984D01*
X3592619Y-19664222D02*
X3602143Y-19645174D01*
X3602143Y-19645174D02*
X3621190Y-19635650D01*
X3621190Y-19635650D02*
X3649762Y-19635650D01*
X3649762Y-19635650D02*
X3668810Y-19645174D01*
X3668810Y-19645174D02*
X3678333Y-19664222D01*
X3678333Y-19664222D02*
X3678333Y-19768984D01*
X3773571Y-19768984D02*
X3773571Y-19635650D01*
X3773571Y-19654698D02*
X3783095Y-19645174D01*
X3783095Y-19645174D02*
X3802143Y-19635650D01*
X3802143Y-19635650D02*
X3830714Y-19635650D01*
X3830714Y-19635650D02*
X3849762Y-19645174D01*
X3849762Y-19645174D02*
X3859286Y-19664222D01*
X3859286Y-19664222D02*
X3859286Y-19768984D01*
X3859286Y-19664222D02*
X3868810Y-19645174D01*
X3868810Y-19645174D02*
X3887857Y-19635650D01*
X3887857Y-19635650D02*
X3916429Y-19635650D01*
X3916429Y-19635650D02*
X3935476Y-19645174D01*
X3935476Y-19645174D02*
X3945000Y-19664222D01*
X3945000Y-19664222D02*
X3945000Y-19768984D01*
X4335476Y-19559460D02*
X4164048Y-19816603D01*
X4592619Y-19568984D02*
X4611667Y-19568984D01*
X4611667Y-19568984D02*
X4630715Y-19578508D01*
X4630715Y-19578508D02*
X4640238Y-19588031D01*
X4640238Y-19588031D02*
X4649762Y-19607079D01*
X4649762Y-19607079D02*
X4659286Y-19645174D01*
X4659286Y-19645174D02*
X4659286Y-19692793D01*
X4659286Y-19692793D02*
X4649762Y-19730889D01*
X4649762Y-19730889D02*
X4640238Y-19749936D01*
X4640238Y-19749936D02*
X4630715Y-19759460D01*
X4630715Y-19759460D02*
X4611667Y-19768984D01*
X4611667Y-19768984D02*
X4592619Y-19768984D01*
X4592619Y-19768984D02*
X4573572Y-19759460D01*
X4573572Y-19759460D02*
X4564048Y-19749936D01*
X4564048Y-19749936D02*
X4554524Y-19730889D01*
X4554524Y-19730889D02*
X4545000Y-19692793D01*
X4545000Y-19692793D02*
X4545000Y-19645174D01*
X4545000Y-19645174D02*
X4554524Y-19607079D01*
X4554524Y-19607079D02*
X4564048Y-19588031D01*
X4564048Y-19588031D02*
X4573572Y-19578508D01*
X4573572Y-19578508D02*
X4592619Y-19568984D01*
X4745000Y-19749936D02*
X4754524Y-19759460D01*
X4754524Y-19759460D02*
X4745000Y-19768984D01*
X4745000Y-19768984D02*
X4735476Y-19759460D01*
X4735476Y-19759460D02*
X4745000Y-19749936D01*
X4745000Y-19749936D02*
X4745000Y-19768984D01*
X4878334Y-19568984D02*
X4897381Y-19568984D01*
X4897381Y-19568984D02*
X4916429Y-19578508D01*
X4916429Y-19578508D02*
X4925953Y-19588031D01*
X4925953Y-19588031D02*
X4935476Y-19607079D01*
X4935476Y-19607079D02*
X4945000Y-19645174D01*
X4945000Y-19645174D02*
X4945000Y-19692793D01*
X4945000Y-19692793D02*
X4935476Y-19730889D01*
X4935476Y-19730889D02*
X4925953Y-19749936D01*
X4925953Y-19749936D02*
X4916429Y-19759460D01*
X4916429Y-19759460D02*
X4897381Y-19768984D01*
X4897381Y-19768984D02*
X4878334Y-19768984D01*
X4878334Y-19768984D02*
X4859286Y-19759460D01*
X4859286Y-19759460D02*
X4849762Y-19749936D01*
X4849762Y-19749936D02*
X4840238Y-19730889D01*
X4840238Y-19730889D02*
X4830715Y-19692793D01*
X4830715Y-19692793D02*
X4830715Y-19645174D01*
X4830715Y-19645174D02*
X4840238Y-19607079D01*
X4840238Y-19607079D02*
X4849762Y-19588031D01*
X4849762Y-19588031D02*
X4859286Y-19578508D01*
X4859286Y-19578508D02*
X4878334Y-19568984D01*
X5011667Y-19568984D02*
X5135476Y-19568984D01*
X5135476Y-19568984D02*
X5068810Y-19645174D01*
X5068810Y-19645174D02*
X5097381Y-19645174D01*
X5097381Y-19645174D02*
X5116429Y-19654698D01*
X5116429Y-19654698D02*
X5125953Y-19664222D01*
X5125953Y-19664222D02*
X5135476Y-19683270D01*
X5135476Y-19683270D02*
X5135476Y-19730889D01*
X5135476Y-19730889D02*
X5125953Y-19749936D01*
X5125953Y-19749936D02*
X5116429Y-19759460D01*
X5116429Y-19759460D02*
X5097381Y-19768984D01*
X5097381Y-19768984D02*
X5040238Y-19768984D01*
X5040238Y-19768984D02*
X5021191Y-19759460D01*
X5021191Y-19759460D02*
X5011667Y-19749936D01*
X5325953Y-19768984D02*
X5211667Y-19768984D01*
X5268810Y-19768984D02*
X5268810Y-19568984D01*
X5268810Y-19568984D02*
X5249762Y-19597555D01*
X5249762Y-19597555D02*
X5230715Y-19616603D01*
X5230715Y-19616603D02*
X5211667Y-19626127D01*
X5506905Y-19568984D02*
X5411667Y-19568984D01*
X5411667Y-19568984D02*
X5402143Y-19664222D01*
X5402143Y-19664222D02*
X5411667Y-19654698D01*
X5411667Y-19654698D02*
X5430715Y-19645174D01*
X5430715Y-19645174D02*
X5478334Y-19645174D01*
X5478334Y-19645174D02*
X5497381Y-19654698D01*
X5497381Y-19654698D02*
X5506905Y-19664222D01*
X5506905Y-19664222D02*
X5516429Y-19683270D01*
X5516429Y-19683270D02*
X5516429Y-19730889D01*
X5516429Y-19730889D02*
X5506905Y-19749936D01*
X5506905Y-19749936D02*
X5497381Y-19759460D01*
X5497381Y-19759460D02*
X5478334Y-19768984D01*
X5478334Y-19768984D02*
X5430715Y-19768984D01*
X5430715Y-19768984D02*
X5411667Y-19759460D01*
X5411667Y-19759460D02*
X5402143Y-19749936D01*
X5592619Y-19568984D02*
X5592619Y-19607079D01*
X5668810Y-19568984D02*
X5668810Y-19607079D01*
X5964048Y-19845174D02*
X5954524Y-19835650D01*
X5954524Y-19835650D02*
X5935476Y-19807079D01*
X5935476Y-19807079D02*
X5925953Y-19788031D01*
X5925953Y-19788031D02*
X5916429Y-19759460D01*
X5916429Y-19759460D02*
X5906905Y-19711841D01*
X5906905Y-19711841D02*
X5906905Y-19673746D01*
X5906905Y-19673746D02*
X5916429Y-19626127D01*
X5916429Y-19626127D02*
X5925953Y-19597555D01*
X5925953Y-19597555D02*
X5935476Y-19578508D01*
X5935476Y-19578508D02*
X5954524Y-19549936D01*
X5954524Y-19549936D02*
X5964048Y-19540412D01*
X6068810Y-19654698D02*
X6049762Y-19645174D01*
X6049762Y-19645174D02*
X6040238Y-19635650D01*
X6040238Y-19635650D02*
X6030715Y-19616603D01*
X6030715Y-19616603D02*
X6030715Y-19607079D01*
X6030715Y-19607079D02*
X6040238Y-19588031D01*
X6040238Y-19588031D02*
X6049762Y-19578508D01*
X6049762Y-19578508D02*
X6068810Y-19568984D01*
X6068810Y-19568984D02*
X6106905Y-19568984D01*
X6106905Y-19568984D02*
X6125953Y-19578508D01*
X6125953Y-19578508D02*
X6135476Y-19588031D01*
X6135476Y-19588031D02*
X6145000Y-19607079D01*
X6145000Y-19607079D02*
X6145000Y-19616603D01*
X6145000Y-19616603D02*
X6135476Y-19635650D01*
X6135476Y-19635650D02*
X6125953Y-19645174D01*
X6125953Y-19645174D02*
X6106905Y-19654698D01*
X6106905Y-19654698D02*
X6068810Y-19654698D01*
X6068810Y-19654698D02*
X6049762Y-19664222D01*
X6049762Y-19664222D02*
X6040238Y-19673746D01*
X6040238Y-19673746D02*
X6030715Y-19692793D01*
X6030715Y-19692793D02*
X6030715Y-19730889D01*
X6030715Y-19730889D02*
X6040238Y-19749936D01*
X6040238Y-19749936D02*
X6049762Y-19759460D01*
X6049762Y-19759460D02*
X6068810Y-19768984D01*
X6068810Y-19768984D02*
X6106905Y-19768984D01*
X6106905Y-19768984D02*
X6125953Y-19759460D01*
X6125953Y-19759460D02*
X6135476Y-19749936D01*
X6135476Y-19749936D02*
X6145000Y-19730889D01*
X6145000Y-19730889D02*
X6145000Y-19692793D01*
X6145000Y-19692793D02*
X6135476Y-19673746D01*
X6135476Y-19673746D02*
X6125953Y-19664222D01*
X6125953Y-19664222D02*
X6106905Y-19654698D01*
X6383096Y-19768984D02*
X6383096Y-19568984D01*
X6468810Y-19768984D02*
X6468810Y-19664222D01*
X6468810Y-19664222D02*
X6459286Y-19645174D01*
X6459286Y-19645174D02*
X6440238Y-19635650D01*
X6440238Y-19635650D02*
X6411667Y-19635650D01*
X6411667Y-19635650D02*
X6392619Y-19645174D01*
X6392619Y-19645174D02*
X6383096Y-19654698D01*
X6592619Y-19768984D02*
X6573572Y-19759460D01*
X6573572Y-19759460D02*
X6564048Y-19749936D01*
X6564048Y-19749936D02*
X6554524Y-19730889D01*
X6554524Y-19730889D02*
X6554524Y-19673746D01*
X6554524Y-19673746D02*
X6564048Y-19654698D01*
X6564048Y-19654698D02*
X6573572Y-19645174D01*
X6573572Y-19645174D02*
X6592619Y-19635650D01*
X6592619Y-19635650D02*
X6621191Y-19635650D01*
X6621191Y-19635650D02*
X6640238Y-19645174D01*
X6640238Y-19645174D02*
X6649762Y-19654698D01*
X6649762Y-19654698D02*
X6659286Y-19673746D01*
X6659286Y-19673746D02*
X6659286Y-19730889D01*
X6659286Y-19730889D02*
X6649762Y-19749936D01*
X6649762Y-19749936D02*
X6640238Y-19759460D01*
X6640238Y-19759460D02*
X6621191Y-19768984D01*
X6621191Y-19768984D02*
X6592619Y-19768984D01*
X6773572Y-19768984D02*
X6754524Y-19759460D01*
X6754524Y-19759460D02*
X6745000Y-19740412D01*
X6745000Y-19740412D02*
X6745000Y-19568984D01*
X6925953Y-19759460D02*
X6906905Y-19768984D01*
X6906905Y-19768984D02*
X6868810Y-19768984D01*
X6868810Y-19768984D02*
X6849762Y-19759460D01*
X6849762Y-19759460D02*
X6840238Y-19740412D01*
X6840238Y-19740412D02*
X6840238Y-19664222D01*
X6840238Y-19664222D02*
X6849762Y-19645174D01*
X6849762Y-19645174D02*
X6868810Y-19635650D01*
X6868810Y-19635650D02*
X6906905Y-19635650D01*
X6906905Y-19635650D02*
X6925953Y-19645174D01*
X6925953Y-19645174D02*
X6935477Y-19664222D01*
X6935477Y-19664222D02*
X6935477Y-19683270D01*
X6935477Y-19683270D02*
X6840238Y-19702317D01*
X7011667Y-19759460D02*
X7030715Y-19768984D01*
X7030715Y-19768984D02*
X7068810Y-19768984D01*
X7068810Y-19768984D02*
X7087858Y-19759460D01*
X7087858Y-19759460D02*
X7097381Y-19740412D01*
X7097381Y-19740412D02*
X7097381Y-19730889D01*
X7097381Y-19730889D02*
X7087858Y-19711841D01*
X7087858Y-19711841D02*
X7068810Y-19702317D01*
X7068810Y-19702317D02*
X7040238Y-19702317D01*
X7040238Y-19702317D02*
X7021191Y-19692793D01*
X7021191Y-19692793D02*
X7011667Y-19673746D01*
X7011667Y-19673746D02*
X7011667Y-19664222D01*
X7011667Y-19664222D02*
X7021191Y-19645174D01*
X7021191Y-19645174D02*
X7040238Y-19635650D01*
X7040238Y-19635650D02*
X7068810Y-19635650D01*
X7068810Y-19635650D02*
X7087858Y-19645174D01*
X7164048Y-19845174D02*
X7173572Y-19835650D01*
X7173572Y-19835650D02*
X7192619Y-19807079D01*
X7192619Y-19807079D02*
X7202143Y-19788031D01*
X7202143Y-19788031D02*
X7211667Y-19759460D01*
X7211667Y-19759460D02*
X7221191Y-19711841D01*
X7221191Y-19711841D02*
X7221191Y-19673746D01*
X7221191Y-19673746D02*
X7211667Y-19626127D01*
X7211667Y-19626127D02*
X7202143Y-19597555D01*
X7202143Y-19597555D02*
X7192619Y-19578508D01*
X7192619Y-19578508D02*
X7173572Y-19549936D01*
X7173572Y-19549936D02*
X7164048Y-19540412D01*
D12*
X2338985Y-19991500D02*
X2388985Y-19941500D01*
X2338985Y-19891500D01*
X2288985Y-19941500D01*
X2338985Y-19991500D01*
D11*
X2754524Y-20032984D02*
X2640238Y-20032984D01*
X2697381Y-20032984D02*
X2697381Y-19832984D01*
X2697381Y-19832984D02*
X2678333Y-19861555D01*
X2678333Y-19861555D02*
X2659286Y-19880603D01*
X2659286Y-19880603D02*
X2640238Y-19890127D01*
X2840238Y-20013936D02*
X2849762Y-20023460D01*
X2849762Y-20023460D02*
X2840238Y-20032984D01*
X2840238Y-20032984D02*
X2830714Y-20023460D01*
X2830714Y-20023460D02*
X2840238Y-20013936D01*
X2840238Y-20013936D02*
X2840238Y-20032984D01*
X2973571Y-19832984D02*
X2992619Y-19832984D01*
X2992619Y-19832984D02*
X3011667Y-19842508D01*
X3011667Y-19842508D02*
X3021190Y-19852031D01*
X3021190Y-19852031D02*
X3030714Y-19871079D01*
X3030714Y-19871079D02*
X3040238Y-19909174D01*
X3040238Y-19909174D02*
X3040238Y-19956793D01*
X3040238Y-19956793D02*
X3030714Y-19994889D01*
X3030714Y-19994889D02*
X3021190Y-20013936D01*
X3021190Y-20013936D02*
X3011667Y-20023460D01*
X3011667Y-20023460D02*
X2992619Y-20032984D01*
X2992619Y-20032984D02*
X2973571Y-20032984D01*
X2973571Y-20032984D02*
X2954524Y-20023460D01*
X2954524Y-20023460D02*
X2945000Y-20013936D01*
X2945000Y-20013936D02*
X2935476Y-19994889D01*
X2935476Y-19994889D02*
X2925952Y-19956793D01*
X2925952Y-19956793D02*
X2925952Y-19909174D01*
X2925952Y-19909174D02*
X2935476Y-19871079D01*
X2935476Y-19871079D02*
X2945000Y-19852031D01*
X2945000Y-19852031D02*
X2954524Y-19842508D01*
X2954524Y-19842508D02*
X2973571Y-19832984D01*
X3164048Y-19832984D02*
X3183095Y-19832984D01*
X3183095Y-19832984D02*
X3202143Y-19842508D01*
X3202143Y-19842508D02*
X3211667Y-19852031D01*
X3211667Y-19852031D02*
X3221190Y-19871079D01*
X3221190Y-19871079D02*
X3230714Y-19909174D01*
X3230714Y-19909174D02*
X3230714Y-19956793D01*
X3230714Y-19956793D02*
X3221190Y-19994889D01*
X3221190Y-19994889D02*
X3211667Y-20013936D01*
X3211667Y-20013936D02*
X3202143Y-20023460D01*
X3202143Y-20023460D02*
X3183095Y-20032984D01*
X3183095Y-20032984D02*
X3164048Y-20032984D01*
X3164048Y-20032984D02*
X3145000Y-20023460D01*
X3145000Y-20023460D02*
X3135476Y-20013936D01*
X3135476Y-20013936D02*
X3125952Y-19994889D01*
X3125952Y-19994889D02*
X3116429Y-19956793D01*
X3116429Y-19956793D02*
X3116429Y-19909174D01*
X3116429Y-19909174D02*
X3125952Y-19871079D01*
X3125952Y-19871079D02*
X3135476Y-19852031D01*
X3135476Y-19852031D02*
X3145000Y-19842508D01*
X3145000Y-19842508D02*
X3164048Y-19832984D01*
X3354524Y-19832984D02*
X3373571Y-19832984D01*
X3373571Y-19832984D02*
X3392619Y-19842508D01*
X3392619Y-19842508D02*
X3402143Y-19852031D01*
X3402143Y-19852031D02*
X3411667Y-19871079D01*
X3411667Y-19871079D02*
X3421190Y-19909174D01*
X3421190Y-19909174D02*
X3421190Y-19956793D01*
X3421190Y-19956793D02*
X3411667Y-19994889D01*
X3411667Y-19994889D02*
X3402143Y-20013936D01*
X3402143Y-20013936D02*
X3392619Y-20023460D01*
X3392619Y-20023460D02*
X3373571Y-20032984D01*
X3373571Y-20032984D02*
X3354524Y-20032984D01*
X3354524Y-20032984D02*
X3335476Y-20023460D01*
X3335476Y-20023460D02*
X3325952Y-20013936D01*
X3325952Y-20013936D02*
X3316429Y-19994889D01*
X3316429Y-19994889D02*
X3306905Y-19956793D01*
X3306905Y-19956793D02*
X3306905Y-19909174D01*
X3306905Y-19909174D02*
X3316429Y-19871079D01*
X3316429Y-19871079D02*
X3325952Y-19852031D01*
X3325952Y-19852031D02*
X3335476Y-19842508D01*
X3335476Y-19842508D02*
X3354524Y-19832984D01*
X3506905Y-20032984D02*
X3506905Y-19899650D01*
X3506905Y-19918698D02*
X3516429Y-19909174D01*
X3516429Y-19909174D02*
X3535476Y-19899650D01*
X3535476Y-19899650D02*
X3564048Y-19899650D01*
X3564048Y-19899650D02*
X3583095Y-19909174D01*
X3583095Y-19909174D02*
X3592619Y-19928222D01*
X3592619Y-19928222D02*
X3592619Y-20032984D01*
X3592619Y-19928222D02*
X3602143Y-19909174D01*
X3602143Y-19909174D02*
X3621190Y-19899650D01*
X3621190Y-19899650D02*
X3649762Y-19899650D01*
X3649762Y-19899650D02*
X3668810Y-19909174D01*
X3668810Y-19909174D02*
X3678333Y-19928222D01*
X3678333Y-19928222D02*
X3678333Y-20032984D01*
X3773571Y-20032984D02*
X3773571Y-19899650D01*
X3773571Y-19918698D02*
X3783095Y-19909174D01*
X3783095Y-19909174D02*
X3802143Y-19899650D01*
X3802143Y-19899650D02*
X3830714Y-19899650D01*
X3830714Y-19899650D02*
X3849762Y-19909174D01*
X3849762Y-19909174D02*
X3859286Y-19928222D01*
X3859286Y-19928222D02*
X3859286Y-20032984D01*
X3859286Y-19928222D02*
X3868810Y-19909174D01*
X3868810Y-19909174D02*
X3887857Y-19899650D01*
X3887857Y-19899650D02*
X3916429Y-19899650D01*
X3916429Y-19899650D02*
X3935476Y-19909174D01*
X3935476Y-19909174D02*
X3945000Y-19928222D01*
X3945000Y-19928222D02*
X3945000Y-20032984D01*
X4335476Y-19823460D02*
X4164048Y-20080603D01*
X4592619Y-19832984D02*
X4611667Y-19832984D01*
X4611667Y-19832984D02*
X4630715Y-19842508D01*
X4630715Y-19842508D02*
X4640238Y-19852031D01*
X4640238Y-19852031D02*
X4649762Y-19871079D01*
X4649762Y-19871079D02*
X4659286Y-19909174D01*
X4659286Y-19909174D02*
X4659286Y-19956793D01*
X4659286Y-19956793D02*
X4649762Y-19994889D01*
X4649762Y-19994889D02*
X4640238Y-20013936D01*
X4640238Y-20013936D02*
X4630715Y-20023460D01*
X4630715Y-20023460D02*
X4611667Y-20032984D01*
X4611667Y-20032984D02*
X4592619Y-20032984D01*
X4592619Y-20032984D02*
X4573572Y-20023460D01*
X4573572Y-20023460D02*
X4564048Y-20013936D01*
X4564048Y-20013936D02*
X4554524Y-19994889D01*
X4554524Y-19994889D02*
X4545000Y-19956793D01*
X4545000Y-19956793D02*
X4545000Y-19909174D01*
X4545000Y-19909174D02*
X4554524Y-19871079D01*
X4554524Y-19871079D02*
X4564048Y-19852031D01*
X4564048Y-19852031D02*
X4573572Y-19842508D01*
X4573572Y-19842508D02*
X4592619Y-19832984D01*
X4745000Y-20013936D02*
X4754524Y-20023460D01*
X4754524Y-20023460D02*
X4745000Y-20032984D01*
X4745000Y-20032984D02*
X4735476Y-20023460D01*
X4735476Y-20023460D02*
X4745000Y-20013936D01*
X4745000Y-20013936D02*
X4745000Y-20032984D01*
X4878334Y-19832984D02*
X4897381Y-19832984D01*
X4897381Y-19832984D02*
X4916429Y-19842508D01*
X4916429Y-19842508D02*
X4925953Y-19852031D01*
X4925953Y-19852031D02*
X4935476Y-19871079D01*
X4935476Y-19871079D02*
X4945000Y-19909174D01*
X4945000Y-19909174D02*
X4945000Y-19956793D01*
X4945000Y-19956793D02*
X4935476Y-19994889D01*
X4935476Y-19994889D02*
X4925953Y-20013936D01*
X4925953Y-20013936D02*
X4916429Y-20023460D01*
X4916429Y-20023460D02*
X4897381Y-20032984D01*
X4897381Y-20032984D02*
X4878334Y-20032984D01*
X4878334Y-20032984D02*
X4859286Y-20023460D01*
X4859286Y-20023460D02*
X4849762Y-20013936D01*
X4849762Y-20013936D02*
X4840238Y-19994889D01*
X4840238Y-19994889D02*
X4830715Y-19956793D01*
X4830715Y-19956793D02*
X4830715Y-19909174D01*
X4830715Y-19909174D02*
X4840238Y-19871079D01*
X4840238Y-19871079D02*
X4849762Y-19852031D01*
X4849762Y-19852031D02*
X4859286Y-19842508D01*
X4859286Y-19842508D02*
X4878334Y-19832984D01*
X5011667Y-19832984D02*
X5135476Y-19832984D01*
X5135476Y-19832984D02*
X5068810Y-19909174D01*
X5068810Y-19909174D02*
X5097381Y-19909174D01*
X5097381Y-19909174D02*
X5116429Y-19918698D01*
X5116429Y-19918698D02*
X5125953Y-19928222D01*
X5125953Y-19928222D02*
X5135476Y-19947270D01*
X5135476Y-19947270D02*
X5135476Y-19994889D01*
X5135476Y-19994889D02*
X5125953Y-20013936D01*
X5125953Y-20013936D02*
X5116429Y-20023460D01*
X5116429Y-20023460D02*
X5097381Y-20032984D01*
X5097381Y-20032984D02*
X5040238Y-20032984D01*
X5040238Y-20032984D02*
X5021191Y-20023460D01*
X5021191Y-20023460D02*
X5011667Y-20013936D01*
X5230715Y-20032984D02*
X5268810Y-20032984D01*
X5268810Y-20032984D02*
X5287857Y-20023460D01*
X5287857Y-20023460D02*
X5297381Y-20013936D01*
X5297381Y-20013936D02*
X5316429Y-19985365D01*
X5316429Y-19985365D02*
X5325953Y-19947270D01*
X5325953Y-19947270D02*
X5325953Y-19871079D01*
X5325953Y-19871079D02*
X5316429Y-19852031D01*
X5316429Y-19852031D02*
X5306905Y-19842508D01*
X5306905Y-19842508D02*
X5287857Y-19832984D01*
X5287857Y-19832984D02*
X5249762Y-19832984D01*
X5249762Y-19832984D02*
X5230715Y-19842508D01*
X5230715Y-19842508D02*
X5221191Y-19852031D01*
X5221191Y-19852031D02*
X5211667Y-19871079D01*
X5211667Y-19871079D02*
X5211667Y-19918698D01*
X5211667Y-19918698D02*
X5221191Y-19937746D01*
X5221191Y-19937746D02*
X5230715Y-19947270D01*
X5230715Y-19947270D02*
X5249762Y-19956793D01*
X5249762Y-19956793D02*
X5287857Y-19956793D01*
X5287857Y-19956793D02*
X5306905Y-19947270D01*
X5306905Y-19947270D02*
X5316429Y-19937746D01*
X5316429Y-19937746D02*
X5325953Y-19918698D01*
X5497381Y-19899650D02*
X5497381Y-20032984D01*
X5449762Y-19823460D02*
X5402143Y-19966317D01*
X5402143Y-19966317D02*
X5525953Y-19966317D01*
X5592619Y-19832984D02*
X5592619Y-19871079D01*
X5668810Y-19832984D02*
X5668810Y-19871079D01*
X5964048Y-20109174D02*
X5954524Y-20099650D01*
X5954524Y-20099650D02*
X5935476Y-20071079D01*
X5935476Y-20071079D02*
X5925953Y-20052031D01*
X5925953Y-20052031D02*
X5916429Y-20023460D01*
X5916429Y-20023460D02*
X5906905Y-19975841D01*
X5906905Y-19975841D02*
X5906905Y-19937746D01*
X5906905Y-19937746D02*
X5916429Y-19890127D01*
X5916429Y-19890127D02*
X5925953Y-19861555D01*
X5925953Y-19861555D02*
X5935476Y-19842508D01*
X5935476Y-19842508D02*
X5954524Y-19813936D01*
X5954524Y-19813936D02*
X5964048Y-19804412D01*
X6049762Y-20032984D02*
X6087857Y-20032984D01*
X6087857Y-20032984D02*
X6106905Y-20023460D01*
X6106905Y-20023460D02*
X6116429Y-20013936D01*
X6116429Y-20013936D02*
X6135476Y-19985365D01*
X6135476Y-19985365D02*
X6145000Y-19947270D01*
X6145000Y-19947270D02*
X6145000Y-19871079D01*
X6145000Y-19871079D02*
X6135476Y-19852031D01*
X6135476Y-19852031D02*
X6125953Y-19842508D01*
X6125953Y-19842508D02*
X6106905Y-19832984D01*
X6106905Y-19832984D02*
X6068810Y-19832984D01*
X6068810Y-19832984D02*
X6049762Y-19842508D01*
X6049762Y-19842508D02*
X6040238Y-19852031D01*
X6040238Y-19852031D02*
X6030715Y-19871079D01*
X6030715Y-19871079D02*
X6030715Y-19918698D01*
X6030715Y-19918698D02*
X6040238Y-19937746D01*
X6040238Y-19937746D02*
X6049762Y-19947270D01*
X6049762Y-19947270D02*
X6068810Y-19956793D01*
X6068810Y-19956793D02*
X6106905Y-19956793D01*
X6106905Y-19956793D02*
X6125953Y-19947270D01*
X6125953Y-19947270D02*
X6135476Y-19937746D01*
X6135476Y-19937746D02*
X6145000Y-19918698D01*
X6259286Y-19918698D02*
X6240238Y-19909174D01*
X6240238Y-19909174D02*
X6230715Y-19899650D01*
X6230715Y-19899650D02*
X6221191Y-19880603D01*
X6221191Y-19880603D02*
X6221191Y-19871079D01*
X6221191Y-19871079D02*
X6230715Y-19852031D01*
X6230715Y-19852031D02*
X6240238Y-19842508D01*
X6240238Y-19842508D02*
X6259286Y-19832984D01*
X6259286Y-19832984D02*
X6297381Y-19832984D01*
X6297381Y-19832984D02*
X6316429Y-19842508D01*
X6316429Y-19842508D02*
X6325953Y-19852031D01*
X6325953Y-19852031D02*
X6335476Y-19871079D01*
X6335476Y-19871079D02*
X6335476Y-19880603D01*
X6335476Y-19880603D02*
X6325953Y-19899650D01*
X6325953Y-19899650D02*
X6316429Y-19909174D01*
X6316429Y-19909174D02*
X6297381Y-19918698D01*
X6297381Y-19918698D02*
X6259286Y-19918698D01*
X6259286Y-19918698D02*
X6240238Y-19928222D01*
X6240238Y-19928222D02*
X6230715Y-19937746D01*
X6230715Y-19937746D02*
X6221191Y-19956793D01*
X6221191Y-19956793D02*
X6221191Y-19994889D01*
X6221191Y-19994889D02*
X6230715Y-20013936D01*
X6230715Y-20013936D02*
X6240238Y-20023460D01*
X6240238Y-20023460D02*
X6259286Y-20032984D01*
X6259286Y-20032984D02*
X6297381Y-20032984D01*
X6297381Y-20032984D02*
X6316429Y-20023460D01*
X6316429Y-20023460D02*
X6325953Y-20013936D01*
X6325953Y-20013936D02*
X6335476Y-19994889D01*
X6335476Y-19994889D02*
X6335476Y-19956793D01*
X6335476Y-19956793D02*
X6325953Y-19937746D01*
X6325953Y-19937746D02*
X6316429Y-19928222D01*
X6316429Y-19928222D02*
X6297381Y-19918698D01*
X6573572Y-20032984D02*
X6573572Y-19832984D01*
X6659286Y-20032984D02*
X6659286Y-19928222D01*
X6659286Y-19928222D02*
X6649762Y-19909174D01*
X6649762Y-19909174D02*
X6630715Y-19899650D01*
X6630715Y-19899650D02*
X6602143Y-19899650D01*
X6602143Y-19899650D02*
X6583096Y-19909174D01*
X6583096Y-19909174D02*
X6573572Y-19918698D01*
X6783096Y-20032984D02*
X6764048Y-20023460D01*
X6764048Y-20023460D02*
X6754524Y-20013936D01*
X6754524Y-20013936D02*
X6745000Y-19994889D01*
X6745000Y-19994889D02*
X6745000Y-19937746D01*
X6745000Y-19937746D02*
X6754524Y-19918698D01*
X6754524Y-19918698D02*
X6764048Y-19909174D01*
X6764048Y-19909174D02*
X6783096Y-19899650D01*
X6783096Y-19899650D02*
X6811667Y-19899650D01*
X6811667Y-19899650D02*
X6830715Y-19909174D01*
X6830715Y-19909174D02*
X6840238Y-19918698D01*
X6840238Y-19918698D02*
X6849762Y-19937746D01*
X6849762Y-19937746D02*
X6849762Y-19994889D01*
X6849762Y-19994889D02*
X6840238Y-20013936D01*
X6840238Y-20013936D02*
X6830715Y-20023460D01*
X6830715Y-20023460D02*
X6811667Y-20032984D01*
X6811667Y-20032984D02*
X6783096Y-20032984D01*
X6964048Y-20032984D02*
X6945000Y-20023460D01*
X6945000Y-20023460D02*
X6935477Y-20004412D01*
X6935477Y-20004412D02*
X6935477Y-19832984D01*
X7116429Y-20023460D02*
X7097381Y-20032984D01*
X7097381Y-20032984D02*
X7059286Y-20032984D01*
X7059286Y-20032984D02*
X7040238Y-20023460D01*
X7040238Y-20023460D02*
X7030715Y-20004412D01*
X7030715Y-20004412D02*
X7030715Y-19928222D01*
X7030715Y-19928222D02*
X7040238Y-19909174D01*
X7040238Y-19909174D02*
X7059286Y-19899650D01*
X7059286Y-19899650D02*
X7097381Y-19899650D01*
X7097381Y-19899650D02*
X7116429Y-19909174D01*
X7116429Y-19909174D02*
X7125953Y-19928222D01*
X7125953Y-19928222D02*
X7125953Y-19947270D01*
X7125953Y-19947270D02*
X7030715Y-19966317D01*
X7202143Y-20023460D02*
X7221191Y-20032984D01*
X7221191Y-20032984D02*
X7259286Y-20032984D01*
X7259286Y-20032984D02*
X7278334Y-20023460D01*
X7278334Y-20023460D02*
X7287858Y-20004412D01*
X7287858Y-20004412D02*
X7287858Y-19994889D01*
X7287858Y-19994889D02*
X7278334Y-19975841D01*
X7278334Y-19975841D02*
X7259286Y-19966317D01*
X7259286Y-19966317D02*
X7230715Y-19966317D01*
X7230715Y-19966317D02*
X7211667Y-19956793D01*
X7211667Y-19956793D02*
X7202143Y-19937746D01*
X7202143Y-19937746D02*
X7202143Y-19928222D01*
X7202143Y-19928222D02*
X7211667Y-19909174D01*
X7211667Y-19909174D02*
X7230715Y-19899650D01*
X7230715Y-19899650D02*
X7259286Y-19899650D01*
X7259286Y-19899650D02*
X7278334Y-19909174D01*
X7354524Y-20109174D02*
X7364048Y-20099650D01*
X7364048Y-20099650D02*
X7383096Y-20071079D01*
X7383096Y-20071079D02*
X7392619Y-20052031D01*
X7392619Y-20052031D02*
X7402143Y-20023460D01*
X7402143Y-20023460D02*
X7411667Y-19975841D01*
X7411667Y-19975841D02*
X7411667Y-19937746D01*
X7411667Y-19937746D02*
X7402143Y-19890127D01*
X7402143Y-19890127D02*
X7392619Y-19861555D01*
X7392619Y-19861555D02*
X7383096Y-19842508D01*
X7383096Y-19842508D02*
X7364048Y-19813936D01*
X7364048Y-19813936D02*
X7354524Y-19804412D01*
D13*
X2238985Y-20130500D02*
X2388985Y-20280500D01*
X2388985Y-20130500D02*
X2238985Y-20280500D01*
X2388985Y-20205500D02*
G75*
G02*
X2238985Y-20205500I-75000J0D01*
G01*
X2238985Y-20205500D02*
G75*
G02*
X2388985Y-20205500I75000J0D01*
G01*
D11*
X2754524Y-20296984D02*
X2640238Y-20296984D01*
X2697381Y-20296984D02*
X2697381Y-20096984D01*
X2697381Y-20096984D02*
X2678333Y-20125555D01*
X2678333Y-20125555D02*
X2659286Y-20144603D01*
X2659286Y-20144603D02*
X2640238Y-20154127D01*
X2840238Y-20277936D02*
X2849762Y-20287460D01*
X2849762Y-20287460D02*
X2840238Y-20296984D01*
X2840238Y-20296984D02*
X2830714Y-20287460D01*
X2830714Y-20287460D02*
X2840238Y-20277936D01*
X2840238Y-20277936D02*
X2840238Y-20296984D01*
X3030714Y-20096984D02*
X2935476Y-20096984D01*
X2935476Y-20096984D02*
X2925952Y-20192222D01*
X2925952Y-20192222D02*
X2935476Y-20182698D01*
X2935476Y-20182698D02*
X2954524Y-20173174D01*
X2954524Y-20173174D02*
X3002143Y-20173174D01*
X3002143Y-20173174D02*
X3021190Y-20182698D01*
X3021190Y-20182698D02*
X3030714Y-20192222D01*
X3030714Y-20192222D02*
X3040238Y-20211270D01*
X3040238Y-20211270D02*
X3040238Y-20258889D01*
X3040238Y-20258889D02*
X3030714Y-20277936D01*
X3030714Y-20277936D02*
X3021190Y-20287460D01*
X3021190Y-20287460D02*
X3002143Y-20296984D01*
X3002143Y-20296984D02*
X2954524Y-20296984D01*
X2954524Y-20296984D02*
X2935476Y-20287460D01*
X2935476Y-20287460D02*
X2925952Y-20277936D01*
X3164048Y-20096984D02*
X3183095Y-20096984D01*
X3183095Y-20096984D02*
X3202143Y-20106508D01*
X3202143Y-20106508D02*
X3211667Y-20116031D01*
X3211667Y-20116031D02*
X3221190Y-20135079D01*
X3221190Y-20135079D02*
X3230714Y-20173174D01*
X3230714Y-20173174D02*
X3230714Y-20220793D01*
X3230714Y-20220793D02*
X3221190Y-20258889D01*
X3221190Y-20258889D02*
X3211667Y-20277936D01*
X3211667Y-20277936D02*
X3202143Y-20287460D01*
X3202143Y-20287460D02*
X3183095Y-20296984D01*
X3183095Y-20296984D02*
X3164048Y-20296984D01*
X3164048Y-20296984D02*
X3145000Y-20287460D01*
X3145000Y-20287460D02*
X3135476Y-20277936D01*
X3135476Y-20277936D02*
X3125952Y-20258889D01*
X3125952Y-20258889D02*
X3116429Y-20220793D01*
X3116429Y-20220793D02*
X3116429Y-20173174D01*
X3116429Y-20173174D02*
X3125952Y-20135079D01*
X3125952Y-20135079D02*
X3135476Y-20116031D01*
X3135476Y-20116031D02*
X3145000Y-20106508D01*
X3145000Y-20106508D02*
X3164048Y-20096984D01*
X3354524Y-20096984D02*
X3373571Y-20096984D01*
X3373571Y-20096984D02*
X3392619Y-20106508D01*
X3392619Y-20106508D02*
X3402143Y-20116031D01*
X3402143Y-20116031D02*
X3411667Y-20135079D01*
X3411667Y-20135079D02*
X3421190Y-20173174D01*
X3421190Y-20173174D02*
X3421190Y-20220793D01*
X3421190Y-20220793D02*
X3411667Y-20258889D01*
X3411667Y-20258889D02*
X3402143Y-20277936D01*
X3402143Y-20277936D02*
X3392619Y-20287460D01*
X3392619Y-20287460D02*
X3373571Y-20296984D01*
X3373571Y-20296984D02*
X3354524Y-20296984D01*
X3354524Y-20296984D02*
X3335476Y-20287460D01*
X3335476Y-20287460D02*
X3325952Y-20277936D01*
X3325952Y-20277936D02*
X3316429Y-20258889D01*
X3316429Y-20258889D02*
X3306905Y-20220793D01*
X3306905Y-20220793D02*
X3306905Y-20173174D01*
X3306905Y-20173174D02*
X3316429Y-20135079D01*
X3316429Y-20135079D02*
X3325952Y-20116031D01*
X3325952Y-20116031D02*
X3335476Y-20106508D01*
X3335476Y-20106508D02*
X3354524Y-20096984D01*
X3506905Y-20296984D02*
X3506905Y-20163650D01*
X3506905Y-20182698D02*
X3516429Y-20173174D01*
X3516429Y-20173174D02*
X3535476Y-20163650D01*
X3535476Y-20163650D02*
X3564048Y-20163650D01*
X3564048Y-20163650D02*
X3583095Y-20173174D01*
X3583095Y-20173174D02*
X3592619Y-20192222D01*
X3592619Y-20192222D02*
X3592619Y-20296984D01*
X3592619Y-20192222D02*
X3602143Y-20173174D01*
X3602143Y-20173174D02*
X3621190Y-20163650D01*
X3621190Y-20163650D02*
X3649762Y-20163650D01*
X3649762Y-20163650D02*
X3668810Y-20173174D01*
X3668810Y-20173174D02*
X3678333Y-20192222D01*
X3678333Y-20192222D02*
X3678333Y-20296984D01*
X3773571Y-20296984D02*
X3773571Y-20163650D01*
X3773571Y-20182698D02*
X3783095Y-20173174D01*
X3783095Y-20173174D02*
X3802143Y-20163650D01*
X3802143Y-20163650D02*
X3830714Y-20163650D01*
X3830714Y-20163650D02*
X3849762Y-20173174D01*
X3849762Y-20173174D02*
X3859286Y-20192222D01*
X3859286Y-20192222D02*
X3859286Y-20296984D01*
X3859286Y-20192222D02*
X3868810Y-20173174D01*
X3868810Y-20173174D02*
X3887857Y-20163650D01*
X3887857Y-20163650D02*
X3916429Y-20163650D01*
X3916429Y-20163650D02*
X3935476Y-20173174D01*
X3935476Y-20173174D02*
X3945000Y-20192222D01*
X3945000Y-20192222D02*
X3945000Y-20296984D01*
X4335476Y-20087460D02*
X4164048Y-20344603D01*
X4592619Y-20096984D02*
X4611667Y-20096984D01*
X4611667Y-20096984D02*
X4630715Y-20106508D01*
X4630715Y-20106508D02*
X4640238Y-20116031D01*
X4640238Y-20116031D02*
X4649762Y-20135079D01*
X4649762Y-20135079D02*
X4659286Y-20173174D01*
X4659286Y-20173174D02*
X4659286Y-20220793D01*
X4659286Y-20220793D02*
X4649762Y-20258889D01*
X4649762Y-20258889D02*
X4640238Y-20277936D01*
X4640238Y-20277936D02*
X4630715Y-20287460D01*
X4630715Y-20287460D02*
X4611667Y-20296984D01*
X4611667Y-20296984D02*
X4592619Y-20296984D01*
X4592619Y-20296984D02*
X4573572Y-20287460D01*
X4573572Y-20287460D02*
X4564048Y-20277936D01*
X4564048Y-20277936D02*
X4554524Y-20258889D01*
X4554524Y-20258889D02*
X4545000Y-20220793D01*
X4545000Y-20220793D02*
X4545000Y-20173174D01*
X4545000Y-20173174D02*
X4554524Y-20135079D01*
X4554524Y-20135079D02*
X4564048Y-20116031D01*
X4564048Y-20116031D02*
X4573572Y-20106508D01*
X4573572Y-20106508D02*
X4592619Y-20096984D01*
X4745000Y-20277936D02*
X4754524Y-20287460D01*
X4754524Y-20287460D02*
X4745000Y-20296984D01*
X4745000Y-20296984D02*
X4735476Y-20287460D01*
X4735476Y-20287460D02*
X4745000Y-20277936D01*
X4745000Y-20277936D02*
X4745000Y-20296984D01*
X4878334Y-20096984D02*
X4897381Y-20096984D01*
X4897381Y-20096984D02*
X4916429Y-20106508D01*
X4916429Y-20106508D02*
X4925953Y-20116031D01*
X4925953Y-20116031D02*
X4935476Y-20135079D01*
X4935476Y-20135079D02*
X4945000Y-20173174D01*
X4945000Y-20173174D02*
X4945000Y-20220793D01*
X4945000Y-20220793D02*
X4935476Y-20258889D01*
X4935476Y-20258889D02*
X4925953Y-20277936D01*
X4925953Y-20277936D02*
X4916429Y-20287460D01*
X4916429Y-20287460D02*
X4897381Y-20296984D01*
X4897381Y-20296984D02*
X4878334Y-20296984D01*
X4878334Y-20296984D02*
X4859286Y-20287460D01*
X4859286Y-20287460D02*
X4849762Y-20277936D01*
X4849762Y-20277936D02*
X4840238Y-20258889D01*
X4840238Y-20258889D02*
X4830715Y-20220793D01*
X4830715Y-20220793D02*
X4830715Y-20173174D01*
X4830715Y-20173174D02*
X4840238Y-20135079D01*
X4840238Y-20135079D02*
X4849762Y-20116031D01*
X4849762Y-20116031D02*
X4859286Y-20106508D01*
X4859286Y-20106508D02*
X4878334Y-20096984D01*
X5125953Y-20096984D02*
X5030715Y-20096984D01*
X5030715Y-20096984D02*
X5021191Y-20192222D01*
X5021191Y-20192222D02*
X5030715Y-20182698D01*
X5030715Y-20182698D02*
X5049762Y-20173174D01*
X5049762Y-20173174D02*
X5097381Y-20173174D01*
X5097381Y-20173174D02*
X5116429Y-20182698D01*
X5116429Y-20182698D02*
X5125953Y-20192222D01*
X5125953Y-20192222D02*
X5135476Y-20211270D01*
X5135476Y-20211270D02*
X5135476Y-20258889D01*
X5135476Y-20258889D02*
X5125953Y-20277936D01*
X5125953Y-20277936D02*
X5116429Y-20287460D01*
X5116429Y-20287460D02*
X5097381Y-20296984D01*
X5097381Y-20296984D02*
X5049762Y-20296984D01*
X5049762Y-20296984D02*
X5030715Y-20287460D01*
X5030715Y-20287460D02*
X5021191Y-20277936D01*
X5230715Y-20296984D02*
X5268810Y-20296984D01*
X5268810Y-20296984D02*
X5287857Y-20287460D01*
X5287857Y-20287460D02*
X5297381Y-20277936D01*
X5297381Y-20277936D02*
X5316429Y-20249365D01*
X5316429Y-20249365D02*
X5325953Y-20211270D01*
X5325953Y-20211270D02*
X5325953Y-20135079D01*
X5325953Y-20135079D02*
X5316429Y-20116031D01*
X5316429Y-20116031D02*
X5306905Y-20106508D01*
X5306905Y-20106508D02*
X5287857Y-20096984D01*
X5287857Y-20096984D02*
X5249762Y-20096984D01*
X5249762Y-20096984D02*
X5230715Y-20106508D01*
X5230715Y-20106508D02*
X5221191Y-20116031D01*
X5221191Y-20116031D02*
X5211667Y-20135079D01*
X5211667Y-20135079D02*
X5211667Y-20182698D01*
X5211667Y-20182698D02*
X5221191Y-20201746D01*
X5221191Y-20201746D02*
X5230715Y-20211270D01*
X5230715Y-20211270D02*
X5249762Y-20220793D01*
X5249762Y-20220793D02*
X5287857Y-20220793D01*
X5287857Y-20220793D02*
X5306905Y-20211270D01*
X5306905Y-20211270D02*
X5316429Y-20201746D01*
X5316429Y-20201746D02*
X5325953Y-20182698D01*
X5516429Y-20296984D02*
X5402143Y-20296984D01*
X5459286Y-20296984D02*
X5459286Y-20096984D01*
X5459286Y-20096984D02*
X5440238Y-20125555D01*
X5440238Y-20125555D02*
X5421191Y-20144603D01*
X5421191Y-20144603D02*
X5402143Y-20154127D01*
X5592619Y-20096984D02*
X5592619Y-20135079D01*
X5668810Y-20096984D02*
X5668810Y-20135079D01*
X5964048Y-20373174D02*
X5954524Y-20363650D01*
X5954524Y-20363650D02*
X5935476Y-20335079D01*
X5935476Y-20335079D02*
X5925953Y-20316031D01*
X5925953Y-20316031D02*
X5916429Y-20287460D01*
X5916429Y-20287460D02*
X5906905Y-20239841D01*
X5906905Y-20239841D02*
X5906905Y-20201746D01*
X5906905Y-20201746D02*
X5916429Y-20154127D01*
X5916429Y-20154127D02*
X5925953Y-20125555D01*
X5925953Y-20125555D02*
X5935476Y-20106508D01*
X5935476Y-20106508D02*
X5954524Y-20077936D01*
X5954524Y-20077936D02*
X5964048Y-20068412D01*
X6078334Y-20096984D02*
X6097381Y-20096984D01*
X6097381Y-20096984D02*
X6116429Y-20106508D01*
X6116429Y-20106508D02*
X6125953Y-20116031D01*
X6125953Y-20116031D02*
X6135476Y-20135079D01*
X6135476Y-20135079D02*
X6145000Y-20173174D01*
X6145000Y-20173174D02*
X6145000Y-20220793D01*
X6145000Y-20220793D02*
X6135476Y-20258889D01*
X6135476Y-20258889D02*
X6125953Y-20277936D01*
X6125953Y-20277936D02*
X6116429Y-20287460D01*
X6116429Y-20287460D02*
X6097381Y-20296984D01*
X6097381Y-20296984D02*
X6078334Y-20296984D01*
X6078334Y-20296984D02*
X6059286Y-20287460D01*
X6059286Y-20287460D02*
X6049762Y-20277936D01*
X6049762Y-20277936D02*
X6040238Y-20258889D01*
X6040238Y-20258889D02*
X6030715Y-20220793D01*
X6030715Y-20220793D02*
X6030715Y-20173174D01*
X6030715Y-20173174D02*
X6040238Y-20135079D01*
X6040238Y-20135079D02*
X6049762Y-20116031D01*
X6049762Y-20116031D02*
X6059286Y-20106508D01*
X6059286Y-20106508D02*
X6078334Y-20096984D01*
X6383096Y-20296984D02*
X6383096Y-20096984D01*
X6468810Y-20296984D02*
X6468810Y-20192222D01*
X6468810Y-20192222D02*
X6459286Y-20173174D01*
X6459286Y-20173174D02*
X6440238Y-20163650D01*
X6440238Y-20163650D02*
X6411667Y-20163650D01*
X6411667Y-20163650D02*
X6392619Y-20173174D01*
X6392619Y-20173174D02*
X6383096Y-20182698D01*
X6592619Y-20296984D02*
X6573572Y-20287460D01*
X6573572Y-20287460D02*
X6564048Y-20277936D01*
X6564048Y-20277936D02*
X6554524Y-20258889D01*
X6554524Y-20258889D02*
X6554524Y-20201746D01*
X6554524Y-20201746D02*
X6564048Y-20182698D01*
X6564048Y-20182698D02*
X6573572Y-20173174D01*
X6573572Y-20173174D02*
X6592619Y-20163650D01*
X6592619Y-20163650D02*
X6621191Y-20163650D01*
X6621191Y-20163650D02*
X6640238Y-20173174D01*
X6640238Y-20173174D02*
X6649762Y-20182698D01*
X6649762Y-20182698D02*
X6659286Y-20201746D01*
X6659286Y-20201746D02*
X6659286Y-20258889D01*
X6659286Y-20258889D02*
X6649762Y-20277936D01*
X6649762Y-20277936D02*
X6640238Y-20287460D01*
X6640238Y-20287460D02*
X6621191Y-20296984D01*
X6621191Y-20296984D02*
X6592619Y-20296984D01*
X6773572Y-20296984D02*
X6754524Y-20287460D01*
X6754524Y-20287460D02*
X6745000Y-20268412D01*
X6745000Y-20268412D02*
X6745000Y-20096984D01*
X6925953Y-20287460D02*
X6906905Y-20296984D01*
X6906905Y-20296984D02*
X6868810Y-20296984D01*
X6868810Y-20296984D02*
X6849762Y-20287460D01*
X6849762Y-20287460D02*
X6840238Y-20268412D01*
X6840238Y-20268412D02*
X6840238Y-20192222D01*
X6840238Y-20192222D02*
X6849762Y-20173174D01*
X6849762Y-20173174D02*
X6868810Y-20163650D01*
X6868810Y-20163650D02*
X6906905Y-20163650D01*
X6906905Y-20163650D02*
X6925953Y-20173174D01*
X6925953Y-20173174D02*
X6935477Y-20192222D01*
X6935477Y-20192222D02*
X6935477Y-20211270D01*
X6935477Y-20211270D02*
X6840238Y-20230317D01*
X7011667Y-20287460D02*
X7030715Y-20296984D01*
X7030715Y-20296984D02*
X7068810Y-20296984D01*
X7068810Y-20296984D02*
X7087858Y-20287460D01*
X7087858Y-20287460D02*
X7097381Y-20268412D01*
X7097381Y-20268412D02*
X7097381Y-20258889D01*
X7097381Y-20258889D02*
X7087858Y-20239841D01*
X7087858Y-20239841D02*
X7068810Y-20230317D01*
X7068810Y-20230317D02*
X7040238Y-20230317D01*
X7040238Y-20230317D02*
X7021191Y-20220793D01*
X7021191Y-20220793D02*
X7011667Y-20201746D01*
X7011667Y-20201746D02*
X7011667Y-20192222D01*
X7011667Y-20192222D02*
X7021191Y-20173174D01*
X7021191Y-20173174D02*
X7040238Y-20163650D01*
X7040238Y-20163650D02*
X7068810Y-20163650D01*
X7068810Y-20163650D02*
X7087858Y-20173174D01*
X7335477Y-20220793D02*
X7487858Y-20220793D01*
X7411667Y-20296984D02*
X7411667Y-20144603D01*
X7821191Y-20163650D02*
X7821191Y-20296984D01*
X7773572Y-20087460D02*
X7725953Y-20230317D01*
X7725953Y-20230317D02*
X7849762Y-20230317D01*
X8068810Y-20287460D02*
X8087858Y-20296984D01*
X8087858Y-20296984D02*
X8125953Y-20296984D01*
X8125953Y-20296984D02*
X8145001Y-20287460D01*
X8145001Y-20287460D02*
X8154524Y-20268412D01*
X8154524Y-20268412D02*
X8154524Y-20258889D01*
X8154524Y-20258889D02*
X8145001Y-20239841D01*
X8145001Y-20239841D02*
X8125953Y-20230317D01*
X8125953Y-20230317D02*
X8097381Y-20230317D01*
X8097381Y-20230317D02*
X8078334Y-20220793D01*
X8078334Y-20220793D02*
X8068810Y-20201746D01*
X8068810Y-20201746D02*
X8068810Y-20192222D01*
X8068810Y-20192222D02*
X8078334Y-20173174D01*
X8078334Y-20173174D02*
X8097381Y-20163650D01*
X8097381Y-20163650D02*
X8125953Y-20163650D01*
X8125953Y-20163650D02*
X8145001Y-20173174D01*
X8268810Y-20296984D02*
X8249762Y-20287460D01*
X8249762Y-20287460D02*
X8240239Y-20268412D01*
X8240239Y-20268412D02*
X8240239Y-20096984D01*
X8373572Y-20296984D02*
X8354524Y-20287460D01*
X8354524Y-20287460D02*
X8345001Y-20277936D01*
X8345001Y-20277936D02*
X8335477Y-20258889D01*
X8335477Y-20258889D02*
X8335477Y-20201746D01*
X8335477Y-20201746D02*
X8345001Y-20182698D01*
X8345001Y-20182698D02*
X8354524Y-20173174D01*
X8354524Y-20173174D02*
X8373572Y-20163650D01*
X8373572Y-20163650D02*
X8402144Y-20163650D01*
X8402144Y-20163650D02*
X8421191Y-20173174D01*
X8421191Y-20173174D02*
X8430715Y-20182698D01*
X8430715Y-20182698D02*
X8440239Y-20201746D01*
X8440239Y-20201746D02*
X8440239Y-20258889D01*
X8440239Y-20258889D02*
X8430715Y-20277936D01*
X8430715Y-20277936D02*
X8421191Y-20287460D01*
X8421191Y-20287460D02*
X8402144Y-20296984D01*
X8402144Y-20296984D02*
X8373572Y-20296984D01*
X8497382Y-20163650D02*
X8573572Y-20163650D01*
X8525953Y-20096984D02*
X8525953Y-20268412D01*
X8525953Y-20268412D02*
X8535477Y-20287460D01*
X8535477Y-20287460D02*
X8554524Y-20296984D01*
X8554524Y-20296984D02*
X8573572Y-20296984D01*
X8630715Y-20287460D02*
X8649763Y-20296984D01*
X8649763Y-20296984D02*
X8687858Y-20296984D01*
X8687858Y-20296984D02*
X8706905Y-20287460D01*
X8706905Y-20287460D02*
X8716429Y-20268412D01*
X8716429Y-20268412D02*
X8716429Y-20258889D01*
X8716429Y-20258889D02*
X8706905Y-20239841D01*
X8706905Y-20239841D02*
X8687858Y-20230317D01*
X8687858Y-20230317D02*
X8659286Y-20230317D01*
X8659286Y-20230317D02*
X8640239Y-20220793D01*
X8640239Y-20220793D02*
X8630715Y-20201746D01*
X8630715Y-20201746D02*
X8630715Y-20192222D01*
X8630715Y-20192222D02*
X8640239Y-20173174D01*
X8640239Y-20173174D02*
X8659286Y-20163650D01*
X8659286Y-20163650D02*
X8687858Y-20163650D01*
X8687858Y-20163650D02*
X8706905Y-20173174D01*
X8783096Y-20373174D02*
X8792620Y-20363650D01*
X8792620Y-20363650D02*
X8811667Y-20335079D01*
X8811667Y-20335079D02*
X8821191Y-20316031D01*
X8821191Y-20316031D02*
X8830715Y-20287460D01*
X8830715Y-20287460D02*
X8840239Y-20239841D01*
X8840239Y-20239841D02*
X8840239Y-20201746D01*
X8840239Y-20201746D02*
X8830715Y-20154127D01*
X8830715Y-20154127D02*
X8821191Y-20125555D01*
X8821191Y-20125555D02*
X8811667Y-20106508D01*
X8811667Y-20106508D02*
X8792620Y-20077936D01*
X8792620Y-20077936D02*
X8783096Y-20068412D01*
M02*
