M48
; DRILL file KiCad 10.0.3 date 2026-07-17T18:59:21
; FORMAT={-:-/ absolute / metric / decimal}
; #@! TF.CreationDate,2026-07-17T18:59:21-04:00
; #@! TF.GenerationSoftware,Kicad,Pcbnew,10.0.3
; #@! TF.FileFunction,Plated,1,2,PTH
FMAT,2
METRIC
; #@! TA.AperFunction,Plated,PTH,ViaDrill
T1C0.300
; #@! TA.AperFunction,Plated,PTH,ViaDrill
T2C0.400
; #@! TA.AperFunction,Plated,PTH,ComponentDrill
T3C0.600
; #@! TA.AperFunction,Plated,PTH,ComponentDrill
T4C0.800
; #@! TA.AperFunction,Plated,PTH,ComponentDrill
T5C1.000
; #@! TA.AperFunction,Plated,PTH,ComponentDrill
T6C1.500
%
G90
G05
T1
X28.019Y-164.469
X37.465Y-104.78
X42.315Y-123.78
X46.865Y-52.746
X46.865Y-66.78
X47.465Y-85.78
X50.365Y-60.846
X51.265Y-54.246
X51.715Y-142.78
X51.815Y-52.746
X51.865Y-55.746
X55.515Y-104.78
X59.665Y-123.78
X63.35Y-87.3
X65.165Y-66.78
X66.665Y-47.89
X67.415Y-57.896
X69.465Y-142.78
X74.315Y-104.78
X78.915Y-123.78
X79.165Y-60.446
X79.515Y-161.78
X83.565Y-66.78
X84.115Y-85.78
X88.065Y-142.78
X93.415Y-104.78
X95.565Y-52.746
X95.915Y-47.015
X98.065Y-123.78
X98.165Y-161.78
X102.515Y-66.78
X102.815Y-85.78
X106.215Y-67.746
X107.565Y-67.546
X108.065Y-142.78
X112.165Y-104.78
X116.765Y-123.78
X117.665Y-161.78
X121.515Y-66.78
X121.615Y-85.78
X127.065Y-142.78
X131.315Y-104.78
X136.315Y-123.78
X136.315Y-161.78
X136.915Y-64.396
X137.7Y-68.9
X140.465Y-85.78
X145.865Y-142.78
X150.615Y-104.78
X154.005Y-67.38
X154.115Y-122.495
X157.4Y-74.3
X158.64Y-84.47
X158.965Y-66.78
X159.815Y-161.78
X170.63Y-105.8
X174.415Y-66.78
X176.2Y-77.95
X176.33Y-78.739
X177.53Y-78.55
X178.465Y-142.78
X178.515Y-161.78
X186.865Y-82.346
X188.165Y-66.246
X190.215Y-81.296
X191.815Y-66.946
X193.131Y-83.581
X193.715Y-64.396
X194.665Y-81.646
X195.565Y-121.596
X195.598Y-102.528
X195.83Y-159.846
X196.115Y-140.196
X199.715Y-70.046
X220.718Y-103.03
X220.767Y-83.93
X220.767Y-122.13
X220.767Y-141.28
X220.767Y-160.33
X238.267Y-84.03
X238.767Y-103.03
X238.767Y-122.13
X238.767Y-141.28
X238.767Y-160.33
X255.617Y-66.28
X256.85Y-88.564
X262.317Y-160.33
X267.267Y-103.03
X271.817Y-122.13
X275.167Y-66.28
X276.767Y-83.93
X278.417Y-66.28
X281.267Y-141.23
X286.267Y-103.03
X286.267Y-160.33
X289.417Y-66.28
X290.767Y-122.13
X295.767Y-83.93
X297.417Y-66.28
X300.317Y-141.23
X305.267Y-103.03
X306.417Y-54.58
X309.767Y-122.13
X311.167Y-160.33
X314.767Y-83.93
X319.767Y-141.23
X324.267Y-103.03
X329.267Y-122.13
X332.517Y-44.93
X332.9Y-88.85
X338.717Y-141.23
X343.267Y-103.03
X345.467Y-120.43
X350.967Y-46.415
X352.767Y-83.93
X356.517Y-141.88
X358.667Y-47.93
X362.817Y-53.13
X365.618Y-48.18
X366.917Y-53.13
T2
X312.517Y-66.38
X316.567Y-66.38
X331.618Y-66.38
X344.067Y-66.38
X350.517Y-66.48
T4
X58.315Y-51.346
X68.475Y-51.346
X71.055Y-51.296
X81.215Y-51.296
X330.467Y-50.12
X330.467Y-60.28
X333.217Y-50.43
X343.377Y-50.43
T5
X45.83Y-55.62
X45.83Y-58.16
X45.83Y-60.7
X45.83Y-63.24
X88.388Y-45.04
X88.388Y-62.82
X90.928Y-45.04
X90.928Y-62.82
X93.468Y-45.04
X93.468Y-62.82
X96.008Y-45.04
X96.008Y-62.82
X98.548Y-45.04
X98.548Y-62.82
X101.088Y-45.04
X101.088Y-62.82
X103.628Y-45.04
X103.628Y-62.82
X106.168Y-45.04
X106.168Y-62.82
X108.708Y-45.04
X108.708Y-62.82
X111.248Y-45.04
X111.248Y-62.82
X113.788Y-45.04
X113.788Y-62.82
X116.328Y-45.04
X116.328Y-62.82
X118.868Y-45.04
X118.868Y-62.82
X121.408Y-45.04
X121.408Y-62.82
X123.948Y-45.04
X123.948Y-62.82
X126.488Y-45.04
X126.488Y-62.82
X129.028Y-45.04
X129.028Y-62.82
X131.568Y-45.04
X131.568Y-62.82
X134.108Y-45.04
X134.108Y-62.82
X136.648Y-45.04
X136.648Y-62.82
X197.66Y-72.63
X197.66Y-75.13
X197.66Y-77.63
X212.16Y-72.63
X212.16Y-77.63
X221.672Y-72.63
X221.672Y-75.13
X221.672Y-77.63
X236.172Y-72.63
X236.172Y-77.63
X278.188Y-44.93
X278.188Y-62.71
X280.727Y-44.93
X280.727Y-62.71
X283.267Y-44.93
X283.267Y-62.71
X285.808Y-44.93
X285.808Y-62.71
X288.347Y-44.93
X288.347Y-62.71
X290.887Y-44.93
X290.887Y-62.71
X293.428Y-44.93
X293.428Y-62.71
X295.967Y-44.93
X295.967Y-62.71
X298.507Y-44.93
X298.507Y-62.71
X301.048Y-44.93
X301.048Y-62.71
X303.587Y-44.93
X303.587Y-62.71
X306.127Y-44.93
X306.127Y-62.71
X308.667Y-44.93
X308.667Y-62.71
X311.207Y-44.93
X311.207Y-62.71
X313.748Y-44.93
X313.748Y-62.71
X316.287Y-44.93
X316.287Y-62.71
X318.827Y-44.93
X318.827Y-62.71
X321.368Y-44.93
X321.368Y-62.71
X323.907Y-44.93
X323.907Y-62.71
X326.447Y-44.93
X326.447Y-62.71
X333.767Y-55.12
X333.767Y-57.66
X333.767Y-60.2
X333.767Y-62.74
T3
G00X45.01Y-45.58
M15
G01X45.01Y-46.18
M16
G05
G00X45.01Y-49.51
M15
G01X45.01Y-50.61
M16
G05
G00X53.65Y-45.58
M15
G01X53.65Y-46.18
M16
G05
G00X53.65Y-49.51
M15
G01X53.65Y-50.61
M16
G05
G00X360.947Y-45.58
M15
G01X360.947Y-46.18
M16
G05
G00X360.947Y-49.51
M15
G01X360.947Y-50.61
M16
G05
G00X369.587Y-45.58
M15
G01X369.587Y-46.18
M16
G05
G00X369.587Y-49.51
M15
G01X369.587Y-50.61
M16
G05
T6
G00X204.51Y-69.53
M15
G01X205.81Y-69.53
M16
G05
G00X204.51Y-80.73
M15
G01X205.81Y-80.73
M16
G05
G00X228.522Y-69.53
M15
G01X229.822Y-69.53
M16
G05
G00X228.522Y-80.73
M15
G01X229.822Y-80.73
M16
G05
M30
