G04 #@! TF.GenerationSoftware,KiCad,Pcbnew,10.0.3*
G04 #@! TF.CreationDate,2026-08-25T20:12:09-04:00*
G04 #@! TF.ProjectId,karve-split,6b617276-652d-4737-906c-69742e6b6963,rev?*
G04 #@! TF.SameCoordinates,Original*
G04 #@! TF.FileFunction,Profile,NP*
%FSLAX46Y46*%
G04 Gerber Fmt 4.6, Leading zero omitted, Abs format (unit mm)*
G04 Created by KiCad (PCBNEW 10.0.3) date 2026-08-25 20:12:09*
%MOMM*%
%LPD*%
G01*
G04 APERTURE LIST*
G04 #@! TA.AperFunction,Profile*
%ADD10C,0.050000*%
G04 #@! TD*
G04 APERTURE END LIST*
D10*
X142195149Y-63399528D02*
G75*
G02*
X141710002Y-62910000I1J485168D01*
G01*
X141710000Y-42740000D02*
X141710000Y-62910000D01*
X142195149Y-63399528D02*
X213974851Y-63400472D01*
X141224851Y-42250472D02*
G75*
G02*
X141709998Y-42740000I-1J-485168D01*
G01*
X274019528Y-62944851D02*
G75*
G02*
X273530000Y-63429998I-485168J1D01*
G01*
X274010472Y-42715149D02*
G75*
G02*
X274500000Y-42230002I485168J-1D01*
G01*
X371284851Y-42230472D02*
G75*
G02*
X371769998Y-42720000I-1J-485168D01*
G01*
X371819528Y-103144851D02*
G75*
G02*
X371330000Y-103629998I-485168J1D01*
G01*
X366524851Y-122830472D02*
G75*
G02*
X367009998Y-123320000I-1J-485168D01*
G01*
X367017500Y-132730000D02*
X367010000Y-123320000D01*
X366524851Y-122830472D02*
X362670000Y-122830000D01*
X376084851Y-141880472D02*
G75*
G02*
X376569998Y-142370000I-1J-485168D01*
G01*
X376570000Y-142370000D02*
X376569528Y-160304851D01*
X376090000Y-141880000D02*
X367420000Y-141880000D01*
X376569528Y-160304851D02*
G75*
G02*
X376080000Y-160789998I-485168J1D01*
G01*
X352719528Y-181944851D02*
G75*
G02*
X352230000Y-182429998I-485168J1D01*
G01*
X219895149Y-182429528D02*
G75*
G02*
X219410002Y-181940000I1J485168D01*
G01*
X214449528Y-181914851D02*
G75*
G02*
X213960000Y-182399998I-485168J1D01*
G01*
X219420472Y-63915149D02*
G75*
G02*
X219910000Y-63430002I485168J-1D01*
G01*
X213974851Y-63400472D02*
G75*
G02*
X214459998Y-63890000I-1J-485168D01*
G01*
X362270000Y-104030000D02*
G75*
G02*
X362670000Y-103630000I399999J1D01*
G01*
X362670000Y-103630000D02*
X371330000Y-103630000D01*
X362267500Y-113680000D02*
X362270000Y-104030000D01*
X362670000Y-122830000D02*
G75*
G02*
X362270000Y-122430000I-1J399999D01*
G01*
X362270000Y-122430000D02*
X362267500Y-121630000D01*
X367420000Y-141880000D02*
G75*
G02*
X367020000Y-141480000I-1J399999D01*
G01*
X367020000Y-141480000D02*
X367017500Y-140680000D01*
X367017500Y-132730000D02*
X367017500Y-140680000D01*
X352720000Y-161180000D02*
G75*
G02*
X353120000Y-160780000I399999J1D01*
G01*
X43024780Y-103387157D02*
G75*
G02*
X42617157Y-103794780I-407622J-1D01*
G01*
X37820000Y-122640000D02*
G75*
G02*
X38220000Y-123040000I1J-399999D01*
G01*
X38220000Y-123040000D02*
X38214851Y-132745641D01*
X33950000Y-122635169D02*
X37830000Y-122640000D01*
X47767157Y-160577157D02*
G75*
G02*
X47367157Y-160977157I-399999J-1D01*
G01*
X23906353Y-161504604D02*
G75*
G02*
X24395881Y-161019455I485168J1D01*
G01*
X23910000Y-161500000D02*
X23914851Y-170895641D01*
X24400000Y-182395169D02*
G75*
G02*
X23914851Y-181905641I-1J485168D01*
G01*
X47367157Y-160977157D02*
X24395881Y-161019455D01*
X43006353Y-42734604D02*
G75*
G02*
X43495881Y-42249455I485168J1D01*
G01*
X33464851Y-104269604D02*
G75*
G02*
X33954379Y-103784455I485168J1D01*
G01*
X33950000Y-122635169D02*
G75*
G02*
X33464851Y-122145641I-1J485168D01*
G01*
X47400000Y-141700000D02*
G75*
G02*
X47800000Y-142100000I0J-400000D01*
G01*
X38700000Y-141685169D02*
G75*
G02*
X38214851Y-141195641I0J485169D01*
G01*
X38700000Y-141685169D02*
X47400000Y-141700000D01*
X47764851Y-151595641D02*
X47800000Y-142100000D01*
X38214851Y-140695641D02*
X38214851Y-141195641D01*
X23914851Y-170895641D02*
X23914851Y-178845641D01*
X23914851Y-181905595D02*
X23914851Y-178845641D01*
X33464851Y-104269604D02*
X33464851Y-113695641D01*
X33464851Y-121645641D02*
X33464851Y-113695641D01*
X33464851Y-121645641D02*
X33464851Y-122145641D01*
X38214851Y-140695641D02*
X38214851Y-132745641D01*
X43495881Y-42249455D02*
X141224851Y-42250472D01*
X43014851Y-47845641D02*
X43006387Y-42740329D01*
X43014851Y-47845641D02*
X43014851Y-55695641D01*
X43014851Y-73845641D02*
X43014851Y-55695641D01*
X43014851Y-73845641D02*
X43014851Y-81695641D01*
X43014851Y-94745641D02*
X43014851Y-81695641D01*
X42617157Y-103794780D02*
X33954379Y-103784455D01*
X43024780Y-103387157D02*
X43014851Y-94745641D01*
X47764851Y-151595641D02*
X47764851Y-159495641D01*
X47764851Y-159495641D02*
X47770000Y-160580000D01*
X214450000Y-102000000D02*
X219400000Y-102000000D01*
X214450000Y-113200000D02*
X214450000Y-102000000D01*
X214450000Y-121100000D02*
X219400000Y-121100000D01*
X214450000Y-132250000D02*
X214450000Y-121100000D01*
X214450000Y-140150000D02*
X219400000Y-140150000D01*
X214450000Y-151300000D02*
X214450000Y-140150000D01*
X214450000Y-159200000D02*
X219400000Y-159200000D01*
X214450000Y-170900000D02*
X214450000Y-159200000D01*
X214450000Y-178800000D02*
X214449528Y-181914851D01*
X214450000Y-178800000D02*
X219400000Y-178800000D01*
X213960000Y-182400000D02*
X24400000Y-182395169D01*
X214464851Y-85395641D02*
X214460000Y-63890000D01*
X214464851Y-85395641D02*
X214464851Y-94150000D01*
X214464851Y-94150000D02*
X219400000Y-94150000D01*
X219400000Y-94150000D02*
X219420472Y-63915149D01*
X219400000Y-102000000D02*
X219400000Y-113200000D01*
X219400000Y-113200000D02*
X214450000Y-113200000D01*
X219400000Y-121100000D02*
X219400000Y-132250000D01*
X219400000Y-132250000D02*
X214450000Y-132250000D01*
X219400000Y-140150000D02*
X219400000Y-151300000D01*
X219400000Y-151300000D02*
X214450000Y-151300000D01*
X219400000Y-159200000D02*
X219400000Y-170900000D01*
X219400000Y-170900000D02*
X214450000Y-170900000D01*
X219400000Y-178800000D02*
X219410000Y-181940000D01*
X274010472Y-42715149D02*
X274019528Y-62944851D01*
X273530000Y-63430000D02*
X219900388Y-63430000D01*
X274617500Y-42230000D02*
X274500812Y-42230000D01*
X276917500Y-42230000D02*
X274617500Y-42230000D01*
X276917500Y-42230000D02*
X277717500Y-42230000D01*
X277717500Y-42230000D02*
X371284851Y-42230472D01*
X353120000Y-160780000D02*
X376080000Y-160790000D01*
X352717500Y-170880000D02*
X352720000Y-161180000D01*
X352717500Y-170880000D02*
X352719528Y-181944851D01*
X352239793Y-182429998D02*
X219895149Y-182429528D01*
X362267500Y-113680000D02*
X362267500Y-121630000D01*
X371770000Y-42720000D02*
X371767500Y-47830000D01*
X371767500Y-47830000D02*
X371817500Y-81680000D01*
X371817500Y-81680000D02*
X371817500Y-94730000D01*
X371817500Y-94730000D02*
X371817500Y-102630000D01*
X371819528Y-103144851D02*
X371817500Y-102630000D01*
M02*
