%TF.GenerationSoftware,KiCad,Pcbnew,10.0.3*%
%TF.CreationDate,2026-08-25T20:12:09-04:00*%
%TF.ProjectId,karve-split,6b617276-652d-4737-906c-69742e6b6963,rev?*%
%TF.SameCoordinates,Original*%
%TF.FileFunction,Drillmap*%
%TF.FilePolarity,Positive*%
%FSLAX45Y45*%
G04 Gerber Fmt 4.5, Leading zero omitted, Abs format (unit mm)*
G04 Created by KiCad (PCBNEW 10.0.3) date 2026-08-25 20:12:09*
%MOMM*%
%LPD*%
G01*
G04 APERTURE LIST*
%ADD10C,0.050000*%
%ADD11C,0.200000*%
%ADD12C,0.100000*%
%ADD13C,0.150000*%
G04 APERTURE END LIST*
D10*
X14219515Y-6339953D02*
G75*
G02*
X14171000Y-6291000I0J48517D01*
G01*
X14171000Y-4274000D02*
X14171000Y-6291000D01*
X14219515Y-6339953D02*
X21397485Y-6340047D01*
X14122485Y-4225047D02*
G75*
G02*
X14171000Y-4274000I0J-48517D01*
G01*
X27401953Y-6294485D02*
G75*
G02*
X27353000Y-6343000I-48517J0D01*
G01*
X27401047Y-4271515D02*
G75*
G02*
X27450000Y-4223000I48517J0D01*
G01*
X37128485Y-4223047D02*
G75*
G02*
X37177000Y-4272000I0J-48517D01*
G01*
X37181953Y-10314485D02*
G75*
G02*
X37133000Y-10363000I-48517J0D01*
G01*
X36652485Y-12283047D02*
G75*
G02*
X36701000Y-12332000I0J-48517D01*
G01*
X36701750Y-13273000D02*
X36701000Y-12332000D01*
X36652485Y-12283047D02*
X36267000Y-12283000D01*
X37608485Y-14188047D02*
G75*
G02*
X37657000Y-14237000I0J-48517D01*
G01*
X37657000Y-14237000D02*
X37656953Y-16030485D01*
X37609000Y-14188000D02*
X36742000Y-14188000D01*
X37656953Y-16030485D02*
G75*
G02*
X37608000Y-16079000I-48517J0D01*
G01*
X35271953Y-18194485D02*
G75*
G02*
X35223000Y-18243000I-48517J0D01*
G01*
X21989515Y-18242953D02*
G75*
G02*
X21941000Y-18194000I0J48517D01*
G01*
X21444953Y-18191485D02*
G75*
G02*
X21396000Y-18240000I-48517J0D01*
G01*
X21942047Y-6391515D02*
G75*
G02*
X21991000Y-6343000I48517J0D01*
G01*
X21397485Y-6340047D02*
G75*
G02*
X21446000Y-6389000I0J-48517D01*
G01*
X36227000Y-10403000D02*
G75*
G02*
X36267000Y-10363000I40000J0D01*
G01*
X36267000Y-10363000D02*
X37133000Y-10363000D01*
X36226750Y-11368000D02*
X36227000Y-10403000D01*
X36267000Y-12283000D02*
G75*
G02*
X36227000Y-12243000I0J40000D01*
G01*
X36227000Y-12243000D02*
X36226750Y-12163000D01*
X36742000Y-14188000D02*
G75*
G02*
X36702000Y-14148000I0J40000D01*
G01*
X36702000Y-14148000D02*
X36701750Y-14068000D01*
X36701750Y-13273000D02*
X36701750Y-14068000D01*
X35272000Y-16118000D02*
G75*
G02*
X35312000Y-16078000I40000J0D01*
G01*
X4302478Y-10338716D02*
G75*
G02*
X4261716Y-10379478I-40762J0D01*
G01*
X3782000Y-12264000D02*
G75*
G02*
X3822000Y-12304000I0J-40000D01*
G01*
X3822000Y-12304000D02*
X3821485Y-13274564D01*
X3395000Y-12263517D02*
X3783000Y-12264000D01*
X4776716Y-16057716D02*
G75*
G02*
X4736716Y-16097716I-40000J0D01*
G01*
X2390635Y-16150460D02*
G75*
G02*
X2439588Y-16101945I48517J0D01*
G01*
X2391000Y-16150000D02*
X2391485Y-17089564D01*
X2440000Y-18239517D02*
G75*
G02*
X2391485Y-18190564I0J48517D01*
G01*
X4736716Y-16097716D02*
X2439588Y-16101945D01*
X4300635Y-4273460D02*
G75*
G02*
X4349588Y-4224946I48517J0D01*
G01*
X3346485Y-10426960D02*
G75*
G02*
X3395438Y-10378446I48517J0D01*
G01*
X3395000Y-12263517D02*
G75*
G02*
X3346485Y-12214564I0J48517D01*
G01*
X4740000Y-14170000D02*
G75*
G02*
X4780000Y-14210000I0J-40000D01*
G01*
X3870000Y-14168517D02*
G75*
G02*
X3821485Y-14119564I0J48517D01*
G01*
X3870000Y-14168517D02*
X4740000Y-14170000D01*
X4776485Y-15159564D02*
X4780000Y-14210000D01*
X3821485Y-14069564D02*
X3821485Y-14119564D01*
X2391485Y-17089564D02*
X2391485Y-17884564D01*
X2391485Y-18190560D02*
X2391485Y-17884564D01*
X3346485Y-10426960D02*
X3346485Y-11369564D01*
X3346485Y-12164564D02*
X3346485Y-11369564D01*
X3346485Y-12164564D02*
X3346485Y-12214564D01*
X3821485Y-14069564D02*
X3821485Y-13274564D01*
X4349588Y-4224946D02*
X14122485Y-4225047D01*
X4301485Y-4784564D02*
X4300639Y-4274033D01*
X4301485Y-4784564D02*
X4301485Y-5569564D01*
X4301485Y-7384564D02*
X4301485Y-5569564D01*
X4301485Y-7384564D02*
X4301485Y-8169564D01*
X4301485Y-9474564D02*
X4301485Y-8169564D01*
X4261716Y-10379478D02*
X3395438Y-10378446D01*
X4302478Y-10338716D02*
X4301485Y-9474564D01*
X4776485Y-15159564D02*
X4776485Y-15949564D01*
X4776485Y-15949564D02*
X4777000Y-16058000D01*
X21445000Y-10200000D02*
X21940000Y-10200000D01*
X21445000Y-11320000D02*
X21445000Y-10200000D01*
X21445000Y-12110000D02*
X21940000Y-12110000D01*
X21445000Y-13225000D02*
X21445000Y-12110000D01*
X21445000Y-14015000D02*
X21940000Y-14015000D01*
X21445000Y-15130000D02*
X21445000Y-14015000D01*
X21445000Y-15920000D02*
X21940000Y-15920000D01*
X21445000Y-17090000D02*
X21445000Y-15920000D01*
X21445000Y-17880000D02*
X21444953Y-18191485D01*
X21445000Y-17880000D02*
X21940000Y-17880000D01*
X21396000Y-18240000D02*
X2440000Y-18239517D01*
X21446485Y-8539564D02*
X21446000Y-6389000D01*
X21446485Y-8539564D02*
X21446485Y-9415000D01*
X21446485Y-9415000D02*
X21940000Y-9415000D01*
X21940000Y-9415000D02*
X21942047Y-6391515D01*
X21940000Y-10200000D02*
X21940000Y-11320000D01*
X21940000Y-11320000D02*
X21445000Y-11320000D01*
X21940000Y-12110000D02*
X21940000Y-13225000D01*
X21940000Y-13225000D02*
X21445000Y-13225000D01*
X21940000Y-14015000D02*
X21940000Y-15130000D01*
X21940000Y-15130000D02*
X21445000Y-15130000D01*
X21940000Y-15920000D02*
X21940000Y-17090000D01*
X21940000Y-17090000D02*
X21445000Y-17090000D01*
X21940000Y-17880000D02*
X21941000Y-18194000D01*
X27401047Y-4271515D02*
X27401953Y-6294485D01*
X27353000Y-6343000D02*
X21990039Y-6343000D01*
X27461750Y-4223000D02*
X27450081Y-4223000D01*
X27691750Y-4223000D02*
X27461750Y-4223000D01*
X27691750Y-4223000D02*
X27771750Y-4223000D01*
X27771750Y-4223000D02*
X37128485Y-4223047D01*
X35312000Y-16078000D02*
X37608000Y-16079000D01*
X35271750Y-17088000D02*
X35272000Y-16118000D01*
X35271750Y-17088000D02*
X35271953Y-18194485D01*
X35223979Y-18243000D02*
X21989515Y-18242953D01*
X36226750Y-11368000D02*
X36226750Y-12163000D01*
X37177000Y-4272000D02*
X37176750Y-4783000D01*
X37176750Y-4783000D02*
X37181750Y-8168000D01*
X37181750Y-8168000D02*
X37181750Y-9473000D01*
X37181750Y-9473000D02*
X37181750Y-10263000D01*
X37181953Y-10314485D02*
X37181750Y-10263000D01*
D11*
D12*
X2786905Y-16431890D02*
X2816905Y-16461890D01*
X2816905Y-16431890D02*
X2786905Y-16461890D01*
X3731485Y-10463000D02*
X3761485Y-10493000D01*
X3761485Y-10463000D02*
X3731485Y-10493000D01*
X4216485Y-12363000D02*
X4246485Y-12393000D01*
X4246485Y-12363000D02*
X4216485Y-12393000D01*
X4671485Y-5259564D02*
X4701485Y-5289564D01*
X4701485Y-5259564D02*
X4671485Y-5289564D01*
X4671485Y-6663000D02*
X4701485Y-6693000D01*
X4701485Y-6663000D02*
X4671485Y-6693000D01*
X4731485Y-8563000D02*
X4761485Y-8593000D01*
X4761485Y-8563000D02*
X4731485Y-8593000D01*
X5021485Y-6069564D02*
X5051485Y-6099564D01*
X5051485Y-6069564D02*
X5021485Y-6099564D01*
X5111485Y-5409564D02*
X5141485Y-5439564D01*
X5141485Y-5409564D02*
X5111485Y-5439564D01*
X5156485Y-14263000D02*
X5186485Y-14293000D01*
X5186485Y-14263000D02*
X5156485Y-14293000D01*
X5166485Y-5259564D02*
X5196485Y-5289564D01*
X5196485Y-5259564D02*
X5166485Y-5289564D01*
X5171485Y-5559564D02*
X5201485Y-5589564D01*
X5201485Y-5559564D02*
X5171485Y-5589564D01*
X5536485Y-10463000D02*
X5566485Y-10493000D01*
X5566485Y-10463000D02*
X5536485Y-10493000D01*
X5951485Y-12363000D02*
X5981485Y-12393000D01*
X5981485Y-12363000D02*
X5951485Y-12393000D01*
X6320000Y-8715000D02*
X6350000Y-8745000D01*
X6350000Y-8715000D02*
X6320000Y-8745000D01*
X6501485Y-6663000D02*
X6531485Y-6693000D01*
X6531485Y-6663000D02*
X6501485Y-6693000D01*
X6651485Y-4774000D02*
X6681485Y-4804000D01*
X6681485Y-4774000D02*
X6651485Y-4804000D01*
X6726485Y-5774564D02*
X6756485Y-5804564D01*
X6756485Y-5774564D02*
X6726485Y-5804564D01*
X6931485Y-14263000D02*
X6961485Y-14293000D01*
X6961485Y-14263000D02*
X6931485Y-14293000D01*
X7416485Y-10463000D02*
X7446485Y-10493000D01*
X7446485Y-10463000D02*
X7416485Y-10493000D01*
X7876485Y-12363000D02*
X7906485Y-12393000D01*
X7906485Y-12363000D02*
X7876485Y-12393000D01*
X7901485Y-6029564D02*
X7931485Y-6059564D01*
X7931485Y-6029564D02*
X7901485Y-6059564D01*
X7936485Y-16163000D02*
X7966485Y-16193000D01*
X7966485Y-16163000D02*
X7936485Y-16193000D01*
X8341485Y-6663000D02*
X8371485Y-6693000D01*
X8371485Y-6663000D02*
X8341485Y-6693000D01*
X8396485Y-8563000D02*
X8426485Y-8593000D01*
X8426485Y-8563000D02*
X8396485Y-8593000D01*
X8791485Y-14263000D02*
X8821485Y-14293000D01*
X8821485Y-14263000D02*
X8791485Y-14293000D01*
X9326485Y-10463000D02*
X9356485Y-10493000D01*
X9356485Y-10463000D02*
X9326485Y-10493000D01*
X9541485Y-5259564D02*
X9571485Y-5289564D01*
X9571485Y-5259564D02*
X9541485Y-5289564D01*
X9576485Y-4686500D02*
X9606485Y-4716500D01*
X9606485Y-4686500D02*
X9576485Y-4716500D01*
X9791485Y-12363000D02*
X9821485Y-12393000D01*
X9821485Y-12363000D02*
X9791485Y-12393000D01*
X9801485Y-16163000D02*
X9831485Y-16193000D01*
X9831485Y-16163000D02*
X9801485Y-16193000D01*
X10236485Y-6663000D02*
X10266485Y-6693000D01*
X10266485Y-6663000D02*
X10236485Y-6693000D01*
X10266485Y-8563000D02*
X10296485Y-8593000D01*
X10296485Y-8563000D02*
X10266485Y-8593000D01*
X10606485Y-6759564D02*
X10636485Y-6789564D01*
X10636485Y-6759564D02*
X10606485Y-6789564D01*
X10741485Y-6739564D02*
X10771485Y-6769564D01*
X10771485Y-6739564D02*
X10741485Y-6769564D01*
X10791485Y-14263000D02*
X10821485Y-14293000D01*
X10821485Y-14263000D02*
X10791485Y-14293000D01*
X11201485Y-10463000D02*
X11231485Y-10493000D01*
X11231485Y-10463000D02*
X11201485Y-10493000D01*
X11661485Y-12363000D02*
X11691485Y-12393000D01*
X11691485Y-12363000D02*
X11661485Y-12393000D01*
X11751485Y-16163000D02*
X11781485Y-16193000D01*
X11781485Y-16163000D02*
X11751485Y-16193000D01*
X12136485Y-6663000D02*
X12166485Y-6693000D01*
X12166485Y-6663000D02*
X12136485Y-6693000D01*
X12146485Y-8563000D02*
X12176485Y-8593000D01*
X12176485Y-8563000D02*
X12146485Y-8593000D01*
X12691485Y-14263000D02*
X12721485Y-14293000D01*
X12721485Y-14263000D02*
X12691485Y-14293000D01*
X13116485Y-10463000D02*
X13146485Y-10493000D01*
X13146485Y-10463000D02*
X13116485Y-10493000D01*
X13616485Y-12363000D02*
X13646485Y-12393000D01*
X13646485Y-12363000D02*
X13616485Y-12393000D01*
X13616485Y-16163000D02*
X13646485Y-16193000D01*
X13646485Y-16163000D02*
X13616485Y-16193000D01*
X13676485Y-6424564D02*
X13706485Y-6454564D01*
X13706485Y-6424564D02*
X13676485Y-6454564D01*
X13755000Y-6875000D02*
X13785000Y-6905000D01*
X13785000Y-6875000D02*
X13755000Y-6905000D01*
X14031485Y-8563000D02*
X14061485Y-8593000D01*
X14061485Y-8563000D02*
X14031485Y-8593000D01*
X14571485Y-14263000D02*
X14601485Y-14293000D01*
X14601485Y-14263000D02*
X14571485Y-14293000D01*
X15046485Y-10463000D02*
X15076485Y-10493000D01*
X15076485Y-10463000D02*
X15046485Y-10493000D01*
X15385466Y-6723000D02*
X15415466Y-6753000D01*
X15415466Y-6723000D02*
X15385466Y-6753000D01*
X15396468Y-12234547D02*
X15426468Y-12264547D01*
X15426468Y-12234547D02*
X15396468Y-12264547D01*
X15725000Y-7415000D02*
X15755000Y-7445000D01*
X15755000Y-7415000D02*
X15725000Y-7445000D01*
X15848968Y-8432047D02*
X15878968Y-8462047D01*
X15878968Y-8432047D02*
X15848968Y-8462047D01*
X15881485Y-6663000D02*
X15911485Y-6693000D01*
X15911485Y-6663000D02*
X15881485Y-6693000D01*
X15966485Y-16163000D02*
X15996485Y-16193000D01*
X15996485Y-16163000D02*
X15966485Y-16193000D01*
X17048000Y-10565000D02*
X17078000Y-10595000D01*
X17078000Y-10565000D02*
X17048000Y-10595000D01*
X17426485Y-6663000D02*
X17456485Y-6693000D01*
X17456485Y-6663000D02*
X17426485Y-6693000D01*
X17605000Y-7780000D02*
X17635000Y-7810000D01*
X17635000Y-7780000D02*
X17605000Y-7810000D01*
X17618015Y-7858934D02*
X17648015Y-7888934D01*
X17648015Y-7858934D02*
X17618015Y-7888934D01*
X17738015Y-7840000D02*
X17768015Y-7870000D01*
X17768015Y-7840000D02*
X17738015Y-7870000D01*
X17831485Y-14263000D02*
X17861485Y-14293000D01*
X17861485Y-14263000D02*
X17831485Y-14293000D01*
X17836485Y-16163000D02*
X17866485Y-16193000D01*
X17866485Y-16163000D02*
X17836485Y-16193000D01*
X18671485Y-8219564D02*
X18701485Y-8249564D01*
X18701485Y-8219564D02*
X18671485Y-8249564D01*
X18801485Y-6609564D02*
X18831485Y-6639564D01*
X18831485Y-6609564D02*
X18801485Y-6639564D01*
X19006485Y-8114564D02*
X19036485Y-8144564D01*
X19036485Y-8114564D02*
X19006485Y-8144564D01*
X19166485Y-6679564D02*
X19196485Y-6709564D01*
X19196485Y-6679564D02*
X19166485Y-6709564D01*
X19298125Y-8343110D02*
X19328125Y-8373110D01*
X19328125Y-8343110D02*
X19298125Y-8373110D01*
X19356485Y-6424564D02*
X19386485Y-6454564D01*
X19386485Y-6424564D02*
X19356485Y-6454564D01*
X19451485Y-8149564D02*
X19481485Y-8179564D01*
X19481485Y-8149564D02*
X19451485Y-8179564D01*
X19541485Y-12144564D02*
X19571485Y-12174564D01*
X19571485Y-12144564D02*
X19541485Y-12174564D01*
X19544750Y-10237829D02*
X19574750Y-10267829D01*
X19574750Y-10237829D02*
X19544750Y-10267829D01*
X19568015Y-15969564D02*
X19598015Y-15999564D01*
X19598015Y-15969564D02*
X19568015Y-15999564D01*
X19596485Y-14004564D02*
X19626485Y-14034564D01*
X19626485Y-14004564D02*
X19596485Y-14034564D01*
X19956485Y-6989564D02*
X19986485Y-7019564D01*
X19986485Y-6989564D02*
X19956485Y-7019564D01*
X22056750Y-10288000D02*
X22086750Y-10318000D01*
X22086750Y-10288000D02*
X22056750Y-10318000D01*
X22061750Y-8378000D02*
X22091750Y-8408000D01*
X22091750Y-8378000D02*
X22061750Y-8408000D01*
X22061750Y-12198000D02*
X22091750Y-12228000D01*
X22091750Y-12198000D02*
X22061750Y-12228000D01*
X22061750Y-14113000D02*
X22091750Y-14143000D01*
X22091750Y-14113000D02*
X22061750Y-14143000D01*
X22061750Y-16018000D02*
X22091750Y-16048000D01*
X22091750Y-16018000D02*
X22061750Y-16048000D01*
X23811750Y-8388000D02*
X23841750Y-8418000D01*
X23841750Y-8388000D02*
X23811750Y-8418000D01*
X23861750Y-10288000D02*
X23891750Y-10318000D01*
X23891750Y-10288000D02*
X23861750Y-10318000D01*
X23861750Y-12198000D02*
X23891750Y-12228000D01*
X23891750Y-12198000D02*
X23861750Y-12228000D01*
X23861750Y-14113000D02*
X23891750Y-14143000D01*
X23891750Y-14113000D02*
X23861750Y-14143000D01*
X23861750Y-16018000D02*
X23891750Y-16048000D01*
X23891750Y-16018000D02*
X23861750Y-16048000D01*
X25546750Y-6613000D02*
X25576750Y-6643000D01*
X25576750Y-6613000D02*
X25546750Y-6643000D01*
X25670000Y-8841450D02*
X25700000Y-8871450D01*
X25700000Y-8841450D02*
X25670000Y-8871450D01*
X26216750Y-16018000D02*
X26246750Y-16048000D01*
X26246750Y-16018000D02*
X26216750Y-16048000D01*
X26711750Y-10288000D02*
X26741750Y-10318000D01*
X26741750Y-10288000D02*
X26711750Y-10318000D01*
X27166750Y-12198000D02*
X27196750Y-12228000D01*
X27196750Y-12198000D02*
X27166750Y-12228000D01*
X27501750Y-6613000D02*
X27531750Y-6643000D01*
X27531750Y-6613000D02*
X27501750Y-6643000D01*
X27661750Y-8378000D02*
X27691750Y-8408000D01*
X27691750Y-8378000D02*
X27661750Y-8408000D01*
X27826750Y-6613000D02*
X27856750Y-6643000D01*
X27856750Y-6613000D02*
X27826750Y-6643000D01*
X28111750Y-14108000D02*
X28141750Y-14138000D01*
X28141750Y-14108000D02*
X28111750Y-14138000D01*
X28611750Y-10288000D02*
X28641750Y-10318000D01*
X28641750Y-10288000D02*
X28611750Y-10318000D01*
X28611750Y-16018000D02*
X28641750Y-16048000D01*
X28641750Y-16018000D02*
X28611750Y-16048000D01*
X28926750Y-6613000D02*
X28956750Y-6643000D01*
X28956750Y-6613000D02*
X28926750Y-6643000D01*
X29061750Y-12198000D02*
X29091750Y-12228000D01*
X29091750Y-12198000D02*
X29061750Y-12228000D01*
X29561750Y-8378000D02*
X29591750Y-8408000D01*
X29591750Y-8378000D02*
X29561750Y-8408000D01*
X29726750Y-6613000D02*
X29756750Y-6643000D01*
X29756750Y-6613000D02*
X29726750Y-6643000D01*
X30016750Y-14108000D02*
X30046750Y-14138000D01*
X30046750Y-14108000D02*
X30016750Y-14138000D01*
X30511750Y-10288000D02*
X30541750Y-10318000D01*
X30541750Y-10288000D02*
X30511750Y-10318000D01*
X30626750Y-5443000D02*
X30656750Y-5473000D01*
X30656750Y-5443000D02*
X30626750Y-5473000D01*
X30961750Y-12198000D02*
X30991750Y-12228000D01*
X30991750Y-12198000D02*
X30961750Y-12228000D01*
X31101750Y-16018000D02*
X31131750Y-16048000D01*
X31131750Y-16018000D02*
X31101750Y-16048000D01*
X31461750Y-8378000D02*
X31491750Y-8408000D01*
X31491750Y-8378000D02*
X31461750Y-8408000D01*
X31961750Y-14108000D02*
X31991750Y-14138000D01*
X31991750Y-14108000D02*
X31961750Y-14138000D01*
X32411750Y-10288000D02*
X32441750Y-10318000D01*
X32441750Y-10288000D02*
X32411750Y-10318000D01*
X32911750Y-12198000D02*
X32941750Y-12228000D01*
X32941750Y-12198000D02*
X32911750Y-12228000D01*
X33236750Y-4478000D02*
X33266750Y-4508000D01*
X33266750Y-4478000D02*
X33236750Y-4508000D01*
X33275000Y-8870000D02*
X33305000Y-8900000D01*
X33305000Y-8870000D02*
X33275000Y-8900000D01*
X33856750Y-14108000D02*
X33886750Y-14138000D01*
X33886750Y-14108000D02*
X33856750Y-14138000D01*
X34311750Y-10288000D02*
X34341750Y-10318000D01*
X34341750Y-10288000D02*
X34311750Y-10318000D01*
X34531750Y-12028000D02*
X34561750Y-12058000D01*
X34561750Y-12028000D02*
X34531750Y-12058000D01*
X35081750Y-4626474D02*
X35111750Y-4656474D01*
X35111750Y-4626474D02*
X35081750Y-4656474D01*
X35261750Y-8378000D02*
X35291750Y-8408000D01*
X35291750Y-8378000D02*
X35261750Y-8408000D01*
X35636750Y-14173000D02*
X35666750Y-14203000D01*
X35666750Y-14173000D02*
X35636750Y-14203000D01*
X35851750Y-4778000D02*
X35881750Y-4808000D01*
X35881750Y-4778000D02*
X35851750Y-4808000D01*
X36266750Y-5298000D02*
X36296750Y-5328000D01*
X36296750Y-5298000D02*
X36266750Y-5328000D01*
X36546750Y-4803000D02*
X36576750Y-4833000D01*
X36576750Y-4803000D02*
X36546750Y-4833000D01*
X36676750Y-5298000D02*
X36706750Y-5328000D01*
X36706750Y-5298000D02*
X36676750Y-5328000D01*
X31271750Y-6638000D02*
G75*
G02*
X31231750Y-6638000I-20000J0D01*
G01*
X31231750Y-6638000D02*
G75*
G02*
X31271750Y-6638000I20000J0D01*
G01*
X31676750Y-6638000D02*
G75*
G02*
X31636750Y-6638000I-20000J0D01*
G01*
X31636750Y-6638000D02*
G75*
G02*
X31676750Y-6638000I20000J0D01*
G01*
X33181750Y-6638000D02*
G75*
G02*
X33141750Y-6638000I-20000J0D01*
G01*
X33141750Y-6638000D02*
G75*
G02*
X33181750Y-6638000I20000J0D01*
G01*
X34426750Y-6638000D02*
G75*
G02*
X34386750Y-6638000I-20000J0D01*
G01*
X34386750Y-6638000D02*
G75*
G02*
X34426750Y-6638000I20000J0D01*
G01*
X35071750Y-6648000D02*
G75*
G02*
X35031750Y-6648000I-20000J0D01*
G01*
X35031750Y-6648000D02*
G75*
G02*
X35071750Y-6648000I20000J0D01*
G01*
X4501015Y-4558000D02*
X4501015Y-4618000D01*
X4471015Y-4588000D02*
X4531015Y-4588000D01*
X4471015Y-4558000D02*
X4471015Y-4618000D01*
X4531015Y-4618000D02*
G75*
G02*
X4471015Y-4618000I-30000J0D01*
G01*
X4531015Y-4618000D02*
X4531015Y-4558000D01*
X4531015Y-4558000D02*
G75*
G03*
X4471015Y-4558000I-30000J0D01*
G01*
X4501015Y-4976000D02*
X4501015Y-5036000D01*
X4471015Y-5006000D02*
X4531015Y-5006000D01*
X4471015Y-4951000D02*
X4471015Y-5061000D01*
X4531015Y-5061000D02*
G75*
G02*
X4471015Y-5061000I-30000J0D01*
G01*
X4531015Y-5061000D02*
X4531015Y-4951000D01*
X4531015Y-4951000D02*
G75*
G03*
X4471015Y-4951000I-30000J0D01*
G01*
X5365015Y-4558000D02*
X5365015Y-4618000D01*
X5335015Y-4588000D02*
X5395015Y-4588000D01*
X5335015Y-4558000D02*
X5335015Y-4618000D01*
X5395015Y-4618000D02*
G75*
G02*
X5335015Y-4618000I-30000J0D01*
G01*
X5395015Y-4618000D02*
X5395015Y-4558000D01*
X5395015Y-4558000D02*
G75*
G03*
X5335015Y-4558000I-30000J0D01*
G01*
X5365015Y-4976000D02*
X5365015Y-5036000D01*
X5335015Y-5006000D02*
X5395015Y-5006000D01*
X5335015Y-4951000D02*
X5335015Y-5061000D01*
X5395015Y-5061000D02*
G75*
G02*
X5335015Y-5061000I-30000J0D01*
G01*
X5395015Y-5061000D02*
X5395015Y-4951000D01*
X5395015Y-4951000D02*
G75*
G03*
X5335015Y-4951000I-30000J0D01*
G01*
X36094750Y-4558000D02*
X36094750Y-4618000D01*
X36064750Y-4588000D02*
X36124750Y-4588000D01*
X36064750Y-4558000D02*
X36064750Y-4618000D01*
X36124750Y-4618000D02*
G75*
G02*
X36064750Y-4618000I-30000J0D01*
G01*
X36124750Y-4618000D02*
X36124750Y-4558000D01*
X36124750Y-4558000D02*
G75*
G03*
X36064750Y-4558000I-30000J0D01*
G01*
X36094750Y-4976000D02*
X36094750Y-5036000D01*
X36064750Y-5006000D02*
X36124750Y-5006000D01*
X36064750Y-4951000D02*
X36064750Y-5061000D01*
X36124750Y-5061000D02*
G75*
G02*
X36064750Y-5061000I-30000J0D01*
G01*
X36124750Y-5061000D02*
X36124750Y-4951000D01*
X36124750Y-4951000D02*
G75*
G03*
X36064750Y-4951000I-30000J0D01*
G01*
X36958750Y-4558000D02*
X36958750Y-4618000D01*
X36928750Y-4588000D02*
X36988750Y-4588000D01*
X36928750Y-4558000D02*
X36928750Y-4618000D01*
X36988750Y-4618000D02*
G75*
G02*
X36928750Y-4618000I-30000J0D01*
G01*
X36988750Y-4618000D02*
X36988750Y-4558000D01*
X36988750Y-4558000D02*
G75*
G03*
X36928750Y-4558000I-30000J0D01*
G01*
X36958750Y-4976000D02*
X36958750Y-5036000D01*
X36928750Y-5006000D02*
X36988750Y-5006000D01*
X36928750Y-4951000D02*
X36928750Y-5061000D01*
X36988750Y-5061000D02*
G75*
G02*
X36928750Y-5061000I-30000J0D01*
G01*
X36988750Y-5061000D02*
X36988750Y-4951000D01*
X36988750Y-4951000D02*
G75*
G03*
X36928750Y-4951000I-30000J0D01*
G01*
X5859770Y-5162849D02*
X5859770Y-5106280D01*
X5803201Y-5106280D01*
X5803201Y-5162849D01*
X5859770Y-5162849D01*
X6875770Y-5162849D02*
X6875770Y-5106280D01*
X6819201Y-5106280D01*
X6819201Y-5162849D01*
X6875770Y-5162849D01*
X7133770Y-5157849D02*
X7133770Y-5101280D01*
X7077201Y-5101280D01*
X7077201Y-5157849D01*
X7133770Y-5157849D01*
X8149770Y-5157849D02*
X8149770Y-5101280D01*
X8093201Y-5101280D01*
X8093201Y-5157849D01*
X8149770Y-5157849D01*
X33075034Y-5040285D02*
X33075034Y-4983716D01*
X33018465Y-4983716D01*
X33018465Y-5040285D01*
X33075034Y-5040285D01*
X33075034Y-6056284D02*
X33075034Y-5999715D01*
X33018465Y-5999715D01*
X33018465Y-6056284D01*
X33075034Y-6056284D01*
X33350034Y-5071285D02*
X33350034Y-5014716D01*
X33293465Y-5014716D01*
X33293465Y-5071285D01*
X33350034Y-5071285D01*
X34366035Y-5071285D02*
X34366035Y-5014716D01*
X34309466Y-5014716D01*
X34309466Y-5071285D01*
X34366035Y-5071285D01*
X4583015Y-5612000D02*
X4633015Y-5562000D01*
X4583015Y-5512000D01*
X4533015Y-5562000D01*
X4583015Y-5612000D01*
X4583015Y-5866000D02*
X4633015Y-5816000D01*
X4583015Y-5766000D01*
X4533015Y-5816000D01*
X4583015Y-5866000D01*
X4583015Y-6120000D02*
X4633015Y-6070000D01*
X4583015Y-6020000D01*
X4533015Y-6070000D01*
X4583015Y-6120000D01*
X4583015Y-6374000D02*
X4633015Y-6324000D01*
X4583015Y-6274000D01*
X4533015Y-6324000D01*
X4583015Y-6374000D01*
X8838765Y-4554000D02*
X8888765Y-4504000D01*
X8838765Y-4454000D01*
X8788765Y-4504000D01*
X8838765Y-4554000D01*
X8838765Y-6332000D02*
X8888765Y-6282000D01*
X8838765Y-6232000D01*
X8788765Y-6282000D01*
X8838765Y-6332000D01*
X9092765Y-4554000D02*
X9142765Y-4504000D01*
X9092765Y-4454000D01*
X9042765Y-4504000D01*
X9092765Y-4554000D01*
X9092765Y-6332000D02*
X9142765Y-6282000D01*
X9092765Y-6232000D01*
X9042765Y-6282000D01*
X9092765Y-6332000D01*
X9346765Y-4554000D02*
X9396765Y-4504000D01*
X9346765Y-4454000D01*
X9296765Y-4504000D01*
X9346765Y-4554000D01*
X9346765Y-6332000D02*
X9396765Y-6282000D01*
X9346765Y-6232000D01*
X9296765Y-6282000D01*
X9346765Y-6332000D01*
X9600765Y-4554000D02*
X9650765Y-4504000D01*
X9600765Y-4454000D01*
X9550765Y-4504000D01*
X9600765Y-4554000D01*
X9600765Y-6332000D02*
X9650765Y-6282000D01*
X9600765Y-6232000D01*
X9550765Y-6282000D01*
X9600765Y-6332000D01*
X9854765Y-4554000D02*
X9904765Y-4504000D01*
X9854765Y-4454000D01*
X9804765Y-4504000D01*
X9854765Y-4554000D01*
X9854765Y-6332000D02*
X9904765Y-6282000D01*
X9854765Y-6232000D01*
X9804765Y-6282000D01*
X9854765Y-6332000D01*
X10108765Y-4554000D02*
X10158765Y-4504000D01*
X10108765Y-4454000D01*
X10058765Y-4504000D01*
X10108765Y-4554000D01*
X10108765Y-6332000D02*
X10158765Y-6282000D01*
X10108765Y-6232000D01*
X10058765Y-6282000D01*
X10108765Y-6332000D01*
X10362765Y-4554000D02*
X10412765Y-4504000D01*
X10362765Y-4454000D01*
X10312765Y-4504000D01*
X10362765Y-4554000D01*
X10362765Y-6332000D02*
X10412765Y-6282000D01*
X10362765Y-6232000D01*
X10312765Y-6282000D01*
X10362765Y-6332000D01*
X10616765Y-4554000D02*
X10666765Y-4504000D01*
X10616765Y-4454000D01*
X10566765Y-4504000D01*
X10616765Y-4554000D01*
X10616765Y-6332000D02*
X10666765Y-6282000D01*
X10616765Y-6232000D01*
X10566765Y-6282000D01*
X10616765Y-6332000D01*
X10870765Y-4554000D02*
X10920765Y-4504000D01*
X10870765Y-4454000D01*
X10820765Y-4504000D01*
X10870765Y-4554000D01*
X10870765Y-6332000D02*
X10920765Y-6282000D01*
X10870765Y-6232000D01*
X10820765Y-6282000D01*
X10870765Y-6332000D01*
X11124765Y-4554000D02*
X11174765Y-4504000D01*
X11124765Y-4454000D01*
X11074765Y-4504000D01*
X11124765Y-4554000D01*
X11124765Y-6332000D02*
X11174765Y-6282000D01*
X11124765Y-6232000D01*
X11074765Y-6282000D01*
X11124765Y-6332000D01*
X11378765Y-4554000D02*
X11428765Y-4504000D01*
X11378765Y-4454000D01*
X11328765Y-4504000D01*
X11378765Y-4554000D01*
X11378765Y-6332000D02*
X11428765Y-6282000D01*
X11378765Y-6232000D01*
X11328765Y-6282000D01*
X11378765Y-6332000D01*
X11632765Y-4554000D02*
X11682765Y-4504000D01*
X11632765Y-4454000D01*
X11582765Y-4504000D01*
X11632765Y-4554000D01*
X11632765Y-6332000D02*
X11682765Y-6282000D01*
X11632765Y-6232000D01*
X11582765Y-6282000D01*
X11632765Y-6332000D01*
X11886765Y-4554000D02*
X11936765Y-4504000D01*
X11886765Y-4454000D01*
X11836765Y-4504000D01*
X11886765Y-4554000D01*
X11886765Y-6332000D02*
X11936765Y-6282000D01*
X11886765Y-6232000D01*
X11836765Y-6282000D01*
X11886765Y-6332000D01*
X12140765Y-4554000D02*
X12190765Y-4504000D01*
X12140765Y-4454000D01*
X12090765Y-4504000D01*
X12140765Y-4554000D01*
X12140765Y-6332000D02*
X12190765Y-6282000D01*
X12140765Y-6232000D01*
X12090765Y-6282000D01*
X12140765Y-6332000D01*
X12394765Y-4554000D02*
X12444765Y-4504000D01*
X12394765Y-4454000D01*
X12344765Y-4504000D01*
X12394765Y-4554000D01*
X12394765Y-6332000D02*
X12444765Y-6282000D01*
X12394765Y-6232000D01*
X12344765Y-6282000D01*
X12394765Y-6332000D01*
X12648765Y-4554000D02*
X12698765Y-4504000D01*
X12648765Y-4454000D01*
X12598765Y-4504000D01*
X12648765Y-4554000D01*
X12648765Y-6332000D02*
X12698765Y-6282000D01*
X12648765Y-6232000D01*
X12598765Y-6282000D01*
X12648765Y-6332000D01*
X12902765Y-4554000D02*
X12952765Y-4504000D01*
X12902765Y-4454000D01*
X12852765Y-4504000D01*
X12902765Y-4554000D01*
X12902765Y-6332000D02*
X12952765Y-6282000D01*
X12902765Y-6232000D01*
X12852765Y-6282000D01*
X12902765Y-6332000D01*
X13156765Y-4554000D02*
X13206765Y-4504000D01*
X13156765Y-4454000D01*
X13106765Y-4504000D01*
X13156765Y-4554000D01*
X13156765Y-6332000D02*
X13206765Y-6282000D01*
X13156765Y-6232000D01*
X13106765Y-6282000D01*
X13156765Y-6332000D01*
X13410765Y-4554000D02*
X13460765Y-4504000D01*
X13410765Y-4454000D01*
X13360765Y-4504000D01*
X13410765Y-4554000D01*
X13410765Y-6332000D02*
X13460765Y-6282000D01*
X13410765Y-6232000D01*
X13360765Y-6282000D01*
X13410765Y-6332000D01*
X13664765Y-4554000D02*
X13714765Y-4504000D01*
X13664765Y-4454000D01*
X13614765Y-4504000D01*
X13664765Y-4554000D01*
X13664765Y-6332000D02*
X13714765Y-6282000D01*
X13664765Y-6232000D01*
X13614765Y-6282000D01*
X13664765Y-6332000D01*
X19766015Y-7313000D02*
X19816015Y-7263000D01*
X19766015Y-7213000D01*
X19716015Y-7263000D01*
X19766015Y-7313000D01*
X19766015Y-7563000D02*
X19816015Y-7513000D01*
X19766015Y-7463000D01*
X19716015Y-7513000D01*
X19766015Y-7563000D01*
X19766015Y-7813000D02*
X19816015Y-7763000D01*
X19766015Y-7713000D01*
X19716015Y-7763000D01*
X19766015Y-7813000D01*
X21216015Y-7313000D02*
X21266015Y-7263000D01*
X21216015Y-7213000D01*
X21166015Y-7263000D01*
X21216015Y-7313000D01*
X21216015Y-7813000D02*
X21266015Y-7763000D01*
X21216015Y-7713000D01*
X21166015Y-7763000D01*
X21216015Y-7813000D01*
X22167250Y-7313000D02*
X22217250Y-7263000D01*
X22167250Y-7213000D01*
X22117250Y-7263000D01*
X22167250Y-7313000D01*
X22167250Y-7563000D02*
X22217250Y-7513000D01*
X22167250Y-7463000D01*
X22117250Y-7513000D01*
X22167250Y-7563000D01*
X22167250Y-7813000D02*
X22217250Y-7763000D01*
X22167250Y-7713000D01*
X22117250Y-7763000D01*
X22167250Y-7813000D01*
X23617250Y-7313000D02*
X23667250Y-7263000D01*
X23617250Y-7213000D01*
X23567250Y-7263000D01*
X23617250Y-7313000D01*
X23617250Y-7813000D02*
X23667250Y-7763000D01*
X23617250Y-7713000D01*
X23567250Y-7763000D01*
X23617250Y-7813000D01*
X27818750Y-4543000D02*
X27868750Y-4493000D01*
X27818750Y-4443000D01*
X27768750Y-4493000D01*
X27818750Y-4543000D01*
X27818750Y-6321000D02*
X27868750Y-6271000D01*
X27818750Y-6221000D01*
X27768750Y-6271000D01*
X27818750Y-6321000D01*
X28072750Y-4543000D02*
X28122750Y-4493000D01*
X28072750Y-4443000D01*
X28022750Y-4493000D01*
X28072750Y-4543000D01*
X28072750Y-6321000D02*
X28122750Y-6271000D01*
X28072750Y-6221000D01*
X28022750Y-6271000D01*
X28072750Y-6321000D01*
X28326750Y-4543000D02*
X28376750Y-4493000D01*
X28326750Y-4443000D01*
X28276750Y-4493000D01*
X28326750Y-4543000D01*
X28326750Y-6321000D02*
X28376750Y-6271000D01*
X28326750Y-6221000D01*
X28276750Y-6271000D01*
X28326750Y-6321000D01*
X28580750Y-4543000D02*
X28630750Y-4493000D01*
X28580750Y-4443000D01*
X28530750Y-4493000D01*
X28580750Y-4543000D01*
X28580750Y-6321000D02*
X28630750Y-6271000D01*
X28580750Y-6221000D01*
X28530750Y-6271000D01*
X28580750Y-6321000D01*
X28834750Y-4543000D02*
X28884750Y-4493000D01*
X28834750Y-4443000D01*
X28784750Y-4493000D01*
X28834750Y-4543000D01*
X28834750Y-6321000D02*
X28884750Y-6271000D01*
X28834750Y-6221000D01*
X28784750Y-6271000D01*
X28834750Y-6321000D01*
X29088750Y-4543000D02*
X29138750Y-4493000D01*
X29088750Y-4443000D01*
X29038750Y-4493000D01*
X29088750Y-4543000D01*
X29088750Y-6321000D02*
X29138750Y-6271000D01*
X29088750Y-6221000D01*
X29038750Y-6271000D01*
X29088750Y-6321000D01*
X29342750Y-4543000D02*
X29392750Y-4493000D01*
X29342750Y-4443000D01*
X29292750Y-4493000D01*
X29342750Y-4543000D01*
X29342750Y-6321000D02*
X29392750Y-6271000D01*
X29342750Y-6221000D01*
X29292750Y-6271000D01*
X29342750Y-6321000D01*
X29596750Y-4543000D02*
X29646750Y-4493000D01*
X29596750Y-4443000D01*
X29546750Y-4493000D01*
X29596750Y-4543000D01*
X29596750Y-6321000D02*
X29646750Y-6271000D01*
X29596750Y-6221000D01*
X29546750Y-6271000D01*
X29596750Y-6321000D01*
X29850750Y-4543000D02*
X29900750Y-4493000D01*
X29850750Y-4443000D01*
X29800750Y-4493000D01*
X29850750Y-4543000D01*
X29850750Y-6321000D02*
X29900750Y-6271000D01*
X29850750Y-6221000D01*
X29800750Y-6271000D01*
X29850750Y-6321000D01*
X30104750Y-4543000D02*
X30154750Y-4493000D01*
X30104750Y-4443000D01*
X30054750Y-4493000D01*
X30104750Y-4543000D01*
X30104750Y-6321000D02*
X30154750Y-6271000D01*
X30104750Y-6221000D01*
X30054750Y-6271000D01*
X30104750Y-6321000D01*
X30358750Y-4543000D02*
X30408750Y-4493000D01*
X30358750Y-4443000D01*
X30308750Y-4493000D01*
X30358750Y-4543000D01*
X30358750Y-6321000D02*
X30408750Y-6271000D01*
X30358750Y-6221000D01*
X30308750Y-6271000D01*
X30358750Y-6321000D01*
X30612750Y-4543000D02*
X30662750Y-4493000D01*
X30612750Y-4443000D01*
X30562750Y-4493000D01*
X30612750Y-4543000D01*
X30612750Y-6321000D02*
X30662750Y-6271000D01*
X30612750Y-6221000D01*
X30562750Y-6271000D01*
X30612750Y-6321000D01*
X30866750Y-4543000D02*
X30916750Y-4493000D01*
X30866750Y-4443000D01*
X30816750Y-4493000D01*
X30866750Y-4543000D01*
X30866750Y-6321000D02*
X30916750Y-6271000D01*
X30866750Y-6221000D01*
X30816750Y-6271000D01*
X30866750Y-6321000D01*
X31120750Y-4543000D02*
X31170750Y-4493000D01*
X31120750Y-4443000D01*
X31070750Y-4493000D01*
X31120750Y-4543000D01*
X31120750Y-6321000D02*
X31170750Y-6271000D01*
X31120750Y-6221000D01*
X31070750Y-6271000D01*
X31120750Y-6321000D01*
X31374750Y-4543000D02*
X31424750Y-4493000D01*
X31374750Y-4443000D01*
X31324750Y-4493000D01*
X31374750Y-4543000D01*
X31374750Y-6321000D02*
X31424750Y-6271000D01*
X31374750Y-6221000D01*
X31324750Y-6271000D01*
X31374750Y-6321000D01*
X31628750Y-4543000D02*
X31678750Y-4493000D01*
X31628750Y-4443000D01*
X31578750Y-4493000D01*
X31628750Y-4543000D01*
X31628750Y-6321000D02*
X31678750Y-6271000D01*
X31628750Y-6221000D01*
X31578750Y-6271000D01*
X31628750Y-6321000D01*
X31882750Y-4543000D02*
X31932750Y-4493000D01*
X31882750Y-4443000D01*
X31832750Y-4493000D01*
X31882750Y-4543000D01*
X31882750Y-6321000D02*
X31932750Y-6271000D01*
X31882750Y-6221000D01*
X31832750Y-6271000D01*
X31882750Y-6321000D01*
X32136750Y-4543000D02*
X32186750Y-4493000D01*
X32136750Y-4443000D01*
X32086750Y-4493000D01*
X32136750Y-4543000D01*
X32136750Y-6321000D02*
X32186750Y-6271000D01*
X32136750Y-6221000D01*
X32086750Y-6271000D01*
X32136750Y-6321000D01*
X32390750Y-4543000D02*
X32440750Y-4493000D01*
X32390750Y-4443000D01*
X32340750Y-4493000D01*
X32390750Y-4543000D01*
X32390750Y-6321000D02*
X32440750Y-6271000D01*
X32390750Y-6221000D01*
X32340750Y-6271000D01*
X32390750Y-6321000D01*
X32644750Y-4543000D02*
X32694750Y-4493000D01*
X32644750Y-4443000D01*
X32594750Y-4493000D01*
X32644750Y-4543000D01*
X32644750Y-6321000D02*
X32694750Y-6271000D01*
X32644750Y-6221000D01*
X32594750Y-6271000D01*
X32644750Y-6321000D01*
X33376750Y-5562000D02*
X33426750Y-5512000D01*
X33376750Y-5462000D01*
X33326750Y-5512000D01*
X33376750Y-5562000D01*
X33376750Y-5816000D02*
X33426750Y-5766000D01*
X33376750Y-5716000D01*
X33326750Y-5766000D01*
X33376750Y-5816000D01*
X33376750Y-6070000D02*
X33426750Y-6020000D01*
X33376750Y-5970000D01*
X33326750Y-6020000D01*
X33376750Y-6070000D01*
X33376750Y-6324000D02*
X33426750Y-6274000D01*
X33376750Y-6224000D01*
X33326750Y-6274000D01*
X33376750Y-6324000D01*
D13*
X20441015Y-6878000D02*
X20591015Y-7028000D01*
X20591015Y-6878000D02*
X20441015Y-7028000D01*
X20591015Y-6953000D02*
G75*
G02*
X20441015Y-6953000I-75000J0D01*
G01*
X20441015Y-6953000D02*
G75*
G02*
X20591015Y-6953000I75000J0D01*
G01*
D12*
X20451015Y-7028000D02*
X20581015Y-7028000D01*
X20581015Y-6878000D02*
G75*
G02*
X20581015Y-7028000I0J-75000D01*
G01*
X20581015Y-6878000D02*
X20451015Y-6878000D01*
X20451015Y-6878000D02*
G75*
G03*
X20451015Y-7028000I0J-75000D01*
G01*
D13*
X20441015Y-7998000D02*
X20591015Y-8148000D01*
X20591015Y-7998000D02*
X20441015Y-8148000D01*
X20591015Y-8073000D02*
G75*
G02*
X20441015Y-8073000I-75000J0D01*
G01*
X20441015Y-8073000D02*
G75*
G02*
X20591015Y-8073000I75000J0D01*
G01*
D12*
X20451015Y-8148000D02*
X20581015Y-8148000D01*
X20581015Y-7998000D02*
G75*
G02*
X20581015Y-8148000I0J-75000D01*
G01*
X20581015Y-7998000D02*
X20451015Y-7998000D01*
X20451015Y-7998000D02*
G75*
G03*
X20451015Y-8148000I0J-75000D01*
G01*
D13*
X22842250Y-6878000D02*
X22992250Y-7028000D01*
X22992250Y-6878000D02*
X22842250Y-7028000D01*
X22992250Y-6953000D02*
G75*
G02*
X22842250Y-6953000I-75000J0D01*
G01*
X22842250Y-6953000D02*
G75*
G02*
X22992250Y-6953000I75000J0D01*
G01*
D12*
X22852250Y-7028000D02*
X22982250Y-7028000D01*
X22982250Y-6878000D02*
G75*
G02*
X22982250Y-7028000I0J-75000D01*
G01*
X22982250Y-6878000D02*
X22852250Y-6878000D01*
X22852250Y-6878000D02*
G75*
G03*
X22852250Y-7028000I0J-75000D01*
G01*
D13*
X22842250Y-7998000D02*
X22992250Y-8148000D01*
X22992250Y-7998000D02*
X22842250Y-8148000D01*
X22992250Y-8073000D02*
G75*
G02*
X22842250Y-8073000I-75000J0D01*
G01*
X22842250Y-8073000D02*
G75*
G02*
X22992250Y-8073000I75000J0D01*
G01*
D12*
X22852250Y-8148000D02*
X22982250Y-8148000D01*
X22982250Y-7998000D02*
G75*
G02*
X22982250Y-8148000I0J-75000D01*
G01*
X22982250Y-7998000D02*
X22852250Y-7998000D01*
X22852250Y-7998000D02*
G75*
G03*
X22852250Y-8148000I0J-75000D01*
G01*
D11*
X2648912Y-18556986D02*
X2648912Y-18356986D01*
X2648912Y-18356986D02*
X2696531Y-18356986D01*
X2696531Y-18356986D02*
X2725103Y-18366509D01*
X2725103Y-18366509D02*
X2744150Y-18385557D01*
X2744150Y-18385557D02*
X2753674Y-18404605D01*
X2753674Y-18404605D02*
X2763198Y-18442700D01*
X2763198Y-18442700D02*
X2763198Y-18471271D01*
X2763198Y-18471271D02*
X2753674Y-18509367D01*
X2753674Y-18509367D02*
X2744150Y-18528414D01*
X2744150Y-18528414D02*
X2725103Y-18547462D01*
X2725103Y-18547462D02*
X2696531Y-18556986D01*
X2696531Y-18556986D02*
X2648912Y-18556986D01*
X2848912Y-18556986D02*
X2848912Y-18423652D01*
X2848912Y-18461748D02*
X2858436Y-18442700D01*
X2858436Y-18442700D02*
X2867960Y-18433176D01*
X2867960Y-18433176D02*
X2887007Y-18423652D01*
X2887007Y-18423652D02*
X2906055Y-18423652D01*
X2972722Y-18556986D02*
X2972722Y-18423652D01*
X2972722Y-18356986D02*
X2963198Y-18366509D01*
X2963198Y-18366509D02*
X2972722Y-18376033D01*
X2972722Y-18376033D02*
X2982245Y-18366509D01*
X2982245Y-18366509D02*
X2972722Y-18356986D01*
X2972722Y-18356986D02*
X2972722Y-18376033D01*
X3096531Y-18556986D02*
X3077483Y-18547462D01*
X3077483Y-18547462D02*
X3067960Y-18528414D01*
X3067960Y-18528414D02*
X3067960Y-18356986D01*
X3201293Y-18556986D02*
X3182245Y-18547462D01*
X3182245Y-18547462D02*
X3172722Y-18528414D01*
X3172722Y-18528414D02*
X3172722Y-18356986D01*
X3429864Y-18556986D02*
X3429864Y-18356986D01*
X3429864Y-18356986D02*
X3496531Y-18499843D01*
X3496531Y-18499843D02*
X3563198Y-18356986D01*
X3563198Y-18356986D02*
X3563198Y-18556986D01*
X3744150Y-18556986D02*
X3744150Y-18452224D01*
X3744150Y-18452224D02*
X3734626Y-18433176D01*
X3734626Y-18433176D02*
X3715579Y-18423652D01*
X3715579Y-18423652D02*
X3677483Y-18423652D01*
X3677483Y-18423652D02*
X3658436Y-18433176D01*
X3744150Y-18547462D02*
X3725103Y-18556986D01*
X3725103Y-18556986D02*
X3677483Y-18556986D01*
X3677483Y-18556986D02*
X3658436Y-18547462D01*
X3658436Y-18547462D02*
X3648912Y-18528414D01*
X3648912Y-18528414D02*
X3648912Y-18509367D01*
X3648912Y-18509367D02*
X3658436Y-18490319D01*
X3658436Y-18490319D02*
X3677483Y-18480795D01*
X3677483Y-18480795D02*
X3725103Y-18480795D01*
X3725103Y-18480795D02*
X3744150Y-18471271D01*
X3839388Y-18423652D02*
X3839388Y-18623652D01*
X3839388Y-18433176D02*
X3858436Y-18423652D01*
X3858436Y-18423652D02*
X3896531Y-18423652D01*
X3896531Y-18423652D02*
X3915579Y-18433176D01*
X3915579Y-18433176D02*
X3925103Y-18442700D01*
X3925103Y-18442700D02*
X3934626Y-18461748D01*
X3934626Y-18461748D02*
X3934626Y-18518890D01*
X3934626Y-18518890D02*
X3925103Y-18537938D01*
X3925103Y-18537938D02*
X3915579Y-18547462D01*
X3915579Y-18547462D02*
X3896531Y-18556986D01*
X3896531Y-18556986D02*
X3858436Y-18556986D01*
X3858436Y-18556986D02*
X3839388Y-18547462D01*
X4020341Y-18537938D02*
X4029864Y-18547462D01*
X4029864Y-18547462D02*
X4020341Y-18556986D01*
X4020341Y-18556986D02*
X4010817Y-18547462D01*
X4010817Y-18547462D02*
X4020341Y-18537938D01*
X4020341Y-18537938D02*
X4020341Y-18556986D01*
X4020341Y-18433176D02*
X4029864Y-18442700D01*
X4029864Y-18442700D02*
X4020341Y-18452224D01*
X4020341Y-18452224D02*
X4010817Y-18442700D01*
X4010817Y-18442700D02*
X4020341Y-18433176D01*
X4020341Y-18433176D02*
X4020341Y-18452224D01*
D12*
X2358135Y-18870502D02*
X2388135Y-18900502D01*
X2388135Y-18870502D02*
X2358135Y-18900502D01*
D11*
X2687007Y-18776986D02*
X2706055Y-18776986D01*
X2706055Y-18776986D02*
X2725103Y-18786509D01*
X2725103Y-18786509D02*
X2734626Y-18796033D01*
X2734626Y-18796033D02*
X2744150Y-18815081D01*
X2744150Y-18815081D02*
X2753674Y-18853176D01*
X2753674Y-18853176D02*
X2753674Y-18900795D01*
X2753674Y-18900795D02*
X2744150Y-18938890D01*
X2744150Y-18938890D02*
X2734626Y-18957938D01*
X2734626Y-18957938D02*
X2725103Y-18967462D01*
X2725103Y-18967462D02*
X2706055Y-18976986D01*
X2706055Y-18976986D02*
X2687007Y-18976986D01*
X2687007Y-18976986D02*
X2667960Y-18967462D01*
X2667960Y-18967462D02*
X2658436Y-18957938D01*
X2658436Y-18957938D02*
X2648912Y-18938890D01*
X2648912Y-18938890D02*
X2639388Y-18900795D01*
X2639388Y-18900795D02*
X2639388Y-18853176D01*
X2639388Y-18853176D02*
X2648912Y-18815081D01*
X2648912Y-18815081D02*
X2658436Y-18796033D01*
X2658436Y-18796033D02*
X2667960Y-18786509D01*
X2667960Y-18786509D02*
X2687007Y-18776986D01*
X2839388Y-18957938D02*
X2848912Y-18967462D01*
X2848912Y-18967462D02*
X2839388Y-18976986D01*
X2839388Y-18976986D02*
X2829864Y-18967462D01*
X2829864Y-18967462D02*
X2839388Y-18957938D01*
X2839388Y-18957938D02*
X2839388Y-18976986D01*
X2915579Y-18776986D02*
X3039388Y-18776986D01*
X3039388Y-18776986D02*
X2972722Y-18853176D01*
X2972722Y-18853176D02*
X3001293Y-18853176D01*
X3001293Y-18853176D02*
X3020341Y-18862700D01*
X3020341Y-18862700D02*
X3029864Y-18872224D01*
X3029864Y-18872224D02*
X3039388Y-18891271D01*
X3039388Y-18891271D02*
X3039388Y-18938890D01*
X3039388Y-18938890D02*
X3029864Y-18957938D01*
X3029864Y-18957938D02*
X3020341Y-18967462D01*
X3020341Y-18967462D02*
X3001293Y-18976986D01*
X3001293Y-18976986D02*
X2944150Y-18976986D01*
X2944150Y-18976986D02*
X2925103Y-18967462D01*
X2925103Y-18967462D02*
X2915579Y-18957938D01*
X3163198Y-18776986D02*
X3182245Y-18776986D01*
X3182245Y-18776986D02*
X3201293Y-18786509D01*
X3201293Y-18786509D02*
X3210817Y-18796033D01*
X3210817Y-18796033D02*
X3220341Y-18815081D01*
X3220341Y-18815081D02*
X3229864Y-18853176D01*
X3229864Y-18853176D02*
X3229864Y-18900795D01*
X3229864Y-18900795D02*
X3220341Y-18938890D01*
X3220341Y-18938890D02*
X3210817Y-18957938D01*
X3210817Y-18957938D02*
X3201293Y-18967462D01*
X3201293Y-18967462D02*
X3182245Y-18976986D01*
X3182245Y-18976986D02*
X3163198Y-18976986D01*
X3163198Y-18976986D02*
X3144150Y-18967462D01*
X3144150Y-18967462D02*
X3134626Y-18957938D01*
X3134626Y-18957938D02*
X3125103Y-18938890D01*
X3125103Y-18938890D02*
X3115579Y-18900795D01*
X3115579Y-18900795D02*
X3115579Y-18853176D01*
X3115579Y-18853176D02*
X3125103Y-18815081D01*
X3125103Y-18815081D02*
X3134626Y-18796033D01*
X3134626Y-18796033D02*
X3144150Y-18786509D01*
X3144150Y-18786509D02*
X3163198Y-18776986D01*
X3353674Y-18776986D02*
X3372722Y-18776986D01*
X3372722Y-18776986D02*
X3391769Y-18786509D01*
X3391769Y-18786509D02*
X3401293Y-18796033D01*
X3401293Y-18796033D02*
X3410817Y-18815081D01*
X3410817Y-18815081D02*
X3420341Y-18853176D01*
X3420341Y-18853176D02*
X3420341Y-18900795D01*
X3420341Y-18900795D02*
X3410817Y-18938890D01*
X3410817Y-18938890D02*
X3401293Y-18957938D01*
X3401293Y-18957938D02*
X3391769Y-18967462D01*
X3391769Y-18967462D02*
X3372722Y-18976986D01*
X3372722Y-18976986D02*
X3353674Y-18976986D01*
X3353674Y-18976986D02*
X3334626Y-18967462D01*
X3334626Y-18967462D02*
X3325103Y-18957938D01*
X3325103Y-18957938D02*
X3315579Y-18938890D01*
X3315579Y-18938890D02*
X3306055Y-18900795D01*
X3306055Y-18900795D02*
X3306055Y-18853176D01*
X3306055Y-18853176D02*
X3315579Y-18815081D01*
X3315579Y-18815081D02*
X3325103Y-18796033D01*
X3325103Y-18796033D02*
X3334626Y-18786509D01*
X3334626Y-18786509D02*
X3353674Y-18776986D01*
X3506055Y-18976986D02*
X3506055Y-18843652D01*
X3506055Y-18862700D02*
X3515579Y-18853176D01*
X3515579Y-18853176D02*
X3534626Y-18843652D01*
X3534626Y-18843652D02*
X3563198Y-18843652D01*
X3563198Y-18843652D02*
X3582245Y-18853176D01*
X3582245Y-18853176D02*
X3591769Y-18872224D01*
X3591769Y-18872224D02*
X3591769Y-18976986D01*
X3591769Y-18872224D02*
X3601293Y-18853176D01*
X3601293Y-18853176D02*
X3620341Y-18843652D01*
X3620341Y-18843652D02*
X3648912Y-18843652D01*
X3648912Y-18843652D02*
X3667960Y-18853176D01*
X3667960Y-18853176D02*
X3677484Y-18872224D01*
X3677484Y-18872224D02*
X3677484Y-18976986D01*
X3772722Y-18976986D02*
X3772722Y-18843652D01*
X3772722Y-18862700D02*
X3782245Y-18853176D01*
X3782245Y-18853176D02*
X3801293Y-18843652D01*
X3801293Y-18843652D02*
X3829865Y-18843652D01*
X3829865Y-18843652D02*
X3848912Y-18853176D01*
X3848912Y-18853176D02*
X3858436Y-18872224D01*
X3858436Y-18872224D02*
X3858436Y-18976986D01*
X3858436Y-18872224D02*
X3867960Y-18853176D01*
X3867960Y-18853176D02*
X3887007Y-18843652D01*
X3887007Y-18843652D02*
X3915579Y-18843652D01*
X3915579Y-18843652D02*
X3934626Y-18853176D01*
X3934626Y-18853176D02*
X3944150Y-18872224D01*
X3944150Y-18872224D02*
X3944150Y-18976986D01*
X4334627Y-18767462D02*
X4163198Y-19024605D01*
X4591769Y-18776986D02*
X4610817Y-18776986D01*
X4610817Y-18776986D02*
X4629865Y-18786509D01*
X4629865Y-18786509D02*
X4639389Y-18796033D01*
X4639389Y-18796033D02*
X4648912Y-18815081D01*
X4648912Y-18815081D02*
X4658436Y-18853176D01*
X4658436Y-18853176D02*
X4658436Y-18900795D01*
X4658436Y-18900795D02*
X4648912Y-18938890D01*
X4648912Y-18938890D02*
X4639389Y-18957938D01*
X4639389Y-18957938D02*
X4629865Y-18967462D01*
X4629865Y-18967462D02*
X4610817Y-18976986D01*
X4610817Y-18976986D02*
X4591769Y-18976986D01*
X4591769Y-18976986D02*
X4572722Y-18967462D01*
X4572722Y-18967462D02*
X4563198Y-18957938D01*
X4563198Y-18957938D02*
X4553674Y-18938890D01*
X4553674Y-18938890D02*
X4544150Y-18900795D01*
X4544150Y-18900795D02*
X4544150Y-18853176D01*
X4544150Y-18853176D02*
X4553674Y-18815081D01*
X4553674Y-18815081D02*
X4563198Y-18796033D01*
X4563198Y-18796033D02*
X4572722Y-18786509D01*
X4572722Y-18786509D02*
X4591769Y-18776986D01*
X4744150Y-18957938D02*
X4753674Y-18967462D01*
X4753674Y-18967462D02*
X4744150Y-18976986D01*
X4744150Y-18976986D02*
X4734627Y-18967462D01*
X4734627Y-18967462D02*
X4744150Y-18957938D01*
X4744150Y-18957938D02*
X4744150Y-18976986D01*
X4877484Y-18776986D02*
X4896531Y-18776986D01*
X4896531Y-18776986D02*
X4915579Y-18786509D01*
X4915579Y-18786509D02*
X4925103Y-18796033D01*
X4925103Y-18796033D02*
X4934627Y-18815081D01*
X4934627Y-18815081D02*
X4944150Y-18853176D01*
X4944150Y-18853176D02*
X4944150Y-18900795D01*
X4944150Y-18900795D02*
X4934627Y-18938890D01*
X4934627Y-18938890D02*
X4925103Y-18957938D01*
X4925103Y-18957938D02*
X4915579Y-18967462D01*
X4915579Y-18967462D02*
X4896531Y-18976986D01*
X4896531Y-18976986D02*
X4877484Y-18976986D01*
X4877484Y-18976986D02*
X4858436Y-18967462D01*
X4858436Y-18967462D02*
X4848912Y-18957938D01*
X4848912Y-18957938D02*
X4839389Y-18938890D01*
X4839389Y-18938890D02*
X4829865Y-18900795D01*
X4829865Y-18900795D02*
X4829865Y-18853176D01*
X4829865Y-18853176D02*
X4839389Y-18815081D01*
X4839389Y-18815081D02*
X4848912Y-18796033D01*
X4848912Y-18796033D02*
X4858436Y-18786509D01*
X4858436Y-18786509D02*
X4877484Y-18776986D01*
X5134627Y-18976986D02*
X5020341Y-18976986D01*
X5077484Y-18976986D02*
X5077484Y-18776986D01*
X5077484Y-18776986D02*
X5058436Y-18805557D01*
X5058436Y-18805557D02*
X5039389Y-18824605D01*
X5039389Y-18824605D02*
X5020341Y-18834128D01*
X5325103Y-18976986D02*
X5210817Y-18976986D01*
X5267960Y-18976986D02*
X5267960Y-18776986D01*
X5267960Y-18776986D02*
X5248912Y-18805557D01*
X5248912Y-18805557D02*
X5229865Y-18824605D01*
X5229865Y-18824605D02*
X5210817Y-18834128D01*
X5439389Y-18862700D02*
X5420341Y-18853176D01*
X5420341Y-18853176D02*
X5410817Y-18843652D01*
X5410817Y-18843652D02*
X5401293Y-18824605D01*
X5401293Y-18824605D02*
X5401293Y-18815081D01*
X5401293Y-18815081D02*
X5410817Y-18796033D01*
X5410817Y-18796033D02*
X5420341Y-18786509D01*
X5420341Y-18786509D02*
X5439389Y-18776986D01*
X5439389Y-18776986D02*
X5477484Y-18776986D01*
X5477484Y-18776986D02*
X5496531Y-18786509D01*
X5496531Y-18786509D02*
X5506055Y-18796033D01*
X5506055Y-18796033D02*
X5515579Y-18815081D01*
X5515579Y-18815081D02*
X5515579Y-18824605D01*
X5515579Y-18824605D02*
X5506055Y-18843652D01*
X5506055Y-18843652D02*
X5496531Y-18853176D01*
X5496531Y-18853176D02*
X5477484Y-18862700D01*
X5477484Y-18862700D02*
X5439389Y-18862700D01*
X5439389Y-18862700D02*
X5420341Y-18872224D01*
X5420341Y-18872224D02*
X5410817Y-18881748D01*
X5410817Y-18881748D02*
X5401293Y-18900795D01*
X5401293Y-18900795D02*
X5401293Y-18938890D01*
X5401293Y-18938890D02*
X5410817Y-18957938D01*
X5410817Y-18957938D02*
X5420341Y-18967462D01*
X5420341Y-18967462D02*
X5439389Y-18976986D01*
X5439389Y-18976986D02*
X5477484Y-18976986D01*
X5477484Y-18976986D02*
X5496531Y-18967462D01*
X5496531Y-18967462D02*
X5506055Y-18957938D01*
X5506055Y-18957938D02*
X5515579Y-18938890D01*
X5515579Y-18938890D02*
X5515579Y-18900795D01*
X5515579Y-18900795D02*
X5506055Y-18881748D01*
X5506055Y-18881748D02*
X5496531Y-18872224D01*
X5496531Y-18872224D02*
X5477484Y-18862700D01*
X5591770Y-18776986D02*
X5591770Y-18815081D01*
X5667960Y-18776986D02*
X5667960Y-18815081D01*
X5963198Y-19053176D02*
X5953674Y-19043652D01*
X5953674Y-19043652D02*
X5934627Y-19015081D01*
X5934627Y-19015081D02*
X5925103Y-18996033D01*
X5925103Y-18996033D02*
X5915579Y-18967462D01*
X5915579Y-18967462D02*
X5906055Y-18919843D01*
X5906055Y-18919843D02*
X5906055Y-18881748D01*
X5906055Y-18881748D02*
X5915579Y-18834128D01*
X5915579Y-18834128D02*
X5925103Y-18805557D01*
X5925103Y-18805557D02*
X5934627Y-18786509D01*
X5934627Y-18786509D02*
X5953674Y-18757938D01*
X5953674Y-18757938D02*
X5963198Y-18748414D01*
X6144150Y-18976986D02*
X6029865Y-18976986D01*
X6087008Y-18976986D02*
X6087008Y-18776986D01*
X6087008Y-18776986D02*
X6067960Y-18805557D01*
X6067960Y-18805557D02*
X6048912Y-18824605D01*
X6048912Y-18824605D02*
X6029865Y-18834128D01*
X6220341Y-18796033D02*
X6229865Y-18786509D01*
X6229865Y-18786509D02*
X6248912Y-18776986D01*
X6248912Y-18776986D02*
X6296531Y-18776986D01*
X6296531Y-18776986D02*
X6315579Y-18786509D01*
X6315579Y-18786509D02*
X6325103Y-18796033D01*
X6325103Y-18796033D02*
X6334627Y-18815081D01*
X6334627Y-18815081D02*
X6334627Y-18834128D01*
X6334627Y-18834128D02*
X6325103Y-18862700D01*
X6325103Y-18862700D02*
X6210817Y-18976986D01*
X6210817Y-18976986D02*
X6334627Y-18976986D01*
X6458436Y-18776986D02*
X6477484Y-18776986D01*
X6477484Y-18776986D02*
X6496531Y-18786509D01*
X6496531Y-18786509D02*
X6506055Y-18796033D01*
X6506055Y-18796033D02*
X6515579Y-18815081D01*
X6515579Y-18815081D02*
X6525103Y-18853176D01*
X6525103Y-18853176D02*
X6525103Y-18900795D01*
X6525103Y-18900795D02*
X6515579Y-18938890D01*
X6515579Y-18938890D02*
X6506055Y-18957938D01*
X6506055Y-18957938D02*
X6496531Y-18967462D01*
X6496531Y-18967462D02*
X6477484Y-18976986D01*
X6477484Y-18976986D02*
X6458436Y-18976986D01*
X6458436Y-18976986D02*
X6439389Y-18967462D01*
X6439389Y-18967462D02*
X6429865Y-18957938D01*
X6429865Y-18957938D02*
X6420341Y-18938890D01*
X6420341Y-18938890D02*
X6410817Y-18900795D01*
X6410817Y-18900795D02*
X6410817Y-18853176D01*
X6410817Y-18853176D02*
X6420341Y-18815081D01*
X6420341Y-18815081D02*
X6429865Y-18796033D01*
X6429865Y-18796033D02*
X6439389Y-18786509D01*
X6439389Y-18786509D02*
X6458436Y-18776986D01*
X6763198Y-18976986D02*
X6763198Y-18776986D01*
X6848912Y-18976986D02*
X6848912Y-18872224D01*
X6848912Y-18872224D02*
X6839389Y-18853176D01*
X6839389Y-18853176D02*
X6820341Y-18843652D01*
X6820341Y-18843652D02*
X6791770Y-18843652D01*
X6791770Y-18843652D02*
X6772722Y-18853176D01*
X6772722Y-18853176D02*
X6763198Y-18862700D01*
X6972722Y-18976986D02*
X6953674Y-18967462D01*
X6953674Y-18967462D02*
X6944151Y-18957938D01*
X6944151Y-18957938D02*
X6934627Y-18938890D01*
X6934627Y-18938890D02*
X6934627Y-18881748D01*
X6934627Y-18881748D02*
X6944151Y-18862700D01*
X6944151Y-18862700D02*
X6953674Y-18853176D01*
X6953674Y-18853176D02*
X6972722Y-18843652D01*
X6972722Y-18843652D02*
X7001293Y-18843652D01*
X7001293Y-18843652D02*
X7020341Y-18853176D01*
X7020341Y-18853176D02*
X7029865Y-18862700D01*
X7029865Y-18862700D02*
X7039389Y-18881748D01*
X7039389Y-18881748D02*
X7039389Y-18938890D01*
X7039389Y-18938890D02*
X7029865Y-18957938D01*
X7029865Y-18957938D02*
X7020341Y-18967462D01*
X7020341Y-18967462D02*
X7001293Y-18976986D01*
X7001293Y-18976986D02*
X6972722Y-18976986D01*
X7153674Y-18976986D02*
X7134627Y-18967462D01*
X7134627Y-18967462D02*
X7125103Y-18948414D01*
X7125103Y-18948414D02*
X7125103Y-18776986D01*
X7306055Y-18967462D02*
X7287008Y-18976986D01*
X7287008Y-18976986D02*
X7248912Y-18976986D01*
X7248912Y-18976986D02*
X7229865Y-18967462D01*
X7229865Y-18967462D02*
X7220341Y-18948414D01*
X7220341Y-18948414D02*
X7220341Y-18872224D01*
X7220341Y-18872224D02*
X7229865Y-18853176D01*
X7229865Y-18853176D02*
X7248912Y-18843652D01*
X7248912Y-18843652D02*
X7287008Y-18843652D01*
X7287008Y-18843652D02*
X7306055Y-18853176D01*
X7306055Y-18853176D02*
X7315579Y-18872224D01*
X7315579Y-18872224D02*
X7315579Y-18891271D01*
X7315579Y-18891271D02*
X7220341Y-18910319D01*
X7391770Y-18967462D02*
X7410817Y-18976986D01*
X7410817Y-18976986D02*
X7448912Y-18976986D01*
X7448912Y-18976986D02*
X7467960Y-18967462D01*
X7467960Y-18967462D02*
X7477484Y-18948414D01*
X7477484Y-18948414D02*
X7477484Y-18938890D01*
X7477484Y-18938890D02*
X7467960Y-18919843D01*
X7467960Y-18919843D02*
X7448912Y-18910319D01*
X7448912Y-18910319D02*
X7420341Y-18910319D01*
X7420341Y-18910319D02*
X7401293Y-18900795D01*
X7401293Y-18900795D02*
X7391770Y-18881748D01*
X7391770Y-18881748D02*
X7391770Y-18872224D01*
X7391770Y-18872224D02*
X7401293Y-18853176D01*
X7401293Y-18853176D02*
X7420341Y-18843652D01*
X7420341Y-18843652D02*
X7448912Y-18843652D01*
X7448912Y-18843652D02*
X7467960Y-18853176D01*
X7544151Y-19053176D02*
X7553674Y-19043652D01*
X7553674Y-19043652D02*
X7572722Y-19015081D01*
X7572722Y-19015081D02*
X7582246Y-18996033D01*
X7582246Y-18996033D02*
X7591770Y-18967462D01*
X7591770Y-18967462D02*
X7601293Y-18919843D01*
X7601293Y-18919843D02*
X7601293Y-18881748D01*
X7601293Y-18881748D02*
X7591770Y-18834128D01*
X7591770Y-18834128D02*
X7582246Y-18805557D01*
X7582246Y-18805557D02*
X7572722Y-18786509D01*
X7572722Y-18786509D02*
X7553674Y-18757938D01*
X7553674Y-18757938D02*
X7544151Y-18748414D01*
D12*
X2388135Y-19149502D02*
G75*
G02*
X2348135Y-19149502I-20000J0D01*
G01*
X2348135Y-19149502D02*
G75*
G02*
X2388135Y-19149502I20000J0D01*
G01*
D11*
X2687007Y-19040986D02*
X2706055Y-19040986D01*
X2706055Y-19040986D02*
X2725103Y-19050509D01*
X2725103Y-19050509D02*
X2734626Y-19060033D01*
X2734626Y-19060033D02*
X2744150Y-19079081D01*
X2744150Y-19079081D02*
X2753674Y-19117176D01*
X2753674Y-19117176D02*
X2753674Y-19164795D01*
X2753674Y-19164795D02*
X2744150Y-19202890D01*
X2744150Y-19202890D02*
X2734626Y-19221938D01*
X2734626Y-19221938D02*
X2725103Y-19231462D01*
X2725103Y-19231462D02*
X2706055Y-19240986D01*
X2706055Y-19240986D02*
X2687007Y-19240986D01*
X2687007Y-19240986D02*
X2667960Y-19231462D01*
X2667960Y-19231462D02*
X2658436Y-19221938D01*
X2658436Y-19221938D02*
X2648912Y-19202890D01*
X2648912Y-19202890D02*
X2639388Y-19164795D01*
X2639388Y-19164795D02*
X2639388Y-19117176D01*
X2639388Y-19117176D02*
X2648912Y-19079081D01*
X2648912Y-19079081D02*
X2658436Y-19060033D01*
X2658436Y-19060033D02*
X2667960Y-19050509D01*
X2667960Y-19050509D02*
X2687007Y-19040986D01*
X2839388Y-19221938D02*
X2848912Y-19231462D01*
X2848912Y-19231462D02*
X2839388Y-19240986D01*
X2839388Y-19240986D02*
X2829864Y-19231462D01*
X2829864Y-19231462D02*
X2839388Y-19221938D01*
X2839388Y-19221938D02*
X2839388Y-19240986D01*
X3020341Y-19107652D02*
X3020341Y-19240986D01*
X2972722Y-19031462D02*
X2925103Y-19174319D01*
X2925103Y-19174319D02*
X3048912Y-19174319D01*
X3163198Y-19040986D02*
X3182245Y-19040986D01*
X3182245Y-19040986D02*
X3201293Y-19050509D01*
X3201293Y-19050509D02*
X3210817Y-19060033D01*
X3210817Y-19060033D02*
X3220341Y-19079081D01*
X3220341Y-19079081D02*
X3229864Y-19117176D01*
X3229864Y-19117176D02*
X3229864Y-19164795D01*
X3229864Y-19164795D02*
X3220341Y-19202890D01*
X3220341Y-19202890D02*
X3210817Y-19221938D01*
X3210817Y-19221938D02*
X3201293Y-19231462D01*
X3201293Y-19231462D02*
X3182245Y-19240986D01*
X3182245Y-19240986D02*
X3163198Y-19240986D01*
X3163198Y-19240986D02*
X3144150Y-19231462D01*
X3144150Y-19231462D02*
X3134626Y-19221938D01*
X3134626Y-19221938D02*
X3125103Y-19202890D01*
X3125103Y-19202890D02*
X3115579Y-19164795D01*
X3115579Y-19164795D02*
X3115579Y-19117176D01*
X3115579Y-19117176D02*
X3125103Y-19079081D01*
X3125103Y-19079081D02*
X3134626Y-19060033D01*
X3134626Y-19060033D02*
X3144150Y-19050509D01*
X3144150Y-19050509D02*
X3163198Y-19040986D01*
X3353674Y-19040986D02*
X3372722Y-19040986D01*
X3372722Y-19040986D02*
X3391769Y-19050509D01*
X3391769Y-19050509D02*
X3401293Y-19060033D01*
X3401293Y-19060033D02*
X3410817Y-19079081D01*
X3410817Y-19079081D02*
X3420341Y-19117176D01*
X3420341Y-19117176D02*
X3420341Y-19164795D01*
X3420341Y-19164795D02*
X3410817Y-19202890D01*
X3410817Y-19202890D02*
X3401293Y-19221938D01*
X3401293Y-19221938D02*
X3391769Y-19231462D01*
X3391769Y-19231462D02*
X3372722Y-19240986D01*
X3372722Y-19240986D02*
X3353674Y-19240986D01*
X3353674Y-19240986D02*
X3334626Y-19231462D01*
X3334626Y-19231462D02*
X3325103Y-19221938D01*
X3325103Y-19221938D02*
X3315579Y-19202890D01*
X3315579Y-19202890D02*
X3306055Y-19164795D01*
X3306055Y-19164795D02*
X3306055Y-19117176D01*
X3306055Y-19117176D02*
X3315579Y-19079081D01*
X3315579Y-19079081D02*
X3325103Y-19060033D01*
X3325103Y-19060033D02*
X3334626Y-19050509D01*
X3334626Y-19050509D02*
X3353674Y-19040986D01*
X3506055Y-19240986D02*
X3506055Y-19107652D01*
X3506055Y-19126700D02*
X3515579Y-19117176D01*
X3515579Y-19117176D02*
X3534626Y-19107652D01*
X3534626Y-19107652D02*
X3563198Y-19107652D01*
X3563198Y-19107652D02*
X3582245Y-19117176D01*
X3582245Y-19117176D02*
X3591769Y-19136224D01*
X3591769Y-19136224D02*
X3591769Y-19240986D01*
X3591769Y-19136224D02*
X3601293Y-19117176D01*
X3601293Y-19117176D02*
X3620341Y-19107652D01*
X3620341Y-19107652D02*
X3648912Y-19107652D01*
X3648912Y-19107652D02*
X3667960Y-19117176D01*
X3667960Y-19117176D02*
X3677484Y-19136224D01*
X3677484Y-19136224D02*
X3677484Y-19240986D01*
X3772722Y-19240986D02*
X3772722Y-19107652D01*
X3772722Y-19126700D02*
X3782245Y-19117176D01*
X3782245Y-19117176D02*
X3801293Y-19107652D01*
X3801293Y-19107652D02*
X3829865Y-19107652D01*
X3829865Y-19107652D02*
X3848912Y-19117176D01*
X3848912Y-19117176D02*
X3858436Y-19136224D01*
X3858436Y-19136224D02*
X3858436Y-19240986D01*
X3858436Y-19136224D02*
X3867960Y-19117176D01*
X3867960Y-19117176D02*
X3887007Y-19107652D01*
X3887007Y-19107652D02*
X3915579Y-19107652D01*
X3915579Y-19107652D02*
X3934626Y-19117176D01*
X3934626Y-19117176D02*
X3944150Y-19136224D01*
X3944150Y-19136224D02*
X3944150Y-19240986D01*
X4334627Y-19031462D02*
X4163198Y-19288605D01*
X4591769Y-19040986D02*
X4610817Y-19040986D01*
X4610817Y-19040986D02*
X4629865Y-19050509D01*
X4629865Y-19050509D02*
X4639389Y-19060033D01*
X4639389Y-19060033D02*
X4648912Y-19079081D01*
X4648912Y-19079081D02*
X4658436Y-19117176D01*
X4658436Y-19117176D02*
X4658436Y-19164795D01*
X4658436Y-19164795D02*
X4648912Y-19202890D01*
X4648912Y-19202890D02*
X4639389Y-19221938D01*
X4639389Y-19221938D02*
X4629865Y-19231462D01*
X4629865Y-19231462D02*
X4610817Y-19240986D01*
X4610817Y-19240986D02*
X4591769Y-19240986D01*
X4591769Y-19240986D02*
X4572722Y-19231462D01*
X4572722Y-19231462D02*
X4563198Y-19221938D01*
X4563198Y-19221938D02*
X4553674Y-19202890D01*
X4553674Y-19202890D02*
X4544150Y-19164795D01*
X4544150Y-19164795D02*
X4544150Y-19117176D01*
X4544150Y-19117176D02*
X4553674Y-19079081D01*
X4553674Y-19079081D02*
X4563198Y-19060033D01*
X4563198Y-19060033D02*
X4572722Y-19050509D01*
X4572722Y-19050509D02*
X4591769Y-19040986D01*
X4744150Y-19221938D02*
X4753674Y-19231462D01*
X4753674Y-19231462D02*
X4744150Y-19240986D01*
X4744150Y-19240986D02*
X4734627Y-19231462D01*
X4734627Y-19231462D02*
X4744150Y-19221938D01*
X4744150Y-19221938D02*
X4744150Y-19240986D01*
X4877484Y-19040986D02*
X4896531Y-19040986D01*
X4896531Y-19040986D02*
X4915579Y-19050509D01*
X4915579Y-19050509D02*
X4925103Y-19060033D01*
X4925103Y-19060033D02*
X4934627Y-19079081D01*
X4934627Y-19079081D02*
X4944150Y-19117176D01*
X4944150Y-19117176D02*
X4944150Y-19164795D01*
X4944150Y-19164795D02*
X4934627Y-19202890D01*
X4934627Y-19202890D02*
X4925103Y-19221938D01*
X4925103Y-19221938D02*
X4915579Y-19231462D01*
X4915579Y-19231462D02*
X4896531Y-19240986D01*
X4896531Y-19240986D02*
X4877484Y-19240986D01*
X4877484Y-19240986D02*
X4858436Y-19231462D01*
X4858436Y-19231462D02*
X4848912Y-19221938D01*
X4848912Y-19221938D02*
X4839389Y-19202890D01*
X4839389Y-19202890D02*
X4829865Y-19164795D01*
X4829865Y-19164795D02*
X4829865Y-19117176D01*
X4829865Y-19117176D02*
X4839389Y-19079081D01*
X4839389Y-19079081D02*
X4848912Y-19060033D01*
X4848912Y-19060033D02*
X4858436Y-19050509D01*
X4858436Y-19050509D02*
X4877484Y-19040986D01*
X5134627Y-19240986D02*
X5020341Y-19240986D01*
X5077484Y-19240986D02*
X5077484Y-19040986D01*
X5077484Y-19040986D02*
X5058436Y-19069557D01*
X5058436Y-19069557D02*
X5039389Y-19088605D01*
X5039389Y-19088605D02*
X5020341Y-19098128D01*
X5315579Y-19040986D02*
X5220341Y-19040986D01*
X5220341Y-19040986D02*
X5210817Y-19136224D01*
X5210817Y-19136224D02*
X5220341Y-19126700D01*
X5220341Y-19126700D02*
X5239389Y-19117176D01*
X5239389Y-19117176D02*
X5287008Y-19117176D01*
X5287008Y-19117176D02*
X5306055Y-19126700D01*
X5306055Y-19126700D02*
X5315579Y-19136224D01*
X5315579Y-19136224D02*
X5325103Y-19155271D01*
X5325103Y-19155271D02*
X5325103Y-19202890D01*
X5325103Y-19202890D02*
X5315579Y-19221938D01*
X5315579Y-19221938D02*
X5306055Y-19231462D01*
X5306055Y-19231462D02*
X5287008Y-19240986D01*
X5287008Y-19240986D02*
X5239389Y-19240986D01*
X5239389Y-19240986D02*
X5220341Y-19231462D01*
X5220341Y-19231462D02*
X5210817Y-19221938D01*
X5391770Y-19040986D02*
X5525103Y-19040986D01*
X5525103Y-19040986D02*
X5439389Y-19240986D01*
X5591770Y-19040986D02*
X5591770Y-19079081D01*
X5667960Y-19040986D02*
X5667960Y-19079081D01*
X5963198Y-19317176D02*
X5953674Y-19307652D01*
X5953674Y-19307652D02*
X5934627Y-19279081D01*
X5934627Y-19279081D02*
X5925103Y-19260033D01*
X5925103Y-19260033D02*
X5915579Y-19231462D01*
X5915579Y-19231462D02*
X5906055Y-19183843D01*
X5906055Y-19183843D02*
X5906055Y-19145748D01*
X5906055Y-19145748D02*
X5915579Y-19098128D01*
X5915579Y-19098128D02*
X5925103Y-19069557D01*
X5925103Y-19069557D02*
X5934627Y-19050509D01*
X5934627Y-19050509D02*
X5953674Y-19021938D01*
X5953674Y-19021938D02*
X5963198Y-19012414D01*
X6134627Y-19040986D02*
X6039389Y-19040986D01*
X6039389Y-19040986D02*
X6029865Y-19136224D01*
X6029865Y-19136224D02*
X6039389Y-19126700D01*
X6039389Y-19126700D02*
X6058436Y-19117176D01*
X6058436Y-19117176D02*
X6106055Y-19117176D01*
X6106055Y-19117176D02*
X6125103Y-19126700D01*
X6125103Y-19126700D02*
X6134627Y-19136224D01*
X6134627Y-19136224D02*
X6144150Y-19155271D01*
X6144150Y-19155271D02*
X6144150Y-19202890D01*
X6144150Y-19202890D02*
X6134627Y-19221938D01*
X6134627Y-19221938D02*
X6125103Y-19231462D01*
X6125103Y-19231462D02*
X6106055Y-19240986D01*
X6106055Y-19240986D02*
X6058436Y-19240986D01*
X6058436Y-19240986D02*
X6039389Y-19231462D01*
X6039389Y-19231462D02*
X6029865Y-19221938D01*
X6382246Y-19240986D02*
X6382246Y-19040986D01*
X6467960Y-19240986D02*
X6467960Y-19136224D01*
X6467960Y-19136224D02*
X6458436Y-19117176D01*
X6458436Y-19117176D02*
X6439389Y-19107652D01*
X6439389Y-19107652D02*
X6410817Y-19107652D01*
X6410817Y-19107652D02*
X6391770Y-19117176D01*
X6391770Y-19117176D02*
X6382246Y-19126700D01*
X6591770Y-19240986D02*
X6572722Y-19231462D01*
X6572722Y-19231462D02*
X6563198Y-19221938D01*
X6563198Y-19221938D02*
X6553674Y-19202890D01*
X6553674Y-19202890D02*
X6553674Y-19145748D01*
X6553674Y-19145748D02*
X6563198Y-19126700D01*
X6563198Y-19126700D02*
X6572722Y-19117176D01*
X6572722Y-19117176D02*
X6591770Y-19107652D01*
X6591770Y-19107652D02*
X6620341Y-19107652D01*
X6620341Y-19107652D02*
X6639389Y-19117176D01*
X6639389Y-19117176D02*
X6648912Y-19126700D01*
X6648912Y-19126700D02*
X6658436Y-19145748D01*
X6658436Y-19145748D02*
X6658436Y-19202890D01*
X6658436Y-19202890D02*
X6648912Y-19221938D01*
X6648912Y-19221938D02*
X6639389Y-19231462D01*
X6639389Y-19231462D02*
X6620341Y-19240986D01*
X6620341Y-19240986D02*
X6591770Y-19240986D01*
X6772722Y-19240986D02*
X6753674Y-19231462D01*
X6753674Y-19231462D02*
X6744151Y-19212414D01*
X6744151Y-19212414D02*
X6744151Y-19040986D01*
X6925103Y-19231462D02*
X6906055Y-19240986D01*
X6906055Y-19240986D02*
X6867960Y-19240986D01*
X6867960Y-19240986D02*
X6848912Y-19231462D01*
X6848912Y-19231462D02*
X6839389Y-19212414D01*
X6839389Y-19212414D02*
X6839389Y-19136224D01*
X6839389Y-19136224D02*
X6848912Y-19117176D01*
X6848912Y-19117176D02*
X6867960Y-19107652D01*
X6867960Y-19107652D02*
X6906055Y-19107652D01*
X6906055Y-19107652D02*
X6925103Y-19117176D01*
X6925103Y-19117176D02*
X6934627Y-19136224D01*
X6934627Y-19136224D02*
X6934627Y-19155271D01*
X6934627Y-19155271D02*
X6839389Y-19174319D01*
X7010817Y-19231462D02*
X7029865Y-19240986D01*
X7029865Y-19240986D02*
X7067960Y-19240986D01*
X7067960Y-19240986D02*
X7087008Y-19231462D01*
X7087008Y-19231462D02*
X7096532Y-19212414D01*
X7096532Y-19212414D02*
X7096532Y-19202890D01*
X7096532Y-19202890D02*
X7087008Y-19183843D01*
X7087008Y-19183843D02*
X7067960Y-19174319D01*
X7067960Y-19174319D02*
X7039389Y-19174319D01*
X7039389Y-19174319D02*
X7020341Y-19164795D01*
X7020341Y-19164795D02*
X7010817Y-19145748D01*
X7010817Y-19145748D02*
X7010817Y-19136224D01*
X7010817Y-19136224D02*
X7020341Y-19117176D01*
X7020341Y-19117176D02*
X7039389Y-19107652D01*
X7039389Y-19107652D02*
X7067960Y-19107652D01*
X7067960Y-19107652D02*
X7087008Y-19117176D01*
X7163198Y-19317176D02*
X7172722Y-19307652D01*
X7172722Y-19307652D02*
X7191770Y-19279081D01*
X7191770Y-19279081D02*
X7201293Y-19260033D01*
X7201293Y-19260033D02*
X7210817Y-19231462D01*
X7210817Y-19231462D02*
X7220341Y-19183843D01*
X7220341Y-19183843D02*
X7220341Y-19145748D01*
X7220341Y-19145748D02*
X7210817Y-19098128D01*
X7210817Y-19098128D02*
X7201293Y-19069557D01*
X7201293Y-19069557D02*
X7191770Y-19050509D01*
X7191770Y-19050509D02*
X7172722Y-19021938D01*
X7172722Y-19021938D02*
X7163198Y-19012414D01*
D12*
X2358135Y-19383502D02*
X2358135Y-19443502D01*
X2328135Y-19413502D02*
X2388135Y-19413502D01*
D11*
X2687007Y-19304986D02*
X2706055Y-19304986D01*
X2706055Y-19304986D02*
X2725103Y-19314509D01*
X2725103Y-19314509D02*
X2734626Y-19324033D01*
X2734626Y-19324033D02*
X2744150Y-19343081D01*
X2744150Y-19343081D02*
X2753674Y-19381176D01*
X2753674Y-19381176D02*
X2753674Y-19428795D01*
X2753674Y-19428795D02*
X2744150Y-19466890D01*
X2744150Y-19466890D02*
X2734626Y-19485938D01*
X2734626Y-19485938D02*
X2725103Y-19495462D01*
X2725103Y-19495462D02*
X2706055Y-19504986D01*
X2706055Y-19504986D02*
X2687007Y-19504986D01*
X2687007Y-19504986D02*
X2667960Y-19495462D01*
X2667960Y-19495462D02*
X2658436Y-19485938D01*
X2658436Y-19485938D02*
X2648912Y-19466890D01*
X2648912Y-19466890D02*
X2639388Y-19428795D01*
X2639388Y-19428795D02*
X2639388Y-19381176D01*
X2639388Y-19381176D02*
X2648912Y-19343081D01*
X2648912Y-19343081D02*
X2658436Y-19324033D01*
X2658436Y-19324033D02*
X2667960Y-19314509D01*
X2667960Y-19314509D02*
X2687007Y-19304986D01*
X2839388Y-19485938D02*
X2848912Y-19495462D01*
X2848912Y-19495462D02*
X2839388Y-19504986D01*
X2839388Y-19504986D02*
X2829864Y-19495462D01*
X2829864Y-19495462D02*
X2839388Y-19485938D01*
X2839388Y-19485938D02*
X2839388Y-19504986D01*
X3020341Y-19304986D02*
X2982245Y-19304986D01*
X2982245Y-19304986D02*
X2963198Y-19314509D01*
X2963198Y-19314509D02*
X2953674Y-19324033D01*
X2953674Y-19324033D02*
X2934626Y-19352605D01*
X2934626Y-19352605D02*
X2925103Y-19390700D01*
X2925103Y-19390700D02*
X2925103Y-19466890D01*
X2925103Y-19466890D02*
X2934626Y-19485938D01*
X2934626Y-19485938D02*
X2944150Y-19495462D01*
X2944150Y-19495462D02*
X2963198Y-19504986D01*
X2963198Y-19504986D02*
X3001293Y-19504986D01*
X3001293Y-19504986D02*
X3020341Y-19495462D01*
X3020341Y-19495462D02*
X3029864Y-19485938D01*
X3029864Y-19485938D02*
X3039388Y-19466890D01*
X3039388Y-19466890D02*
X3039388Y-19419271D01*
X3039388Y-19419271D02*
X3029864Y-19400224D01*
X3029864Y-19400224D02*
X3020341Y-19390700D01*
X3020341Y-19390700D02*
X3001293Y-19381176D01*
X3001293Y-19381176D02*
X2963198Y-19381176D01*
X2963198Y-19381176D02*
X2944150Y-19390700D01*
X2944150Y-19390700D02*
X2934626Y-19400224D01*
X2934626Y-19400224D02*
X2925103Y-19419271D01*
X3163198Y-19304986D02*
X3182245Y-19304986D01*
X3182245Y-19304986D02*
X3201293Y-19314509D01*
X3201293Y-19314509D02*
X3210817Y-19324033D01*
X3210817Y-19324033D02*
X3220341Y-19343081D01*
X3220341Y-19343081D02*
X3229864Y-19381176D01*
X3229864Y-19381176D02*
X3229864Y-19428795D01*
X3229864Y-19428795D02*
X3220341Y-19466890D01*
X3220341Y-19466890D02*
X3210817Y-19485938D01*
X3210817Y-19485938D02*
X3201293Y-19495462D01*
X3201293Y-19495462D02*
X3182245Y-19504986D01*
X3182245Y-19504986D02*
X3163198Y-19504986D01*
X3163198Y-19504986D02*
X3144150Y-19495462D01*
X3144150Y-19495462D02*
X3134626Y-19485938D01*
X3134626Y-19485938D02*
X3125103Y-19466890D01*
X3125103Y-19466890D02*
X3115579Y-19428795D01*
X3115579Y-19428795D02*
X3115579Y-19381176D01*
X3115579Y-19381176D02*
X3125103Y-19343081D01*
X3125103Y-19343081D02*
X3134626Y-19324033D01*
X3134626Y-19324033D02*
X3144150Y-19314509D01*
X3144150Y-19314509D02*
X3163198Y-19304986D01*
X3353674Y-19304986D02*
X3372722Y-19304986D01*
X3372722Y-19304986D02*
X3391769Y-19314509D01*
X3391769Y-19314509D02*
X3401293Y-19324033D01*
X3401293Y-19324033D02*
X3410817Y-19343081D01*
X3410817Y-19343081D02*
X3420341Y-19381176D01*
X3420341Y-19381176D02*
X3420341Y-19428795D01*
X3420341Y-19428795D02*
X3410817Y-19466890D01*
X3410817Y-19466890D02*
X3401293Y-19485938D01*
X3401293Y-19485938D02*
X3391769Y-19495462D01*
X3391769Y-19495462D02*
X3372722Y-19504986D01*
X3372722Y-19504986D02*
X3353674Y-19504986D01*
X3353674Y-19504986D02*
X3334626Y-19495462D01*
X3334626Y-19495462D02*
X3325103Y-19485938D01*
X3325103Y-19485938D02*
X3315579Y-19466890D01*
X3315579Y-19466890D02*
X3306055Y-19428795D01*
X3306055Y-19428795D02*
X3306055Y-19381176D01*
X3306055Y-19381176D02*
X3315579Y-19343081D01*
X3315579Y-19343081D02*
X3325103Y-19324033D01*
X3325103Y-19324033D02*
X3334626Y-19314509D01*
X3334626Y-19314509D02*
X3353674Y-19304986D01*
X3506055Y-19504986D02*
X3506055Y-19371652D01*
X3506055Y-19390700D02*
X3515579Y-19381176D01*
X3515579Y-19381176D02*
X3534626Y-19371652D01*
X3534626Y-19371652D02*
X3563198Y-19371652D01*
X3563198Y-19371652D02*
X3582245Y-19381176D01*
X3582245Y-19381176D02*
X3591769Y-19400224D01*
X3591769Y-19400224D02*
X3591769Y-19504986D01*
X3591769Y-19400224D02*
X3601293Y-19381176D01*
X3601293Y-19381176D02*
X3620341Y-19371652D01*
X3620341Y-19371652D02*
X3648912Y-19371652D01*
X3648912Y-19371652D02*
X3667960Y-19381176D01*
X3667960Y-19381176D02*
X3677484Y-19400224D01*
X3677484Y-19400224D02*
X3677484Y-19504986D01*
X3772722Y-19504986D02*
X3772722Y-19371652D01*
X3772722Y-19390700D02*
X3782245Y-19381176D01*
X3782245Y-19381176D02*
X3801293Y-19371652D01*
X3801293Y-19371652D02*
X3829865Y-19371652D01*
X3829865Y-19371652D02*
X3848912Y-19381176D01*
X3848912Y-19381176D02*
X3858436Y-19400224D01*
X3858436Y-19400224D02*
X3858436Y-19504986D01*
X3858436Y-19400224D02*
X3867960Y-19381176D01*
X3867960Y-19381176D02*
X3887007Y-19371652D01*
X3887007Y-19371652D02*
X3915579Y-19371652D01*
X3915579Y-19371652D02*
X3934626Y-19381176D01*
X3934626Y-19381176D02*
X3944150Y-19400224D01*
X3944150Y-19400224D02*
X3944150Y-19504986D01*
X4334627Y-19295462D02*
X4163198Y-19552605D01*
X4591769Y-19304986D02*
X4610817Y-19304986D01*
X4610817Y-19304986D02*
X4629865Y-19314509D01*
X4629865Y-19314509D02*
X4639389Y-19324033D01*
X4639389Y-19324033D02*
X4648912Y-19343081D01*
X4648912Y-19343081D02*
X4658436Y-19381176D01*
X4658436Y-19381176D02*
X4658436Y-19428795D01*
X4658436Y-19428795D02*
X4648912Y-19466890D01*
X4648912Y-19466890D02*
X4639389Y-19485938D01*
X4639389Y-19485938D02*
X4629865Y-19495462D01*
X4629865Y-19495462D02*
X4610817Y-19504986D01*
X4610817Y-19504986D02*
X4591769Y-19504986D01*
X4591769Y-19504986D02*
X4572722Y-19495462D01*
X4572722Y-19495462D02*
X4563198Y-19485938D01*
X4563198Y-19485938D02*
X4553674Y-19466890D01*
X4553674Y-19466890D02*
X4544150Y-19428795D01*
X4544150Y-19428795D02*
X4544150Y-19381176D01*
X4544150Y-19381176D02*
X4553674Y-19343081D01*
X4553674Y-19343081D02*
X4563198Y-19324033D01*
X4563198Y-19324033D02*
X4572722Y-19314509D01*
X4572722Y-19314509D02*
X4591769Y-19304986D01*
X4744150Y-19485938D02*
X4753674Y-19495462D01*
X4753674Y-19495462D02*
X4744150Y-19504986D01*
X4744150Y-19504986D02*
X4734627Y-19495462D01*
X4734627Y-19495462D02*
X4744150Y-19485938D01*
X4744150Y-19485938D02*
X4744150Y-19504986D01*
X4877484Y-19304986D02*
X4896531Y-19304986D01*
X4896531Y-19304986D02*
X4915579Y-19314509D01*
X4915579Y-19314509D02*
X4925103Y-19324033D01*
X4925103Y-19324033D02*
X4934627Y-19343081D01*
X4934627Y-19343081D02*
X4944150Y-19381176D01*
X4944150Y-19381176D02*
X4944150Y-19428795D01*
X4944150Y-19428795D02*
X4934627Y-19466890D01*
X4934627Y-19466890D02*
X4925103Y-19485938D01*
X4925103Y-19485938D02*
X4915579Y-19495462D01*
X4915579Y-19495462D02*
X4896531Y-19504986D01*
X4896531Y-19504986D02*
X4877484Y-19504986D01*
X4877484Y-19504986D02*
X4858436Y-19495462D01*
X4858436Y-19495462D02*
X4848912Y-19485938D01*
X4848912Y-19485938D02*
X4839389Y-19466890D01*
X4839389Y-19466890D02*
X4829865Y-19428795D01*
X4829865Y-19428795D02*
X4829865Y-19381176D01*
X4829865Y-19381176D02*
X4839389Y-19343081D01*
X4839389Y-19343081D02*
X4848912Y-19324033D01*
X4848912Y-19324033D02*
X4858436Y-19314509D01*
X4858436Y-19314509D02*
X4877484Y-19304986D01*
X5020341Y-19324033D02*
X5029865Y-19314509D01*
X5029865Y-19314509D02*
X5048912Y-19304986D01*
X5048912Y-19304986D02*
X5096531Y-19304986D01*
X5096531Y-19304986D02*
X5115579Y-19314509D01*
X5115579Y-19314509D02*
X5125103Y-19324033D01*
X5125103Y-19324033D02*
X5134627Y-19343081D01*
X5134627Y-19343081D02*
X5134627Y-19362128D01*
X5134627Y-19362128D02*
X5125103Y-19390700D01*
X5125103Y-19390700D02*
X5010817Y-19504986D01*
X5010817Y-19504986D02*
X5134627Y-19504986D01*
X5201293Y-19304986D02*
X5325103Y-19304986D01*
X5325103Y-19304986D02*
X5258436Y-19381176D01*
X5258436Y-19381176D02*
X5287008Y-19381176D01*
X5287008Y-19381176D02*
X5306055Y-19390700D01*
X5306055Y-19390700D02*
X5315579Y-19400224D01*
X5315579Y-19400224D02*
X5325103Y-19419271D01*
X5325103Y-19419271D02*
X5325103Y-19466890D01*
X5325103Y-19466890D02*
X5315579Y-19485938D01*
X5315579Y-19485938D02*
X5306055Y-19495462D01*
X5306055Y-19495462D02*
X5287008Y-19504986D01*
X5287008Y-19504986D02*
X5229865Y-19504986D01*
X5229865Y-19504986D02*
X5210817Y-19495462D01*
X5210817Y-19495462D02*
X5201293Y-19485938D01*
X5496531Y-19304986D02*
X5458436Y-19304986D01*
X5458436Y-19304986D02*
X5439389Y-19314509D01*
X5439389Y-19314509D02*
X5429865Y-19324033D01*
X5429865Y-19324033D02*
X5410817Y-19352605D01*
X5410817Y-19352605D02*
X5401293Y-19390700D01*
X5401293Y-19390700D02*
X5401293Y-19466890D01*
X5401293Y-19466890D02*
X5410817Y-19485938D01*
X5410817Y-19485938D02*
X5420341Y-19495462D01*
X5420341Y-19495462D02*
X5439389Y-19504986D01*
X5439389Y-19504986D02*
X5477484Y-19504986D01*
X5477484Y-19504986D02*
X5496531Y-19495462D01*
X5496531Y-19495462D02*
X5506055Y-19485938D01*
X5506055Y-19485938D02*
X5515579Y-19466890D01*
X5515579Y-19466890D02*
X5515579Y-19419271D01*
X5515579Y-19419271D02*
X5506055Y-19400224D01*
X5506055Y-19400224D02*
X5496531Y-19390700D01*
X5496531Y-19390700D02*
X5477484Y-19381176D01*
X5477484Y-19381176D02*
X5439389Y-19381176D01*
X5439389Y-19381176D02*
X5420341Y-19390700D01*
X5420341Y-19390700D02*
X5410817Y-19400224D01*
X5410817Y-19400224D02*
X5401293Y-19419271D01*
X5591770Y-19304986D02*
X5591770Y-19343081D01*
X5667960Y-19304986D02*
X5667960Y-19343081D01*
X5963198Y-19581176D02*
X5953674Y-19571652D01*
X5953674Y-19571652D02*
X5934627Y-19543081D01*
X5934627Y-19543081D02*
X5925103Y-19524033D01*
X5925103Y-19524033D02*
X5915579Y-19495462D01*
X5915579Y-19495462D02*
X5906055Y-19447843D01*
X5906055Y-19447843D02*
X5906055Y-19409748D01*
X5906055Y-19409748D02*
X5915579Y-19362128D01*
X5915579Y-19362128D02*
X5925103Y-19333557D01*
X5925103Y-19333557D02*
X5934627Y-19314509D01*
X5934627Y-19314509D02*
X5953674Y-19285938D01*
X5953674Y-19285938D02*
X5963198Y-19276414D01*
X6077484Y-19304986D02*
X6096531Y-19304986D01*
X6096531Y-19304986D02*
X6115579Y-19314509D01*
X6115579Y-19314509D02*
X6125103Y-19324033D01*
X6125103Y-19324033D02*
X6134627Y-19343081D01*
X6134627Y-19343081D02*
X6144150Y-19381176D01*
X6144150Y-19381176D02*
X6144150Y-19428795D01*
X6144150Y-19428795D02*
X6134627Y-19466890D01*
X6134627Y-19466890D02*
X6125103Y-19485938D01*
X6125103Y-19485938D02*
X6115579Y-19495462D01*
X6115579Y-19495462D02*
X6096531Y-19504986D01*
X6096531Y-19504986D02*
X6077484Y-19504986D01*
X6077484Y-19504986D02*
X6058436Y-19495462D01*
X6058436Y-19495462D02*
X6048912Y-19485938D01*
X6048912Y-19485938D02*
X6039389Y-19466890D01*
X6039389Y-19466890D02*
X6029865Y-19428795D01*
X6029865Y-19428795D02*
X6029865Y-19381176D01*
X6029865Y-19381176D02*
X6039389Y-19343081D01*
X6039389Y-19343081D02*
X6048912Y-19324033D01*
X6048912Y-19324033D02*
X6058436Y-19314509D01*
X6058436Y-19314509D02*
X6077484Y-19304986D01*
X6382246Y-19504986D02*
X6382246Y-19304986D01*
X6467960Y-19504986D02*
X6467960Y-19400224D01*
X6467960Y-19400224D02*
X6458436Y-19381176D01*
X6458436Y-19381176D02*
X6439389Y-19371652D01*
X6439389Y-19371652D02*
X6410817Y-19371652D01*
X6410817Y-19371652D02*
X6391770Y-19381176D01*
X6391770Y-19381176D02*
X6382246Y-19390700D01*
X6591770Y-19504986D02*
X6572722Y-19495462D01*
X6572722Y-19495462D02*
X6563198Y-19485938D01*
X6563198Y-19485938D02*
X6553674Y-19466890D01*
X6553674Y-19466890D02*
X6553674Y-19409748D01*
X6553674Y-19409748D02*
X6563198Y-19390700D01*
X6563198Y-19390700D02*
X6572722Y-19381176D01*
X6572722Y-19381176D02*
X6591770Y-19371652D01*
X6591770Y-19371652D02*
X6620341Y-19371652D01*
X6620341Y-19371652D02*
X6639389Y-19381176D01*
X6639389Y-19381176D02*
X6648912Y-19390700D01*
X6648912Y-19390700D02*
X6658436Y-19409748D01*
X6658436Y-19409748D02*
X6658436Y-19466890D01*
X6658436Y-19466890D02*
X6648912Y-19485938D01*
X6648912Y-19485938D02*
X6639389Y-19495462D01*
X6639389Y-19495462D02*
X6620341Y-19504986D01*
X6620341Y-19504986D02*
X6591770Y-19504986D01*
X6772722Y-19504986D02*
X6753674Y-19495462D01*
X6753674Y-19495462D02*
X6744151Y-19476414D01*
X6744151Y-19476414D02*
X6744151Y-19304986D01*
X6925103Y-19495462D02*
X6906055Y-19504986D01*
X6906055Y-19504986D02*
X6867960Y-19504986D01*
X6867960Y-19504986D02*
X6848912Y-19495462D01*
X6848912Y-19495462D02*
X6839389Y-19476414D01*
X6839389Y-19476414D02*
X6839389Y-19400224D01*
X6839389Y-19400224D02*
X6848912Y-19381176D01*
X6848912Y-19381176D02*
X6867960Y-19371652D01*
X6867960Y-19371652D02*
X6906055Y-19371652D01*
X6906055Y-19371652D02*
X6925103Y-19381176D01*
X6925103Y-19381176D02*
X6934627Y-19400224D01*
X6934627Y-19400224D02*
X6934627Y-19419271D01*
X6934627Y-19419271D02*
X6839389Y-19438319D01*
X7010817Y-19495462D02*
X7029865Y-19504986D01*
X7029865Y-19504986D02*
X7067960Y-19504986D01*
X7067960Y-19504986D02*
X7087008Y-19495462D01*
X7087008Y-19495462D02*
X7096532Y-19476414D01*
X7096532Y-19476414D02*
X7096532Y-19466890D01*
X7096532Y-19466890D02*
X7087008Y-19447843D01*
X7087008Y-19447843D02*
X7067960Y-19438319D01*
X7067960Y-19438319D02*
X7039389Y-19438319D01*
X7039389Y-19438319D02*
X7020341Y-19428795D01*
X7020341Y-19428795D02*
X7010817Y-19409748D01*
X7010817Y-19409748D02*
X7010817Y-19400224D01*
X7010817Y-19400224D02*
X7020341Y-19381176D01*
X7020341Y-19381176D02*
X7039389Y-19371652D01*
X7039389Y-19371652D02*
X7067960Y-19371652D01*
X7067960Y-19371652D02*
X7087008Y-19381176D01*
X7334627Y-19428795D02*
X7487008Y-19428795D01*
X7410817Y-19504986D02*
X7410817Y-19352605D01*
X7763198Y-19390700D02*
X7744151Y-19381176D01*
X7744151Y-19381176D02*
X7734627Y-19371652D01*
X7734627Y-19371652D02*
X7725103Y-19352605D01*
X7725103Y-19352605D02*
X7725103Y-19343081D01*
X7725103Y-19343081D02*
X7734627Y-19324033D01*
X7734627Y-19324033D02*
X7744151Y-19314509D01*
X7744151Y-19314509D02*
X7763198Y-19304986D01*
X7763198Y-19304986D02*
X7801294Y-19304986D01*
X7801294Y-19304986D02*
X7820341Y-19314509D01*
X7820341Y-19314509D02*
X7829865Y-19324033D01*
X7829865Y-19324033D02*
X7839389Y-19343081D01*
X7839389Y-19343081D02*
X7839389Y-19352605D01*
X7839389Y-19352605D02*
X7829865Y-19371652D01*
X7829865Y-19371652D02*
X7820341Y-19381176D01*
X7820341Y-19381176D02*
X7801294Y-19390700D01*
X7801294Y-19390700D02*
X7763198Y-19390700D01*
X7763198Y-19390700D02*
X7744151Y-19400224D01*
X7744151Y-19400224D02*
X7734627Y-19409748D01*
X7734627Y-19409748D02*
X7725103Y-19428795D01*
X7725103Y-19428795D02*
X7725103Y-19466890D01*
X7725103Y-19466890D02*
X7734627Y-19485938D01*
X7734627Y-19485938D02*
X7744151Y-19495462D01*
X7744151Y-19495462D02*
X7763198Y-19504986D01*
X7763198Y-19504986D02*
X7801294Y-19504986D01*
X7801294Y-19504986D02*
X7820341Y-19495462D01*
X7820341Y-19495462D02*
X7829865Y-19485938D01*
X7829865Y-19485938D02*
X7839389Y-19466890D01*
X7839389Y-19466890D02*
X7839389Y-19428795D01*
X7839389Y-19428795D02*
X7829865Y-19409748D01*
X7829865Y-19409748D02*
X7820341Y-19400224D01*
X7820341Y-19400224D02*
X7801294Y-19390700D01*
X8067960Y-19495462D02*
X8087008Y-19504986D01*
X8087008Y-19504986D02*
X8125103Y-19504986D01*
X8125103Y-19504986D02*
X8144151Y-19495462D01*
X8144151Y-19495462D02*
X8153675Y-19476414D01*
X8153675Y-19476414D02*
X8153675Y-19466890D01*
X8153675Y-19466890D02*
X8144151Y-19447843D01*
X8144151Y-19447843D02*
X8125103Y-19438319D01*
X8125103Y-19438319D02*
X8096532Y-19438319D01*
X8096532Y-19438319D02*
X8077484Y-19428795D01*
X8077484Y-19428795D02*
X8067960Y-19409748D01*
X8067960Y-19409748D02*
X8067960Y-19400224D01*
X8067960Y-19400224D02*
X8077484Y-19381176D01*
X8077484Y-19381176D02*
X8096532Y-19371652D01*
X8096532Y-19371652D02*
X8125103Y-19371652D01*
X8125103Y-19371652D02*
X8144151Y-19381176D01*
X8267960Y-19504986D02*
X8248913Y-19495462D01*
X8248913Y-19495462D02*
X8239389Y-19476414D01*
X8239389Y-19476414D02*
X8239389Y-19304986D01*
X8372722Y-19504986D02*
X8353675Y-19495462D01*
X8353675Y-19495462D02*
X8344151Y-19485938D01*
X8344151Y-19485938D02*
X8334627Y-19466890D01*
X8334627Y-19466890D02*
X8334627Y-19409748D01*
X8334627Y-19409748D02*
X8344151Y-19390700D01*
X8344151Y-19390700D02*
X8353675Y-19381176D01*
X8353675Y-19381176D02*
X8372722Y-19371652D01*
X8372722Y-19371652D02*
X8401294Y-19371652D01*
X8401294Y-19371652D02*
X8420341Y-19381176D01*
X8420341Y-19381176D02*
X8429865Y-19390700D01*
X8429865Y-19390700D02*
X8439389Y-19409748D01*
X8439389Y-19409748D02*
X8439389Y-19466890D01*
X8439389Y-19466890D02*
X8429865Y-19485938D01*
X8429865Y-19485938D02*
X8420341Y-19495462D01*
X8420341Y-19495462D02*
X8401294Y-19504986D01*
X8401294Y-19504986D02*
X8372722Y-19504986D01*
X8496532Y-19371652D02*
X8572722Y-19371652D01*
X8525103Y-19304986D02*
X8525103Y-19476414D01*
X8525103Y-19476414D02*
X8534627Y-19495462D01*
X8534627Y-19495462D02*
X8553675Y-19504986D01*
X8553675Y-19504986D02*
X8572722Y-19504986D01*
X8629865Y-19495462D02*
X8648913Y-19504986D01*
X8648913Y-19504986D02*
X8687008Y-19504986D01*
X8687008Y-19504986D02*
X8706056Y-19495462D01*
X8706056Y-19495462D02*
X8715579Y-19476414D01*
X8715579Y-19476414D02*
X8715579Y-19466890D01*
X8715579Y-19466890D02*
X8706056Y-19447843D01*
X8706056Y-19447843D02*
X8687008Y-19438319D01*
X8687008Y-19438319D02*
X8658437Y-19438319D01*
X8658437Y-19438319D02*
X8639389Y-19428795D01*
X8639389Y-19428795D02*
X8629865Y-19409748D01*
X8629865Y-19409748D02*
X8629865Y-19400224D01*
X8629865Y-19400224D02*
X8639389Y-19381176D01*
X8639389Y-19381176D02*
X8658437Y-19371652D01*
X8658437Y-19371652D02*
X8687008Y-19371652D01*
X8687008Y-19371652D02*
X8706056Y-19381176D01*
X8782246Y-19581176D02*
X8791770Y-19571652D01*
X8791770Y-19571652D02*
X8810818Y-19543081D01*
X8810818Y-19543081D02*
X8820341Y-19524033D01*
X8820341Y-19524033D02*
X8829865Y-19495462D01*
X8829865Y-19495462D02*
X8839389Y-19447843D01*
X8839389Y-19447843D02*
X8839389Y-19409748D01*
X8839389Y-19409748D02*
X8829865Y-19362128D01*
X8829865Y-19362128D02*
X8820341Y-19333557D01*
X8820341Y-19333557D02*
X8810818Y-19314509D01*
X8810818Y-19314509D02*
X8791770Y-19285938D01*
X8791770Y-19285938D02*
X8782246Y-19276414D01*
D12*
X2376420Y-19705786D02*
X2376420Y-19649217D01*
X2319851Y-19649217D01*
X2319851Y-19705786D01*
X2376420Y-19705786D01*
D11*
X2687007Y-19568986D02*
X2706055Y-19568986D01*
X2706055Y-19568986D02*
X2725103Y-19578509D01*
X2725103Y-19578509D02*
X2734626Y-19588033D01*
X2734626Y-19588033D02*
X2744150Y-19607081D01*
X2744150Y-19607081D02*
X2753674Y-19645176D01*
X2753674Y-19645176D02*
X2753674Y-19692795D01*
X2753674Y-19692795D02*
X2744150Y-19730890D01*
X2744150Y-19730890D02*
X2734626Y-19749938D01*
X2734626Y-19749938D02*
X2725103Y-19759462D01*
X2725103Y-19759462D02*
X2706055Y-19768986D01*
X2706055Y-19768986D02*
X2687007Y-19768986D01*
X2687007Y-19768986D02*
X2667960Y-19759462D01*
X2667960Y-19759462D02*
X2658436Y-19749938D01*
X2658436Y-19749938D02*
X2648912Y-19730890D01*
X2648912Y-19730890D02*
X2639388Y-19692795D01*
X2639388Y-19692795D02*
X2639388Y-19645176D01*
X2639388Y-19645176D02*
X2648912Y-19607081D01*
X2648912Y-19607081D02*
X2658436Y-19588033D01*
X2658436Y-19588033D02*
X2667960Y-19578509D01*
X2667960Y-19578509D02*
X2687007Y-19568986D01*
X2839388Y-19749938D02*
X2848912Y-19759462D01*
X2848912Y-19759462D02*
X2839388Y-19768986D01*
X2839388Y-19768986D02*
X2829864Y-19759462D01*
X2829864Y-19759462D02*
X2839388Y-19749938D01*
X2839388Y-19749938D02*
X2839388Y-19768986D01*
X2963198Y-19654700D02*
X2944150Y-19645176D01*
X2944150Y-19645176D02*
X2934626Y-19635652D01*
X2934626Y-19635652D02*
X2925103Y-19616605D01*
X2925103Y-19616605D02*
X2925103Y-19607081D01*
X2925103Y-19607081D02*
X2934626Y-19588033D01*
X2934626Y-19588033D02*
X2944150Y-19578509D01*
X2944150Y-19578509D02*
X2963198Y-19568986D01*
X2963198Y-19568986D02*
X3001293Y-19568986D01*
X3001293Y-19568986D02*
X3020341Y-19578509D01*
X3020341Y-19578509D02*
X3029864Y-19588033D01*
X3029864Y-19588033D02*
X3039388Y-19607081D01*
X3039388Y-19607081D02*
X3039388Y-19616605D01*
X3039388Y-19616605D02*
X3029864Y-19635652D01*
X3029864Y-19635652D02*
X3020341Y-19645176D01*
X3020341Y-19645176D02*
X3001293Y-19654700D01*
X3001293Y-19654700D02*
X2963198Y-19654700D01*
X2963198Y-19654700D02*
X2944150Y-19664224D01*
X2944150Y-19664224D02*
X2934626Y-19673748D01*
X2934626Y-19673748D02*
X2925103Y-19692795D01*
X2925103Y-19692795D02*
X2925103Y-19730890D01*
X2925103Y-19730890D02*
X2934626Y-19749938D01*
X2934626Y-19749938D02*
X2944150Y-19759462D01*
X2944150Y-19759462D02*
X2963198Y-19768986D01*
X2963198Y-19768986D02*
X3001293Y-19768986D01*
X3001293Y-19768986D02*
X3020341Y-19759462D01*
X3020341Y-19759462D02*
X3029864Y-19749938D01*
X3029864Y-19749938D02*
X3039388Y-19730890D01*
X3039388Y-19730890D02*
X3039388Y-19692795D01*
X3039388Y-19692795D02*
X3029864Y-19673748D01*
X3029864Y-19673748D02*
X3020341Y-19664224D01*
X3020341Y-19664224D02*
X3001293Y-19654700D01*
X3163198Y-19568986D02*
X3182245Y-19568986D01*
X3182245Y-19568986D02*
X3201293Y-19578509D01*
X3201293Y-19578509D02*
X3210817Y-19588033D01*
X3210817Y-19588033D02*
X3220341Y-19607081D01*
X3220341Y-19607081D02*
X3229864Y-19645176D01*
X3229864Y-19645176D02*
X3229864Y-19692795D01*
X3229864Y-19692795D02*
X3220341Y-19730890D01*
X3220341Y-19730890D02*
X3210817Y-19749938D01*
X3210817Y-19749938D02*
X3201293Y-19759462D01*
X3201293Y-19759462D02*
X3182245Y-19768986D01*
X3182245Y-19768986D02*
X3163198Y-19768986D01*
X3163198Y-19768986D02*
X3144150Y-19759462D01*
X3144150Y-19759462D02*
X3134626Y-19749938D01*
X3134626Y-19749938D02*
X3125103Y-19730890D01*
X3125103Y-19730890D02*
X3115579Y-19692795D01*
X3115579Y-19692795D02*
X3115579Y-19645176D01*
X3115579Y-19645176D02*
X3125103Y-19607081D01*
X3125103Y-19607081D02*
X3134626Y-19588033D01*
X3134626Y-19588033D02*
X3144150Y-19578509D01*
X3144150Y-19578509D02*
X3163198Y-19568986D01*
X3353674Y-19568986D02*
X3372722Y-19568986D01*
X3372722Y-19568986D02*
X3391769Y-19578509D01*
X3391769Y-19578509D02*
X3401293Y-19588033D01*
X3401293Y-19588033D02*
X3410817Y-19607081D01*
X3410817Y-19607081D02*
X3420341Y-19645176D01*
X3420341Y-19645176D02*
X3420341Y-19692795D01*
X3420341Y-19692795D02*
X3410817Y-19730890D01*
X3410817Y-19730890D02*
X3401293Y-19749938D01*
X3401293Y-19749938D02*
X3391769Y-19759462D01*
X3391769Y-19759462D02*
X3372722Y-19768986D01*
X3372722Y-19768986D02*
X3353674Y-19768986D01*
X3353674Y-19768986D02*
X3334626Y-19759462D01*
X3334626Y-19759462D02*
X3325103Y-19749938D01*
X3325103Y-19749938D02*
X3315579Y-19730890D01*
X3315579Y-19730890D02*
X3306055Y-19692795D01*
X3306055Y-19692795D02*
X3306055Y-19645176D01*
X3306055Y-19645176D02*
X3315579Y-19607081D01*
X3315579Y-19607081D02*
X3325103Y-19588033D01*
X3325103Y-19588033D02*
X3334626Y-19578509D01*
X3334626Y-19578509D02*
X3353674Y-19568986D01*
X3506055Y-19768986D02*
X3506055Y-19635652D01*
X3506055Y-19654700D02*
X3515579Y-19645176D01*
X3515579Y-19645176D02*
X3534626Y-19635652D01*
X3534626Y-19635652D02*
X3563198Y-19635652D01*
X3563198Y-19635652D02*
X3582245Y-19645176D01*
X3582245Y-19645176D02*
X3591769Y-19664224D01*
X3591769Y-19664224D02*
X3591769Y-19768986D01*
X3591769Y-19664224D02*
X3601293Y-19645176D01*
X3601293Y-19645176D02*
X3620341Y-19635652D01*
X3620341Y-19635652D02*
X3648912Y-19635652D01*
X3648912Y-19635652D02*
X3667960Y-19645176D01*
X3667960Y-19645176D02*
X3677484Y-19664224D01*
X3677484Y-19664224D02*
X3677484Y-19768986D01*
X3772722Y-19768986D02*
X3772722Y-19635652D01*
X3772722Y-19654700D02*
X3782245Y-19645176D01*
X3782245Y-19645176D02*
X3801293Y-19635652D01*
X3801293Y-19635652D02*
X3829865Y-19635652D01*
X3829865Y-19635652D02*
X3848912Y-19645176D01*
X3848912Y-19645176D02*
X3858436Y-19664224D01*
X3858436Y-19664224D02*
X3858436Y-19768986D01*
X3858436Y-19664224D02*
X3867960Y-19645176D01*
X3867960Y-19645176D02*
X3887007Y-19635652D01*
X3887007Y-19635652D02*
X3915579Y-19635652D01*
X3915579Y-19635652D02*
X3934626Y-19645176D01*
X3934626Y-19645176D02*
X3944150Y-19664224D01*
X3944150Y-19664224D02*
X3944150Y-19768986D01*
X4334627Y-19559462D02*
X4163198Y-19816605D01*
X4591769Y-19568986D02*
X4610817Y-19568986D01*
X4610817Y-19568986D02*
X4629865Y-19578509D01*
X4629865Y-19578509D02*
X4639389Y-19588033D01*
X4639389Y-19588033D02*
X4648912Y-19607081D01*
X4648912Y-19607081D02*
X4658436Y-19645176D01*
X4658436Y-19645176D02*
X4658436Y-19692795D01*
X4658436Y-19692795D02*
X4648912Y-19730890D01*
X4648912Y-19730890D02*
X4639389Y-19749938D01*
X4639389Y-19749938D02*
X4629865Y-19759462D01*
X4629865Y-19759462D02*
X4610817Y-19768986D01*
X4610817Y-19768986D02*
X4591769Y-19768986D01*
X4591769Y-19768986D02*
X4572722Y-19759462D01*
X4572722Y-19759462D02*
X4563198Y-19749938D01*
X4563198Y-19749938D02*
X4553674Y-19730890D01*
X4553674Y-19730890D02*
X4544150Y-19692795D01*
X4544150Y-19692795D02*
X4544150Y-19645176D01*
X4544150Y-19645176D02*
X4553674Y-19607081D01*
X4553674Y-19607081D02*
X4563198Y-19588033D01*
X4563198Y-19588033D02*
X4572722Y-19578509D01*
X4572722Y-19578509D02*
X4591769Y-19568986D01*
X4744150Y-19749938D02*
X4753674Y-19759462D01*
X4753674Y-19759462D02*
X4744150Y-19768986D01*
X4744150Y-19768986D02*
X4734627Y-19759462D01*
X4734627Y-19759462D02*
X4744150Y-19749938D01*
X4744150Y-19749938D02*
X4744150Y-19768986D01*
X4877484Y-19568986D02*
X4896531Y-19568986D01*
X4896531Y-19568986D02*
X4915579Y-19578509D01*
X4915579Y-19578509D02*
X4925103Y-19588033D01*
X4925103Y-19588033D02*
X4934627Y-19607081D01*
X4934627Y-19607081D02*
X4944150Y-19645176D01*
X4944150Y-19645176D02*
X4944150Y-19692795D01*
X4944150Y-19692795D02*
X4934627Y-19730890D01*
X4934627Y-19730890D02*
X4925103Y-19749938D01*
X4925103Y-19749938D02*
X4915579Y-19759462D01*
X4915579Y-19759462D02*
X4896531Y-19768986D01*
X4896531Y-19768986D02*
X4877484Y-19768986D01*
X4877484Y-19768986D02*
X4858436Y-19759462D01*
X4858436Y-19759462D02*
X4848912Y-19749938D01*
X4848912Y-19749938D02*
X4839389Y-19730890D01*
X4839389Y-19730890D02*
X4829865Y-19692795D01*
X4829865Y-19692795D02*
X4829865Y-19645176D01*
X4829865Y-19645176D02*
X4839389Y-19607081D01*
X4839389Y-19607081D02*
X4848912Y-19588033D01*
X4848912Y-19588033D02*
X4858436Y-19578509D01*
X4858436Y-19578509D02*
X4877484Y-19568986D01*
X5010817Y-19568986D02*
X5134627Y-19568986D01*
X5134627Y-19568986D02*
X5067960Y-19645176D01*
X5067960Y-19645176D02*
X5096531Y-19645176D01*
X5096531Y-19645176D02*
X5115579Y-19654700D01*
X5115579Y-19654700D02*
X5125103Y-19664224D01*
X5125103Y-19664224D02*
X5134627Y-19683271D01*
X5134627Y-19683271D02*
X5134627Y-19730890D01*
X5134627Y-19730890D02*
X5125103Y-19749938D01*
X5125103Y-19749938D02*
X5115579Y-19759462D01*
X5115579Y-19759462D02*
X5096531Y-19768986D01*
X5096531Y-19768986D02*
X5039389Y-19768986D01*
X5039389Y-19768986D02*
X5020341Y-19759462D01*
X5020341Y-19759462D02*
X5010817Y-19749938D01*
X5325103Y-19768986D02*
X5210817Y-19768986D01*
X5267960Y-19768986D02*
X5267960Y-19568986D01*
X5267960Y-19568986D02*
X5248912Y-19597557D01*
X5248912Y-19597557D02*
X5229865Y-19616605D01*
X5229865Y-19616605D02*
X5210817Y-19626128D01*
X5506055Y-19568986D02*
X5410817Y-19568986D01*
X5410817Y-19568986D02*
X5401293Y-19664224D01*
X5401293Y-19664224D02*
X5410817Y-19654700D01*
X5410817Y-19654700D02*
X5429865Y-19645176D01*
X5429865Y-19645176D02*
X5477484Y-19645176D01*
X5477484Y-19645176D02*
X5496531Y-19654700D01*
X5496531Y-19654700D02*
X5506055Y-19664224D01*
X5506055Y-19664224D02*
X5515579Y-19683271D01*
X5515579Y-19683271D02*
X5515579Y-19730890D01*
X5515579Y-19730890D02*
X5506055Y-19749938D01*
X5506055Y-19749938D02*
X5496531Y-19759462D01*
X5496531Y-19759462D02*
X5477484Y-19768986D01*
X5477484Y-19768986D02*
X5429865Y-19768986D01*
X5429865Y-19768986D02*
X5410817Y-19759462D01*
X5410817Y-19759462D02*
X5401293Y-19749938D01*
X5591770Y-19568986D02*
X5591770Y-19607081D01*
X5667960Y-19568986D02*
X5667960Y-19607081D01*
X5963198Y-19845176D02*
X5953674Y-19835652D01*
X5953674Y-19835652D02*
X5934627Y-19807081D01*
X5934627Y-19807081D02*
X5925103Y-19788033D01*
X5925103Y-19788033D02*
X5915579Y-19759462D01*
X5915579Y-19759462D02*
X5906055Y-19711843D01*
X5906055Y-19711843D02*
X5906055Y-19673748D01*
X5906055Y-19673748D02*
X5915579Y-19626128D01*
X5915579Y-19626128D02*
X5925103Y-19597557D01*
X5925103Y-19597557D02*
X5934627Y-19578509D01*
X5934627Y-19578509D02*
X5953674Y-19549938D01*
X5953674Y-19549938D02*
X5963198Y-19540414D01*
X6067960Y-19654700D02*
X6048912Y-19645176D01*
X6048912Y-19645176D02*
X6039389Y-19635652D01*
X6039389Y-19635652D02*
X6029865Y-19616605D01*
X6029865Y-19616605D02*
X6029865Y-19607081D01*
X6029865Y-19607081D02*
X6039389Y-19588033D01*
X6039389Y-19588033D02*
X6048912Y-19578509D01*
X6048912Y-19578509D02*
X6067960Y-19568986D01*
X6067960Y-19568986D02*
X6106055Y-19568986D01*
X6106055Y-19568986D02*
X6125103Y-19578509D01*
X6125103Y-19578509D02*
X6134627Y-19588033D01*
X6134627Y-19588033D02*
X6144150Y-19607081D01*
X6144150Y-19607081D02*
X6144150Y-19616605D01*
X6144150Y-19616605D02*
X6134627Y-19635652D01*
X6134627Y-19635652D02*
X6125103Y-19645176D01*
X6125103Y-19645176D02*
X6106055Y-19654700D01*
X6106055Y-19654700D02*
X6067960Y-19654700D01*
X6067960Y-19654700D02*
X6048912Y-19664224D01*
X6048912Y-19664224D02*
X6039389Y-19673748D01*
X6039389Y-19673748D02*
X6029865Y-19692795D01*
X6029865Y-19692795D02*
X6029865Y-19730890D01*
X6029865Y-19730890D02*
X6039389Y-19749938D01*
X6039389Y-19749938D02*
X6048912Y-19759462D01*
X6048912Y-19759462D02*
X6067960Y-19768986D01*
X6067960Y-19768986D02*
X6106055Y-19768986D01*
X6106055Y-19768986D02*
X6125103Y-19759462D01*
X6125103Y-19759462D02*
X6134627Y-19749938D01*
X6134627Y-19749938D02*
X6144150Y-19730890D01*
X6144150Y-19730890D02*
X6144150Y-19692795D01*
X6144150Y-19692795D02*
X6134627Y-19673748D01*
X6134627Y-19673748D02*
X6125103Y-19664224D01*
X6125103Y-19664224D02*
X6106055Y-19654700D01*
X6382246Y-19768986D02*
X6382246Y-19568986D01*
X6467960Y-19768986D02*
X6467960Y-19664224D01*
X6467960Y-19664224D02*
X6458436Y-19645176D01*
X6458436Y-19645176D02*
X6439389Y-19635652D01*
X6439389Y-19635652D02*
X6410817Y-19635652D01*
X6410817Y-19635652D02*
X6391770Y-19645176D01*
X6391770Y-19645176D02*
X6382246Y-19654700D01*
X6591770Y-19768986D02*
X6572722Y-19759462D01*
X6572722Y-19759462D02*
X6563198Y-19749938D01*
X6563198Y-19749938D02*
X6553674Y-19730890D01*
X6553674Y-19730890D02*
X6553674Y-19673748D01*
X6553674Y-19673748D02*
X6563198Y-19654700D01*
X6563198Y-19654700D02*
X6572722Y-19645176D01*
X6572722Y-19645176D02*
X6591770Y-19635652D01*
X6591770Y-19635652D02*
X6620341Y-19635652D01*
X6620341Y-19635652D02*
X6639389Y-19645176D01*
X6639389Y-19645176D02*
X6648912Y-19654700D01*
X6648912Y-19654700D02*
X6658436Y-19673748D01*
X6658436Y-19673748D02*
X6658436Y-19730890D01*
X6658436Y-19730890D02*
X6648912Y-19749938D01*
X6648912Y-19749938D02*
X6639389Y-19759462D01*
X6639389Y-19759462D02*
X6620341Y-19768986D01*
X6620341Y-19768986D02*
X6591770Y-19768986D01*
X6772722Y-19768986D02*
X6753674Y-19759462D01*
X6753674Y-19759462D02*
X6744151Y-19740414D01*
X6744151Y-19740414D02*
X6744151Y-19568986D01*
X6925103Y-19759462D02*
X6906055Y-19768986D01*
X6906055Y-19768986D02*
X6867960Y-19768986D01*
X6867960Y-19768986D02*
X6848912Y-19759462D01*
X6848912Y-19759462D02*
X6839389Y-19740414D01*
X6839389Y-19740414D02*
X6839389Y-19664224D01*
X6839389Y-19664224D02*
X6848912Y-19645176D01*
X6848912Y-19645176D02*
X6867960Y-19635652D01*
X6867960Y-19635652D02*
X6906055Y-19635652D01*
X6906055Y-19635652D02*
X6925103Y-19645176D01*
X6925103Y-19645176D02*
X6934627Y-19664224D01*
X6934627Y-19664224D02*
X6934627Y-19683271D01*
X6934627Y-19683271D02*
X6839389Y-19702319D01*
X7010817Y-19759462D02*
X7029865Y-19768986D01*
X7029865Y-19768986D02*
X7067960Y-19768986D01*
X7067960Y-19768986D02*
X7087008Y-19759462D01*
X7087008Y-19759462D02*
X7096532Y-19740414D01*
X7096532Y-19740414D02*
X7096532Y-19730890D01*
X7096532Y-19730890D02*
X7087008Y-19711843D01*
X7087008Y-19711843D02*
X7067960Y-19702319D01*
X7067960Y-19702319D02*
X7039389Y-19702319D01*
X7039389Y-19702319D02*
X7020341Y-19692795D01*
X7020341Y-19692795D02*
X7010817Y-19673748D01*
X7010817Y-19673748D02*
X7010817Y-19664224D01*
X7010817Y-19664224D02*
X7020341Y-19645176D01*
X7020341Y-19645176D02*
X7039389Y-19635652D01*
X7039389Y-19635652D02*
X7067960Y-19635652D01*
X7067960Y-19635652D02*
X7087008Y-19645176D01*
X7163198Y-19845176D02*
X7172722Y-19835652D01*
X7172722Y-19835652D02*
X7191770Y-19807081D01*
X7191770Y-19807081D02*
X7201293Y-19788033D01*
X7201293Y-19788033D02*
X7210817Y-19759462D01*
X7210817Y-19759462D02*
X7220341Y-19711843D01*
X7220341Y-19711843D02*
X7220341Y-19673748D01*
X7220341Y-19673748D02*
X7210817Y-19626128D01*
X7210817Y-19626128D02*
X7201293Y-19597557D01*
X7201293Y-19597557D02*
X7191770Y-19578509D01*
X7191770Y-19578509D02*
X7172722Y-19549938D01*
X7172722Y-19549938D02*
X7163198Y-19540414D01*
D12*
X2338135Y-19991502D02*
X2388135Y-19941502D01*
X2338135Y-19891502D01*
X2288135Y-19941502D01*
X2338135Y-19991502D01*
D11*
X2753674Y-20032986D02*
X2639388Y-20032986D01*
X2696531Y-20032986D02*
X2696531Y-19832986D01*
X2696531Y-19832986D02*
X2677484Y-19861557D01*
X2677484Y-19861557D02*
X2658436Y-19880605D01*
X2658436Y-19880605D02*
X2639388Y-19890128D01*
X2839388Y-20013938D02*
X2848912Y-20023462D01*
X2848912Y-20023462D02*
X2839388Y-20032986D01*
X2839388Y-20032986D02*
X2829864Y-20023462D01*
X2829864Y-20023462D02*
X2839388Y-20013938D01*
X2839388Y-20013938D02*
X2839388Y-20032986D01*
X2972722Y-19832986D02*
X2991769Y-19832986D01*
X2991769Y-19832986D02*
X3010817Y-19842509D01*
X3010817Y-19842509D02*
X3020341Y-19852033D01*
X3020341Y-19852033D02*
X3029864Y-19871081D01*
X3029864Y-19871081D02*
X3039388Y-19909176D01*
X3039388Y-19909176D02*
X3039388Y-19956795D01*
X3039388Y-19956795D02*
X3029864Y-19994890D01*
X3029864Y-19994890D02*
X3020341Y-20013938D01*
X3020341Y-20013938D02*
X3010817Y-20023462D01*
X3010817Y-20023462D02*
X2991769Y-20032986D01*
X2991769Y-20032986D02*
X2972722Y-20032986D01*
X2972722Y-20032986D02*
X2953674Y-20023462D01*
X2953674Y-20023462D02*
X2944150Y-20013938D01*
X2944150Y-20013938D02*
X2934626Y-19994890D01*
X2934626Y-19994890D02*
X2925103Y-19956795D01*
X2925103Y-19956795D02*
X2925103Y-19909176D01*
X2925103Y-19909176D02*
X2934626Y-19871081D01*
X2934626Y-19871081D02*
X2944150Y-19852033D01*
X2944150Y-19852033D02*
X2953674Y-19842509D01*
X2953674Y-19842509D02*
X2972722Y-19832986D01*
X3163198Y-19832986D02*
X3182245Y-19832986D01*
X3182245Y-19832986D02*
X3201293Y-19842509D01*
X3201293Y-19842509D02*
X3210817Y-19852033D01*
X3210817Y-19852033D02*
X3220341Y-19871081D01*
X3220341Y-19871081D02*
X3229864Y-19909176D01*
X3229864Y-19909176D02*
X3229864Y-19956795D01*
X3229864Y-19956795D02*
X3220341Y-19994890D01*
X3220341Y-19994890D02*
X3210817Y-20013938D01*
X3210817Y-20013938D02*
X3201293Y-20023462D01*
X3201293Y-20023462D02*
X3182245Y-20032986D01*
X3182245Y-20032986D02*
X3163198Y-20032986D01*
X3163198Y-20032986D02*
X3144150Y-20023462D01*
X3144150Y-20023462D02*
X3134626Y-20013938D01*
X3134626Y-20013938D02*
X3125103Y-19994890D01*
X3125103Y-19994890D02*
X3115579Y-19956795D01*
X3115579Y-19956795D02*
X3115579Y-19909176D01*
X3115579Y-19909176D02*
X3125103Y-19871081D01*
X3125103Y-19871081D02*
X3134626Y-19852033D01*
X3134626Y-19852033D02*
X3144150Y-19842509D01*
X3144150Y-19842509D02*
X3163198Y-19832986D01*
X3353674Y-19832986D02*
X3372722Y-19832986D01*
X3372722Y-19832986D02*
X3391769Y-19842509D01*
X3391769Y-19842509D02*
X3401293Y-19852033D01*
X3401293Y-19852033D02*
X3410817Y-19871081D01*
X3410817Y-19871081D02*
X3420341Y-19909176D01*
X3420341Y-19909176D02*
X3420341Y-19956795D01*
X3420341Y-19956795D02*
X3410817Y-19994890D01*
X3410817Y-19994890D02*
X3401293Y-20013938D01*
X3401293Y-20013938D02*
X3391769Y-20023462D01*
X3391769Y-20023462D02*
X3372722Y-20032986D01*
X3372722Y-20032986D02*
X3353674Y-20032986D01*
X3353674Y-20032986D02*
X3334626Y-20023462D01*
X3334626Y-20023462D02*
X3325103Y-20013938D01*
X3325103Y-20013938D02*
X3315579Y-19994890D01*
X3315579Y-19994890D02*
X3306055Y-19956795D01*
X3306055Y-19956795D02*
X3306055Y-19909176D01*
X3306055Y-19909176D02*
X3315579Y-19871081D01*
X3315579Y-19871081D02*
X3325103Y-19852033D01*
X3325103Y-19852033D02*
X3334626Y-19842509D01*
X3334626Y-19842509D02*
X3353674Y-19832986D01*
X3506055Y-20032986D02*
X3506055Y-19899652D01*
X3506055Y-19918700D02*
X3515579Y-19909176D01*
X3515579Y-19909176D02*
X3534626Y-19899652D01*
X3534626Y-19899652D02*
X3563198Y-19899652D01*
X3563198Y-19899652D02*
X3582245Y-19909176D01*
X3582245Y-19909176D02*
X3591769Y-19928224D01*
X3591769Y-19928224D02*
X3591769Y-20032986D01*
X3591769Y-19928224D02*
X3601293Y-19909176D01*
X3601293Y-19909176D02*
X3620341Y-19899652D01*
X3620341Y-19899652D02*
X3648912Y-19899652D01*
X3648912Y-19899652D02*
X3667960Y-19909176D01*
X3667960Y-19909176D02*
X3677484Y-19928224D01*
X3677484Y-19928224D02*
X3677484Y-20032986D01*
X3772722Y-20032986D02*
X3772722Y-19899652D01*
X3772722Y-19918700D02*
X3782245Y-19909176D01*
X3782245Y-19909176D02*
X3801293Y-19899652D01*
X3801293Y-19899652D02*
X3829865Y-19899652D01*
X3829865Y-19899652D02*
X3848912Y-19909176D01*
X3848912Y-19909176D02*
X3858436Y-19928224D01*
X3858436Y-19928224D02*
X3858436Y-20032986D01*
X3858436Y-19928224D02*
X3867960Y-19909176D01*
X3867960Y-19909176D02*
X3887007Y-19899652D01*
X3887007Y-19899652D02*
X3915579Y-19899652D01*
X3915579Y-19899652D02*
X3934626Y-19909176D01*
X3934626Y-19909176D02*
X3944150Y-19928224D01*
X3944150Y-19928224D02*
X3944150Y-20032986D01*
X4334627Y-19823462D02*
X4163198Y-20080605D01*
X4591769Y-19832986D02*
X4610817Y-19832986D01*
X4610817Y-19832986D02*
X4629865Y-19842509D01*
X4629865Y-19842509D02*
X4639389Y-19852033D01*
X4639389Y-19852033D02*
X4648912Y-19871081D01*
X4648912Y-19871081D02*
X4658436Y-19909176D01*
X4658436Y-19909176D02*
X4658436Y-19956795D01*
X4658436Y-19956795D02*
X4648912Y-19994890D01*
X4648912Y-19994890D02*
X4639389Y-20013938D01*
X4639389Y-20013938D02*
X4629865Y-20023462D01*
X4629865Y-20023462D02*
X4610817Y-20032986D01*
X4610817Y-20032986D02*
X4591769Y-20032986D01*
X4591769Y-20032986D02*
X4572722Y-20023462D01*
X4572722Y-20023462D02*
X4563198Y-20013938D01*
X4563198Y-20013938D02*
X4553674Y-19994890D01*
X4553674Y-19994890D02*
X4544150Y-19956795D01*
X4544150Y-19956795D02*
X4544150Y-19909176D01*
X4544150Y-19909176D02*
X4553674Y-19871081D01*
X4553674Y-19871081D02*
X4563198Y-19852033D01*
X4563198Y-19852033D02*
X4572722Y-19842509D01*
X4572722Y-19842509D02*
X4591769Y-19832986D01*
X4744150Y-20013938D02*
X4753674Y-20023462D01*
X4753674Y-20023462D02*
X4744150Y-20032986D01*
X4744150Y-20032986D02*
X4734627Y-20023462D01*
X4734627Y-20023462D02*
X4744150Y-20013938D01*
X4744150Y-20013938D02*
X4744150Y-20032986D01*
X4877484Y-19832986D02*
X4896531Y-19832986D01*
X4896531Y-19832986D02*
X4915579Y-19842509D01*
X4915579Y-19842509D02*
X4925103Y-19852033D01*
X4925103Y-19852033D02*
X4934627Y-19871081D01*
X4934627Y-19871081D02*
X4944150Y-19909176D01*
X4944150Y-19909176D02*
X4944150Y-19956795D01*
X4944150Y-19956795D02*
X4934627Y-19994890D01*
X4934627Y-19994890D02*
X4925103Y-20013938D01*
X4925103Y-20013938D02*
X4915579Y-20023462D01*
X4915579Y-20023462D02*
X4896531Y-20032986D01*
X4896531Y-20032986D02*
X4877484Y-20032986D01*
X4877484Y-20032986D02*
X4858436Y-20023462D01*
X4858436Y-20023462D02*
X4848912Y-20013938D01*
X4848912Y-20013938D02*
X4839389Y-19994890D01*
X4839389Y-19994890D02*
X4829865Y-19956795D01*
X4829865Y-19956795D02*
X4829865Y-19909176D01*
X4829865Y-19909176D02*
X4839389Y-19871081D01*
X4839389Y-19871081D02*
X4848912Y-19852033D01*
X4848912Y-19852033D02*
X4858436Y-19842509D01*
X4858436Y-19842509D02*
X4877484Y-19832986D01*
X5010817Y-19832986D02*
X5134627Y-19832986D01*
X5134627Y-19832986D02*
X5067960Y-19909176D01*
X5067960Y-19909176D02*
X5096531Y-19909176D01*
X5096531Y-19909176D02*
X5115579Y-19918700D01*
X5115579Y-19918700D02*
X5125103Y-19928224D01*
X5125103Y-19928224D02*
X5134627Y-19947271D01*
X5134627Y-19947271D02*
X5134627Y-19994890D01*
X5134627Y-19994890D02*
X5125103Y-20013938D01*
X5125103Y-20013938D02*
X5115579Y-20023462D01*
X5115579Y-20023462D02*
X5096531Y-20032986D01*
X5096531Y-20032986D02*
X5039389Y-20032986D01*
X5039389Y-20032986D02*
X5020341Y-20023462D01*
X5020341Y-20023462D02*
X5010817Y-20013938D01*
X5229865Y-20032986D02*
X5267960Y-20032986D01*
X5267960Y-20032986D02*
X5287008Y-20023462D01*
X5287008Y-20023462D02*
X5296531Y-20013938D01*
X5296531Y-20013938D02*
X5315579Y-19985367D01*
X5315579Y-19985367D02*
X5325103Y-19947271D01*
X5325103Y-19947271D02*
X5325103Y-19871081D01*
X5325103Y-19871081D02*
X5315579Y-19852033D01*
X5315579Y-19852033D02*
X5306055Y-19842509D01*
X5306055Y-19842509D02*
X5287008Y-19832986D01*
X5287008Y-19832986D02*
X5248912Y-19832986D01*
X5248912Y-19832986D02*
X5229865Y-19842509D01*
X5229865Y-19842509D02*
X5220341Y-19852033D01*
X5220341Y-19852033D02*
X5210817Y-19871081D01*
X5210817Y-19871081D02*
X5210817Y-19918700D01*
X5210817Y-19918700D02*
X5220341Y-19937748D01*
X5220341Y-19937748D02*
X5229865Y-19947271D01*
X5229865Y-19947271D02*
X5248912Y-19956795D01*
X5248912Y-19956795D02*
X5287008Y-19956795D01*
X5287008Y-19956795D02*
X5306055Y-19947271D01*
X5306055Y-19947271D02*
X5315579Y-19937748D01*
X5315579Y-19937748D02*
X5325103Y-19918700D01*
X5496531Y-19899652D02*
X5496531Y-20032986D01*
X5448912Y-19823462D02*
X5401293Y-19966319D01*
X5401293Y-19966319D02*
X5525103Y-19966319D01*
X5591770Y-19832986D02*
X5591770Y-19871081D01*
X5667960Y-19832986D02*
X5667960Y-19871081D01*
X5963198Y-20109176D02*
X5953674Y-20099652D01*
X5953674Y-20099652D02*
X5934627Y-20071081D01*
X5934627Y-20071081D02*
X5925103Y-20052033D01*
X5925103Y-20052033D02*
X5915579Y-20023462D01*
X5915579Y-20023462D02*
X5906055Y-19975843D01*
X5906055Y-19975843D02*
X5906055Y-19937748D01*
X5906055Y-19937748D02*
X5915579Y-19890128D01*
X5915579Y-19890128D02*
X5925103Y-19861557D01*
X5925103Y-19861557D02*
X5934627Y-19842509D01*
X5934627Y-19842509D02*
X5953674Y-19813938D01*
X5953674Y-19813938D02*
X5963198Y-19804414D01*
X6048912Y-20032986D02*
X6087008Y-20032986D01*
X6087008Y-20032986D02*
X6106055Y-20023462D01*
X6106055Y-20023462D02*
X6115579Y-20013938D01*
X6115579Y-20013938D02*
X6134627Y-19985367D01*
X6134627Y-19985367D02*
X6144150Y-19947271D01*
X6144150Y-19947271D02*
X6144150Y-19871081D01*
X6144150Y-19871081D02*
X6134627Y-19852033D01*
X6134627Y-19852033D02*
X6125103Y-19842509D01*
X6125103Y-19842509D02*
X6106055Y-19832986D01*
X6106055Y-19832986D02*
X6067960Y-19832986D01*
X6067960Y-19832986D02*
X6048912Y-19842509D01*
X6048912Y-19842509D02*
X6039389Y-19852033D01*
X6039389Y-19852033D02*
X6029865Y-19871081D01*
X6029865Y-19871081D02*
X6029865Y-19918700D01*
X6029865Y-19918700D02*
X6039389Y-19937748D01*
X6039389Y-19937748D02*
X6048912Y-19947271D01*
X6048912Y-19947271D02*
X6067960Y-19956795D01*
X6067960Y-19956795D02*
X6106055Y-19956795D01*
X6106055Y-19956795D02*
X6125103Y-19947271D01*
X6125103Y-19947271D02*
X6134627Y-19937748D01*
X6134627Y-19937748D02*
X6144150Y-19918700D01*
X6258436Y-19918700D02*
X6239389Y-19909176D01*
X6239389Y-19909176D02*
X6229865Y-19899652D01*
X6229865Y-19899652D02*
X6220341Y-19880605D01*
X6220341Y-19880605D02*
X6220341Y-19871081D01*
X6220341Y-19871081D02*
X6229865Y-19852033D01*
X6229865Y-19852033D02*
X6239389Y-19842509D01*
X6239389Y-19842509D02*
X6258436Y-19832986D01*
X6258436Y-19832986D02*
X6296531Y-19832986D01*
X6296531Y-19832986D02*
X6315579Y-19842509D01*
X6315579Y-19842509D02*
X6325103Y-19852033D01*
X6325103Y-19852033D02*
X6334627Y-19871081D01*
X6334627Y-19871081D02*
X6334627Y-19880605D01*
X6334627Y-19880605D02*
X6325103Y-19899652D01*
X6325103Y-19899652D02*
X6315579Y-19909176D01*
X6315579Y-19909176D02*
X6296531Y-19918700D01*
X6296531Y-19918700D02*
X6258436Y-19918700D01*
X6258436Y-19918700D02*
X6239389Y-19928224D01*
X6239389Y-19928224D02*
X6229865Y-19937748D01*
X6229865Y-19937748D02*
X6220341Y-19956795D01*
X6220341Y-19956795D02*
X6220341Y-19994890D01*
X6220341Y-19994890D02*
X6229865Y-20013938D01*
X6229865Y-20013938D02*
X6239389Y-20023462D01*
X6239389Y-20023462D02*
X6258436Y-20032986D01*
X6258436Y-20032986D02*
X6296531Y-20032986D01*
X6296531Y-20032986D02*
X6315579Y-20023462D01*
X6315579Y-20023462D02*
X6325103Y-20013938D01*
X6325103Y-20013938D02*
X6334627Y-19994890D01*
X6334627Y-19994890D02*
X6334627Y-19956795D01*
X6334627Y-19956795D02*
X6325103Y-19937748D01*
X6325103Y-19937748D02*
X6315579Y-19928224D01*
X6315579Y-19928224D02*
X6296531Y-19918700D01*
X6572722Y-20032986D02*
X6572722Y-19832986D01*
X6658436Y-20032986D02*
X6658436Y-19928224D01*
X6658436Y-19928224D02*
X6648912Y-19909176D01*
X6648912Y-19909176D02*
X6629865Y-19899652D01*
X6629865Y-19899652D02*
X6601293Y-19899652D01*
X6601293Y-19899652D02*
X6582246Y-19909176D01*
X6582246Y-19909176D02*
X6572722Y-19918700D01*
X6782246Y-20032986D02*
X6763198Y-20023462D01*
X6763198Y-20023462D02*
X6753674Y-20013938D01*
X6753674Y-20013938D02*
X6744151Y-19994890D01*
X6744151Y-19994890D02*
X6744151Y-19937748D01*
X6744151Y-19937748D02*
X6753674Y-19918700D01*
X6753674Y-19918700D02*
X6763198Y-19909176D01*
X6763198Y-19909176D02*
X6782246Y-19899652D01*
X6782246Y-19899652D02*
X6810817Y-19899652D01*
X6810817Y-19899652D02*
X6829865Y-19909176D01*
X6829865Y-19909176D02*
X6839389Y-19918700D01*
X6839389Y-19918700D02*
X6848912Y-19937748D01*
X6848912Y-19937748D02*
X6848912Y-19994890D01*
X6848912Y-19994890D02*
X6839389Y-20013938D01*
X6839389Y-20013938D02*
X6829865Y-20023462D01*
X6829865Y-20023462D02*
X6810817Y-20032986D01*
X6810817Y-20032986D02*
X6782246Y-20032986D01*
X6963198Y-20032986D02*
X6944151Y-20023462D01*
X6944151Y-20023462D02*
X6934627Y-20004414D01*
X6934627Y-20004414D02*
X6934627Y-19832986D01*
X7115579Y-20023462D02*
X7096532Y-20032986D01*
X7096532Y-20032986D02*
X7058436Y-20032986D01*
X7058436Y-20032986D02*
X7039389Y-20023462D01*
X7039389Y-20023462D02*
X7029865Y-20004414D01*
X7029865Y-20004414D02*
X7029865Y-19928224D01*
X7029865Y-19928224D02*
X7039389Y-19909176D01*
X7039389Y-19909176D02*
X7058436Y-19899652D01*
X7058436Y-19899652D02*
X7096532Y-19899652D01*
X7096532Y-19899652D02*
X7115579Y-19909176D01*
X7115579Y-19909176D02*
X7125103Y-19928224D01*
X7125103Y-19928224D02*
X7125103Y-19947271D01*
X7125103Y-19947271D02*
X7029865Y-19966319D01*
X7201293Y-20023462D02*
X7220341Y-20032986D01*
X7220341Y-20032986D02*
X7258436Y-20032986D01*
X7258436Y-20032986D02*
X7277484Y-20023462D01*
X7277484Y-20023462D02*
X7287008Y-20004414D01*
X7287008Y-20004414D02*
X7287008Y-19994890D01*
X7287008Y-19994890D02*
X7277484Y-19975843D01*
X7277484Y-19975843D02*
X7258436Y-19966319D01*
X7258436Y-19966319D02*
X7229865Y-19966319D01*
X7229865Y-19966319D02*
X7210817Y-19956795D01*
X7210817Y-19956795D02*
X7201293Y-19937748D01*
X7201293Y-19937748D02*
X7201293Y-19928224D01*
X7201293Y-19928224D02*
X7210817Y-19909176D01*
X7210817Y-19909176D02*
X7229865Y-19899652D01*
X7229865Y-19899652D02*
X7258436Y-19899652D01*
X7258436Y-19899652D02*
X7277484Y-19909176D01*
X7353674Y-20109176D02*
X7363198Y-20099652D01*
X7363198Y-20099652D02*
X7382246Y-20071081D01*
X7382246Y-20071081D02*
X7391770Y-20052033D01*
X7391770Y-20052033D02*
X7401293Y-20023462D01*
X7401293Y-20023462D02*
X7410817Y-19975843D01*
X7410817Y-19975843D02*
X7410817Y-19937748D01*
X7410817Y-19937748D02*
X7401293Y-19890128D01*
X7401293Y-19890128D02*
X7391770Y-19861557D01*
X7391770Y-19861557D02*
X7382246Y-19842509D01*
X7382246Y-19842509D02*
X7363198Y-19813938D01*
X7363198Y-19813938D02*
X7353674Y-19804414D01*
D13*
X2238135Y-20130502D02*
X2388135Y-20280502D01*
X2388135Y-20130502D02*
X2238135Y-20280502D01*
X2388135Y-20205502D02*
G75*
G02*
X2238135Y-20205502I-75000J0D01*
G01*
X2238135Y-20205502D02*
G75*
G02*
X2388135Y-20205502I75000J0D01*
G01*
D11*
X2753674Y-20296986D02*
X2639388Y-20296986D01*
X2696531Y-20296986D02*
X2696531Y-20096986D01*
X2696531Y-20096986D02*
X2677484Y-20125557D01*
X2677484Y-20125557D02*
X2658436Y-20144605D01*
X2658436Y-20144605D02*
X2639388Y-20154128D01*
X2839388Y-20277938D02*
X2848912Y-20287462D01*
X2848912Y-20287462D02*
X2839388Y-20296986D01*
X2839388Y-20296986D02*
X2829864Y-20287462D01*
X2829864Y-20287462D02*
X2839388Y-20277938D01*
X2839388Y-20277938D02*
X2839388Y-20296986D01*
X3029864Y-20096986D02*
X2934626Y-20096986D01*
X2934626Y-20096986D02*
X2925103Y-20192224D01*
X2925103Y-20192224D02*
X2934626Y-20182700D01*
X2934626Y-20182700D02*
X2953674Y-20173176D01*
X2953674Y-20173176D02*
X3001293Y-20173176D01*
X3001293Y-20173176D02*
X3020341Y-20182700D01*
X3020341Y-20182700D02*
X3029864Y-20192224D01*
X3029864Y-20192224D02*
X3039388Y-20211271D01*
X3039388Y-20211271D02*
X3039388Y-20258890D01*
X3039388Y-20258890D02*
X3029864Y-20277938D01*
X3029864Y-20277938D02*
X3020341Y-20287462D01*
X3020341Y-20287462D02*
X3001293Y-20296986D01*
X3001293Y-20296986D02*
X2953674Y-20296986D01*
X2953674Y-20296986D02*
X2934626Y-20287462D01*
X2934626Y-20287462D02*
X2925103Y-20277938D01*
X3163198Y-20096986D02*
X3182245Y-20096986D01*
X3182245Y-20096986D02*
X3201293Y-20106509D01*
X3201293Y-20106509D02*
X3210817Y-20116033D01*
X3210817Y-20116033D02*
X3220341Y-20135081D01*
X3220341Y-20135081D02*
X3229864Y-20173176D01*
X3229864Y-20173176D02*
X3229864Y-20220795D01*
X3229864Y-20220795D02*
X3220341Y-20258890D01*
X3220341Y-20258890D02*
X3210817Y-20277938D01*
X3210817Y-20277938D02*
X3201293Y-20287462D01*
X3201293Y-20287462D02*
X3182245Y-20296986D01*
X3182245Y-20296986D02*
X3163198Y-20296986D01*
X3163198Y-20296986D02*
X3144150Y-20287462D01*
X3144150Y-20287462D02*
X3134626Y-20277938D01*
X3134626Y-20277938D02*
X3125103Y-20258890D01*
X3125103Y-20258890D02*
X3115579Y-20220795D01*
X3115579Y-20220795D02*
X3115579Y-20173176D01*
X3115579Y-20173176D02*
X3125103Y-20135081D01*
X3125103Y-20135081D02*
X3134626Y-20116033D01*
X3134626Y-20116033D02*
X3144150Y-20106509D01*
X3144150Y-20106509D02*
X3163198Y-20096986D01*
X3353674Y-20096986D02*
X3372722Y-20096986D01*
X3372722Y-20096986D02*
X3391769Y-20106509D01*
X3391769Y-20106509D02*
X3401293Y-20116033D01*
X3401293Y-20116033D02*
X3410817Y-20135081D01*
X3410817Y-20135081D02*
X3420341Y-20173176D01*
X3420341Y-20173176D02*
X3420341Y-20220795D01*
X3420341Y-20220795D02*
X3410817Y-20258890D01*
X3410817Y-20258890D02*
X3401293Y-20277938D01*
X3401293Y-20277938D02*
X3391769Y-20287462D01*
X3391769Y-20287462D02*
X3372722Y-20296986D01*
X3372722Y-20296986D02*
X3353674Y-20296986D01*
X3353674Y-20296986D02*
X3334626Y-20287462D01*
X3334626Y-20287462D02*
X3325103Y-20277938D01*
X3325103Y-20277938D02*
X3315579Y-20258890D01*
X3315579Y-20258890D02*
X3306055Y-20220795D01*
X3306055Y-20220795D02*
X3306055Y-20173176D01*
X3306055Y-20173176D02*
X3315579Y-20135081D01*
X3315579Y-20135081D02*
X3325103Y-20116033D01*
X3325103Y-20116033D02*
X3334626Y-20106509D01*
X3334626Y-20106509D02*
X3353674Y-20096986D01*
X3506055Y-20296986D02*
X3506055Y-20163652D01*
X3506055Y-20182700D02*
X3515579Y-20173176D01*
X3515579Y-20173176D02*
X3534626Y-20163652D01*
X3534626Y-20163652D02*
X3563198Y-20163652D01*
X3563198Y-20163652D02*
X3582245Y-20173176D01*
X3582245Y-20173176D02*
X3591769Y-20192224D01*
X3591769Y-20192224D02*
X3591769Y-20296986D01*
X3591769Y-20192224D02*
X3601293Y-20173176D01*
X3601293Y-20173176D02*
X3620341Y-20163652D01*
X3620341Y-20163652D02*
X3648912Y-20163652D01*
X3648912Y-20163652D02*
X3667960Y-20173176D01*
X3667960Y-20173176D02*
X3677484Y-20192224D01*
X3677484Y-20192224D02*
X3677484Y-20296986D01*
X3772722Y-20296986D02*
X3772722Y-20163652D01*
X3772722Y-20182700D02*
X3782245Y-20173176D01*
X3782245Y-20173176D02*
X3801293Y-20163652D01*
X3801293Y-20163652D02*
X3829865Y-20163652D01*
X3829865Y-20163652D02*
X3848912Y-20173176D01*
X3848912Y-20173176D02*
X3858436Y-20192224D01*
X3858436Y-20192224D02*
X3858436Y-20296986D01*
X3858436Y-20192224D02*
X3867960Y-20173176D01*
X3867960Y-20173176D02*
X3887007Y-20163652D01*
X3887007Y-20163652D02*
X3915579Y-20163652D01*
X3915579Y-20163652D02*
X3934626Y-20173176D01*
X3934626Y-20173176D02*
X3944150Y-20192224D01*
X3944150Y-20192224D02*
X3944150Y-20296986D01*
X4334627Y-20087462D02*
X4163198Y-20344605D01*
X4591769Y-20096986D02*
X4610817Y-20096986D01*
X4610817Y-20096986D02*
X4629865Y-20106509D01*
X4629865Y-20106509D02*
X4639389Y-20116033D01*
X4639389Y-20116033D02*
X4648912Y-20135081D01*
X4648912Y-20135081D02*
X4658436Y-20173176D01*
X4658436Y-20173176D02*
X4658436Y-20220795D01*
X4658436Y-20220795D02*
X4648912Y-20258890D01*
X4648912Y-20258890D02*
X4639389Y-20277938D01*
X4639389Y-20277938D02*
X4629865Y-20287462D01*
X4629865Y-20287462D02*
X4610817Y-20296986D01*
X4610817Y-20296986D02*
X4591769Y-20296986D01*
X4591769Y-20296986D02*
X4572722Y-20287462D01*
X4572722Y-20287462D02*
X4563198Y-20277938D01*
X4563198Y-20277938D02*
X4553674Y-20258890D01*
X4553674Y-20258890D02*
X4544150Y-20220795D01*
X4544150Y-20220795D02*
X4544150Y-20173176D01*
X4544150Y-20173176D02*
X4553674Y-20135081D01*
X4553674Y-20135081D02*
X4563198Y-20116033D01*
X4563198Y-20116033D02*
X4572722Y-20106509D01*
X4572722Y-20106509D02*
X4591769Y-20096986D01*
X4744150Y-20277938D02*
X4753674Y-20287462D01*
X4753674Y-20287462D02*
X4744150Y-20296986D01*
X4744150Y-20296986D02*
X4734627Y-20287462D01*
X4734627Y-20287462D02*
X4744150Y-20277938D01*
X4744150Y-20277938D02*
X4744150Y-20296986D01*
X4877484Y-20096986D02*
X4896531Y-20096986D01*
X4896531Y-20096986D02*
X4915579Y-20106509D01*
X4915579Y-20106509D02*
X4925103Y-20116033D01*
X4925103Y-20116033D02*
X4934627Y-20135081D01*
X4934627Y-20135081D02*
X4944150Y-20173176D01*
X4944150Y-20173176D02*
X4944150Y-20220795D01*
X4944150Y-20220795D02*
X4934627Y-20258890D01*
X4934627Y-20258890D02*
X4925103Y-20277938D01*
X4925103Y-20277938D02*
X4915579Y-20287462D01*
X4915579Y-20287462D02*
X4896531Y-20296986D01*
X4896531Y-20296986D02*
X4877484Y-20296986D01*
X4877484Y-20296986D02*
X4858436Y-20287462D01*
X4858436Y-20287462D02*
X4848912Y-20277938D01*
X4848912Y-20277938D02*
X4839389Y-20258890D01*
X4839389Y-20258890D02*
X4829865Y-20220795D01*
X4829865Y-20220795D02*
X4829865Y-20173176D01*
X4829865Y-20173176D02*
X4839389Y-20135081D01*
X4839389Y-20135081D02*
X4848912Y-20116033D01*
X4848912Y-20116033D02*
X4858436Y-20106509D01*
X4858436Y-20106509D02*
X4877484Y-20096986D01*
X5125103Y-20096986D02*
X5029865Y-20096986D01*
X5029865Y-20096986D02*
X5020341Y-20192224D01*
X5020341Y-20192224D02*
X5029865Y-20182700D01*
X5029865Y-20182700D02*
X5048912Y-20173176D01*
X5048912Y-20173176D02*
X5096531Y-20173176D01*
X5096531Y-20173176D02*
X5115579Y-20182700D01*
X5115579Y-20182700D02*
X5125103Y-20192224D01*
X5125103Y-20192224D02*
X5134627Y-20211271D01*
X5134627Y-20211271D02*
X5134627Y-20258890D01*
X5134627Y-20258890D02*
X5125103Y-20277938D01*
X5125103Y-20277938D02*
X5115579Y-20287462D01*
X5115579Y-20287462D02*
X5096531Y-20296986D01*
X5096531Y-20296986D02*
X5048912Y-20296986D01*
X5048912Y-20296986D02*
X5029865Y-20287462D01*
X5029865Y-20287462D02*
X5020341Y-20277938D01*
X5229865Y-20296986D02*
X5267960Y-20296986D01*
X5267960Y-20296986D02*
X5287008Y-20287462D01*
X5287008Y-20287462D02*
X5296531Y-20277938D01*
X5296531Y-20277938D02*
X5315579Y-20249367D01*
X5315579Y-20249367D02*
X5325103Y-20211271D01*
X5325103Y-20211271D02*
X5325103Y-20135081D01*
X5325103Y-20135081D02*
X5315579Y-20116033D01*
X5315579Y-20116033D02*
X5306055Y-20106509D01*
X5306055Y-20106509D02*
X5287008Y-20096986D01*
X5287008Y-20096986D02*
X5248912Y-20096986D01*
X5248912Y-20096986D02*
X5229865Y-20106509D01*
X5229865Y-20106509D02*
X5220341Y-20116033D01*
X5220341Y-20116033D02*
X5210817Y-20135081D01*
X5210817Y-20135081D02*
X5210817Y-20182700D01*
X5210817Y-20182700D02*
X5220341Y-20201748D01*
X5220341Y-20201748D02*
X5229865Y-20211271D01*
X5229865Y-20211271D02*
X5248912Y-20220795D01*
X5248912Y-20220795D02*
X5287008Y-20220795D01*
X5287008Y-20220795D02*
X5306055Y-20211271D01*
X5306055Y-20211271D02*
X5315579Y-20201748D01*
X5315579Y-20201748D02*
X5325103Y-20182700D01*
X5515579Y-20296986D02*
X5401293Y-20296986D01*
X5458436Y-20296986D02*
X5458436Y-20096986D01*
X5458436Y-20096986D02*
X5439389Y-20125557D01*
X5439389Y-20125557D02*
X5420341Y-20144605D01*
X5420341Y-20144605D02*
X5401293Y-20154128D01*
X5591770Y-20096986D02*
X5591770Y-20135081D01*
X5667960Y-20096986D02*
X5667960Y-20135081D01*
X5963198Y-20373176D02*
X5953674Y-20363652D01*
X5953674Y-20363652D02*
X5934627Y-20335081D01*
X5934627Y-20335081D02*
X5925103Y-20316033D01*
X5925103Y-20316033D02*
X5915579Y-20287462D01*
X5915579Y-20287462D02*
X5906055Y-20239843D01*
X5906055Y-20239843D02*
X5906055Y-20201748D01*
X5906055Y-20201748D02*
X5915579Y-20154128D01*
X5915579Y-20154128D02*
X5925103Y-20125557D01*
X5925103Y-20125557D02*
X5934627Y-20106509D01*
X5934627Y-20106509D02*
X5953674Y-20077938D01*
X5953674Y-20077938D02*
X5963198Y-20068414D01*
X6077484Y-20096986D02*
X6096531Y-20096986D01*
X6096531Y-20096986D02*
X6115579Y-20106509D01*
X6115579Y-20106509D02*
X6125103Y-20116033D01*
X6125103Y-20116033D02*
X6134627Y-20135081D01*
X6134627Y-20135081D02*
X6144150Y-20173176D01*
X6144150Y-20173176D02*
X6144150Y-20220795D01*
X6144150Y-20220795D02*
X6134627Y-20258890D01*
X6134627Y-20258890D02*
X6125103Y-20277938D01*
X6125103Y-20277938D02*
X6115579Y-20287462D01*
X6115579Y-20287462D02*
X6096531Y-20296986D01*
X6096531Y-20296986D02*
X6077484Y-20296986D01*
X6077484Y-20296986D02*
X6058436Y-20287462D01*
X6058436Y-20287462D02*
X6048912Y-20277938D01*
X6048912Y-20277938D02*
X6039389Y-20258890D01*
X6039389Y-20258890D02*
X6029865Y-20220795D01*
X6029865Y-20220795D02*
X6029865Y-20173176D01*
X6029865Y-20173176D02*
X6039389Y-20135081D01*
X6039389Y-20135081D02*
X6048912Y-20116033D01*
X6048912Y-20116033D02*
X6058436Y-20106509D01*
X6058436Y-20106509D02*
X6077484Y-20096986D01*
X6382246Y-20296986D02*
X6382246Y-20096986D01*
X6467960Y-20296986D02*
X6467960Y-20192224D01*
X6467960Y-20192224D02*
X6458436Y-20173176D01*
X6458436Y-20173176D02*
X6439389Y-20163652D01*
X6439389Y-20163652D02*
X6410817Y-20163652D01*
X6410817Y-20163652D02*
X6391770Y-20173176D01*
X6391770Y-20173176D02*
X6382246Y-20182700D01*
X6591770Y-20296986D02*
X6572722Y-20287462D01*
X6572722Y-20287462D02*
X6563198Y-20277938D01*
X6563198Y-20277938D02*
X6553674Y-20258890D01*
X6553674Y-20258890D02*
X6553674Y-20201748D01*
X6553674Y-20201748D02*
X6563198Y-20182700D01*
X6563198Y-20182700D02*
X6572722Y-20173176D01*
X6572722Y-20173176D02*
X6591770Y-20163652D01*
X6591770Y-20163652D02*
X6620341Y-20163652D01*
X6620341Y-20163652D02*
X6639389Y-20173176D01*
X6639389Y-20173176D02*
X6648912Y-20182700D01*
X6648912Y-20182700D02*
X6658436Y-20201748D01*
X6658436Y-20201748D02*
X6658436Y-20258890D01*
X6658436Y-20258890D02*
X6648912Y-20277938D01*
X6648912Y-20277938D02*
X6639389Y-20287462D01*
X6639389Y-20287462D02*
X6620341Y-20296986D01*
X6620341Y-20296986D02*
X6591770Y-20296986D01*
X6772722Y-20296986D02*
X6753674Y-20287462D01*
X6753674Y-20287462D02*
X6744151Y-20268414D01*
X6744151Y-20268414D02*
X6744151Y-20096986D01*
X6925103Y-20287462D02*
X6906055Y-20296986D01*
X6906055Y-20296986D02*
X6867960Y-20296986D01*
X6867960Y-20296986D02*
X6848912Y-20287462D01*
X6848912Y-20287462D02*
X6839389Y-20268414D01*
X6839389Y-20268414D02*
X6839389Y-20192224D01*
X6839389Y-20192224D02*
X6848912Y-20173176D01*
X6848912Y-20173176D02*
X6867960Y-20163652D01*
X6867960Y-20163652D02*
X6906055Y-20163652D01*
X6906055Y-20163652D02*
X6925103Y-20173176D01*
X6925103Y-20173176D02*
X6934627Y-20192224D01*
X6934627Y-20192224D02*
X6934627Y-20211271D01*
X6934627Y-20211271D02*
X6839389Y-20230319D01*
X7010817Y-20287462D02*
X7029865Y-20296986D01*
X7029865Y-20296986D02*
X7067960Y-20296986D01*
X7067960Y-20296986D02*
X7087008Y-20287462D01*
X7087008Y-20287462D02*
X7096532Y-20268414D01*
X7096532Y-20268414D02*
X7096532Y-20258890D01*
X7096532Y-20258890D02*
X7087008Y-20239843D01*
X7087008Y-20239843D02*
X7067960Y-20230319D01*
X7067960Y-20230319D02*
X7039389Y-20230319D01*
X7039389Y-20230319D02*
X7020341Y-20220795D01*
X7020341Y-20220795D02*
X7010817Y-20201748D01*
X7010817Y-20201748D02*
X7010817Y-20192224D01*
X7010817Y-20192224D02*
X7020341Y-20173176D01*
X7020341Y-20173176D02*
X7039389Y-20163652D01*
X7039389Y-20163652D02*
X7067960Y-20163652D01*
X7067960Y-20163652D02*
X7087008Y-20173176D01*
X7334627Y-20220795D02*
X7487008Y-20220795D01*
X7410817Y-20296986D02*
X7410817Y-20144605D01*
X7820341Y-20163652D02*
X7820341Y-20296986D01*
X7772722Y-20087462D02*
X7725103Y-20230319D01*
X7725103Y-20230319D02*
X7848913Y-20230319D01*
X8067960Y-20287462D02*
X8087008Y-20296986D01*
X8087008Y-20296986D02*
X8125103Y-20296986D01*
X8125103Y-20296986D02*
X8144151Y-20287462D01*
X8144151Y-20287462D02*
X8153675Y-20268414D01*
X8153675Y-20268414D02*
X8153675Y-20258890D01*
X8153675Y-20258890D02*
X8144151Y-20239843D01*
X8144151Y-20239843D02*
X8125103Y-20230319D01*
X8125103Y-20230319D02*
X8096532Y-20230319D01*
X8096532Y-20230319D02*
X8077484Y-20220795D01*
X8077484Y-20220795D02*
X8067960Y-20201748D01*
X8067960Y-20201748D02*
X8067960Y-20192224D01*
X8067960Y-20192224D02*
X8077484Y-20173176D01*
X8077484Y-20173176D02*
X8096532Y-20163652D01*
X8096532Y-20163652D02*
X8125103Y-20163652D01*
X8125103Y-20163652D02*
X8144151Y-20173176D01*
X8267960Y-20296986D02*
X8248913Y-20287462D01*
X8248913Y-20287462D02*
X8239389Y-20268414D01*
X8239389Y-20268414D02*
X8239389Y-20096986D01*
X8372722Y-20296986D02*
X8353675Y-20287462D01*
X8353675Y-20287462D02*
X8344151Y-20277938D01*
X8344151Y-20277938D02*
X8334627Y-20258890D01*
X8334627Y-20258890D02*
X8334627Y-20201748D01*
X8334627Y-20201748D02*
X8344151Y-20182700D01*
X8344151Y-20182700D02*
X8353675Y-20173176D01*
X8353675Y-20173176D02*
X8372722Y-20163652D01*
X8372722Y-20163652D02*
X8401294Y-20163652D01*
X8401294Y-20163652D02*
X8420341Y-20173176D01*
X8420341Y-20173176D02*
X8429865Y-20182700D01*
X8429865Y-20182700D02*
X8439389Y-20201748D01*
X8439389Y-20201748D02*
X8439389Y-20258890D01*
X8439389Y-20258890D02*
X8429865Y-20277938D01*
X8429865Y-20277938D02*
X8420341Y-20287462D01*
X8420341Y-20287462D02*
X8401294Y-20296986D01*
X8401294Y-20296986D02*
X8372722Y-20296986D01*
X8496532Y-20163652D02*
X8572722Y-20163652D01*
X8525103Y-20096986D02*
X8525103Y-20268414D01*
X8525103Y-20268414D02*
X8534627Y-20287462D01*
X8534627Y-20287462D02*
X8553675Y-20296986D01*
X8553675Y-20296986D02*
X8572722Y-20296986D01*
X8629865Y-20287462D02*
X8648913Y-20296986D01*
X8648913Y-20296986D02*
X8687008Y-20296986D01*
X8687008Y-20296986D02*
X8706056Y-20287462D01*
X8706056Y-20287462D02*
X8715579Y-20268414D01*
X8715579Y-20268414D02*
X8715579Y-20258890D01*
X8715579Y-20258890D02*
X8706056Y-20239843D01*
X8706056Y-20239843D02*
X8687008Y-20230319D01*
X8687008Y-20230319D02*
X8658437Y-20230319D01*
X8658437Y-20230319D02*
X8639389Y-20220795D01*
X8639389Y-20220795D02*
X8629865Y-20201748D01*
X8629865Y-20201748D02*
X8629865Y-20192224D01*
X8629865Y-20192224D02*
X8639389Y-20173176D01*
X8639389Y-20173176D02*
X8658437Y-20163652D01*
X8658437Y-20163652D02*
X8687008Y-20163652D01*
X8687008Y-20163652D02*
X8706056Y-20173176D01*
X8782246Y-20373176D02*
X8791770Y-20363652D01*
X8791770Y-20363652D02*
X8810818Y-20335081D01*
X8810818Y-20335081D02*
X8820341Y-20316033D01*
X8820341Y-20316033D02*
X8829865Y-20287462D01*
X8829865Y-20287462D02*
X8839389Y-20239843D01*
X8839389Y-20239843D02*
X8839389Y-20201748D01*
X8839389Y-20201748D02*
X8829865Y-20154128D01*
X8829865Y-20154128D02*
X8820341Y-20125557D01*
X8820341Y-20125557D02*
X8810818Y-20106509D01*
X8810818Y-20106509D02*
X8791770Y-20077938D01*
X8791770Y-20077938D02*
X8782246Y-20068414D01*
M02*
