G04 #@! TF.GenerationSoftware,KiCad,Pcbnew,10.0.3*
G04 #@! TF.CreationDate,2026-07-16T22:26:11-04:00*
G04 #@! TF.ProjectId,karve-split,6b617276-652d-4737-906c-69742e6b6963,rev?*
G04 #@! TF.SameCoordinates,Original*
G04 #@! TF.FileFunction,Soldermask,Top*
G04 #@! TF.FilePolarity,Negative*
%FSLAX46Y46*%
G04 Gerber Fmt 4.6, Leading zero omitted, Abs format (unit mm)*
G04 Created by KiCad (PCBNEW 10.0.3) date 2026-07-16 22:26:11*
%MOMM*%
%LPD*%
G01*
G04 APERTURE LIST*
G04 Aperture macros list*
%AMRoundRect*
0 Rectangle with rounded corners*
0 $1 Rounding radius*
0 $2 $3 $4 $5 $6 $7 $8 $9 X,Y pos of 4 corners*
0 Add a 4 corners polygon primitive as box body*
4,1,4,$2,$3,$4,$5,$6,$7,$8,$9,$2,$3,0*
0 Add four circle primitives for the rounded corners*
1,1,$1+$1,$2,$3*
1,1,$1+$1,$4,$5*
1,1,$1+$1,$6,$7*
1,1,$1+$1,$8,$9*
0 Add four rect primitives between the rounded corners*
20,1,$1+$1,$2,$3,$4,$5,0*
20,1,$1+$1,$4,$5,$6,$7,0*
20,1,$1+$1,$6,$7,$8,$9,0*
20,1,$1+$1,$8,$9,$2,$3,0*%
%AMFreePoly0*
4,1,37,0.603843,0.796157,0.639018,0.796157,0.711114,0.766294,0.766294,0.711114,0.796157,0.639018,0.796157,0.603843,0.800000,0.600000,0.800000,-0.600000,0.796157,-0.603843,0.796157,-0.639018,0.766294,-0.711114,0.711114,-0.766294,0.639018,-0.796157,0.603843,-0.796157,0.600000,-0.800000,0.000000,-0.800000,0.000000,-0.796148,-0.078414,-0.796148,-0.232228,-0.765552,-0.377117,-0.705537,
-0.507515,-0.618408,-0.618408,-0.507515,-0.705537,-0.377117,-0.765552,-0.232228,-0.796148,-0.078414,-0.796148,0.078414,-0.765552,0.232228,-0.705537,0.377117,-0.618408,0.507515,-0.507515,0.618408,-0.377117,0.705537,-0.232228,0.765552,-0.078414,0.796148,0.000000,0.796148,0.000000,0.800000,0.600000,0.800000,0.603843,0.796157,0.603843,0.796157,$1*%
%AMFreePoly1*
4,1,37,0.000000,0.796148,0.078414,0.796148,0.232228,0.765552,0.377117,0.705537,0.507515,0.618408,0.618408,0.507515,0.705537,0.377117,0.765552,0.232228,0.796148,0.078414,0.796148,-0.078414,0.765552,-0.232228,0.705537,-0.377117,0.618408,-0.507515,0.507515,-0.618408,0.377117,-0.705537,0.232228,-0.765552,0.078414,-0.796148,0.000000,-0.796148,0.000000,-0.800000,-0.600000,-0.800000,
-0.603843,-0.796157,-0.639018,-0.796157,-0.711114,-0.766294,-0.766294,-0.711114,-0.796157,-0.639018,-0.796157,-0.603843,-0.800000,-0.600000,-0.800000,0.600000,-0.796157,0.603843,-0.796157,0.639018,-0.766294,0.711114,-0.711114,0.766294,-0.639018,0.796157,-0.603843,0.796157,-0.600000,0.800000,0.000000,0.800000,0.000000,0.796148,0.000000,0.796148,$1*%
G04 Aperture macros list end*
%ADD10C,2.200000*%
%ADD11RoundRect,0.200000X-0.600000X0.600000X-0.600000X-0.600000X0.600000X-0.600000X0.600000X0.600000X0*%
%ADD12C,1.600000*%
%ADD13FreePoly0,270.000000*%
%ADD14FreePoly1,270.000000*%
%ADD15C,0.500000*%
%ADD16R,2.000000X2.000000*%
%ADD17C,2.000000*%
%ADD18R,3.200000X2.000000*%
%ADD19RoundRect,0.170000X0.680000X-0.680000X0.680000X0.680000X-0.680000X0.680000X-0.680000X-0.680000X0*%
%ADD20C,1.700000*%
%ADD21RoundRect,0.200000X0.600000X-0.600000X0.600000X0.600000X-0.600000X0.600000X-0.600000X-0.600000X0*%
%ADD22FreePoly0,90.000000*%
%ADD23FreePoly1,90.000000*%
%ADD24C,1.701800*%
%ADD25C,3.048000*%
%ADD26C,3.987800*%
%ADD27C,0.650000*%
%ADD28O,1.000000X1.600000*%
%ADD29O,1.000000X2.100000*%
G04 APERTURE END LIST*
D10*
G04 #@! TO.C,H15*
X100100000Y-80750000D03*
G04 #@! TD*
G04 #@! TO.C,H10*
X52500000Y-120250000D03*
G04 #@! TD*
D11*
G04 #@! TO.C,A2*
X136647651Y-45040000D03*
D12*
X134107651Y-45040000D03*
D13*
X131567651Y-45040000D03*
D12*
X129027651Y-45040000D03*
X126487651Y-45040000D03*
X123947651Y-45040000D03*
X121407651Y-45040000D03*
D13*
X118867651Y-45040000D03*
D12*
X116327651Y-45040000D03*
X113787651Y-45040000D03*
X111247651Y-45040000D03*
X108707651Y-45040000D03*
D13*
X106167651Y-45040000D03*
D12*
X103627651Y-45040000D03*
X101087651Y-45040000D03*
X98547651Y-45040000D03*
X96007651Y-45040000D03*
D13*
X93467651Y-45040000D03*
D12*
X90927651Y-45040000D03*
X88387651Y-45040000D03*
X88387651Y-62820000D03*
X90927651Y-62820000D03*
D14*
X93467651Y-62820000D03*
D12*
X96007651Y-62820000D03*
X98547651Y-62820000D03*
X101087651Y-62820000D03*
X103627651Y-62820000D03*
D14*
X106167651Y-62820000D03*
D12*
X108707651Y-62820000D03*
X111247651Y-62820000D03*
X113787651Y-62820000D03*
X116327651Y-62820000D03*
D14*
X118867651Y-62820000D03*
D12*
X121407651Y-62820000D03*
X123947651Y-62820000D03*
X126487651Y-62820000D03*
X129027651Y-62820000D03*
D14*
X131567651Y-62820000D03*
D12*
X134107651Y-62820000D03*
X136647651Y-62820000D03*
G04 #@! TD*
D15*
G04 #@! TO.C,H4*
X214400000Y-159000000D03*
X219400000Y-159000000D03*
X214400000Y-158250000D03*
X219400000Y-158250000D03*
X214400000Y-157500000D03*
X219400000Y-157500000D03*
X214400000Y-156750000D03*
X219400000Y-156750000D03*
X214400000Y-156000000D03*
X219400000Y-156000000D03*
X214400000Y-155250000D03*
X219400000Y-155250000D03*
X214400000Y-154500000D03*
X219400000Y-154500000D03*
X214400000Y-153750000D03*
X219400000Y-153750000D03*
X214400000Y-153000000D03*
X219400000Y-153000000D03*
X214400000Y-152250000D03*
X219400000Y-152250000D03*
X214400000Y-151500000D03*
X219400000Y-151500000D03*
G04 #@! TD*
D16*
G04 #@! TO.C,SW51*
X197660151Y-72630000D03*
D17*
X197660151Y-77630000D03*
X197660151Y-75130000D03*
D18*
X205160151Y-69530000D03*
X205160151Y-80730000D03*
D17*
X212160151Y-77630000D03*
X212160151Y-72630000D03*
G04 #@! TD*
D19*
G04 #@! TO.C,U2*
X45830151Y-63240000D03*
D20*
X45830151Y-60700000D03*
X45830151Y-58160000D03*
X45830151Y-55620000D03*
G04 #@! TD*
D16*
G04 #@! TO.C,SW93*
X221672500Y-72630000D03*
D17*
X221672500Y-77630000D03*
X221672500Y-75130000D03*
D18*
X229172500Y-69530000D03*
X229172500Y-80730000D03*
D17*
X236172500Y-77630000D03*
X236172500Y-72630000D03*
G04 #@! TD*
D10*
G04 #@! TO.C,H19*
X295550000Y-102500000D03*
G04 #@! TD*
G04 #@! TO.C,H14*
X62150000Y-83450000D03*
G04 #@! TD*
D19*
G04 #@! TO.C,U3*
X333767500Y-62740000D03*
D20*
X333767500Y-60200000D03*
X333767500Y-57660000D03*
X333767500Y-55120000D03*
G04 #@! TD*
D10*
G04 #@! TO.C,H7*
X114450000Y-179550000D03*
G04 #@! TD*
D15*
G04 #@! TO.C,H2*
X214400000Y-139950000D03*
X219400000Y-139950000D03*
X214400000Y-139200000D03*
X219400000Y-139200000D03*
X214400000Y-138450000D03*
X219400000Y-138450000D03*
X214400000Y-137700000D03*
X219400000Y-137700000D03*
X214400000Y-136950000D03*
X219400000Y-136950000D03*
X214400000Y-136200000D03*
X219400000Y-136200000D03*
X214400000Y-135450000D03*
X219400000Y-135450000D03*
X214400000Y-134700000D03*
X219400000Y-134700000D03*
X214400000Y-133950000D03*
X219400000Y-133950000D03*
X214400000Y-133200000D03*
X219400000Y-133200000D03*
X214400000Y-132450000D03*
X219400000Y-132450000D03*
G04 #@! TD*
D10*
G04 #@! TO.C,H11*
X27000000Y-179550000D03*
G04 #@! TD*
G04 #@! TO.C,H16*
X238450000Y-179550000D03*
G04 #@! TD*
D15*
G04 #@! TO.C,H3*
X214400000Y-101850000D03*
X219400000Y-101850000D03*
X214400000Y-101100000D03*
X219400000Y-101100000D03*
X214400000Y-100350000D03*
X219400000Y-100350000D03*
X214400000Y-99600000D03*
X219400000Y-99600000D03*
X214400000Y-98850000D03*
X219400000Y-98850000D03*
X214400000Y-98100000D03*
X219400000Y-98100000D03*
X214400000Y-97350000D03*
X219400000Y-97350000D03*
X214400000Y-96600000D03*
X219400000Y-96600000D03*
X214400000Y-95850000D03*
X219400000Y-95850000D03*
X214400000Y-95100000D03*
X219400000Y-95100000D03*
X214400000Y-94350000D03*
X219400000Y-94350000D03*
G04 #@! TD*
D10*
G04 #@! TO.C,H8*
X153350000Y-136850000D03*
G04 #@! TD*
G04 #@! TO.C,H9*
X192100000Y-112000000D03*
G04 #@! TD*
G04 #@! TO.C,H20*
X241700000Y-116150000D03*
G04 #@! TD*
G04 #@! TO.C,H6*
X195400000Y-179550000D03*
G04 #@! TD*
G04 #@! TO.C,H21*
X257500000Y-84700000D03*
G04 #@! TD*
G04 #@! TO.C,H17*
X333700000Y-84650000D03*
G04 #@! TD*
G04 #@! TO.C,H12*
X176950000Y-84150000D03*
G04 #@! TD*
D15*
G04 #@! TO.C,H1*
X214400000Y-120900000D03*
X219400000Y-120900000D03*
X214400000Y-120150000D03*
X219400000Y-120150000D03*
X214400000Y-119400000D03*
X219400000Y-119400000D03*
X214400000Y-118650000D03*
X219400000Y-118650000D03*
X214400000Y-117900000D03*
X219400000Y-117900000D03*
X214400000Y-117150000D03*
X219400000Y-117150000D03*
X214400000Y-116400000D03*
X219400000Y-116400000D03*
X214400000Y-115650000D03*
X219400000Y-115650000D03*
X214400000Y-114900000D03*
X219400000Y-114900000D03*
X214400000Y-114150000D03*
X219400000Y-114150000D03*
X214400000Y-113400000D03*
X219400000Y-113400000D03*
G04 #@! TD*
D21*
G04 #@! TO.C,A3*
X278187500Y-62710000D03*
D12*
X280727500Y-62710000D03*
D22*
X283267500Y-62710000D03*
D12*
X285807500Y-62710000D03*
X288347500Y-62710000D03*
X290887500Y-62710000D03*
X293427500Y-62710000D03*
D22*
X295967500Y-62710000D03*
D12*
X298507500Y-62710000D03*
X301047500Y-62710000D03*
X303587500Y-62710000D03*
X306127500Y-62710000D03*
D22*
X308667500Y-62710000D03*
D12*
X311207500Y-62710000D03*
X313747500Y-62710000D03*
X316287500Y-62710000D03*
X318827500Y-62710000D03*
D22*
X321367500Y-62710000D03*
D12*
X323907500Y-62710000D03*
X326447500Y-62710000D03*
X326447500Y-44930000D03*
X323907500Y-44930000D03*
D23*
X321367500Y-44930000D03*
D12*
X318827500Y-44930000D03*
X316287500Y-44930000D03*
X313747500Y-44930000D03*
X311207500Y-44930000D03*
D23*
X308667500Y-44930000D03*
D12*
X306127500Y-44930000D03*
X303587500Y-44930000D03*
X301047500Y-44930000D03*
X298507500Y-44930000D03*
D23*
X295967500Y-44930000D03*
D12*
X293427500Y-44930000D03*
X290887500Y-44930000D03*
X288347500Y-44930000D03*
X285807500Y-44930000D03*
D23*
X283267500Y-44930000D03*
D12*
X280727500Y-44930000D03*
X278187500Y-44930000D03*
G04 #@! TD*
D15*
G04 #@! TO.C,H5*
X214400000Y-178600000D03*
X219400000Y-178600000D03*
X214400000Y-177850000D03*
X219400000Y-177850000D03*
X214400000Y-177100000D03*
X219400000Y-177100000D03*
X214400000Y-176350000D03*
X219400000Y-176350000D03*
X214400000Y-175600000D03*
X219400000Y-175600000D03*
X214400000Y-174850000D03*
X219400000Y-174850000D03*
X214400000Y-174100000D03*
X219400000Y-174100000D03*
X214400000Y-173350000D03*
X219400000Y-173350000D03*
X214400000Y-172600000D03*
X219400000Y-172600000D03*
X214400000Y-171850000D03*
X219400000Y-171850000D03*
X214400000Y-171100000D03*
X219400000Y-171100000D03*
G04 #@! TD*
D10*
G04 #@! TO.C,H13*
X349950000Y-179600000D03*
G04 #@! TD*
G04 #@! TO.C,H18*
X280050000Y-153350000D03*
G04 #@! TD*
D24*
G04 #@! TO.C,SW120*
X324490000Y-132280000D03*
D25*
X321950000Y-127200000D03*
D26*
X319410000Y-132280000D03*
D25*
X315600000Y-129740000D03*
D24*
X314330000Y-132280000D03*
G04 #@! TD*
G04 #@! TO.C,SW97*
X310202500Y-75130000D03*
D25*
X307662500Y-70050000D03*
D26*
X305122500Y-75130000D03*
D25*
X301312500Y-72590000D03*
D24*
X300042500Y-75130000D03*
G04 #@! TD*
G04 #@! TO.C,SW132*
X279246250Y-170380000D03*
D25*
X276706250Y-165300000D03*
D26*
X274166250Y-170380000D03*
D25*
X270356250Y-167840000D03*
D24*
X269086250Y-170380000D03*
G04 #@! TD*
G04 #@! TO.C,SW74*
X148077651Y-132280000D03*
D25*
X145537651Y-127200000D03*
D26*
X142997651Y-132280000D03*
D25*
X139187651Y-129740000D03*
D24*
X137917651Y-132280000D03*
G04 #@! TD*
D26*
G04 #@! TO.C,SW124*
X271816750Y-159585000D03*
D25*
X271816750Y-144345000D03*
D24*
X264958750Y-151330000D03*
D25*
X262418750Y-146250000D03*
D26*
X259878750Y-151330000D03*
D25*
X256068750Y-148790000D03*
D24*
X254798750Y-151330000D03*
D26*
X247940750Y-159585000D03*
D25*
X247940750Y-144345000D03*
G04 #@! TD*
D24*
G04 #@! TO.C,SW109*
X234002500Y-113230000D03*
D25*
X231462500Y-108150000D03*
D26*
X228922500Y-113230000D03*
D25*
X225112500Y-110690000D03*
D24*
X223842500Y-113230000D03*
G04 #@! TD*
G04 #@! TO.C,SW99*
X348302500Y-75130000D03*
D25*
X345762500Y-70050000D03*
D26*
X343222500Y-75130000D03*
D25*
X339412500Y-72590000D03*
D24*
X338142500Y-75130000D03*
G04 #@! TD*
G04 #@! TO.C,SW127*
X334015000Y-151330000D03*
D25*
X331475000Y-146250000D03*
D26*
X328935000Y-151330000D03*
D25*
X325125000Y-148790000D03*
D24*
X323855000Y-151330000D03*
G04 #@! TD*
G04 #@! TO.C,SW78*
X81402651Y-151330000D03*
D25*
X78862651Y-146250000D03*
D26*
X76322651Y-151330000D03*
D25*
X72512651Y-148790000D03*
D24*
X71242651Y-151330000D03*
G04 #@! TD*
G04 #@! TO.C,SW91*
X190940151Y-170380000D03*
D25*
X188400151Y-165300000D03*
D26*
X185860151Y-170380000D03*
D25*
X182050151Y-167840000D03*
D24*
X180780151Y-170380000D03*
G04 #@! TD*
G04 #@! TO.C,SW68*
X209990151Y-113230000D03*
D25*
X207450151Y-108150000D03*
D26*
X204910151Y-113230000D03*
D25*
X201100151Y-110690000D03*
D24*
X199830151Y-113230000D03*
G04 #@! TD*
G04 #@! TO.C,SW49*
X171890151Y-75130000D03*
D25*
X169350151Y-70050000D03*
D26*
X166810151Y-75130000D03*
D25*
X163000151Y-72590000D03*
D24*
X161730151Y-75130000D03*
G04 #@! TD*
G04 #@! TO.C,SW103*
X272102500Y-94180000D03*
D25*
X269562500Y-89100000D03*
D26*
X267022500Y-94180000D03*
D25*
X263212500Y-91640000D03*
D24*
X261942500Y-94180000D03*
G04 #@! TD*
G04 #@! TO.C,SW98*
X329252500Y-75130000D03*
D25*
X326712500Y-70050000D03*
D26*
X324172500Y-75130000D03*
D25*
X320362500Y-72590000D03*
D24*
X319092500Y-75130000D03*
G04 #@! TD*
G04 #@! TO.C,SW130*
X234002500Y-170380000D03*
D25*
X231462500Y-165300000D03*
D26*
X228922500Y-170380000D03*
D25*
X225112500Y-167840000D03*
D24*
X223842500Y-170380000D03*
G04 #@! TD*
G04 #@! TO.C,SW108*
X367352500Y-94180000D03*
D25*
X364812500Y-89100000D03*
D26*
X362272500Y-94180000D03*
D25*
X358462500Y-91640000D03*
D24*
X357192500Y-94180000D03*
G04 #@! TD*
G04 #@! TO.C,SW119*
X305440000Y-132280000D03*
D25*
X302900000Y-127200000D03*
D26*
X300360000Y-132280000D03*
D25*
X296550000Y-129740000D03*
D24*
X295280000Y-132280000D03*
G04 #@! TD*
G04 #@! TO.C,SW81*
X138552651Y-151330000D03*
D25*
X136012651Y-146250000D03*
D26*
X133472651Y-151330000D03*
D25*
X129662651Y-148790000D03*
D24*
X128392651Y-151330000D03*
G04 #@! TD*
G04 #@! TO.C,SW77*
X62352651Y-151330000D03*
D25*
X59812651Y-146250000D03*
D26*
X57272651Y-151330000D03*
D25*
X53462651Y-148790000D03*
D24*
X52192651Y-151330000D03*
G04 #@! TD*
G04 #@! TO.C,SW110*
X257815000Y-113230000D03*
D25*
X255275000Y-108150000D03*
D26*
X252735000Y-113230000D03*
D25*
X248925000Y-110690000D03*
D24*
X247655000Y-113230000D03*
G04 #@! TD*
G04 #@! TO.C,SW65*
X143315151Y-113230000D03*
D25*
X140775151Y-108150000D03*
D26*
X138235151Y-113230000D03*
D25*
X134425151Y-110690000D03*
D24*
X133155151Y-113230000D03*
G04 #@! TD*
G04 #@! TO.C,SW133*
X303058750Y-170380000D03*
D25*
X300518750Y-165300000D03*
D26*
X297978750Y-170380000D03*
D25*
X294168750Y-167840000D03*
D24*
X292898750Y-170380000D03*
G04 #@! TD*
G04 #@! TO.C,SW104*
X291152500Y-94180000D03*
D25*
X288612500Y-89100000D03*
D26*
X286072500Y-94180000D03*
D25*
X282262500Y-91640000D03*
D24*
X280992500Y-94180000D03*
G04 #@! TD*
G04 #@! TO.C,SW76*
X209990151Y-132280000D03*
D25*
X207450151Y-127200000D03*
D26*
X204910151Y-132280000D03*
D25*
X201100151Y-129740000D03*
D24*
X199830151Y-132280000D03*
G04 #@! TD*
G04 #@! TO.C,SW121*
X343540000Y-132280000D03*
D25*
X341000000Y-127200000D03*
D26*
X338460000Y-132280000D03*
D25*
X334650000Y-129740000D03*
D24*
X333380000Y-132280000D03*
G04 #@! TD*
G04 #@! TO.C,SW70*
X71877651Y-132280000D03*
D25*
X69337651Y-127200000D03*
D26*
X66797651Y-132280000D03*
D25*
X62987651Y-129740000D03*
D24*
X61717651Y-132280000D03*
G04 #@! TD*
G04 #@! TO.C,SW69*
X52827651Y-132280000D03*
D25*
X50287651Y-127200000D03*
D26*
X47747651Y-132280000D03*
D25*
X43937651Y-129740000D03*
D24*
X42667651Y-132280000D03*
G04 #@! TD*
G04 #@! TO.C,SW96*
X291152500Y-75130000D03*
D25*
X288612500Y-70050000D03*
D26*
X286072500Y-75130000D03*
D25*
X282262500Y-72590000D03*
D24*
X280992500Y-75130000D03*
G04 #@! TD*
G04 #@! TO.C,SW66*
X162365151Y-113230000D03*
D25*
X159825151Y-108150000D03*
D26*
X157285151Y-113230000D03*
D25*
X153475151Y-110690000D03*
D24*
X152205151Y-113230000D03*
G04 #@! TD*
G04 #@! TO.C,SW125*
X295915000Y-151330000D03*
D25*
X293375000Y-146250000D03*
D26*
X290835000Y-151330000D03*
D25*
X287025000Y-148790000D03*
D24*
X285755000Y-151330000D03*
G04 #@! TD*
D12*
G04 #@! TO.C,R8*
X58314851Y-51345641D03*
X68474851Y-51345641D03*
G04 #@! TD*
D24*
G04 #@! TO.C,SW105*
X310202500Y-94180000D03*
D25*
X307662500Y-89100000D03*
D26*
X305122500Y-94180000D03*
D25*
X301312500Y-91640000D03*
D24*
X300042500Y-94180000D03*
G04 #@! TD*
G04 #@! TO.C,SW72*
X109977651Y-132280000D03*
D25*
X107437651Y-127200000D03*
D26*
X104897651Y-132280000D03*
D25*
X101087651Y-129740000D03*
D24*
X99817651Y-132280000D03*
G04 #@! TD*
G04 #@! TO.C,SW114*
X338777500Y-113230000D03*
D25*
X336237500Y-108150000D03*
D26*
X333697500Y-113230000D03*
D25*
X329887500Y-110690000D03*
D24*
X328617500Y-113230000D03*
G04 #@! TD*
G04 #@! TO.C,SW44*
X76640151Y-75130000D03*
D25*
X74100151Y-70050000D03*
D26*
X71560151Y-75130000D03*
D25*
X67750151Y-72590000D03*
D24*
X66480151Y-75130000D03*
G04 #@! TD*
D26*
G04 #@! TO.C,SW85*
X62066901Y-178635000D03*
D25*
X62066901Y-163395000D03*
D24*
X55208901Y-170380000D03*
D25*
X52668901Y-165300000D03*
D26*
X50128901Y-170380000D03*
D25*
X46318901Y-167840000D03*
D24*
X45048901Y-170380000D03*
D26*
X38190901Y-178635000D03*
D25*
X38190901Y-163395000D03*
G04 #@! TD*
D24*
G04 #@! TO.C,SW112*
X300677500Y-113230000D03*
D25*
X298137500Y-108150000D03*
D26*
X295597500Y-113230000D03*
D25*
X291787500Y-110690000D03*
D24*
X290517500Y-113230000D03*
G04 #@! TD*
D26*
G04 #@! TO.C,SW134*
X343254250Y-178635000D03*
D25*
X343254250Y-163395000D03*
D24*
X336396250Y-170380000D03*
D25*
X333856250Y-165300000D03*
D26*
X331316250Y-170380000D03*
D25*
X327506250Y-167840000D03*
D24*
X326236250Y-170380000D03*
D26*
X319378250Y-178635000D03*
D25*
X319378250Y-163395000D03*
G04 #@! TD*
D24*
G04 #@! TO.C,SW118*
X286390000Y-132280000D03*
D25*
X283850000Y-127200000D03*
D26*
X281310000Y-132280000D03*
D25*
X277500000Y-129740000D03*
D24*
X276230000Y-132280000D03*
G04 #@! TD*
G04 #@! TO.C,SW92*
X209990151Y-170380000D03*
D25*
X207450151Y-165300000D03*
D26*
X204910151Y-170380000D03*
D25*
X201100151Y-167840000D03*
D24*
X199830151Y-170380000D03*
G04 #@! TD*
G04 #@! TO.C,SW126*
X314965000Y-151330000D03*
D25*
X312425000Y-146250000D03*
D26*
X309885000Y-151330000D03*
D25*
X306075000Y-148790000D03*
D24*
X304805000Y-151330000D03*
G04 #@! TD*
G04 #@! TO.C,SW52*
X57590151Y-94180000D03*
D25*
X55050151Y-89100000D03*
D26*
X52510151Y-94180000D03*
D25*
X48700151Y-91640000D03*
D24*
X47430151Y-94180000D03*
G04 #@! TD*
G04 #@! TO.C,SW117*
X260196250Y-132280000D03*
D25*
X257656250Y-127200000D03*
D26*
X255116250Y-132280000D03*
D25*
X251306250Y-129740000D03*
D24*
X250036250Y-132280000D03*
G04 #@! TD*
G04 #@! TO.C,SW50*
X190940151Y-75130000D03*
D25*
X188400151Y-70050000D03*
D26*
X185860151Y-75130000D03*
D25*
X182050151Y-72590000D03*
D24*
X180780151Y-75130000D03*
G04 #@! TD*
G04 #@! TO.C,SW80*
X119502651Y-151330000D03*
D25*
X116962651Y-146250000D03*
D26*
X114422651Y-151330000D03*
D25*
X110612651Y-148790000D03*
D24*
X109342651Y-151330000D03*
G04 #@! TD*
G04 #@! TO.C,SW84*
X209990151Y-151330000D03*
D25*
X207450151Y-146250000D03*
D26*
X204910151Y-151330000D03*
D25*
X201100151Y-148790000D03*
D24*
X199830151Y-151330000D03*
G04 #@! TD*
G04 #@! TO.C,SW63*
X105215151Y-113230000D03*
D25*
X102675151Y-108150000D03*
D26*
X100135151Y-113230000D03*
D25*
X96325151Y-110690000D03*
D24*
X95055151Y-113230000D03*
G04 #@! TD*
G04 #@! TO.C,SW43*
X57590151Y-75130000D03*
D25*
X55050151Y-70050000D03*
D26*
X52510151Y-75130000D03*
D25*
X48700151Y-72590000D03*
D24*
X47430151Y-75130000D03*
G04 #@! TD*
G04 #@! TO.C,SW115*
X357827500Y-113230000D03*
D25*
X355287500Y-108150000D03*
D26*
X352747500Y-113230000D03*
D25*
X348937500Y-110690000D03*
D24*
X347667500Y-113230000D03*
G04 #@! TD*
G04 #@! TO.C,SW53*
X76640151Y-94180000D03*
D25*
X74100151Y-89100000D03*
D26*
X71560151Y-94180000D03*
D25*
X67750151Y-91640000D03*
D24*
X66480151Y-94180000D03*
G04 #@! TD*
G04 #@! TO.C,SW82*
X164746401Y-151330000D03*
D25*
X162206401Y-146250000D03*
D26*
X159666401Y-151330000D03*
D25*
X155856401Y-148790000D03*
D24*
X154586401Y-151330000D03*
G04 #@! TD*
G04 #@! TO.C,SW90*
X171890151Y-170380000D03*
D25*
X169350151Y-165300000D03*
D26*
X166810151Y-170380000D03*
D25*
X163000151Y-167840000D03*
D24*
X161730151Y-170380000D03*
G04 #@! TD*
G04 #@! TO.C,SW60*
X48065151Y-113230000D03*
D25*
X45525151Y-108150000D03*
D26*
X42985151Y-113230000D03*
D25*
X39175151Y-110690000D03*
D24*
X37905151Y-113230000D03*
G04 #@! TD*
G04 #@! TO.C,SW56*
X133790151Y-94180000D03*
D25*
X131250151Y-89100000D03*
D26*
X128710151Y-94180000D03*
D25*
X124900151Y-91640000D03*
D24*
X123630151Y-94180000D03*
G04 #@! TD*
G04 #@! TO.C,SW116*
X234002500Y-132280000D03*
D25*
X231462500Y-127200000D03*
D26*
X228922500Y-132280000D03*
D25*
X225112500Y-129740000D03*
D24*
X223842500Y-132280000D03*
G04 #@! TD*
G04 #@! TO.C,SW61*
X67115151Y-113230000D03*
D25*
X64575151Y-108150000D03*
D26*
X62035151Y-113230000D03*
D25*
X58225151Y-110690000D03*
D24*
X56955151Y-113230000D03*
G04 #@! TD*
G04 #@! TO.C,SW79*
X100452651Y-151330000D03*
D25*
X97912651Y-146250000D03*
D26*
X95372651Y-151330000D03*
D25*
X91562651Y-148790000D03*
D24*
X90292651Y-151330000D03*
G04 #@! TD*
G04 #@! TO.C,SW95*
X272102500Y-75130000D03*
D25*
X269562500Y-70050000D03*
D26*
X267022500Y-75130000D03*
D25*
X263212500Y-72590000D03*
D24*
X261942500Y-75130000D03*
G04 #@! TD*
G04 #@! TO.C,SW101*
X234002500Y-94180000D03*
D25*
X231462500Y-89100000D03*
D26*
X228922500Y-94180000D03*
D25*
X225112500Y-91640000D03*
D24*
X223842500Y-94180000D03*
G04 #@! TD*
G04 #@! TO.C,SW59*
X209990151Y-94180000D03*
D25*
X207450151Y-89100000D03*
D26*
X204910151Y-94180000D03*
D25*
X201100151Y-91640000D03*
D24*
X199830151Y-94180000D03*
G04 #@! TD*
G04 #@! TO.C,SW113*
X319727500Y-113230000D03*
D25*
X317187500Y-108150000D03*
D26*
X314647500Y-113230000D03*
D25*
X310837500Y-110690000D03*
D24*
X309567500Y-113230000D03*
G04 #@! TD*
G04 #@! TO.C,SW129*
X372115000Y-151330000D03*
D25*
X369575000Y-146250000D03*
D26*
X367035000Y-151330000D03*
D25*
X363225000Y-148790000D03*
D24*
X361955000Y-151330000D03*
G04 #@! TD*
G04 #@! TO.C,SW71*
X90927651Y-132280000D03*
D25*
X88387651Y-127200000D03*
D26*
X85847651Y-132280000D03*
D25*
X82037651Y-129740000D03*
D24*
X80767651Y-132280000D03*
G04 #@! TD*
G04 #@! TO.C,SW131*
X255433750Y-170380000D03*
D25*
X252893750Y-165300000D03*
D26*
X250353750Y-170380000D03*
D25*
X246543750Y-167840000D03*
D24*
X245273750Y-170380000D03*
G04 #@! TD*
D12*
G04 #@! TO.C,R10*
X333217500Y-50430000D03*
X343377500Y-50430000D03*
G04 #@! TD*
D24*
G04 #@! TO.C,SW88*
X129027651Y-170380000D03*
D25*
X126487651Y-165300000D03*
D26*
X123947651Y-170380000D03*
D25*
X120137651Y-167840000D03*
D24*
X118867651Y-170380000D03*
G04 #@! TD*
G04 #@! TO.C,SW48*
X152840151Y-75130000D03*
D25*
X150300151Y-70050000D03*
D26*
X147760151Y-75130000D03*
D25*
X143950151Y-72590000D03*
D24*
X142680151Y-75130000D03*
G04 #@! TD*
G04 #@! TO.C,SW57*
X152840151Y-94180000D03*
D25*
X150300151Y-89100000D03*
D26*
X147760151Y-94180000D03*
D25*
X143950151Y-91640000D03*
D24*
X142680151Y-94180000D03*
G04 #@! TD*
G04 #@! TO.C,SW62*
X86165151Y-113230000D03*
D25*
X83625151Y-108150000D03*
D26*
X81085151Y-113230000D03*
D25*
X77275151Y-110690000D03*
D24*
X76005151Y-113230000D03*
G04 #@! TD*
G04 #@! TO.C,SW89*
X150458901Y-170380000D03*
D25*
X147918901Y-165300000D03*
D26*
X145378901Y-170380000D03*
D25*
X141568901Y-167840000D03*
D24*
X140298901Y-170380000D03*
G04 #@! TD*
G04 #@! TO.C,SW45*
X95690151Y-75130000D03*
D25*
X93150151Y-70050000D03*
D26*
X90610151Y-75130000D03*
D25*
X86800151Y-72590000D03*
D24*
X85530151Y-75130000D03*
G04 #@! TD*
G04 #@! TO.C,SW83*
X190940151Y-151330000D03*
D25*
X188400151Y-146250000D03*
D26*
X185860151Y-151330000D03*
D25*
X182050151Y-148790000D03*
D24*
X180780151Y-151330000D03*
G04 #@! TD*
G04 #@! TO.C,SW106*
X329252500Y-94180000D03*
D25*
X326712500Y-89100000D03*
D26*
X324172500Y-94180000D03*
D25*
X320362500Y-91640000D03*
D24*
X319092500Y-94180000D03*
G04 #@! TD*
G04 #@! TO.C,SW55*
X114740151Y-94180000D03*
D25*
X112200151Y-89100000D03*
D26*
X109660151Y-94180000D03*
D25*
X105850151Y-91640000D03*
D24*
X104580151Y-94180000D03*
G04 #@! TD*
G04 #@! TO.C,SW122*
X362590000Y-132280000D03*
D25*
X360050000Y-127200000D03*
D26*
X357510000Y-132280000D03*
D25*
X353700000Y-129740000D03*
D24*
X352430000Y-132280000D03*
G04 #@! TD*
G04 #@! TO.C,SW102*
X253052500Y-94180000D03*
D25*
X250512500Y-89100000D03*
D26*
X247972500Y-94180000D03*
D25*
X244162500Y-91640000D03*
D24*
X242892500Y-94180000D03*
G04 #@! TD*
G04 #@! TO.C,SW87*
X109977651Y-170380000D03*
D25*
X107437651Y-165300000D03*
D26*
X104897651Y-170380000D03*
D25*
X101087651Y-167840000D03*
D24*
X99817651Y-170380000D03*
G04 #@! TD*
G04 #@! TO.C,SW111*
X281627500Y-113230000D03*
D25*
X279087500Y-108150000D03*
D26*
X276547500Y-113230000D03*
D25*
X272737500Y-110690000D03*
D24*
X271467500Y-113230000D03*
G04 #@! TD*
D27*
G04 #@! TO.C,J2*
X46440151Y-49530000D03*
X52220151Y-49530000D03*
D28*
X45010151Y-45880000D03*
D29*
X45010151Y-50060000D03*
D28*
X53650151Y-45880000D03*
D29*
X53650151Y-50060000D03*
G04 #@! TD*
D24*
G04 #@! TO.C,SW123*
X234002500Y-151330000D03*
D25*
X231462500Y-146250000D03*
D26*
X228922500Y-151330000D03*
D25*
X225112500Y-148790000D03*
D24*
X223842500Y-151330000D03*
G04 #@! TD*
G04 #@! TO.C,SW54*
X95690151Y-94180000D03*
D25*
X93150151Y-89100000D03*
D26*
X90610151Y-94180000D03*
D25*
X86800151Y-91640000D03*
D24*
X85530151Y-94180000D03*
G04 #@! TD*
D26*
G04 #@! TO.C,SW58*
X188273151Y-102435000D03*
D25*
X188273151Y-87195000D03*
D24*
X181415151Y-94180000D03*
D25*
X178875151Y-89100000D03*
D26*
X176335151Y-94180000D03*
D25*
X172525151Y-91640000D03*
D24*
X171255151Y-94180000D03*
D26*
X164397151Y-102435000D03*
D25*
X164397151Y-87195000D03*
G04 #@! TD*
D27*
G04 #@! TO.C,J3*
X362377500Y-49530000D03*
X368157500Y-49530000D03*
D28*
X360947500Y-45880000D03*
D29*
X360947500Y-50060000D03*
D28*
X369587500Y-45880000D03*
D29*
X369587500Y-50060000D03*
G04 #@! TD*
D12*
G04 #@! TO.C,R9*
X330467500Y-50120000D03*
X330467500Y-60280000D03*
G04 #@! TD*
D26*
G04 #@! TO.C,SW75*
X185891901Y-140535000D03*
D25*
X185891901Y-125295000D03*
D24*
X179033901Y-132280000D03*
D25*
X176493901Y-127200000D03*
D26*
X173953901Y-132280000D03*
D25*
X170143901Y-129740000D03*
D24*
X168873901Y-132280000D03*
D26*
X162015901Y-140535000D03*
D25*
X162015901Y-125295000D03*
G04 #@! TD*
D12*
G04 #@! TO.C,R7*
X81214851Y-51295641D03*
X71054851Y-51295641D03*
G04 #@! TD*
D24*
G04 #@! TO.C,SW47*
X133790151Y-75130000D03*
D25*
X131250151Y-70050000D03*
D26*
X128710151Y-75130000D03*
D25*
X124900151Y-72590000D03*
D24*
X123630151Y-75130000D03*
G04 #@! TD*
G04 #@! TO.C,SW46*
X114740151Y-75130000D03*
D25*
X112200151Y-70050000D03*
D26*
X109660151Y-75130000D03*
D25*
X105850151Y-72590000D03*
D24*
X104580151Y-75130000D03*
G04 #@! TD*
G04 #@! TO.C,SW73*
X129027651Y-132280000D03*
D25*
X126487651Y-127200000D03*
D26*
X123947651Y-132280000D03*
D25*
X120137651Y-129740000D03*
D24*
X118867651Y-132280000D03*
G04 #@! TD*
G04 #@! TO.C,SW67*
X186177651Y-113230000D03*
D25*
X183637651Y-108150000D03*
D26*
X181097651Y-113230000D03*
D25*
X177287651Y-110690000D03*
D24*
X176017651Y-113230000D03*
G04 #@! TD*
G04 #@! TO.C,SW128*
X353065000Y-151330000D03*
D25*
X350525000Y-146250000D03*
D26*
X347985000Y-151330000D03*
D25*
X344175000Y-148790000D03*
D24*
X342905000Y-151330000D03*
G04 #@! TD*
G04 #@! TO.C,SW107*
X348302500Y-94180000D03*
D25*
X345762500Y-89100000D03*
D26*
X343222500Y-94180000D03*
D25*
X339412500Y-91640000D03*
D24*
X338142500Y-94180000D03*
G04 #@! TD*
G04 #@! TO.C,SW86*
X90927651Y-170380000D03*
D25*
X88387651Y-165300000D03*
D26*
X85847651Y-170380000D03*
D25*
X82037651Y-167840000D03*
D24*
X80767651Y-170380000D03*
G04 #@! TD*
G04 #@! TO.C,SW94*
X253052500Y-75130000D03*
D25*
X250512500Y-70050000D03*
D26*
X247972500Y-75130000D03*
D25*
X244162500Y-72590000D03*
D24*
X242892500Y-75130000D03*
G04 #@! TD*
G04 #@! TO.C,SW100*
X367352500Y-75130000D03*
D25*
X364812500Y-70050000D03*
D26*
X362272500Y-75130000D03*
D25*
X358462500Y-72590000D03*
D24*
X357192500Y-75130000D03*
G04 #@! TD*
G04 #@! TO.C,SW64*
X124265151Y-113230000D03*
D25*
X121725151Y-108150000D03*
D26*
X119185151Y-113230000D03*
D25*
X115375151Y-110690000D03*
D24*
X114105151Y-113230000D03*
G04 #@! TD*
M02*
