G04 #@! TF.GenerationSoftware,KiCad,Pcbnew,10.0.3*
G04 #@! TF.CreationDate,2026-07-17T18:59:21-04:00*
G04 #@! TF.ProjectId,karve-split,6b617276-652d-4737-906c-69742e6b6963,rev?*
G04 #@! TF.SameCoordinates,Original*
G04 #@! TF.FileFunction,Paste,Bot*
G04 #@! TF.FilePolarity,Positive*
%FSLAX46Y46*%
G04 Gerber Fmt 4.6, Leading zero omitted, Abs format (unit mm)*
G04 Created by KiCad (PCBNEW 10.0.3) date 2026-07-17 18:59:21*
%MOMM*%
%LPD*%
G01*
G04 APERTURE LIST*
G04 Aperture macros list*
%AMRoundRect*
0 Rectangle with rounded corners*
0 $1 Rounding radius*
0 $2 $3 $4 $5 $6 $7 $8 $9 X,Y pos of 4 corners*
0 Add a 4 corners polygon primitive as box body*
4,1,4,$2,$3,$4,$5,$6,$7,$8,$9,$2,$3,0*
0 Add four circle primitives for the rounded corners*
1,1,$1+$1,$2,$3*
1,1,$1+$1,$4,$5*
1,1,$1+$1,$6,$7*
1,1,$1+$1,$8,$9*
0 Add four rect primitives between the rounded corners*
20,1,$1+$1,$2,$3,$4,$5,0*
20,1,$1+$1,$4,$5,$6,$7,0*
20,1,$1+$1,$6,$7,$8,$9,0*
20,1,$1+$1,$8,$9,$2,$3,0*%
G04 Aperture macros list end*
%ADD10RoundRect,0.225000X-0.375000X0.225000X-0.375000X-0.225000X0.375000X-0.225000X0.375000X0.225000X0*%
%ADD11RoundRect,0.254000X1.016000X1.016000X-1.016000X1.016000X-1.016000X-1.016000X1.016000X-1.016000X0*%
%ADD12RoundRect,0.250000X-0.375000X-0.625000X0.375000X-0.625000X0.375000X0.625000X-0.375000X0.625000X0*%
%ADD13RoundRect,0.250000X0.250000X0.475000X-0.250000X0.475000X-0.250000X-0.475000X0.250000X-0.475000X0*%
%ADD14RoundRect,0.250000X-0.250000X-0.475000X0.250000X-0.475000X0.250000X0.475000X-0.250000X0.475000X0*%
%ADD15RoundRect,0.200000X0.200000X0.275000X-0.200000X0.275000X-0.200000X-0.275000X0.200000X-0.275000X0*%
%ADD16RoundRect,0.250000X0.375000X0.625000X-0.375000X0.625000X-0.375000X-0.625000X0.375000X-0.625000X0*%
%ADD17RoundRect,0.200000X-0.275000X0.200000X-0.275000X-0.200000X0.275000X-0.200000X0.275000X0.200000X0*%
%ADD18RoundRect,0.150000X-0.150000X-0.575000X0.150000X-0.575000X0.150000X0.575000X-0.150000X0.575000X0*%
%ADD19RoundRect,0.075000X-0.075000X-0.650000X0.075000X-0.650000X0.075000X0.650000X-0.075000X0.650000X0*%
G04 APERTURE END LIST*
D10*
G04 #@! TO.C,D49*
X157330151Y-70080000D03*
X157330151Y-66780000D03*
G04 #@! TD*
G04 #@! TO.C,D94*
X238767500Y-66280000D03*
X238767500Y-69580000D03*
G04 #@! TD*
G04 #@! TO.C,D106*
X314767500Y-85780000D03*
X314767500Y-89080000D03*
G04 #@! TD*
G04 #@! TO.C,D88*
X114830151Y-161780000D03*
X114830151Y-165080000D03*
G04 #@! TD*
D11*
G04 #@! TO.C,SW120*
X325506000Y-127200000D03*
X312044000Y-129740000D03*
G04 #@! TD*
D10*
G04 #@! TO.C,D82*
X143330151Y-142780000D03*
X143330151Y-146080000D03*
G04 #@! TD*
D11*
G04 #@! TO.C,SW97*
X311218500Y-70050000D03*
X297756500Y-72590000D03*
G04 #@! TD*
D10*
G04 #@! TO.C,D128*
X338767500Y-142780000D03*
X338767500Y-146080000D03*
G04 #@! TD*
D11*
G04 #@! TO.C,SW132*
X280262250Y-165300000D03*
X266800250Y-167840000D03*
G04 #@! TD*
G04 #@! TO.C,SW74*
X149093651Y-127200000D03*
X135631651Y-129740000D03*
G04 #@! TD*
D10*
G04 #@! TO.C,D68*
X195330151Y-104780000D03*
X195330151Y-108080000D03*
G04 #@! TD*
D11*
G04 #@! TO.C,SW124*
X265974750Y-146250000D03*
X252512750Y-148790000D03*
G04 #@! TD*
D10*
G04 #@! TO.C,D111*
X267267500Y-104780000D03*
X267267500Y-108080000D03*
G04 #@! TD*
D11*
G04 #@! TO.C,SW109*
X235018500Y-108150000D03*
X221556500Y-110690000D03*
G04 #@! TD*
G04 #@! TO.C,SW99*
X349318500Y-70050000D03*
X335856500Y-72590000D03*
G04 #@! TD*
G04 #@! TO.C,SW127*
X335031000Y-146250000D03*
X321569000Y-148790000D03*
G04 #@! TD*
G04 #@! TO.C,SW78*
X82418651Y-146250000D03*
X68956651Y-148790000D03*
G04 #@! TD*
D10*
G04 #@! TO.C,D79*
X85830151Y-142780000D03*
X85830151Y-146080000D03*
G04 #@! TD*
D11*
G04 #@! TO.C,SW91*
X191956151Y-165300000D03*
X178494151Y-167840000D03*
G04 #@! TD*
D10*
G04 #@! TO.C,D91*
X176330151Y-161780000D03*
X176330151Y-165080000D03*
G04 #@! TD*
G04 #@! TO.C,D93*
X236267500Y-66280000D03*
X236267500Y-69580000D03*
G04 #@! TD*
G04 #@! TO.C,D59*
X194064851Y-85895641D03*
X194064851Y-89195641D03*
G04 #@! TD*
D11*
G04 #@! TO.C,SW68*
X211006151Y-108150000D03*
X197544151Y-110690000D03*
G04 #@! TD*
D10*
G04 #@! TO.C,D122*
X348267500Y-123780000D03*
X348267500Y-127080000D03*
G04 #@! TD*
D11*
G04 #@! TO.C,SW49*
X172906151Y-70050000D03*
X159444151Y-72590000D03*
G04 #@! TD*
G04 #@! TO.C,SW103*
X273118500Y-89100000D03*
X259656500Y-91640000D03*
G04 #@! TD*
D10*
G04 #@! TO.C,D61*
X52830151Y-104780000D03*
X52830151Y-108080000D03*
G04 #@! TD*
D11*
G04 #@! TO.C,SW98*
X330268500Y-70050000D03*
X316806500Y-72590000D03*
G04 #@! TD*
G04 #@! TO.C,SW130*
X235018500Y-165300000D03*
X221556500Y-167840000D03*
G04 #@! TD*
G04 #@! TO.C,SW108*
X368368500Y-89100000D03*
X354906500Y-91640000D03*
G04 #@! TD*
G04 #@! TO.C,SW119*
X306456000Y-127200000D03*
X292994000Y-129740000D03*
G04 #@! TD*
G04 #@! TO.C,SW81*
X139568651Y-146250000D03*
X126106651Y-148790000D03*
G04 #@! TD*
G04 #@! TO.C,SW77*
X63368651Y-146250000D03*
X49906651Y-148790000D03*
G04 #@! TD*
D10*
G04 #@! TO.C,D100*
X352767500Y-66280000D03*
X352767500Y-69580000D03*
G04 #@! TD*
G04 #@! TO.C,D130*
X220767500Y-161780000D03*
X220767500Y-165080000D03*
G04 #@! TD*
G04 #@! TO.C,D84*
X195830151Y-142780000D03*
X195830151Y-146080000D03*
G04 #@! TD*
G04 #@! TO.C,D102*
X238267500Y-85780000D03*
X238267500Y-89080000D03*
G04 #@! TD*
D11*
G04 #@! TO.C,SW110*
X258831000Y-108150000D03*
X245369000Y-110690000D03*
G04 #@! TD*
D10*
G04 #@! TO.C,D92*
X195830151Y-161780000D03*
X195830151Y-165080000D03*
G04 #@! TD*
G04 #@! TO.C,D76*
X195330151Y-123780000D03*
X195330151Y-127080000D03*
G04 #@! TD*
G04 #@! TO.C,D63*
X90830151Y-104780000D03*
X90830151Y-108080000D03*
G04 #@! TD*
G04 #@! TO.C,D83*
X176330151Y-142780000D03*
X176330151Y-146080000D03*
G04 #@! TD*
G04 #@! TO.C,D62*
X71830151Y-104780000D03*
X71830151Y-108080000D03*
G04 #@! TD*
D11*
G04 #@! TO.C,SW65*
X144331151Y-108150000D03*
X130869151Y-110690000D03*
G04 #@! TD*
G04 #@! TO.C,SW133*
X304074750Y-165300000D03*
X290612750Y-167840000D03*
G04 #@! TD*
D10*
G04 #@! TO.C,D89*
X133830151Y-161780000D03*
X133830151Y-165080000D03*
G04 #@! TD*
D11*
G04 #@! TO.C,SW104*
X292168500Y-89100000D03*
X278706500Y-91640000D03*
G04 #@! TD*
G04 #@! TO.C,SW76*
X211006151Y-127200000D03*
X197544151Y-129740000D03*
G04 #@! TD*
D10*
G04 #@! TO.C,D112*
X286267500Y-104780000D03*
X286267500Y-108080000D03*
G04 #@! TD*
G04 #@! TO.C,D98*
X314767500Y-66280000D03*
X314767500Y-69580000D03*
G04 #@! TD*
G04 #@! TO.C,D133*
X286267500Y-161780000D03*
X286267500Y-165080000D03*
G04 #@! TD*
D12*
G04 #@! TO.C,F2*
X57667651Y-47890000D03*
X60467651Y-47890000D03*
G04 #@! TD*
D10*
G04 #@! TO.C,D46*
X100330151Y-66780000D03*
X100330151Y-70080000D03*
G04 #@! TD*
D11*
G04 #@! TO.C,SW121*
X344556000Y-127200000D03*
X331094000Y-129740000D03*
G04 #@! TD*
G04 #@! TO.C,SW70*
X72893651Y-127200000D03*
X59431651Y-129740000D03*
G04 #@! TD*
D10*
G04 #@! TO.C,D74*
X133830151Y-123780000D03*
X133830151Y-127080000D03*
G04 #@! TD*
D11*
G04 #@! TO.C,SW69*
X53843651Y-127200000D03*
X40381651Y-129740000D03*
G04 #@! TD*
D13*
G04 #@! TO.C,C2*
X59967651Y-44890000D03*
X58067651Y-44890000D03*
G04 #@! TD*
D11*
G04 #@! TO.C,SW96*
X292168500Y-70050000D03*
X278706500Y-72590000D03*
G04 #@! TD*
G04 #@! TO.C,SW66*
X163381151Y-108150000D03*
X149919151Y-110690000D03*
G04 #@! TD*
G04 #@! TO.C,SW125*
X296931000Y-146250000D03*
X283469000Y-148790000D03*
G04 #@! TD*
D10*
G04 #@! TO.C,D124*
X238767500Y-142780000D03*
X238767500Y-146080000D03*
G04 #@! TD*
G04 #@! TO.C,D87*
X95330151Y-161780000D03*
X95330151Y-165080000D03*
G04 #@! TD*
G04 #@! TO.C,D101*
X220767500Y-85780000D03*
X220767500Y-89080000D03*
G04 #@! TD*
D11*
G04 #@! TO.C,SW105*
X311218500Y-89100000D03*
X297756500Y-91640000D03*
G04 #@! TD*
D10*
G04 #@! TO.C,D96*
X276767500Y-66280000D03*
X276767500Y-69580000D03*
G04 #@! TD*
D11*
G04 #@! TO.C,SW72*
X110993651Y-127200000D03*
X97531651Y-129740000D03*
G04 #@! TD*
G04 #@! TO.C,SW114*
X339793500Y-108150000D03*
X326331500Y-110690000D03*
G04 #@! TD*
G04 #@! TO.C,SW44*
X77656151Y-70050000D03*
X64194151Y-72590000D03*
G04 #@! TD*
G04 #@! TO.C,SW85*
X56224901Y-165300000D03*
X42762901Y-167840000D03*
G04 #@! TD*
G04 #@! TO.C,SW112*
X301693500Y-108150000D03*
X288231500Y-110690000D03*
G04 #@! TD*
G04 #@! TO.C,SW134*
X337412250Y-165300000D03*
X323950250Y-167840000D03*
G04 #@! TD*
D10*
G04 #@! TO.C,D116*
X220767500Y-123780000D03*
X220767500Y-127080000D03*
G04 #@! TD*
G04 #@! TO.C,D132*
X262267500Y-161780000D03*
X262267500Y-165080000D03*
G04 #@! TD*
G04 #@! TO.C,D78*
X66830151Y-142780000D03*
X66830151Y-146080000D03*
G04 #@! TD*
G04 #@! TO.C,D121*
X329267500Y-123780000D03*
X329267500Y-127080000D03*
G04 #@! TD*
D11*
G04 #@! TO.C,SW118*
X287406000Y-127200000D03*
X273944000Y-129740000D03*
G04 #@! TD*
G04 #@! TO.C,SW92*
X211006151Y-165300000D03*
X197544151Y-167840000D03*
G04 #@! TD*
G04 #@! TO.C,SW126*
X315981000Y-146250000D03*
X302519000Y-148790000D03*
G04 #@! TD*
G04 #@! TO.C,SW52*
X58606151Y-89100000D03*
X45144151Y-91640000D03*
G04 #@! TD*
D10*
G04 #@! TO.C,D70*
X57330151Y-123780000D03*
X57330151Y-127080000D03*
G04 #@! TD*
D11*
G04 #@! TO.C,SW117*
X261212250Y-127200000D03*
X247750250Y-129740000D03*
G04 #@! TD*
G04 #@! TO.C,SW50*
X191956151Y-70050000D03*
X178494151Y-72590000D03*
G04 #@! TD*
D10*
G04 #@! TO.C,D53*
X61500000Y-87300000D03*
X61500000Y-90600000D03*
G04 #@! TD*
D11*
G04 #@! TO.C,SW80*
X120518651Y-146250000D03*
X107056651Y-148790000D03*
G04 #@! TD*
G04 #@! TO.C,SW84*
X211006151Y-146250000D03*
X197544151Y-148790000D03*
G04 #@! TD*
G04 #@! TO.C,SW63*
X106231151Y-108150000D03*
X92769151Y-110690000D03*
G04 #@! TD*
G04 #@! TO.C,SW43*
X58606151Y-70050000D03*
X45144151Y-72590000D03*
G04 #@! TD*
G04 #@! TO.C,SW115*
X358843500Y-108150000D03*
X345381500Y-110690000D03*
G04 #@! TD*
D10*
G04 #@! TO.C,D95*
X257267500Y-66280000D03*
X257267500Y-69580000D03*
G04 #@! TD*
D14*
G04 #@! TO.C,C3*
X354867500Y-44930000D03*
X356767500Y-44930000D03*
G04 #@! TD*
D10*
G04 #@! TO.C,D75*
X152830151Y-123780000D03*
X152830151Y-127080000D03*
G04 #@! TD*
D15*
G04 #@! TO.C,R6*
X331267500Y-44930000D03*
X329617500Y-44930000D03*
G04 #@! TD*
D11*
G04 #@! TO.C,SW53*
X77656151Y-89100000D03*
X64194151Y-91640000D03*
G04 #@! TD*
G04 #@! TO.C,SW82*
X165762401Y-146250000D03*
X152300401Y-148790000D03*
G04 #@! TD*
D10*
G04 #@! TO.C,D71*
X76330151Y-123780000D03*
X76330151Y-127080000D03*
G04 #@! TD*
D11*
G04 #@! TO.C,SW90*
X172906151Y-165300000D03*
X159444151Y-167840000D03*
G04 #@! TD*
G04 #@! TO.C,SW60*
X49081151Y-108150000D03*
X35619151Y-110690000D03*
G04 #@! TD*
G04 #@! TO.C,SW56*
X134806151Y-89100000D03*
X121344151Y-91640000D03*
G04 #@! TD*
D10*
G04 #@! TO.C,D45*
X81330151Y-66780000D03*
X81330151Y-70080000D03*
G04 #@! TD*
D16*
G04 #@! TO.C,F3*
X357067500Y-47930000D03*
X354267500Y-47930000D03*
G04 #@! TD*
D11*
G04 #@! TO.C,SW116*
X235018500Y-127200000D03*
X221556500Y-129740000D03*
G04 #@! TD*
G04 #@! TO.C,SW61*
X68131151Y-108150000D03*
X54669151Y-110690000D03*
G04 #@! TD*
D10*
G04 #@! TO.C,D77*
X49080151Y-142780000D03*
X49080151Y-146080000D03*
G04 #@! TD*
G04 #@! TO.C,D57*
X138330151Y-85780000D03*
X138330151Y-89080000D03*
G04 #@! TD*
G04 #@! TO.C,D134*
X310267500Y-161780000D03*
X310267500Y-165080000D03*
G04 #@! TD*
G04 #@! TO.C,D127*
X319767500Y-142780000D03*
X319767500Y-146080000D03*
G04 #@! TD*
G04 #@! TO.C,D50*
X176330151Y-66780000D03*
X176330151Y-70080000D03*
G04 #@! TD*
D11*
G04 #@! TO.C,SW79*
X101468651Y-146250000D03*
X88006651Y-148790000D03*
G04 #@! TD*
G04 #@! TO.C,SW95*
X273118500Y-70050000D03*
X259656500Y-72590000D03*
G04 #@! TD*
D10*
G04 #@! TO.C,D56*
X119330151Y-85780000D03*
X119330151Y-89080000D03*
G04 #@! TD*
G04 #@! TO.C,D107*
X333050000Y-91450000D03*
X333050000Y-94750000D03*
G04 #@! TD*
G04 #@! TO.C,D119*
X290767500Y-123780000D03*
X290767500Y-127080000D03*
G04 #@! TD*
G04 #@! TO.C,D105*
X295767500Y-85780000D03*
X295767500Y-89080000D03*
G04 #@! TD*
D17*
G04 #@! TO.C,R5*
X84264851Y-60445641D03*
X84264851Y-62095641D03*
G04 #@! TD*
D10*
G04 #@! TO.C,D52*
X44330151Y-85780000D03*
X44330151Y-89080000D03*
G04 #@! TD*
G04 #@! TO.C,D109*
X220767500Y-104930000D03*
X220767500Y-108230000D03*
G04 #@! TD*
D11*
G04 #@! TO.C,SW101*
X235018500Y-89100000D03*
X221556500Y-91640000D03*
G04 #@! TD*
G04 #@! TO.C,SW59*
X211006151Y-89100000D03*
X197544151Y-91640000D03*
G04 #@! TD*
D10*
G04 #@! TO.C,D73*
X114330151Y-123780000D03*
X114330151Y-127080000D03*
G04 #@! TD*
G04 #@! TO.C,D129*
X357767500Y-142780000D03*
X357767500Y-146080000D03*
G04 #@! TD*
G04 #@! TO.C,D117*
X238767500Y-123780000D03*
X238767500Y-127080000D03*
G04 #@! TD*
G04 #@! TO.C,D123*
X220767500Y-142780000D03*
X220767500Y-146080000D03*
G04 #@! TD*
G04 #@! TO.C,D58*
X157330151Y-85780000D03*
X157330151Y-89080000D03*
G04 #@! TD*
G04 #@! TO.C,D103*
X256850000Y-90414500D03*
X256850000Y-93714500D03*
G04 #@! TD*
G04 #@! TO.C,D97*
X295200000Y-67100000D03*
X295200000Y-70400000D03*
G04 #@! TD*
G04 #@! TO.C,D67*
X166800000Y-106950000D03*
X166800000Y-110250000D03*
G04 #@! TD*
D11*
G04 #@! TO.C,SW113*
X320743500Y-108150000D03*
X307281500Y-110690000D03*
G04 #@! TD*
G04 #@! TO.C,SW129*
X373131000Y-146250000D03*
X359669000Y-148790000D03*
G04 #@! TD*
D10*
G04 #@! TO.C,D90*
X157330151Y-161780000D03*
X157330151Y-165080000D03*
G04 #@! TD*
D11*
G04 #@! TO.C,SW71*
X91943651Y-127200000D03*
X78481651Y-129740000D03*
G04 #@! TD*
D10*
G04 #@! TO.C,D131*
X238767500Y-161780000D03*
X238767500Y-165080000D03*
G04 #@! TD*
D11*
G04 #@! TO.C,SW131*
X256449750Y-165300000D03*
X242987750Y-167840000D03*
G04 #@! TD*
D10*
G04 #@! TO.C,D47*
X119330151Y-66780000D03*
X119330151Y-70080000D03*
G04 #@! TD*
D11*
G04 #@! TO.C,SW88*
X130043651Y-165300000D03*
X116581651Y-167840000D03*
G04 #@! TD*
G04 #@! TO.C,SW48*
X153856151Y-70050000D03*
X140394151Y-72590000D03*
G04 #@! TD*
G04 #@! TO.C,SW57*
X153856151Y-89100000D03*
X140394151Y-91640000D03*
G04 #@! TD*
G04 #@! TO.C,SW62*
X87181151Y-108150000D03*
X73719151Y-110690000D03*
G04 #@! TD*
D10*
G04 #@! TO.C,D115*
X343267500Y-104780000D03*
X343267500Y-108080000D03*
G04 #@! TD*
D11*
G04 #@! TO.C,SW89*
X151474901Y-165300000D03*
X138012901Y-167840000D03*
G04 #@! TD*
D10*
G04 #@! TO.C,D80*
X105330151Y-142780000D03*
X105330151Y-146080000D03*
G04 #@! TD*
D11*
G04 #@! TO.C,SW45*
X96706151Y-70050000D03*
X83244151Y-72590000D03*
G04 #@! TD*
D10*
G04 #@! TO.C,D110*
X238767500Y-104780000D03*
X238767500Y-108080000D03*
G04 #@! TD*
D11*
G04 #@! TO.C,SW83*
X191956151Y-146250000D03*
X178494151Y-148790000D03*
G04 #@! TD*
D10*
G04 #@! TO.C,D99*
X333767500Y-66280000D03*
X333767500Y-69580000D03*
G04 #@! TD*
G04 #@! TO.C,D44*
X62330151Y-66780000D03*
X62330151Y-70080000D03*
G04 #@! TD*
G04 #@! TO.C,D55*
X100330151Y-85780000D03*
X100330151Y-89080000D03*
G04 #@! TD*
D11*
G04 #@! TO.C,SW106*
X330268500Y-89100000D03*
X316806500Y-91640000D03*
G04 #@! TD*
D10*
G04 #@! TO.C,D48*
X137700000Y-70300000D03*
X137700000Y-73600000D03*
G04 #@! TD*
D11*
G04 #@! TO.C,SW55*
X115756151Y-89100000D03*
X102294151Y-91640000D03*
G04 #@! TD*
D10*
G04 #@! TO.C,D120*
X309767500Y-123780000D03*
X309767500Y-127080000D03*
G04 #@! TD*
G04 #@! TO.C,D114*
X324267500Y-104780000D03*
X324267500Y-108080000D03*
G04 #@! TD*
G04 #@! TO.C,D85*
X25830151Y-162280000D03*
X25830151Y-165580000D03*
G04 #@! TD*
G04 #@! TO.C,D54*
X81330151Y-85780000D03*
X81330151Y-89080000D03*
G04 #@! TD*
G04 #@! TO.C,D69*
X39580151Y-123780000D03*
X39580151Y-127080000D03*
G04 #@! TD*
D11*
G04 #@! TO.C,SW122*
X363606000Y-127200000D03*
X350144000Y-129740000D03*
G04 #@! TD*
D10*
G04 #@! TO.C,D108*
X352767500Y-85780000D03*
X352767500Y-89080000D03*
G04 #@! TD*
D11*
G04 #@! TO.C,SW102*
X254068500Y-89100000D03*
X240606500Y-91640000D03*
G04 #@! TD*
G04 #@! TO.C,SW87*
X110993651Y-165300000D03*
X97531651Y-167840000D03*
G04 #@! TD*
G04 #@! TO.C,SW111*
X282643500Y-108150000D03*
X269181500Y-110690000D03*
G04 #@! TD*
D18*
G04 #@! TO.C,J2*
X46080151Y-50975000D03*
X46880151Y-50975000D03*
D19*
X48080151Y-50975000D03*
X49080151Y-50975000D03*
X49580151Y-50975000D03*
X50580151Y-50975000D03*
D18*
X51780151Y-50975000D03*
X52580151Y-50975000D03*
X52580151Y-50975000D03*
X51780151Y-50975000D03*
D19*
X51080151Y-50975000D03*
X50080151Y-50975000D03*
X48580151Y-50975000D03*
X47580151Y-50975000D03*
D18*
X46880151Y-50975000D03*
X46080151Y-50975000D03*
G04 #@! TD*
D11*
G04 #@! TO.C,SW123*
X235018500Y-146250000D03*
X221556500Y-148790000D03*
G04 #@! TD*
G04 #@! TO.C,SW54*
X96706151Y-89100000D03*
X83244151Y-91640000D03*
G04 #@! TD*
D10*
G04 #@! TO.C,D72*
X95330151Y-123780000D03*
X95330151Y-127080000D03*
G04 #@! TD*
G04 #@! TO.C,D113*
X305267500Y-104780000D03*
X305267500Y-108080000D03*
G04 #@! TD*
D11*
G04 #@! TO.C,SW58*
X182431151Y-89100000D03*
X168969151Y-91640000D03*
G04 #@! TD*
D10*
G04 #@! TO.C,D43*
X44330151Y-66780000D03*
X44330151Y-70080000D03*
G04 #@! TD*
D18*
G04 #@! TO.C,J3*
X362017500Y-50975000D03*
X362817500Y-50975000D03*
D19*
X364017500Y-50975000D03*
X365017500Y-50975000D03*
X365517500Y-50975000D03*
X366517500Y-50975000D03*
D18*
X367717500Y-50975000D03*
X368517500Y-50975000D03*
X368517500Y-50975000D03*
X367717500Y-50975000D03*
D19*
X367017500Y-50975000D03*
X366017500Y-50975000D03*
X364517500Y-50975000D03*
X363517500Y-50975000D03*
D18*
X362817500Y-50975000D03*
X362017500Y-50975000D03*
G04 #@! TD*
D10*
G04 #@! TO.C,D65*
X128830151Y-104780000D03*
X128830151Y-108080000D03*
G04 #@! TD*
G04 #@! TO.C,D126*
X300267500Y-142780000D03*
X300267500Y-146080000D03*
G04 #@! TD*
G04 #@! TO.C,D118*
X271767500Y-123780000D03*
X271767500Y-127080000D03*
G04 #@! TD*
G04 #@! TO.C,D51*
X211830151Y-66780000D03*
X211830151Y-70080000D03*
G04 #@! TD*
D11*
G04 #@! TO.C,SW75*
X180049901Y-127200000D03*
X166587901Y-129740000D03*
G04 #@! TD*
D10*
G04 #@! TO.C,D81*
X124330151Y-142780000D03*
X124330151Y-146080000D03*
G04 #@! TD*
D11*
G04 #@! TO.C,SW47*
X134806151Y-70050000D03*
X121344151Y-72590000D03*
G04 #@! TD*
D10*
G04 #@! TO.C,D86*
X76330151Y-161780000D03*
X76330151Y-165080000D03*
G04 #@! TD*
D11*
G04 #@! TO.C,SW46*
X115756151Y-70050000D03*
X102294151Y-72590000D03*
G04 #@! TD*
G04 #@! TO.C,SW73*
X130043651Y-127200000D03*
X116581651Y-129740000D03*
G04 #@! TD*
G04 #@! TO.C,SW67*
X187193651Y-108150000D03*
X173731651Y-110690000D03*
G04 #@! TD*
D10*
G04 #@! TO.C,D125*
X281267500Y-142780000D03*
X281267500Y-146080000D03*
G04 #@! TD*
D11*
G04 #@! TO.C,SW128*
X354081000Y-146250000D03*
X340619000Y-148790000D03*
G04 #@! TD*
D10*
G04 #@! TO.C,D104*
X276767500Y-85930000D03*
X276767500Y-89230000D03*
G04 #@! TD*
D11*
G04 #@! TO.C,SW107*
X349318500Y-89100000D03*
X335856500Y-91640000D03*
G04 #@! TD*
G04 #@! TO.C,SW86*
X91943651Y-165300000D03*
X78481651Y-167840000D03*
G04 #@! TD*
G04 #@! TO.C,SW94*
X254068500Y-70050000D03*
X240606500Y-72590000D03*
G04 #@! TD*
D10*
G04 #@! TO.C,D64*
X109830151Y-104780000D03*
X109830151Y-108080000D03*
G04 #@! TD*
G04 #@! TO.C,D66*
X147830151Y-104780000D03*
X147830151Y-108080000D03*
G04 #@! TD*
D11*
G04 #@! TO.C,SW100*
X368368500Y-70050000D03*
X354906500Y-72590000D03*
G04 #@! TD*
D10*
G04 #@! TO.C,D60*
X34864851Y-104995641D03*
X34864851Y-108295641D03*
G04 #@! TD*
D11*
G04 #@! TO.C,SW64*
X125281151Y-108150000D03*
X111819151Y-110690000D03*
G04 #@! TD*
M02*
