M48
; DRILL file KiCad 10.0.3 date 2026-07-16T22:26:11
; FORMAT={-:-/ absolute / metric / decimal}
; #@! TF.CreationDate,2026-07-16T22:26:11-04:00
; #@! TF.GenerationSoftware,Kicad,Pcbnew,10.0.3
; #@! TF.FileFunction,NonPlated,1,2,NPTH
FMAT,2
METRIC
; #@! TA.AperFunction,NonPlated,NPTH,ComponentDrill
T1C0.500
; #@! TA.AperFunction,NonPlated,NPTH,ComponentDrill
T2C0.650
; #@! TA.AperFunction,NonPlated,NPTH,ComponentDrill
T3C1.702
; #@! TA.AperFunction,NonPlated,NPTH,ComponentDrill
T4C2.200
; #@! TA.AperFunction,NonPlated,NPTH,ComponentDrill
T5C3.048
; #@! TA.AperFunction,NonPlated,NPTH,ComponentDrill
T6C3.988
%
G90
G05
T1
X214.4Y-94.35
X214.4Y-95.1
X214.4Y-95.85
X214.4Y-96.6
X214.4Y-97.35
X214.4Y-98.1
X214.4Y-98.85
X214.4Y-99.6
X214.4Y-100.35
X214.4Y-101.1
X214.4Y-101.85
X214.4Y-113.4
X214.4Y-114.15
X214.4Y-114.9
X214.4Y-115.65
X214.4Y-116.4
X214.4Y-117.15
X214.4Y-117.9
X214.4Y-118.65
X214.4Y-119.4
X214.4Y-120.15
X214.4Y-120.9
X214.4Y-132.45
X214.4Y-133.2
X214.4Y-133.95
X214.4Y-134.7
X214.4Y-135.45
X214.4Y-136.2
X214.4Y-136.95
X214.4Y-137.7
X214.4Y-138.45
X214.4Y-139.2
X214.4Y-139.95
X214.4Y-151.5
X214.4Y-152.25
X214.4Y-153.0
X214.4Y-153.75
X214.4Y-154.5
X214.4Y-155.25
X214.4Y-156.0
X214.4Y-156.75
X214.4Y-157.5
X214.4Y-158.25
X214.4Y-159.0
X214.4Y-171.1
X214.4Y-171.85
X214.4Y-172.6
X214.4Y-173.35
X214.4Y-174.1
X214.4Y-174.85
X214.4Y-175.6
X214.4Y-176.35
X214.4Y-177.1
X214.4Y-177.85
X214.4Y-178.6
X219.4Y-94.35
X219.4Y-95.1
X219.4Y-95.85
X219.4Y-96.6
X219.4Y-97.35
X219.4Y-98.1
X219.4Y-98.85
X219.4Y-99.6
X219.4Y-100.35
X219.4Y-101.1
X219.4Y-101.85
X219.4Y-113.4
X219.4Y-114.15
X219.4Y-114.9
X219.4Y-115.65
X219.4Y-116.4
X219.4Y-117.15
X219.4Y-117.9
X219.4Y-118.65
X219.4Y-119.4
X219.4Y-120.15
X219.4Y-120.9
X219.4Y-132.45
X219.4Y-133.2
X219.4Y-133.95
X219.4Y-134.7
X219.4Y-135.45
X219.4Y-136.2
X219.4Y-136.95
X219.4Y-137.7
X219.4Y-138.45
X219.4Y-139.2
X219.4Y-139.95
X219.4Y-151.5
X219.4Y-152.25
X219.4Y-153.0
X219.4Y-153.75
X219.4Y-154.5
X219.4Y-155.25
X219.4Y-156.0
X219.4Y-156.75
X219.4Y-157.5
X219.4Y-158.25
X219.4Y-159.0
X219.4Y-171.1
X219.4Y-171.85
X219.4Y-172.6
X219.4Y-173.35
X219.4Y-174.1
X219.4Y-174.85
X219.4Y-175.6
X219.4Y-176.35
X219.4Y-177.1
X219.4Y-177.85
X219.4Y-178.6
T2
X46.44Y-49.53
X52.22Y-49.53
X362.377Y-49.53
X368.157Y-49.53
T3
X37.905Y-113.23
X42.668Y-132.28
X45.049Y-170.38
X47.43Y-75.13
X47.43Y-94.18
X48.065Y-113.23
X52.193Y-151.33
X52.828Y-132.28
X55.209Y-170.38
X56.955Y-113.23
X57.59Y-75.13
X57.59Y-94.18
X61.718Y-132.28
X62.353Y-151.33
X66.48Y-75.13
X66.48Y-94.18
X67.115Y-113.23
X71.243Y-151.33
X71.878Y-132.28
X76.005Y-113.23
X76.64Y-75.13
X76.64Y-94.18
X80.768Y-132.28
X80.768Y-170.38
X81.403Y-151.33
X85.53Y-75.13
X85.53Y-94.18
X86.165Y-113.23
X90.293Y-151.33
X90.928Y-132.28
X90.928Y-170.38
X95.055Y-113.23
X95.69Y-75.13
X95.69Y-94.18
X99.818Y-132.28
X99.818Y-170.38
X100.453Y-151.33
X104.58Y-75.13
X104.58Y-94.18
X105.215Y-113.23
X109.343Y-151.33
X109.978Y-132.28
X109.978Y-170.38
X114.105Y-113.23
X114.74Y-75.13
X114.74Y-94.18
X118.868Y-132.28
X118.868Y-170.38
X119.503Y-151.33
X123.63Y-75.13
X123.63Y-94.18
X124.265Y-113.23
X128.393Y-151.33
X129.028Y-132.28
X129.028Y-170.38
X133.155Y-113.23
X133.79Y-75.13
X133.79Y-94.18
X137.918Y-132.28
X138.553Y-151.33
X140.299Y-170.38
X142.68Y-75.13
X142.68Y-94.18
X143.315Y-113.23
X148.078Y-132.28
X150.459Y-170.38
X152.205Y-113.23
X152.84Y-75.13
X152.84Y-94.18
X154.586Y-151.33
X161.73Y-75.13
X161.73Y-170.38
X162.365Y-113.23
X164.746Y-151.33
X168.874Y-132.28
X171.255Y-94.18
X171.89Y-75.13
X171.89Y-170.38
X176.018Y-113.23
X179.034Y-132.28
X180.78Y-75.13
X180.78Y-151.33
X180.78Y-170.38
X181.415Y-94.18
X186.178Y-113.23
X190.94Y-75.13
X190.94Y-151.33
X190.94Y-170.38
X199.83Y-94.18
X199.83Y-113.23
X199.83Y-132.28
X199.83Y-151.33
X199.83Y-170.38
X209.99Y-94.18
X209.99Y-113.23
X209.99Y-132.28
X209.99Y-151.33
X209.99Y-170.38
X223.843Y-94.18
X223.843Y-113.23
X223.843Y-132.28
X223.843Y-151.33
X223.843Y-170.38
X234.002Y-94.18
X234.002Y-113.23
X234.002Y-132.28
X234.002Y-151.33
X234.002Y-170.38
X242.892Y-75.13
X242.892Y-94.18
X245.274Y-170.38
X247.655Y-113.23
X250.036Y-132.28
X253.052Y-75.13
X253.052Y-94.18
X254.799Y-151.33
X255.434Y-170.38
X257.815Y-113.23
X260.196Y-132.28
X261.942Y-75.13
X261.942Y-94.18
X264.959Y-151.33
X269.086Y-170.38
X271.467Y-113.23
X272.102Y-75.13
X272.102Y-94.18
X276.23Y-132.28
X279.246Y-170.38
X280.993Y-75.13
X280.993Y-94.18
X281.627Y-113.23
X285.755Y-151.33
X286.39Y-132.28
X290.517Y-113.23
X291.152Y-75.13
X291.152Y-94.18
X292.899Y-170.38
X295.28Y-132.28
X295.915Y-151.33
X300.042Y-75.13
X300.042Y-94.18
X300.678Y-113.23
X303.059Y-170.38
X304.805Y-151.33
X305.44Y-132.28
X309.567Y-113.23
X310.202Y-75.13
X310.202Y-94.18
X314.33Y-132.28
X314.965Y-151.33
X319.092Y-75.13
X319.092Y-94.18
X319.727Y-113.23
X323.855Y-151.33
X324.49Y-132.28
X326.236Y-170.38
X328.618Y-113.23
X329.252Y-75.13
X329.252Y-94.18
X333.38Y-132.28
X334.015Y-151.33
X336.396Y-170.38
X338.142Y-75.13
X338.142Y-94.18
X338.777Y-113.23
X342.905Y-151.33
X343.54Y-132.28
X347.667Y-113.23
X348.303Y-75.13
X348.303Y-94.18
X352.43Y-132.28
X353.065Y-151.33
X357.192Y-75.13
X357.192Y-94.18
X357.827Y-113.23
X361.955Y-151.33
X362.59Y-132.28
X367.352Y-75.13
X367.352Y-94.18
X372.115Y-151.33
T4
X27.0Y-179.55
X52.5Y-120.25
X62.15Y-83.45
X100.1Y-80.75
X114.45Y-179.55
X153.35Y-136.85
X176.95Y-84.15
X192.1Y-112.0
X195.4Y-179.55
X238.45Y-179.55
X241.7Y-116.15
X257.5Y-84.7
X280.05Y-153.35
X295.55Y-102.5
X333.7Y-84.65
X349.95Y-179.6
T5
X38.191Y-163.395
X39.175Y-110.69
X43.938Y-129.74
X45.525Y-108.15
X46.319Y-167.84
X48.7Y-72.59
X48.7Y-91.64
X50.288Y-127.2
X52.669Y-165.3
X53.463Y-148.79
X55.05Y-70.05
X55.05Y-89.1
X58.225Y-110.69
X59.813Y-146.25
X62.067Y-163.395
X62.988Y-129.74
X64.575Y-108.15
X67.75Y-72.59
X67.75Y-91.64
X69.338Y-127.2
X72.513Y-148.79
X74.1Y-70.05
X74.1Y-89.1
X77.275Y-110.69
X78.863Y-146.25
X82.038Y-129.74
X82.038Y-167.84
X83.625Y-108.15
X86.8Y-72.59
X86.8Y-91.64
X88.388Y-127.2
X88.388Y-165.3
X91.563Y-148.79
X93.15Y-70.05
X93.15Y-89.1
X96.325Y-110.69
X97.913Y-146.25
X101.088Y-129.74
X101.088Y-167.84
X102.675Y-108.15
X105.85Y-72.59
X105.85Y-91.64
X107.438Y-127.2
X107.438Y-165.3
X110.613Y-148.79
X112.2Y-70.05
X112.2Y-89.1
X115.375Y-110.69
X116.963Y-146.25
X120.138Y-129.74
X120.138Y-167.84
X121.725Y-108.15
X124.9Y-72.59
X124.9Y-91.64
X126.488Y-127.2
X126.488Y-165.3
X129.663Y-148.79
X131.25Y-70.05
X131.25Y-89.1
X134.425Y-110.69
X136.013Y-146.25
X139.188Y-129.74
X140.775Y-108.15
X141.569Y-167.84
X143.95Y-72.59
X143.95Y-91.64
X145.538Y-127.2
X147.919Y-165.3
X150.3Y-70.05
X150.3Y-89.1
X153.475Y-110.69
X155.856Y-148.79
X159.825Y-108.15
X162.016Y-125.295
X162.206Y-146.25
X163.0Y-72.59
X163.0Y-167.84
X164.397Y-87.195
X169.35Y-70.05
X169.35Y-165.3
X170.144Y-129.74
X172.525Y-91.64
X176.494Y-127.2
X177.288Y-110.69
X178.875Y-89.1
X182.05Y-72.59
X182.05Y-148.79
X182.05Y-167.84
X183.638Y-108.15
X185.892Y-125.295
X188.273Y-87.195
X188.4Y-70.05
X188.4Y-146.25
X188.4Y-165.3
X201.1Y-91.64
X201.1Y-110.69
X201.1Y-129.74
X201.1Y-148.79
X201.1Y-167.84
X207.45Y-89.1
X207.45Y-108.15
X207.45Y-127.2
X207.45Y-146.25
X207.45Y-165.3
X225.112Y-91.64
X225.112Y-110.69
X225.112Y-129.74
X225.112Y-148.79
X225.112Y-167.84
X231.462Y-89.1
X231.462Y-108.15
X231.462Y-127.2
X231.462Y-146.25
X231.462Y-165.3
X244.162Y-72.59
X244.162Y-91.64
X246.544Y-167.84
X247.941Y-144.345
X248.925Y-110.69
X250.512Y-70.05
X250.512Y-89.1
X251.306Y-129.74
X252.894Y-165.3
X255.275Y-108.15
X256.069Y-148.79
X257.656Y-127.2
X262.419Y-146.25
X263.212Y-72.59
X263.212Y-91.64
X269.562Y-70.05
X269.562Y-89.1
X270.356Y-167.84
X271.817Y-144.345
X272.738Y-110.69
X276.706Y-165.3
X277.5Y-129.74
X279.087Y-108.15
X282.262Y-72.59
X282.262Y-91.64
X283.85Y-127.2
X287.025Y-148.79
X288.613Y-70.05
X288.613Y-89.1
X291.787Y-110.69
X293.375Y-146.25
X294.169Y-167.84
X296.55Y-129.74
X298.137Y-108.15
X300.519Y-165.3
X301.312Y-72.59
X301.312Y-91.64
X302.9Y-127.2
X306.075Y-148.79
X307.662Y-70.05
X307.662Y-89.1
X310.837Y-110.69
X312.425Y-146.25
X315.6Y-129.74
X317.188Y-108.15
X319.378Y-163.395
X320.363Y-72.59
X320.363Y-91.64
X321.95Y-127.2
X325.125Y-148.79
X326.712Y-70.05
X326.712Y-89.1
X327.506Y-167.84
X329.887Y-110.69
X331.475Y-146.25
X333.856Y-165.3
X334.65Y-129.74
X336.238Y-108.15
X339.412Y-72.59
X339.412Y-91.64
X341.0Y-127.2
X343.254Y-163.395
X344.175Y-148.79
X345.762Y-70.05
X345.762Y-89.1
X348.938Y-110.69
X350.525Y-146.25
X353.7Y-129.74
X355.287Y-108.15
X358.462Y-72.59
X358.462Y-91.64
X360.05Y-127.2
X363.225Y-148.79
X364.812Y-70.05
X364.812Y-89.1
X369.575Y-146.25
T6
X38.191Y-178.635
X42.985Y-113.23
X47.748Y-132.28
X50.129Y-170.38
X52.51Y-75.13
X52.51Y-94.18
X57.273Y-151.33
X62.035Y-113.23
X62.067Y-178.635
X66.798Y-132.28
X71.56Y-75.13
X71.56Y-94.18
X76.323Y-151.33
X81.085Y-113.23
X85.848Y-132.28
X85.848Y-170.38
X90.61Y-75.13
X90.61Y-94.18
X95.373Y-151.33
X100.135Y-113.23
X104.898Y-132.28
X104.898Y-170.38
X109.66Y-75.13
X109.66Y-94.18
X114.423Y-151.33
X119.185Y-113.23
X123.948Y-132.28
X123.948Y-170.38
X128.71Y-75.13
X128.71Y-94.18
X133.473Y-151.33
X138.235Y-113.23
X142.998Y-132.28
X145.379Y-170.38
X147.76Y-75.13
X147.76Y-94.18
X157.285Y-113.23
X159.666Y-151.33
X162.016Y-140.535
X164.397Y-102.435
X166.81Y-75.13
X166.81Y-170.38
X173.954Y-132.28
X176.335Y-94.18
X181.098Y-113.23
X185.86Y-75.13
X185.86Y-151.33
X185.86Y-170.38
X185.892Y-140.535
X188.273Y-102.435
X204.91Y-94.18
X204.91Y-113.23
X204.91Y-132.28
X204.91Y-151.33
X204.91Y-170.38
X228.922Y-94.18
X228.922Y-113.23
X228.922Y-132.28
X228.922Y-151.33
X228.922Y-170.38
X247.941Y-159.585
X247.972Y-75.13
X247.972Y-94.18
X250.354Y-170.38
X252.735Y-113.23
X255.116Y-132.28
X259.879Y-151.33
X267.022Y-75.13
X267.022Y-94.18
X271.817Y-159.585
X274.166Y-170.38
X276.548Y-113.23
X281.31Y-132.28
X286.072Y-75.13
X286.072Y-94.18
X290.835Y-151.33
X295.597Y-113.23
X297.979Y-170.38
X300.36Y-132.28
X305.123Y-75.13
X305.123Y-94.18
X309.885Y-151.33
X314.647Y-113.23
X319.378Y-178.635
X319.41Y-132.28
X324.173Y-75.13
X324.173Y-94.18
X328.935Y-151.33
X331.316Y-170.38
X333.697Y-113.23
X338.46Y-132.28
X343.222Y-75.13
X343.222Y-94.18
X343.254Y-178.635
X347.985Y-151.33
X352.748Y-113.23
X357.51Y-132.28
X362.272Y-75.13
X362.272Y-94.18
X367.035Y-151.33
M30
