G04 #@! TF.GenerationSoftware,KiCad,Pcbnew,10.0.3*
G04 #@! TF.CreationDate,2026-07-17T18:59:21-04:00*
G04 #@! TF.ProjectId,karve-split,6b617276-652d-4737-906c-69742e6b6963,rev?*
G04 #@! TF.SameCoordinates,Original*
G04 #@! TF.FileFunction,Profile,NP*
%FSLAX46Y46*%
G04 Gerber Fmt 4.6, Leading zero omitted, Abs format (unit mm)*
G04 Created by KiCad (PCBNEW 10.0.3) date 2026-07-17 18:59:21*
%MOMM*%
%LPD*%
G01*
G04 APERTURE LIST*
G04 #@! TA.AperFunction,Profile*
%ADD10C,0.050000*%
G04 #@! TD*
G04 APERTURE END LIST*
D10*
X23914851Y-161025000D02*
X23914851Y-170895641D01*
X23914851Y-170895641D02*
X23914851Y-178845641D01*
X23914851Y-182395641D02*
X23914851Y-178845641D01*
X33464851Y-103795641D02*
X33464851Y-113695641D01*
X33464851Y-121645641D02*
X33464851Y-113695641D01*
X33464851Y-121645641D02*
X33464851Y-122645641D01*
X33464851Y-122645641D02*
X38214851Y-122645641D01*
X38214851Y-122645641D02*
X38214851Y-132745641D01*
X38214851Y-140695641D02*
X38214851Y-132745641D01*
X38214851Y-140695641D02*
X38214851Y-141695641D01*
X38214851Y-141695641D02*
X47764851Y-141695641D01*
X43014851Y-42245641D02*
X141714851Y-42245641D01*
X43014851Y-47845641D02*
X43014851Y-42245641D01*
X43014851Y-47845641D02*
X43014851Y-55695641D01*
X43014851Y-73845641D02*
X43014851Y-55695641D01*
X43014851Y-73845641D02*
X43014851Y-81695641D01*
X43014851Y-94745641D02*
X43014851Y-81695641D01*
X43014851Y-103795641D02*
X33464851Y-103795641D01*
X43014851Y-103795641D02*
X43014851Y-94745641D01*
X47764851Y-151595641D02*
X47764851Y-141695641D01*
X47764851Y-151595641D02*
X47764851Y-159495641D01*
X47764851Y-159495641D02*
X47764851Y-160975000D01*
X47764851Y-160975000D02*
X23914851Y-161025000D01*
X141714851Y-42245641D02*
X141714851Y-63395641D01*
X141714851Y-63395641D02*
X214464851Y-63395641D01*
X214450000Y-102000000D02*
X219400000Y-102000000D01*
X214450000Y-113200000D02*
X214450000Y-102000000D01*
X214450000Y-121100000D02*
X219400000Y-121100000D01*
X214450000Y-132250000D02*
X214450000Y-121100000D01*
X214450000Y-140150000D02*
X219400000Y-140150000D01*
X214450000Y-151300000D02*
X214450000Y-140150000D01*
X214450000Y-159200000D02*
X219400000Y-159200000D01*
X214450000Y-170900000D02*
X214450000Y-159200000D01*
X214450000Y-178800000D02*
X214450000Y-182395641D01*
X214450000Y-178800000D02*
X219400000Y-178800000D01*
X214450000Y-182395641D02*
X23914851Y-182395641D01*
X214464851Y-85395641D02*
X214464851Y-63395641D01*
X214464851Y-85395641D02*
X214464851Y-94150000D01*
X214464851Y-94150000D02*
X219400000Y-94150000D01*
X219400000Y-94150000D02*
X219417500Y-63430000D01*
X219400000Y-102000000D02*
X219400000Y-113200000D01*
X219400000Y-113200000D02*
X214450000Y-113200000D01*
X219400000Y-121100000D02*
X219400000Y-132250000D01*
X219400000Y-132250000D02*
X214450000Y-132250000D01*
X219400000Y-140150000D02*
X219400000Y-151300000D01*
X219400000Y-151300000D02*
X214450000Y-151300000D01*
X219400000Y-159200000D02*
X219400000Y-170900000D01*
X219400000Y-170900000D02*
X214450000Y-170900000D01*
X219400000Y-178800000D02*
X219417500Y-182430000D01*
X274017500Y-42230000D02*
X274017500Y-63430000D01*
X274017500Y-63430000D02*
X219417500Y-63430000D01*
X274617500Y-42230000D02*
X274017500Y-42230000D01*
X276917500Y-42230000D02*
X274617500Y-42230000D01*
X276917500Y-42230000D02*
X277717500Y-42230000D01*
X277717500Y-42230000D02*
X371767500Y-42230000D01*
X352717500Y-160780000D02*
X376567500Y-160780000D01*
X352717500Y-170880000D02*
X352717500Y-160780000D01*
X352717500Y-170880000D02*
X352717500Y-182430000D01*
X352717500Y-182430000D02*
X219417500Y-182430000D01*
X362267500Y-103630000D02*
X371817500Y-103630000D01*
X362267500Y-113680000D02*
X362267500Y-103630000D01*
X362267500Y-113680000D02*
X362267500Y-121630000D01*
X362267500Y-122830000D02*
X362267500Y-121630000D01*
X367017500Y-122830000D02*
X362267500Y-122830000D01*
X367017500Y-132730000D02*
X367017500Y-122830000D01*
X367017500Y-132730000D02*
X367017500Y-140680000D01*
X367017500Y-141880000D02*
X367017500Y-140680000D01*
X371767500Y-42230000D02*
X371767500Y-47830000D01*
X371767500Y-47830000D02*
X371817500Y-81680000D01*
X371817500Y-81680000D02*
X371817500Y-94730000D01*
X371817500Y-94730000D02*
X371817500Y-102630000D01*
X371817500Y-103630000D02*
X371817500Y-102630000D01*
X376567500Y-141880000D02*
X367017500Y-141880000D01*
X376567500Y-141880000D02*
X376567500Y-160780000D01*
M02*
