G04 #@! TF.GenerationSoftware,KiCad,Pcbnew,10.0.3*
G04 #@! TF.CreationDate,2026-07-17T18:59:21-04:00*
G04 #@! TF.ProjectId,karve-split,6b617276-652d-4737-906c-69742e6b6963,rev?*
G04 #@! TF.SameCoordinates,Original*
G04 #@! TF.FileFunction,Copper,L1,Top*
G04 #@! TF.FilePolarity,Positive*
%FSLAX46Y46*%
G04 Gerber Fmt 4.6, Leading zero omitted, Abs format (unit mm)*
G04 Created by KiCad (PCBNEW 10.0.3) date 2026-07-17 18:59:21*
%MOMM*%
%LPD*%
G01*
G04 APERTURE LIST*
G04 Aperture macros list*
%AMRoundRect*
0 Rectangle with rounded corners*
0 $1 Rounding radius*
0 $2 $3 $4 $5 $6 $7 $8 $9 X,Y pos of 4 corners*
0 Add a 4 corners polygon primitive as box body*
4,1,4,$2,$3,$4,$5,$6,$7,$8,$9,$2,$3,0*
0 Add four circle primitives for the rounded corners*
1,1,$1+$1,$2,$3*
1,1,$1+$1,$4,$5*
1,1,$1+$1,$6,$7*
1,1,$1+$1,$8,$9*
0 Add four rect primitives between the rounded corners*
20,1,$1+$1,$2,$3,$4,$5,0*
20,1,$1+$1,$4,$5,$6,$7,0*
20,1,$1+$1,$6,$7,$8,$9,0*
20,1,$1+$1,$8,$9,$2,$3,0*%
%AMFreePoly0*
4,1,37,0.603843,0.796157,0.639018,0.796157,0.711114,0.766294,0.766294,0.711114,0.796157,0.639018,0.796157,0.603843,0.800000,0.600000,0.800000,-0.600000,0.796157,-0.603843,0.796157,-0.639018,0.766294,-0.711114,0.711114,-0.766294,0.639018,-0.796157,0.603843,-0.796157,0.600000,-0.800000,0.000000,-0.800000,0.000000,-0.796148,-0.078414,-0.796148,-0.232228,-0.765552,-0.377117,-0.705537,
-0.507515,-0.618408,-0.618408,-0.507515,-0.705537,-0.377117,-0.765552,-0.232228,-0.796148,-0.078414,-0.796148,0.078414,-0.765552,0.232228,-0.705537,0.377117,-0.618408,0.507515,-0.507515,0.618408,-0.377117,0.705537,-0.232228,0.765552,-0.078414,0.796148,0.000000,0.796148,0.000000,0.800000,0.600000,0.800000,0.603843,0.796157,0.603843,0.796157,$1*%
%AMFreePoly1*
4,1,37,0.000000,0.796148,0.078414,0.796148,0.232228,0.765552,0.377117,0.705537,0.507515,0.618408,0.618408,0.507515,0.705537,0.377117,0.765552,0.232228,0.796148,0.078414,0.796148,-0.078414,0.765552,-0.232228,0.705537,-0.377117,0.618408,-0.507515,0.507515,-0.618408,0.377117,-0.705537,0.232228,-0.765552,0.078414,-0.796148,0.000000,-0.796148,0.000000,-0.800000,-0.600000,-0.800000,
-0.603843,-0.796157,-0.639018,-0.796157,-0.711114,-0.766294,-0.766294,-0.711114,-0.796157,-0.639018,-0.796157,-0.603843,-0.800000,-0.600000,-0.800000,0.600000,-0.796157,0.603843,-0.796157,0.639018,-0.766294,0.711114,-0.711114,0.766294,-0.639018,0.796157,-0.603843,0.796157,-0.600000,0.800000,0.000000,0.800000,0.000000,0.796148,0.000000,0.796148,$1*%
G04 Aperture macros list end*
G04 #@! TA.AperFunction,ComponentPad*
%ADD10RoundRect,0.200000X-0.600000X0.600000X-0.600000X-0.600000X0.600000X-0.600000X0.600000X0.600000X0*%
G04 #@! TD*
G04 #@! TA.AperFunction,ComponentPad*
%ADD11C,1.600000*%
G04 #@! TD*
G04 #@! TA.AperFunction,ComponentPad*
%ADD12FreePoly0,270.000000*%
G04 #@! TD*
G04 #@! TA.AperFunction,ComponentPad*
%ADD13FreePoly1,270.000000*%
G04 #@! TD*
G04 #@! TA.AperFunction,ComponentPad*
%ADD14R,2.000000X2.000000*%
G04 #@! TD*
G04 #@! TA.AperFunction,ComponentPad*
%ADD15C,2.000000*%
G04 #@! TD*
G04 #@! TA.AperFunction,ComponentPad*
%ADD16R,3.200000X2.000000*%
G04 #@! TD*
G04 #@! TA.AperFunction,ComponentPad*
%ADD17RoundRect,0.170000X0.680000X-0.680000X0.680000X0.680000X-0.680000X0.680000X-0.680000X-0.680000X0*%
G04 #@! TD*
G04 #@! TA.AperFunction,ComponentPad*
%ADD18C,1.700000*%
G04 #@! TD*
G04 #@! TA.AperFunction,ComponentPad*
%ADD19RoundRect,0.200000X0.600000X-0.600000X0.600000X0.600000X-0.600000X0.600000X-0.600000X-0.600000X0*%
G04 #@! TD*
G04 #@! TA.AperFunction,ComponentPad*
%ADD20FreePoly0,90.000000*%
G04 #@! TD*
G04 #@! TA.AperFunction,ComponentPad*
%ADD21FreePoly1,90.000000*%
G04 #@! TD*
G04 #@! TA.AperFunction,ComponentPad*
%ADD22O,1.000000X1.600000*%
G04 #@! TD*
G04 #@! TA.AperFunction,ComponentPad*
%ADD23O,1.000000X2.100000*%
G04 #@! TD*
G04 #@! TA.AperFunction,ViaPad*
%ADD24C,0.600000*%
G04 #@! TD*
G04 #@! TA.AperFunction,ViaPad*
%ADD25C,0.800000*%
G04 #@! TD*
G04 #@! TA.AperFunction,Conductor*
%ADD26C,0.200000*%
G04 #@! TD*
G04 #@! TA.AperFunction,Conductor*
%ADD27C,0.500000*%
G04 #@! TD*
G04 #@! TA.AperFunction,Conductor*
%ADD28C,0.750000*%
G04 #@! TD*
G04 APERTURE END LIST*
D10*
G04 #@! TO.P,A2,1,GPIO0_1*
G04 #@! TO.N,/Right Split/ROW5*
X136647651Y-45040000D03*
D11*
G04 #@! TO.P,A2,2,GPIO1_2*
G04 #@! TO.N,/Right Split/ROW4*
X134107651Y-45040000D03*
D12*
G04 #@! TO.P,A2,3,GND_3*
G04 #@! TO.N,/Right Split/GND*
X131567651Y-45040000D03*
D11*
G04 #@! TO.P,A2,4,GPIO2_4*
G04 #@! TO.N,/Right Split/ROW3*
X129027651Y-45040000D03*
G04 #@! TO.P,A2,5,GPIO3_5*
G04 #@! TO.N,/Right Split/ROW2*
X126487651Y-45040000D03*
G04 #@! TO.P,A2,6,GPIO4_6*
G04 #@! TO.N,/Right Split/ROW1*
X123947651Y-45040000D03*
G04 #@! TO.P,A2,7,GPIO5_7*
G04 #@! TO.N,/Right Split/ROW0*
X121407651Y-45040000D03*
D12*
G04 #@! TO.P,A2,8,GND_8*
G04 #@! TO.N,/Right Split/GND*
X118867651Y-45040000D03*
D11*
G04 #@! TO.P,A2,9,GPIO6_9*
G04 #@! TO.N,/Right Split/COL8*
X116327651Y-45040000D03*
G04 #@! TO.P,A2,10,GPIO7_10*
G04 #@! TO.N,/Right Split/COL7*
X113787651Y-45040000D03*
G04 #@! TO.P,A2,11,GPIO8_11*
G04 #@! TO.N,/Right Split/COL6*
X111247651Y-45040000D03*
G04 #@! TO.P,A2,12,GPIO9_12*
G04 #@! TO.N,/Right Split/COL5*
X108707651Y-45040000D03*
D12*
G04 #@! TO.P,A2,13,GND_13*
G04 #@! TO.N,/Right Split/GND*
X106167651Y-45040000D03*
D11*
G04 #@! TO.P,A2,14,GPIO10_14*
G04 #@! TO.N,/Right Split/COL4*
X103627651Y-45040000D03*
G04 #@! TO.P,A2,15,GPIO11_15*
G04 #@! TO.N,/Right Split/COL3*
X101087651Y-45040000D03*
G04 #@! TO.P,A2,16,GPIO12_16*
G04 #@! TO.N,/Right Split/COL2*
X98547651Y-45040000D03*
G04 #@! TO.P,A2,17,GPIO13_17*
G04 #@! TO.N,/Right Split/COL1*
X96007651Y-45040000D03*
D12*
G04 #@! TO.P,A2,18,GND_18*
G04 #@! TO.N,/Right Split/GND*
X93467651Y-45040000D03*
D11*
G04 #@! TO.P,A2,19,GPIO14_19*
G04 #@! TO.N,/Right Split/COL0*
X90927651Y-45040000D03*
G04 #@! TO.P,A2,20,GPIO15_20*
G04 #@! TO.N,unconnected-(A2-GPIO15-Pad20)*
X88387651Y-45040000D03*
G04 #@! TO.P,A2,21,GPIO16_21*
G04 #@! TO.N,Net-(A2-GPIO16)*
X88387651Y-62820000D03*
G04 #@! TO.P,A2,22,GPIO17_22*
G04 #@! TO.N,/Right Split/RX*
X90927651Y-62820000D03*
D13*
G04 #@! TO.P,A2,23,GND_23*
G04 #@! TO.N,/Right Split/GND*
X93467651Y-62820000D03*
D11*
G04 #@! TO.P,A2,24,GPIO18_24*
G04 #@! TO.N,/Right Split/SDA*
X96007651Y-62820000D03*
G04 #@! TO.P,A2,25,GPIO19_25*
G04 #@! TO.N,/Right Split/SCL*
X98547651Y-62820000D03*
G04 #@! TO.P,A2,26,GPIO20_26*
G04 #@! TO.N,/Right Split/A*
X101087651Y-62820000D03*
G04 #@! TO.P,A2,27,GPIO21_27*
G04 #@! TO.N,/Right Split/B*
X103627651Y-62820000D03*
D13*
G04 #@! TO.P,A2,28,GND_28*
G04 #@! TO.N,/Right Split/GND*
X106167651Y-62820000D03*
D11*
G04 #@! TO.P,A2,29,GPIO22_29*
G04 #@! TO.N,unconnected-(A2-GPIO22-Pad29)*
X108707651Y-62820000D03*
G04 #@! TO.P,A2,30,RUN_30*
G04 #@! TO.N,unconnected-(A2-RUN-Pad30)*
X111247651Y-62820000D03*
G04 #@! TO.P,A2,31,GPIO26_ADC0_31*
G04 #@! TO.N,unconnected-(A2-GPIO26_ADC0-Pad31)*
X113787651Y-62820000D03*
G04 #@! TO.P,A2,32,GPIO27_ADC1_32*
G04 #@! TO.N,unconnected-(A2-GPIO27_ADC1-Pad32)*
X116327651Y-62820000D03*
D13*
G04 #@! TO.P,A2,33,AGND_33*
G04 #@! TO.N,/Right Split/GND*
X118867651Y-62820000D03*
D11*
G04 #@! TO.P,A2,34,GPIO28_ADC2_34*
G04 #@! TO.N,unconnected-(A2-GPIO28_ADC2-Pad34)*
X121407651Y-62820000D03*
G04 #@! TO.P,A2,35,ADC_VREF_35*
G04 #@! TO.N,unconnected-(A2-ADC_VREF-Pad35)*
X123947651Y-62820000D03*
G04 #@! TO.P,A2,36,3V3_36*
G04 #@! TO.N,/Right Split/3V3*
X126487651Y-62820000D03*
G04 #@! TO.P,A2,37,3V3_EN_37*
G04 #@! TO.N,unconnected-(A2-3V3_EN-Pad37)*
X129027651Y-62820000D03*
D13*
G04 #@! TO.P,A2,38,GND_38*
G04 #@! TO.N,/Right Split/GND*
X131567651Y-62820000D03*
D11*
G04 #@! TO.P,A2,39,VSYS_39*
G04 #@! TO.N,/Right Split/VSYS*
X134107651Y-62820000D03*
G04 #@! TO.P,A2,40,VBUS_40*
G04 #@! TO.N,unconnected-(A2-VBUS-Pad40)*
X136647651Y-62820000D03*
G04 #@! TD*
D14*
G04 #@! TO.P,SW51,A,A_A*
G04 #@! TO.N,/Right Split/A*
X197660151Y-72630000D03*
D15*
G04 #@! TO.P,SW51,B,B_B*
G04 #@! TO.N,/Right Split/B*
X197660151Y-77630000D03*
G04 #@! TO.P,SW51,C,C_C*
G04 #@! TO.N,/Right Split/GND*
X197660151Y-75130000D03*
D16*
G04 #@! TO.P,SW51,MP*
G04 #@! TO.N,N/C*
X205160151Y-69530000D03*
X205160151Y-80730000D03*
D15*
G04 #@! TO.P,SW51,S1,S1_S1*
G04 #@! TO.N,/Right Split/COL8*
X212160151Y-77630000D03*
G04 #@! TO.P,SW51,S2,S2_S2*
G04 #@! TO.N,/Right Split/SWRT2*
X212160151Y-72630000D03*
G04 #@! TD*
D17*
G04 #@! TO.P,U2,1,GND_1*
G04 #@! TO.N,/Right Split/GND*
X45830151Y-63240000D03*
D18*
G04 #@! TO.P,U2,2,VCC_2*
G04 #@! TO.N,/Right Split/3V3*
X45830151Y-60700000D03*
G04 #@! TO.P,U2,3,SCL_3*
G04 #@! TO.N,/Right Split/SCL*
X45830151Y-58160000D03*
G04 #@! TO.P,U2,4,SDA_4*
G04 #@! TO.N,/Right Split/SDA*
X45830151Y-55620000D03*
G04 #@! TD*
D14*
G04 #@! TO.P,SW93,A,A_A*
G04 #@! TO.N,/Left Split/A*
X221672500Y-72630000D03*
D15*
G04 #@! TO.P,SW93,B,B_B*
G04 #@! TO.N,/Left Split/B*
X221672500Y-77630000D03*
G04 #@! TO.P,SW93,C,C_C*
G04 #@! TO.N,/Left Split/GND*
X221672500Y-75130000D03*
D16*
G04 #@! TO.P,SW93,MP*
G04 #@! TO.N,N/C*
X229172500Y-69530000D03*
X229172500Y-80730000D03*
D15*
G04 #@! TO.P,SW93,S1,S1_S1*
G04 #@! TO.N,/Left Split/COL0*
X236172500Y-77630000D03*
G04 #@! TO.P,SW93,S2,S2_S2*
G04 #@! TO.N,/Left Split/SWRT2*
X236172500Y-72630000D03*
G04 #@! TD*
D17*
G04 #@! TO.P,U3,1,GND_1*
G04 #@! TO.N,/Left Split/GND*
X333767500Y-62740000D03*
D18*
G04 #@! TO.P,U3,2,VCC_2*
G04 #@! TO.N,/Left Split/3V3*
X333767500Y-60200000D03*
G04 #@! TO.P,U3,3,SCL_3*
G04 #@! TO.N,/Left Split/SCL*
X333767500Y-57660000D03*
G04 #@! TO.P,U3,4,SDA_4*
G04 #@! TO.N,/Left Split/SDA*
X333767500Y-55120000D03*
G04 #@! TD*
D19*
G04 #@! TO.P,A3,1,GPIO0_1*
G04 #@! TO.N,/Left Split/COL0*
X278187500Y-62710000D03*
D11*
G04 #@! TO.P,A3,2,GPIO1_2*
G04 #@! TO.N,/Left Split/COL1*
X280727500Y-62710000D03*
D20*
G04 #@! TO.P,A3,3,GND_3*
G04 #@! TO.N,/Left Split/GND*
X283267500Y-62710000D03*
D11*
G04 #@! TO.P,A3,4,GPIO2_4*
G04 #@! TO.N,/Left Split/COL2*
X285807500Y-62710000D03*
G04 #@! TO.P,A3,5,GPIO3_5*
G04 #@! TO.N,/Left Split/COL3*
X288347500Y-62710000D03*
G04 #@! TO.P,A3,6,GPIO4_6*
G04 #@! TO.N,/Left Split/COL4*
X290887500Y-62710000D03*
G04 #@! TO.P,A3,7,GPIO5_7*
G04 #@! TO.N,/Left Split/COL5*
X293427500Y-62710000D03*
D20*
G04 #@! TO.P,A3,8,GND_8*
G04 #@! TO.N,/Left Split/GND*
X295967500Y-62710000D03*
D11*
G04 #@! TO.P,A3,9,GPIO6_9*
G04 #@! TO.N,/Left Split/COL6*
X298507500Y-62710000D03*
G04 #@! TO.P,A3,10,GPIO7_10*
G04 #@! TO.N,/Left Split/COL7*
X301047500Y-62710000D03*
G04 #@! TO.P,A3,11,GPIO8_11*
G04 #@! TO.N,/Left Split/ROW0*
X303587500Y-62710000D03*
G04 #@! TO.P,A3,12,GPIO9_12*
G04 #@! TO.N,/Left Split/ROW1*
X306127500Y-62710000D03*
D20*
G04 #@! TO.P,A3,13,GND_13*
G04 #@! TO.N,/Left Split/GND*
X308667500Y-62710000D03*
D11*
G04 #@! TO.P,A3,14,GPIO10_14*
G04 #@! TO.N,/Left Split/ROW2*
X311207500Y-62710000D03*
G04 #@! TO.P,A3,15,GPIO11_15*
G04 #@! TO.N,/Left Split/ROW3*
X313747500Y-62710000D03*
G04 #@! TO.P,A3,16,GPIO12_16*
G04 #@! TO.N,/Left Split/ROW4*
X316287500Y-62710000D03*
G04 #@! TO.P,A3,17,GPIO13_17*
G04 #@! TO.N,/Left Split/ROW5*
X318827500Y-62710000D03*
D20*
G04 #@! TO.P,A3,18,GND_18*
G04 #@! TO.N,/Left Split/GND*
X321367500Y-62710000D03*
D11*
G04 #@! TO.P,A3,19,GPIO14_19*
G04 #@! TO.N,unconnected-(A3-GPIO14-Pad19)*
X323907500Y-62710000D03*
G04 #@! TO.P,A3,20,GPIO15_20*
G04 #@! TO.N,unconnected-(A3-GPIO15-Pad20)*
X326447500Y-62710000D03*
G04 #@! TO.P,A3,21,GPIO16_21*
G04 #@! TO.N,Net-(A3-GPIO16)*
X326447500Y-44930000D03*
G04 #@! TO.P,A3,22,GPIO17_22*
G04 #@! TO.N,/Left Split/RX*
X323907500Y-44930000D03*
D21*
G04 #@! TO.P,A3,23,GND_23*
G04 #@! TO.N,/Left Split/GND*
X321367500Y-44930000D03*
D11*
G04 #@! TO.P,A3,24,GPIO18_24*
G04 #@! TO.N,/Left Split/SDA*
X318827500Y-44930000D03*
G04 #@! TO.P,A3,25,GPIO19_25*
G04 #@! TO.N,/Left Split/SCL*
X316287500Y-44930000D03*
G04 #@! TO.P,A3,26,GPIO20_26*
G04 #@! TO.N,/Left Split/A*
X313747500Y-44930000D03*
G04 #@! TO.P,A3,27,GPIO21_27*
G04 #@! TO.N,/Left Split/B*
X311207500Y-44930000D03*
D21*
G04 #@! TO.P,A3,28,GND_28*
G04 #@! TO.N,/Left Split/GND*
X308667500Y-44930000D03*
D11*
G04 #@! TO.P,A3,29,GPIO22_29*
G04 #@! TO.N,unconnected-(A3-GPIO22-Pad29)*
X306127500Y-44930000D03*
G04 #@! TO.P,A3,30,RUN_30*
G04 #@! TO.N,unconnected-(A3-RUN-Pad30)*
X303587500Y-44930000D03*
G04 #@! TO.P,A3,31,GPIO26_ADC0_31*
G04 #@! TO.N,unconnected-(A3-GPIO26_ADC0-Pad31)*
X301047500Y-44930000D03*
G04 #@! TO.P,A3,32,GPIO27_ADC1_32*
G04 #@! TO.N,unconnected-(A3-GPIO27_ADC1-Pad32)*
X298507500Y-44930000D03*
D21*
G04 #@! TO.P,A3,33,AGND_33*
G04 #@! TO.N,/Left Split/GND*
X295967500Y-44930000D03*
D11*
G04 #@! TO.P,A3,34,GPIO28_ADC2_34*
G04 #@! TO.N,unconnected-(A3-GPIO28_ADC2-Pad34)*
X293427500Y-44930000D03*
G04 #@! TO.P,A3,35,ADC_VREF_35*
G04 #@! TO.N,unconnected-(A3-ADC_VREF-Pad35)*
X290887500Y-44930000D03*
G04 #@! TO.P,A3,36,3V3_36*
G04 #@! TO.N,/Left Split/3V3*
X288347500Y-44930000D03*
G04 #@! TO.P,A3,37,3V3_EN_37*
G04 #@! TO.N,unconnected-(A3-3V3_EN-Pad37)*
X285807500Y-44930000D03*
D21*
G04 #@! TO.P,A3,38,GND_38*
G04 #@! TO.N,/Left Split/GND*
X283267500Y-44930000D03*
D11*
G04 #@! TO.P,A3,39,VSYS_39*
G04 #@! TO.N,/Left Split/VSYS*
X280727500Y-44930000D03*
G04 #@! TO.P,A3,40,VBUS_40*
G04 #@! TO.N,unconnected-(A3-VBUS-Pad40)*
X278187500Y-44930000D03*
G04 #@! TD*
G04 #@! TO.P,R8,1*
G04 #@! TO.N,/Right Split/SCL*
X58314851Y-51345641D03*
G04 #@! TO.P,R8,2*
G04 #@! TO.N,/Right Split/3V3*
X68474851Y-51345641D03*
G04 #@! TD*
G04 #@! TO.P,R10,1*
G04 #@! TO.N,/Left Split/SCL*
X333217500Y-50430000D03*
G04 #@! TO.P,R10,2*
G04 #@! TO.N,/Left Split/3V3*
X343377500Y-50430000D03*
G04 #@! TD*
D22*
G04 #@! TO.P,J2,SH,SHIELD_SH*
G04 #@! TO.N,/Right Split/GND*
X45010151Y-45880000D03*
D23*
X45010151Y-50060000D03*
D22*
X53650151Y-45880000D03*
D23*
X53650151Y-50060000D03*
G04 #@! TD*
D22*
G04 #@! TO.P,J3,SH,SHIELD_SH*
G04 #@! TO.N,/Left Split/GND*
X360947500Y-45880000D03*
D23*
X360947500Y-50060000D03*
D22*
X369587500Y-45880000D03*
D23*
X369587500Y-50060000D03*
G04 #@! TD*
D11*
G04 #@! TO.P,R9,1*
G04 #@! TO.N,/Left Split/SDA*
X330467500Y-50120000D03*
G04 #@! TO.P,R9,2*
G04 #@! TO.N,/Left Split/3V3*
X330467500Y-60280000D03*
G04 #@! TD*
G04 #@! TO.P,R7,1*
G04 #@! TO.N,/Right Split/SDA*
X81214851Y-51295641D03*
G04 #@! TO.P,R7,2*
G04 #@! TO.N,/Right Split/3V3*
X71054851Y-51295641D03*
G04 #@! TD*
D24*
G04 #@! TO.N,/Right Split/COL6*
X154004665Y-67380000D03*
X157400000Y-74300000D03*
G04 #@! TO.N,/Right Split/ROW0*
X137700000Y-68900000D03*
G04 #@! TO.N,/Right Split/ROW5*
X159814851Y-161780000D03*
X79514851Y-161780000D03*
X136314851Y-161780000D03*
X117664851Y-161780000D03*
X28019051Y-164468900D03*
X195830151Y-159845641D03*
X178514851Y-161780000D03*
X98164851Y-161780000D03*
G04 #@! TO.N,/Right Split/ROW4*
X196114851Y-140195641D03*
X51714851Y-142780000D03*
X178464851Y-142780000D03*
X127064851Y-142780000D03*
X145864851Y-142780000D03*
X108064851Y-142780000D03*
X69464851Y-142780000D03*
X88064851Y-142780000D03*
G04 #@! TO.N,/Right Split/GND*
X199714851Y-70045641D03*
X136914851Y-64395641D03*
X95914851Y-47015000D03*
X193714851Y-64395641D03*
G04 #@! TO.N,/Right Split/ROW3*
X154114680Y-122495470D03*
X136314851Y-123780000D03*
X116764851Y-123780000D03*
X59664851Y-123780000D03*
X195564851Y-121595641D03*
X98064851Y-123780000D03*
X42314851Y-123780000D03*
X78914851Y-123780000D03*
G04 #@! TO.N,/Right Split/ROW2*
X37464851Y-104780000D03*
X170630000Y-105800000D03*
X55514851Y-104780000D03*
X112164851Y-104780000D03*
X93414851Y-104780000D03*
X74314851Y-104780000D03*
X150614851Y-104780000D03*
X195597501Y-102528291D03*
X131314851Y-104780000D03*
G04 #@! TO.N,/Right Split/ROW1*
X63350000Y-87300000D03*
X102814851Y-85780000D03*
X193131251Y-83581100D03*
X47464851Y-85780000D03*
X158639680Y-84470470D03*
X84114851Y-85780000D03*
X121614851Y-85780000D03*
X140464851Y-85780000D03*
G04 #@! TO.N,/Right Split/ROW0*
X121514851Y-66780000D03*
X191814851Y-66945641D03*
X102514851Y-66780000D03*
X188164851Y-66245641D03*
X158964851Y-66780000D03*
X83564851Y-66780000D03*
X65164851Y-66780000D03*
X174414851Y-66780000D03*
X46864851Y-66780000D03*
G04 #@! TO.N,/Right Split/RX*
X51864851Y-55745641D03*
G04 #@! TO.N,/Right Split/SDA*
X95564851Y-52745641D03*
X50364851Y-60845641D03*
G04 #@! TO.N,/Right Split/A*
X176330151Y-78739342D03*
X190214851Y-81295641D03*
X106214851Y-67745641D03*
X177530151Y-78550000D03*
G04 #@! TO.N,/Right Split/B*
X107564851Y-67545641D03*
X194664851Y-81645641D03*
X186864851Y-82345641D03*
X176200000Y-77950000D03*
G04 #@! TO.N,/Right Split/3V3*
X67414851Y-57895641D03*
G04 #@! TO.N,/Right Split/VSYS*
X66664851Y-47890000D03*
G04 #@! TO.N,/Left Split/3V3*
X306417500Y-54580000D03*
D25*
G04 #@! TO.N,/Left Split/ROW0*
X350517500Y-66480000D03*
X344067500Y-66380000D03*
D24*
X297417500Y-66280000D03*
D25*
X312517500Y-66380000D03*
D24*
X255617500Y-66280000D03*
X275167500Y-66280000D03*
X289417500Y-66280000D03*
D25*
X316567500Y-66380000D03*
D24*
X278417500Y-66280000D03*
D25*
X331617500Y-66380000D03*
D24*
G04 #@! TO.N,/Left Split/ROW1*
X352767500Y-83930000D03*
X332900000Y-88850000D03*
X238267500Y-84030000D03*
X220767500Y-83930000D03*
X276767500Y-83930000D03*
X256850000Y-88564500D03*
X314767500Y-83930000D03*
X295767500Y-83930000D03*
G04 #@! TO.N,/Left Split/ROW2*
X238767500Y-103030000D03*
X286267500Y-103030000D03*
X343267500Y-103030000D03*
X324267500Y-103030000D03*
X220717500Y-103030000D03*
X305267500Y-103030000D03*
X267267500Y-103030000D03*
G04 #@! TO.N,/Left Split/ROW3*
X309767500Y-122130000D03*
X238767500Y-122130000D03*
X290767500Y-122130000D03*
X271817500Y-122130000D03*
X329267500Y-122130000D03*
X220767500Y-122130000D03*
X345467500Y-120430000D03*
G04 #@! TO.N,/Left Split/ROW4*
X220767500Y-141280000D03*
X238767500Y-141280000D03*
X281267500Y-141230000D03*
X356517500Y-141880000D03*
X300317500Y-141230000D03*
X319767500Y-141230000D03*
X338717500Y-141230000D03*
G04 #@! TO.N,/Left Split/ROW5*
X220767500Y-160330000D03*
X286267500Y-160330000D03*
X238767500Y-160330000D03*
X311167500Y-160330000D03*
X262317500Y-160330000D03*
G04 #@! TO.N,/Left Split/RX*
X365617500Y-48180000D03*
G04 #@! TO.N,Net-(F2-Pad1)*
X51814851Y-52745641D03*
X46864851Y-52745641D03*
G04 #@! TO.N,/Left Split/TX*
X332517500Y-44930000D03*
X350967500Y-46414744D03*
G04 #@! TO.N,Net-(F3-Pad1)*
X362817500Y-53130000D03*
X358667500Y-47930000D03*
X366917500Y-53130000D03*
G04 #@! TO.N,/Right Split/TX*
X51264851Y-54245641D03*
X79164851Y-60445641D03*
G04 #@! TD*
G04 #@! TO.N,/Right Split/COL6*
D26*
X157400000Y-74300000D02*
X157400000Y-70775335D01*
X157400000Y-70775335D02*
X154004665Y-67380000D01*
G04 #@! TO.N,/Right Split/ROW0*
X137800000Y-68800000D02*
X137700000Y-68900000D01*
X137800000Y-66780000D02*
X46864851Y-66780000D01*
X137800000Y-66780000D02*
X137800000Y-68800000D01*
G04 #@! TO.N,/Right Split/ROW5*
X195830151Y-159845641D02*
X195830151Y-160314700D01*
X76330151Y-161780000D02*
X70936151Y-167174000D01*
X198960151Y-83100000D02*
X197130151Y-84930000D01*
X194164851Y-158180341D02*
X195830151Y-159845641D01*
X195830151Y-160314700D02*
X194364851Y-161780000D01*
X197130151Y-142328529D02*
X194164851Y-145293829D01*
X198960151Y-71330000D02*
X198960151Y-83100000D01*
X140830151Y-63930000D02*
X141130151Y-64230000D01*
X28819151Y-165269000D02*
X28019051Y-164468900D01*
X197130151Y-84930000D02*
X197130151Y-142328529D01*
X191860151Y-64230000D02*
X198960151Y-71330000D01*
X140830151Y-49222500D02*
X140830151Y-63930000D01*
X48048230Y-165269000D02*
X28819151Y-165269000D01*
X141130151Y-64230000D02*
X191860151Y-64230000D01*
X194164851Y-145293829D02*
X194164851Y-158180341D01*
X136647651Y-45040000D02*
X140830151Y-49222500D01*
X70936151Y-167174000D02*
X49953230Y-167174000D01*
X194364851Y-161780000D02*
X76330151Y-161780000D01*
X49953230Y-167174000D02*
X48048230Y-165269000D01*
G04 #@! TO.N,/Right Split/ROW4*
X196730151Y-78655986D02*
X196730151Y-139580341D01*
X181100000Y-143150000D02*
X181850000Y-143900000D01*
X140530151Y-64630000D02*
X185630387Y-64630000D01*
X134107651Y-45040000D02*
X134107651Y-49554314D01*
X156100000Y-142780000D02*
X156100000Y-142800000D01*
X181850000Y-143900000D02*
X189800000Y-143900000D01*
X181100000Y-142795641D02*
X181100000Y-143150000D01*
X140330151Y-64430000D02*
X140530151Y-64630000D01*
X157100000Y-143800000D02*
X167580000Y-143800000D01*
X168600000Y-142780000D02*
X176330151Y-142780000D01*
X167580000Y-143800000D02*
X168600000Y-142780000D01*
X176330151Y-142780000D02*
X176345792Y-142795641D01*
X134107651Y-49554314D02*
X140330151Y-55776815D01*
X196114851Y-140195641D02*
X196730151Y-139580341D01*
X140330151Y-55776815D02*
X140330151Y-64430000D01*
X156100000Y-142800000D02*
X157100000Y-143800000D01*
X196330151Y-78255985D02*
X196730151Y-78655986D01*
X185630387Y-64630000D02*
X196330151Y-75329764D01*
X196330151Y-75329764D02*
X196330151Y-78255985D01*
X190914851Y-142795641D02*
X193514851Y-140195641D01*
X193514851Y-140195641D02*
X196114851Y-140195641D01*
X51714851Y-142780000D02*
X156100000Y-142780000D01*
X176345792Y-142795641D02*
X181100000Y-142795641D01*
X190904359Y-142795641D02*
X190914851Y-142795641D01*
X189800000Y-143900000D02*
X190904359Y-142795641D01*
G04 #@! TO.N,/Right Split/GND*
D27*
X82064851Y-64945641D02*
X91342010Y-64945641D01*
X104917651Y-43790000D02*
X94717651Y-43790000D01*
X136914851Y-64395641D02*
X133143292Y-64395641D01*
X130317651Y-43790000D02*
X120117651Y-43790000D01*
X95442651Y-47015000D02*
X93467651Y-45040000D01*
X118867651Y-62820000D02*
X120117651Y-64070000D01*
X199714851Y-70045641D02*
X199364851Y-70045641D01*
X117617651Y-64070000D02*
X118867651Y-62820000D01*
X120117651Y-64070000D02*
X130317651Y-64070000D01*
X133143292Y-64395641D02*
X131567651Y-62820000D01*
D28*
X45010151Y-45880000D02*
X45010151Y-50060000D01*
X53650151Y-45880000D02*
X53650151Y-50060000D01*
D27*
X104917651Y-64070000D02*
X106167651Y-62820000D01*
X94717651Y-43790000D02*
X93467651Y-45040000D01*
X118867651Y-45040000D02*
X117617651Y-43790000D01*
X106167651Y-62820000D02*
X107417651Y-64070000D01*
D28*
X56409510Y-43120641D02*
X91548292Y-43120641D01*
D27*
X117617651Y-43790000D02*
X107417651Y-43790000D01*
D28*
X91548292Y-43120641D02*
X93467651Y-45040000D01*
D27*
X94717651Y-64070000D02*
X104917651Y-64070000D01*
X120117651Y-43790000D02*
X118867651Y-45040000D01*
X106167651Y-45040000D02*
X104917651Y-43790000D01*
X45830151Y-63240000D02*
X80359210Y-63240000D01*
X199364851Y-70045641D02*
X193714851Y-64395641D01*
X130317651Y-64070000D02*
X131567651Y-62820000D01*
X95914851Y-47015000D02*
X95442651Y-47015000D01*
X80359210Y-63240000D02*
X82064851Y-64945641D01*
X91342010Y-64945641D02*
X93467651Y-62820000D01*
D28*
X56409510Y-43120641D02*
X53650151Y-45880000D01*
D27*
X107417651Y-43790000D02*
X106167651Y-45040000D01*
X107417651Y-64070000D02*
X117617651Y-64070000D01*
X93467651Y-62820000D02*
X94717651Y-64070000D01*
X131567651Y-45040000D02*
X130317651Y-43790000D01*
G04 #@! TO.N,/Right Split/ROW3*
D26*
X195564851Y-121595641D02*
X195479392Y-121681100D01*
X195564851Y-121595641D02*
X195664851Y-121595641D01*
X154114680Y-122495470D02*
X152830151Y-123780000D01*
X129027651Y-45040000D02*
X139830151Y-55842500D01*
X154929051Y-121681100D02*
X154114680Y-122495470D01*
X180729915Y-65030000D02*
X189629015Y-73929100D01*
X196314851Y-120945641D02*
X196330151Y-120945641D01*
X139830151Y-55842500D02*
X139830151Y-64864314D01*
X195664851Y-121595641D02*
X196314851Y-120945641D01*
X195479392Y-121681100D02*
X154929051Y-121681100D01*
X189629015Y-73929100D02*
X191437580Y-73929100D01*
X191437580Y-73929100D02*
X196330151Y-78821671D01*
X139830151Y-64864314D02*
X139995837Y-65030000D01*
X196330151Y-78821671D02*
X196330151Y-120945641D01*
X152830151Y-123780000D02*
X42314851Y-123780000D01*
X139995837Y-65030000D02*
X180729915Y-65030000D01*
G04 #@! TO.N,/Right Split/ROW2*
X193114851Y-104780000D02*
X193345792Y-104780000D01*
X139330151Y-57882500D02*
X139330151Y-64930000D01*
X139830151Y-65430000D02*
X179474926Y-65430000D01*
X52864851Y-104780000D02*
X158130000Y-104780000D01*
X179474926Y-65430000D02*
X195930151Y-81885225D01*
X158130000Y-104780000D02*
X159150000Y-105800000D01*
X193114851Y-104780000D02*
X171650000Y-104780000D01*
X126487651Y-45040000D02*
X139330151Y-57882500D01*
X55514851Y-104780000D02*
X52864851Y-104780000D01*
X195930151Y-81885225D02*
X195930151Y-102195641D01*
X139330151Y-64930000D02*
X139830151Y-65430000D01*
X170630000Y-105800000D02*
X171650000Y-104780000D01*
X195330151Y-102795641D02*
X195930151Y-102195641D01*
X52864851Y-104780000D02*
X37464851Y-104780000D01*
X193345792Y-104780000D02*
X195330151Y-102795641D01*
X159150000Y-105800000D02*
X170630000Y-105800000D01*
G04 #@! TO.N,/Right Split/ROW1*
X63350000Y-87300000D02*
X62700000Y-86650000D01*
X172599051Y-83581100D02*
X176930151Y-79250000D01*
X185150000Y-81700000D02*
X184750000Y-81700000D01*
X62700000Y-86650000D02*
X48334851Y-86650000D01*
X65380000Y-87300000D02*
X63350000Y-87300000D01*
X157330151Y-85780000D02*
X158639680Y-84470470D01*
X159529051Y-83581100D02*
X172599051Y-83581100D01*
X123947651Y-45040000D02*
X138830151Y-59922500D01*
X138830151Y-59922500D02*
X138830151Y-64995685D01*
X158639680Y-84470470D02*
X159529051Y-83581100D01*
X177080151Y-79200000D02*
X176930151Y-79050000D01*
X176329415Y-65930736D02*
X176930151Y-66531471D01*
X66900000Y-85780000D02*
X65380000Y-87300000D01*
X139765202Y-65930736D02*
X176329415Y-65930736D01*
X176930151Y-79250000D02*
X176930151Y-79050000D01*
X187031100Y-83581100D02*
X185150000Y-81700000D01*
X184750000Y-81700000D02*
X182250000Y-79200000D01*
X193131251Y-83581100D02*
X187031100Y-83581100D01*
X66900000Y-85780000D02*
X157330151Y-85780000D01*
X48334851Y-86650000D02*
X47464851Y-85780000D01*
X138830151Y-64995685D02*
X139765202Y-65930736D01*
X182250000Y-79200000D02*
X177080151Y-79200000D01*
X176930151Y-66531471D02*
X176930151Y-79050000D01*
G04 #@! TO.N,/Right Split/ROW0*
X188164851Y-66245641D02*
X191114851Y-66245641D01*
X121407651Y-45040000D02*
X138330151Y-61962500D01*
X138330151Y-61962500D02*
X138330151Y-66780000D01*
X174414851Y-66780000D02*
X137800000Y-66780000D01*
X191114851Y-66245641D02*
X191814851Y-66945641D01*
G04 #@! TO.N,/Right Split/RX*
X90927651Y-62820000D02*
X87853292Y-59745641D01*
X87853292Y-59745641D02*
X55864851Y-59745641D01*
X55864851Y-59745641D02*
X51864851Y-55745641D01*
G04 #@! TO.N,/Right Split/SDA*
X95564851Y-52745641D02*
X94114851Y-51295641D01*
X50364851Y-60154700D02*
X45830151Y-55620000D01*
X94114851Y-51295641D02*
X81214851Y-51295641D01*
X50364851Y-60845641D02*
X50364851Y-60154700D01*
G04 #@! TO.N,/Right Split/SCL*
X94973292Y-59245641D02*
X98547651Y-62820000D01*
X58314851Y-51345641D02*
X66214851Y-59245641D01*
X66214851Y-59245641D02*
X94973292Y-59245641D01*
G04 #@! TO.N,/Right Split/A*
X190214851Y-81295641D02*
X185095641Y-81295641D01*
X177680151Y-78400000D02*
X177530151Y-78550000D01*
X176330151Y-78739342D02*
X174123852Y-80945641D01*
X174123852Y-80945641D02*
X118814851Y-80945641D01*
X106214851Y-68345641D02*
X106214851Y-67745641D01*
X118814851Y-80945641D02*
X106214851Y-68345641D01*
X185095641Y-81295641D02*
X182200000Y-78400000D01*
X182200000Y-78400000D02*
X177680151Y-78400000D01*
G04 #@! TO.N,/Right Split/B*
X124964851Y-80045641D02*
X174104359Y-80045641D01*
X176200000Y-77950000D02*
X174104359Y-80045641D01*
X193964851Y-82345641D02*
X194664851Y-81645641D01*
X107564851Y-67545641D02*
X112464851Y-67545641D01*
X186864851Y-82345641D02*
X193964851Y-82345641D01*
X112464851Y-67545641D02*
X124964851Y-80045641D01*
G04 #@! TO.N,/Right Split/3V3*
D27*
X126487651Y-62820000D02*
X121563292Y-57895641D01*
X121563292Y-57895641D02*
X67414851Y-57895641D01*
G04 #@! TO.N,/Right Split/VSYS*
D28*
X119177651Y-47890000D02*
X66664851Y-47890000D01*
X134107651Y-62820000D02*
X119177651Y-47890000D01*
G04 #@! TO.N,/Left Split/A*
D26*
X303767500Y-59930000D02*
X313767500Y-49930000D01*
X229372500Y-64930000D02*
X275267500Y-64930000D01*
X275267500Y-64930000D02*
X275267500Y-62430000D01*
X277767500Y-59930000D02*
X303767500Y-59930000D01*
X313767500Y-49930000D02*
X313747500Y-49910000D01*
X275267500Y-62430000D02*
X277767500Y-59930000D01*
X221672500Y-72630000D02*
X229372500Y-64930000D01*
X313747500Y-49910000D02*
X313747500Y-44930000D01*
G04 #@! TO.N,/Left Split/B*
X311207500Y-51490000D02*
X311207500Y-44930000D01*
X220372500Y-71330000D02*
X227272500Y-64430000D01*
X303267500Y-59430000D02*
X311207500Y-51490000D01*
X221672500Y-77630000D02*
X220372500Y-76330000D01*
X274767500Y-62364315D02*
X277701815Y-59430000D01*
X220372500Y-76330000D02*
X220372500Y-71330000D01*
X277701815Y-59430000D02*
X303267500Y-59430000D01*
X274767500Y-64430000D02*
X274767500Y-62364315D01*
X227272500Y-64430000D02*
X274767500Y-64430000D01*
G04 #@! TO.N,/Left Split/GND*
D28*
X307292500Y-43555000D02*
X297342500Y-43555000D01*
X294592500Y-43555000D02*
X284642500Y-43555000D01*
X295967500Y-44930000D02*
X294592500Y-43555000D01*
X360947500Y-45880000D02*
X360947500Y-50060000D01*
X284642500Y-43555000D02*
X283267500Y-44930000D01*
X369587500Y-45880000D02*
X369587500Y-50060000D01*
X319992500Y-43555000D02*
X310042500Y-43555000D01*
X321367500Y-44930000D02*
X319992500Y-43555000D01*
X297342500Y-43555000D02*
X295967500Y-44930000D01*
X310042500Y-43555000D02*
X308667500Y-44930000D01*
X308667500Y-44930000D02*
X307292500Y-43555000D01*
D26*
X360947500Y-50060000D02*
X361102500Y-50060000D01*
G04 #@! TO.N,/Left Split/3V3*
D27*
X288347500Y-44930000D02*
X297997500Y-54580000D01*
D26*
X333687500Y-60280000D02*
X333767500Y-60200000D01*
X333767500Y-60040000D02*
X333767500Y-60200000D01*
D27*
X297997500Y-54580000D02*
X306417500Y-54580000D01*
G04 #@! TO.N,/Left Split/ROW0*
D26*
X303587500Y-65460000D02*
X302767500Y-66280000D01*
X316567500Y-66380000D02*
X316717500Y-66230000D01*
X303587500Y-65460000D02*
X303587500Y-62710000D01*
X275167500Y-66280000D02*
X255617500Y-66280000D01*
X304507500Y-66380000D02*
X312517500Y-66380000D01*
X316717500Y-66230000D02*
X331467500Y-66230000D01*
X350417500Y-66380000D02*
X350517500Y-66480000D01*
X344067500Y-66380000D02*
X350417500Y-66380000D01*
X331467500Y-66230000D02*
X331617500Y-66380000D01*
X302767500Y-66280000D02*
X297417500Y-66280000D01*
X303587500Y-65460000D02*
X304507500Y-66380000D01*
X289417500Y-66280000D02*
X278417500Y-66280000D01*
G04 #@! TO.N,/Left Split/ROW1*
X353016029Y-65680000D02*
X353367500Y-66031471D01*
X353367500Y-83330000D02*
X352767500Y-83930000D01*
X353367500Y-66031471D02*
X353367500Y-83330000D01*
X253150000Y-88500000D02*
X256785500Y-88500000D01*
X238267500Y-84030000D02*
X248680000Y-84030000D01*
X334500000Y-88850000D02*
X339420000Y-83930000D01*
X314767500Y-83930000D02*
X327980000Y-83930000D01*
X306127500Y-62710000D02*
X309097500Y-65680000D01*
X295767500Y-83930000D02*
X276767500Y-83930000D01*
X256785500Y-88500000D02*
X256850000Y-88564500D01*
X256850000Y-88564500D02*
X266885500Y-88564500D01*
X248680000Y-84030000D02*
X253150000Y-88500000D01*
X220767500Y-83930000D02*
X238167500Y-83930000D01*
X271520000Y-83930000D02*
X276767500Y-83930000D01*
X238167500Y-83930000D02*
X238267500Y-84030000D01*
X266885500Y-88564500D02*
X271520000Y-83930000D01*
X327980000Y-83930000D02*
X332900000Y-88850000D01*
X309097500Y-65680000D02*
X353016029Y-65680000D01*
X339420000Y-83930000D02*
X352767500Y-83930000D01*
X332900000Y-88850000D02*
X334500000Y-88850000D01*
X314767500Y-83930000D02*
X295767500Y-83930000D01*
G04 #@! TO.N,/Left Split/ROW2*
X286267500Y-103030000D02*
X267267500Y-103030000D01*
X286267500Y-103030000D02*
X286330000Y-103030000D01*
X343267500Y-103030000D02*
X324267500Y-103030000D01*
X324267500Y-103030000D02*
X305267500Y-103030000D01*
X313777500Y-65280000D02*
X353181715Y-65280000D01*
X353767500Y-65865786D02*
X353767500Y-94280000D01*
X345017500Y-103030000D02*
X343267500Y-103030000D01*
X353767500Y-94280000D02*
X345017500Y-103030000D01*
X311207500Y-62710000D02*
X313777500Y-65280000D01*
X267267500Y-103030000D02*
X238767500Y-103030000D01*
X353181715Y-65280000D02*
X353767500Y-65865786D01*
X238767500Y-103030000D02*
X220717500Y-103030000D01*
X289150000Y-105850000D02*
X302447500Y-105850000D01*
X286330000Y-103030000D02*
X289150000Y-105850000D01*
X302447500Y-105850000D02*
X305267500Y-103030000D01*
G04 #@! TO.N,/Left Split/ROW3*
X355267500Y-99430000D02*
X345767500Y-108930000D01*
X290767500Y-122130000D02*
X309767500Y-122130000D01*
X345767500Y-108930000D02*
X345767500Y-119930000D01*
X313747500Y-62710000D02*
X315917500Y-64880000D01*
X345467500Y-120430000D02*
X345467500Y-120230000D01*
X309767500Y-122130000D02*
X329267500Y-122130000D01*
X315917500Y-64880000D02*
X353347401Y-64880001D01*
X343767500Y-122130000D02*
X345467500Y-120430000D01*
X271817500Y-122130000D02*
X290767500Y-122130000D01*
X353347401Y-64880001D02*
X355267500Y-66800100D01*
X220767500Y-122130000D02*
X238767500Y-122130000D01*
X355267500Y-66800100D02*
X355267500Y-99430000D01*
X345467500Y-120230000D02*
X345767500Y-119930000D01*
X238767500Y-122130000D02*
X271817500Y-122130000D01*
X329267500Y-122130000D02*
X343767500Y-122130000D01*
G04 #@! TO.N,/Left Split/ROW4*
X319767500Y-141230000D02*
X300317500Y-141230000D01*
X356517500Y-141880000D02*
X349267500Y-134630000D01*
X338717500Y-141230000D02*
X319767500Y-141230000D01*
X360267500Y-107930000D02*
X360267500Y-114930000D01*
X318057500Y-64480000D02*
X353513087Y-64480001D01*
X349267500Y-125930000D02*
X349267500Y-134280000D01*
X342317500Y-141230000D02*
X338717500Y-141230000D01*
X349267500Y-134630000D02*
X349267500Y-134280000D01*
X243267500Y-141280000D02*
X238767500Y-141280000D01*
X316287500Y-62710000D02*
X318057500Y-64480000D01*
X355767500Y-103430000D02*
X360267500Y-107930000D01*
X355767500Y-66734414D02*
X355767500Y-103430000D01*
X275717500Y-141230000D02*
X274367500Y-139880000D01*
X360267500Y-114930000D02*
X349267500Y-125930000D01*
X281267500Y-141230000D02*
X275717500Y-141230000D01*
X244667500Y-139880000D02*
X243267500Y-141280000D01*
X349267500Y-134280000D02*
X342317500Y-141230000D01*
X300317500Y-141230000D02*
X281267500Y-141230000D01*
X353513087Y-64480001D02*
X355767500Y-66734414D01*
X238767500Y-141280000D02*
X220767500Y-141280000D01*
X274367500Y-139880000D02*
X244667500Y-139880000D01*
G04 #@! TO.N,/Left Split/ROW5*
X361867500Y-102130000D02*
X360667500Y-103330000D01*
X238767500Y-160330000D02*
X220767500Y-160330000D01*
X366067500Y-102130000D02*
X361867500Y-102130000D01*
X253850000Y-160950000D02*
X251950000Y-162850000D01*
X311167500Y-160330000D02*
X286267500Y-160330000D01*
X241400000Y-160330000D02*
X238767500Y-160330000D01*
X359267500Y-143431471D02*
X359267500Y-147430000D01*
X311867500Y-160330000D02*
X311167500Y-160330000D01*
X267220000Y-162800000D02*
X264750000Y-160330000D01*
X277870000Y-160330000D02*
X275400000Y-162800000D01*
X355767500Y-157430000D02*
X354267500Y-158930000D01*
X350267500Y-126430000D02*
X350267500Y-134431471D01*
X318827500Y-62710000D02*
X320197500Y-64080000D01*
X354267500Y-158930000D02*
X313267500Y-158930000D01*
X350267500Y-134431471D02*
X359267500Y-143431471D01*
X251950000Y-162850000D02*
X243920000Y-162850000D01*
X360667500Y-116030000D02*
X350267500Y-126430000D01*
X262317500Y-160330000D02*
X255050000Y-160330000D01*
X286267500Y-160330000D02*
X277870000Y-160330000D01*
X254430000Y-160950000D02*
X255050000Y-160330000D01*
X359267500Y-147430000D02*
X355767500Y-150930000D01*
X360667500Y-103330000D02*
X360667500Y-116030000D01*
X365917500Y-64080000D02*
X369767500Y-67930000D01*
X243920000Y-162850000D02*
X241400000Y-160330000D01*
X275400000Y-162800000D02*
X267220000Y-162800000D01*
X320197500Y-64080000D02*
X365917500Y-64080000D01*
X313267500Y-158930000D02*
X311867500Y-160330000D01*
X264750000Y-160330000D02*
X262317500Y-160330000D01*
X355767500Y-150930000D02*
X355767500Y-157430000D01*
X253850000Y-160950000D02*
X254430000Y-160950000D01*
X369767500Y-67930000D02*
X369767500Y-98430000D01*
X369767500Y-98430000D02*
X366067500Y-102130000D01*
G04 #@! TO.N,/Left Split/RX*
X325007500Y-43830000D02*
X361267500Y-43830000D01*
X323907500Y-44930000D02*
X325007500Y-43830000D01*
X361267500Y-43830000D02*
X365617500Y-48180000D01*
G04 #@! TO.N,Net-(F2-Pad1)*
D28*
X51814851Y-52745641D02*
X46864851Y-52745641D01*
G04 #@! TO.N,/Left Split/TX*
D26*
X350967500Y-46414744D02*
X350967500Y-45780000D01*
X350967500Y-45780000D02*
X350117500Y-44930000D01*
X332517500Y-44930000D02*
X350117500Y-44930000D01*
G04 #@! TO.N,Net-(F3-Pad1)*
D28*
X359817500Y-53130000D02*
X362817500Y-53130000D01*
X358667500Y-51980000D02*
X359817500Y-53130000D01*
X362817500Y-53130000D02*
X366917500Y-53130000D01*
X358667500Y-47930000D02*
X358667500Y-51980000D01*
G04 #@! TO.N,/Right Split/TX*
D26*
X51264851Y-55994170D02*
X51264851Y-54245641D01*
X79164851Y-60445641D02*
X55716322Y-60445641D01*
X55716322Y-60445641D02*
X51264851Y-55994170D01*
G04 #@! TD*
M02*
